ISO-10303-21;
HEADER;
/* Generated by software containing ST-Developer
 * from STEP Tools, Inc. (www.steptools.com) 
 */

FILE_DESCRIPTION(
/* description */ (''),
/* implementation_level */ '2;1');

FILE_NAME(
/* name */ 'Liczba 1.step',
/* time_stamp */ '2026-09-04T13:57:24+02:00',
/* author */ (''),
/* organization */ (''),
/* preprocessor_version */ 'ST-DEVELOPER v20.1',
/* originating_system */ 'Autodesk Translation Framework v15.8.0.0',
/* authorisation */ '');

FILE_SCHEMA (('AUTOMOTIVE_DESIGN { 1 0 10303 214 3 1 1 }'));
ENDSEC;

DATA;
#10=MECHANICAL_DESIGN_GEOMETRIC_PRESENTATION_REPRESENTATION('',(#28,#29,
#30),#861);
#11=ITEM_DEFINED_TRANSFORMATION($,$,#521,#547);
#12=(
REPRESENTATION_RELATIONSHIP($,$,#872,#871)
REPRESENTATION_RELATIONSHIP_WITH_TRANSFORMATION(#11)
SHAPE_REPRESENTATION_RELATIONSHIP()
);
#13=CONTEXT_DEPENDENT_SHAPE_REPRESENTATION(#12,#870);
#14=NEXT_ASSEMBLY_USAGE_OCCURRENCE('try1 v1:1','try1 v1:1','try1 v1:1',
#874,#875,'try1 v1:1');
#15=B_SPLINE_CURVE_WITH_KNOTS('',3,(#780,#781,#782,#783,#784),
 .UNSPECIFIED.,.F.,.F.,(4,1,4),(0.,0.428411734060195,0.866465389293231),
 .UNSPECIFIED.);
#16=B_SPLINE_CURVE_WITH_KNOTS('',3,(#786,#787,#788,#789,#790),
 .UNSPECIFIED.,.F.,.F.,(4,1,4),(-0.866465389293231,-0.428411734060195,0.),
 .UNSPECIFIED.);
#17=B_SPLINE_CURVE_WITH_KNOTS('',3,(#809,#810,#811,#812,#813),
 .UNSPECIFIED.,.F.,.F.,(4,1,4),(0.,0.257808442493983,0.564725691879667),
 .UNSPECIFIED.);
#18=B_SPLINE_CURVE_WITH_KNOTS('',3,(#815,#816,#817,#818,#819),
 .UNSPECIFIED.,.F.,.F.,(4,1,4),(-0.564725691879667,-0.257808442493983,0.),
 .UNSPECIFIED.);
#19=B_SPLINE_CURVE_WITH_KNOTS('',3,(#832,#833,#834,#835,#836),
 .UNSPECIFIED.,.F.,.F.,(4,1,4),(0.,0.315449549462932,0.608240955990186),
 .UNSPECIFIED.);
#20=B_SPLINE_CURVE_WITH_KNOTS('',3,(#838,#839,#840,#841,#842),
 .UNSPECIFIED.,.F.,.F.,(4,1,4),(-0.608240955990186,-0.315449549462932,0.),
 .UNSPECIFIED.);
#21=B_SPLINE_SURFACE_WITH_KNOTS('',3,1,((#769,#770),(#771,#772),(#773,#774),
(#775,#776),(#777,#778)),.UNSPECIFIED.,.F.,.F.,.F.,(4,1,4),(2,2),(-0.866465389293231,
-0.428411734060195,0.),(0.,0.5),.UNSPECIFIED.);
#22=B_SPLINE_SURFACE_WITH_KNOTS('',3,1,((#798,#799),(#800,#801),(#802,#803),
(#804,#805),(#806,#807)),.UNSPECIFIED.,.F.,.F.,.F.,(4,1,4),(2,2),(-0.564725691879667,
-0.257808442493983,0.),(0.,0.5),.UNSPECIFIED.);
#23=B_SPLINE_SURFACE_WITH_KNOTS('',3,1,((#821,#822),(#823,#824),(#825,#826),
(#827,#828),(#829,#830)),.UNSPECIFIED.,.F.,.F.,.F.,(4,1,4),(2,2),(-0.608240955990186,
-0.315449549462932,0.),(0.,0.5),.UNSPECIFIED.);
#24=SHAPE_REPRESENTATION_RELATIONSHIP('SRR','None',#872,#26);
#25=SHAPE_REPRESENTATION_RELATIONSHIP('SRR','None',#871,#27);
#26=ADVANCED_BREP_SHAPE_REPRESENTATION('',(#31,#32),#860);
#27=ADVANCED_BREP_SHAPE_REPRESENTATION('',(#33),#859);
#28=STYLED_ITEM('',(#886),#31);
#29=STYLED_ITEM('',(#886),#32);
#30=STYLED_ITEM('',(#885),#33);
#31=MANIFOLD_SOLID_BREP('Bry\X2\0142\X0\a1',#505);
#32=MANIFOLD_SOLID_BREP('Bry\X2\0142\X0\a2',#506);
#33=MANIFOLD_SOLID_BREP('Bry\X2\0142\X0\a1',#507);
#34=FACE_OUTER_BOUND('',#62,.T.);
#35=FACE_OUTER_BOUND('',#63,.T.);
#36=FACE_OUTER_BOUND('',#64,.T.);
#37=FACE_OUTER_BOUND('',#65,.T.);
#38=FACE_OUTER_BOUND('',#66,.T.);
#39=FACE_OUTER_BOUND('',#67,.T.);
#40=FACE_OUTER_BOUND('',#68,.T.);
#41=FACE_OUTER_BOUND('',#69,.T.);
#42=FACE_OUTER_BOUND('',#70,.T.);
#43=FACE_OUTER_BOUND('',#71,.T.);
#44=FACE_OUTER_BOUND('',#72,.T.);
#45=FACE_OUTER_BOUND('',#73,.T.);
#46=FACE_OUTER_BOUND('',#74,.T.);
#47=FACE_OUTER_BOUND('',#75,.T.);
#48=FACE_OUTER_BOUND('',#76,.T.);
#49=FACE_OUTER_BOUND('',#77,.T.);
#50=FACE_OUTER_BOUND('',#78,.T.);
#51=FACE_OUTER_BOUND('',#79,.T.);
#52=FACE_OUTER_BOUND('',#80,.T.);
#53=FACE_OUTER_BOUND('',#81,.T.);
#54=FACE_OUTER_BOUND('',#82,.T.);
#55=FACE_OUTER_BOUND('',#83,.T.);
#56=FACE_OUTER_BOUND('',#84,.T.);
#57=FACE_OUTER_BOUND('',#85,.T.);
#58=FACE_OUTER_BOUND('',#86,.T.);
#59=FACE_OUTER_BOUND('',#87,.T.);
#60=FACE_OUTER_BOUND('',#88,.T.);
#61=FACE_OUTER_BOUND('',#89,.T.);
#62=EDGE_LOOP('',(#320,#321,#322,#323,#324,#325,#326));
#63=EDGE_LOOP('',(#327,#328,#329,#330));
#64=EDGE_LOOP('',(#331,#332,#333,#334));
#65=EDGE_LOOP('',(#335,#336,#337,#338));
#66=EDGE_LOOP('',(#339,#340,#341,#342));
#67=EDGE_LOOP('',(#343,#344,#345,#346));
#68=EDGE_LOOP('',(#347,#348,#349,#350,#351,#352,#353));
#69=EDGE_LOOP('',(#354,#355,#356,#357));
#70=EDGE_LOOP('',(#358,#359,#360,#361));
#71=EDGE_LOOP('',(#362,#363,#364,#365,#366,#367,#368));
#72=EDGE_LOOP('',(#369,#370,#371,#372));
#73=EDGE_LOOP('',(#373,#374,#375,#376));
#74=EDGE_LOOP('',(#377,#378,#379,#380));
#75=EDGE_LOOP('',(#381,#382,#383,#384));
#76=EDGE_LOOP('',(#385,#386,#387,#388));
#77=EDGE_LOOP('',(#389,#390,#391,#392));
#78=EDGE_LOOP('',(#393,#394,#395,#396));
#79=EDGE_LOOP('',(#397,#398,#399,#400,#401,#402,#403));
#80=EDGE_LOOP('',(#404,#405,#406,#407));
#81=EDGE_LOOP('',(#408,#409,#410,#411));
#82=EDGE_LOOP('',(#412,#413,#414,#415));
#83=EDGE_LOOP('',(#416,#417,#418,#419));
#84=EDGE_LOOP('',(#420,#421,#422,#423));
#85=EDGE_LOOP('',(#424,#425,#426,#427));
#86=EDGE_LOOP('',(#428,#429,#430,#431));
#87=EDGE_LOOP('',(#432,#433,#434,#435));
#88=EDGE_LOOP('',(#436,#437,#438,#439,#440,#441,#442,#443));
#89=EDGE_LOOP('',(#444,#445,#446,#447,#448,#449,#450,#451));
#90=LINE('',#669,#150);
#91=LINE('',#671,#151);
#92=LINE('',#673,#152);
#93=LINE('',#675,#153);
#94=LINE('',#677,#154);
#95=LINE('',#679,#155);
#96=LINE('',#680,#156);
#97=LINE('',#683,#157);
#98=LINE('',#685,#158);
#99=LINE('',#686,#159);
#100=LINE('',#689,#160);
#101=LINE('',#690,#161);
#102=LINE('',#693,#162);
#103=LINE('',#694,#163);
#104=LINE('',#697,#164);
#105=LINE('',#698,#165);
#106=LINE('',#701,#166);
#107=LINE('',#702,#167);
#108=LINE('',#705,#168);
#109=LINE('',#706,#169);
#110=LINE('',#708,#170);
#111=LINE('',#713,#171);
#112=LINE('',#715,#172);
#113=LINE('',#717,#173);
#114=LINE('',#719,#174);
#115=LINE('',#721,#175);
#116=LINE('',#723,#176);
#117=LINE('',#724,#177);
#118=LINE('',#727,#178);
#119=LINE('',#729,#179);
#120=LINE('',#730,#180);
#121=LINE('',#733,#181);
#122=LINE('',#734,#182);
#123=LINE('',#737,#183);
#124=LINE('',#738,#184);
#125=LINE('',#741,#185);
#126=LINE('',#743,#186);
#127=LINE('',#744,#187);
#128=LINE('',#746,#188);
#129=LINE('',#749,#189);
#130=LINE('',#750,#190);
#131=LINE('',#752,#191);
#132=LINE('',#757,#192);
#133=LINE('',#759,#193);
#134=LINE('',#761,#194);
#135=LINE('',#762,#195);
#136=LINE('',#765,#196);
#137=LINE('',#767,#197);
#138=LINE('',#768,#198);
#139=LINE('',#791,#199);
#140=LINE('',#794,#200);
#141=LINE('',#796,#201);
#142=LINE('',#797,#202);
#143=LINE('',#820,#203);
#144=LINE('',#843,#204);
#145=LINE('',#846,#205);
#146=LINE('',#848,#206);
#147=LINE('',#849,#207);
#148=LINE('',#851,#208);
#149=LINE('',#852,#209);
#150=VECTOR('',#554,10.);
#151=VECTOR('',#555,10.);
#152=VECTOR('',#556,10.);
#153=VECTOR('',#557,10.);
#154=VECTOR('',#558,10.);
#155=VECTOR('',#559,10.);
#156=VECTOR('',#560,10.);
#157=VECTOR('',#563,10.);
#158=VECTOR('',#564,10.);
#159=VECTOR('',#565,10.);
#160=VECTOR('',#568,10.);
#161=VECTOR('',#569,10.);
#162=VECTOR('',#572,10.);
#163=VECTOR('',#573,10.);
#164=VECTOR('',#576,10.);
#165=VECTOR('',#577,10.);
#166=VECTOR('',#580,10.);
#167=VECTOR('',#581,10.);
#168=VECTOR('',#584,10.);
#169=VECTOR('',#585,10.);
#170=VECTOR('',#588,10.);
#171=VECTOR('',#593,10.);
#172=VECTOR('',#594,10.);
#173=VECTOR('',#595,10.);
#174=VECTOR('',#596,10.);
#175=VECTOR('',#597,10.);
#176=VECTOR('',#598,10.);
#177=VECTOR('',#599,10.);
#178=VECTOR('',#602,10.);
#179=VECTOR('',#603,10.);
#180=VECTOR('',#604,10.);
#181=VECTOR('',#607,10.);
#182=VECTOR('',#608,10.);
#183=VECTOR('',#611,10.);
#184=VECTOR('',#612,10.);
#185=VECTOR('',#615,10.);
#186=VECTOR('',#616,10.);
#187=VECTOR('',#617,10.);
#188=VECTOR('',#620,10.);
#189=VECTOR('',#623,10.);
#190=VECTOR('',#624,10.);
#191=VECTOR('',#627,10.);
#192=VECTOR('',#632,10.);
#193=VECTOR('',#633,10.);
#194=VECTOR('',#634,10.);
#195=VECTOR('',#635,10.);
#196=VECTOR('',#638,10.);
#197=VECTOR('',#639,10.);
#198=VECTOR('',#640,10.);
#199=VECTOR('',#641,10.);
#200=VECTOR('',#644,10.);
#201=VECTOR('',#645,10.);
#202=VECTOR('',#646,10.);
#203=VECTOR('',#647,10.);
#204=VECTOR('',#648,10.);
#205=VECTOR('',#651,10.);
#206=VECTOR('',#652,10.);
#207=VECTOR('',#653,10.);
#208=VECTOR('',#656,10.);
#209=VECTOR('',#657,10.);
#210=VERTEX_POINT('',#667);
#211=VERTEX_POINT('',#668);
#212=VERTEX_POINT('',#670);
#213=VERTEX_POINT('',#672);
#214=VERTEX_POINT('',#674);
#215=VERTEX_POINT('',#676);
#216=VERTEX_POINT('',#678);
#217=VERTEX_POINT('',#682);
#218=VERTEX_POINT('',#684);
#219=VERTEX_POINT('',#688);
#220=VERTEX_POINT('',#692);
#221=VERTEX_POINT('',#696);
#222=VERTEX_POINT('',#700);
#223=VERTEX_POINT('',#704);
#224=VERTEX_POINT('',#711);
#225=VERTEX_POINT('',#712);
#226=VERTEX_POINT('',#714);
#227=VERTEX_POINT('',#716);
#228=VERTEX_POINT('',#718);
#229=VERTEX_POINT('',#720);
#230=VERTEX_POINT('',#722);
#231=VERTEX_POINT('',#726);
#232=VERTEX_POINT('',#728);
#233=VERTEX_POINT('',#732);
#234=VERTEX_POINT('',#736);
#235=VERTEX_POINT('',#740);
#236=VERTEX_POINT('',#742);
#237=VERTEX_POINT('',#748);
#238=VERTEX_POINT('',#755);
#239=VERTEX_POINT('',#756);
#240=VERTEX_POINT('',#758);
#241=VERTEX_POINT('',#760);
#242=VERTEX_POINT('',#764);
#243=VERTEX_POINT('',#766);
#244=VERTEX_POINT('',#779);
#245=VERTEX_POINT('',#785);
#246=VERTEX_POINT('',#793);
#247=VERTEX_POINT('',#795);
#248=VERTEX_POINT('',#808);
#249=VERTEX_POINT('',#814);
#250=VERTEX_POINT('',#831);
#251=VERTEX_POINT('',#837);
#252=VERTEX_POINT('',#845);
#253=VERTEX_POINT('',#847);
#254=EDGE_CURVE('',#210,#211,#90,.T.);
#255=EDGE_CURVE('',#212,#210,#91,.T.);
#256=EDGE_CURVE('',#213,#212,#92,.T.);
#257=EDGE_CURVE('',#214,#213,#93,.T.);
#258=EDGE_CURVE('',#215,#214,#94,.T.);
#259=EDGE_CURVE('',#216,#215,#95,.T.);
#260=EDGE_CURVE('',#211,#216,#96,.T.);
#261=EDGE_CURVE('',#217,#211,#97,.T.);
#262=EDGE_CURVE('',#218,#217,#98,.T.);
#263=EDGE_CURVE('',#210,#218,#99,.T.);
#264=EDGE_CURVE('',#219,#216,#100,.T.);
#265=EDGE_CURVE('',#217,#219,#101,.T.);
#266=EDGE_CURVE('',#220,#215,#102,.T.);
#267=EDGE_CURVE('',#219,#220,#103,.T.);
#268=EDGE_CURVE('',#218,#221,#104,.T.);
#269=EDGE_CURVE('',#221,#212,#105,.T.);
#270=EDGE_CURVE('',#222,#221,#106,.T.);
#271=EDGE_CURVE('',#222,#213,#107,.T.);
#272=EDGE_CURVE('',#220,#223,#108,.T.);
#273=EDGE_CURVE('',#223,#222,#109,.T.);
#274=EDGE_CURVE('',#223,#214,#110,.T.);
#275=EDGE_CURVE('',#224,#225,#111,.T.);
#276=EDGE_CURVE('',#226,#224,#112,.T.);
#277=EDGE_CURVE('',#227,#226,#113,.T.);
#278=EDGE_CURVE('',#228,#227,#114,.T.);
#279=EDGE_CURVE('',#229,#228,#115,.T.);
#280=EDGE_CURVE('',#230,#229,#116,.T.);
#281=EDGE_CURVE('',#225,#230,#117,.T.);
#282=EDGE_CURVE('',#231,#225,#118,.T.);
#283=EDGE_CURVE('',#232,#231,#119,.T.);
#284=EDGE_CURVE('',#224,#232,#120,.T.);
#285=EDGE_CURVE('',#230,#233,#121,.T.);
#286=EDGE_CURVE('',#233,#231,#122,.T.);
#287=EDGE_CURVE('',#229,#234,#123,.T.);
#288=EDGE_CURVE('',#233,#234,#124,.T.);
#289=EDGE_CURVE('',#226,#235,#125,.T.);
#290=EDGE_CURVE('',#236,#235,#126,.T.);
#291=EDGE_CURVE('',#227,#236,#127,.T.);
#292=EDGE_CURVE('',#235,#232,#128,.T.);
#293=EDGE_CURVE('',#228,#237,#129,.T.);
#294=EDGE_CURVE('',#234,#237,#130,.T.);
#295=EDGE_CURVE('',#237,#236,#131,.T.);
#296=EDGE_CURVE('',#238,#239,#132,.T.);
#297=EDGE_CURVE('',#238,#240,#133,.T.);
#298=EDGE_CURVE('',#241,#240,#134,.T.);
#299=EDGE_CURVE('',#239,#241,#135,.T.);
#300=EDGE_CURVE('',#239,#242,#136,.T.);
#301=EDGE_CURVE('',#243,#241,#137,.T.);
#302=EDGE_CURVE('',#242,#243,#138,.T.);
#303=EDGE_CURVE('',#242,#244,#15,.T.);
#304=EDGE_CURVE('',#245,#243,#16,.T.);
#305=EDGE_CURVE('',#244,#245,#139,.T.);
#306=EDGE_CURVE('',#244,#246,#140,.T.);
#307=EDGE_CURVE('',#247,#245,#141,.T.);
#308=EDGE_CURVE('',#246,#247,#142,.T.);
#309=EDGE_CURVE('',#246,#248,#17,.T.);
#310=EDGE_CURVE('',#249,#247,#18,.T.);
#311=EDGE_CURVE('',#248,#249,#143,.T.);
#312=EDGE_CURVE('',#248,#250,#19,.T.);
#313=EDGE_CURVE('',#251,#249,#20,.T.);
#314=EDGE_CURVE('',#250,#251,#144,.T.);
#315=EDGE_CURVE('',#250,#252,#145,.T.);
#316=EDGE_CURVE('',#253,#251,#146,.T.);
#317=EDGE_CURVE('',#252,#253,#147,.T.);
#318=EDGE_CURVE('',#252,#238,#148,.T.);
#319=EDGE_CURVE('',#240,#253,#149,.T.);
#320=ORIENTED_EDGE('',*,*,#254,.F.);
#321=ORIENTED_EDGE('',*,*,#255,.F.);
#322=ORIENTED_EDGE('',*,*,#256,.F.);
#323=ORIENTED_EDGE('',*,*,#257,.F.);
#324=ORIENTED_EDGE('',*,*,#258,.F.);
#325=ORIENTED_EDGE('',*,*,#259,.F.);
#326=ORIENTED_EDGE('',*,*,#260,.F.);
#327=ORIENTED_EDGE('',*,*,#254,.T.);
#328=ORIENTED_EDGE('',*,*,#261,.F.);
#329=ORIENTED_EDGE('',*,*,#262,.F.);
#330=ORIENTED_EDGE('',*,*,#263,.F.);
#331=ORIENTED_EDGE('',*,*,#260,.T.);
#332=ORIENTED_EDGE('',*,*,#264,.F.);
#333=ORIENTED_EDGE('',*,*,#265,.F.);
#334=ORIENTED_EDGE('',*,*,#261,.T.);
#335=ORIENTED_EDGE('',*,*,#259,.T.);
#336=ORIENTED_EDGE('',*,*,#266,.F.);
#337=ORIENTED_EDGE('',*,*,#267,.F.);
#338=ORIENTED_EDGE('',*,*,#264,.T.);
#339=ORIENTED_EDGE('',*,*,#255,.T.);
#340=ORIENTED_EDGE('',*,*,#263,.T.);
#341=ORIENTED_EDGE('',*,*,#268,.T.);
#342=ORIENTED_EDGE('',*,*,#269,.T.);
#343=ORIENTED_EDGE('',*,*,#256,.T.);
#344=ORIENTED_EDGE('',*,*,#269,.F.);
#345=ORIENTED_EDGE('',*,*,#270,.F.);
#346=ORIENTED_EDGE('',*,*,#271,.T.);
#347=ORIENTED_EDGE('',*,*,#268,.F.);
#348=ORIENTED_EDGE('',*,*,#262,.T.);
#349=ORIENTED_EDGE('',*,*,#265,.T.);
#350=ORIENTED_EDGE('',*,*,#267,.T.);
#351=ORIENTED_EDGE('',*,*,#272,.T.);
#352=ORIENTED_EDGE('',*,*,#273,.T.);
#353=ORIENTED_EDGE('',*,*,#270,.T.);
#354=ORIENTED_EDGE('',*,*,#258,.T.);
#355=ORIENTED_EDGE('',*,*,#274,.F.);
#356=ORIENTED_EDGE('',*,*,#272,.F.);
#357=ORIENTED_EDGE('',*,*,#266,.T.);
#358=ORIENTED_EDGE('',*,*,#257,.T.);
#359=ORIENTED_EDGE('',*,*,#271,.F.);
#360=ORIENTED_EDGE('',*,*,#273,.F.);
#361=ORIENTED_EDGE('',*,*,#274,.T.);
#362=ORIENTED_EDGE('',*,*,#275,.F.);
#363=ORIENTED_EDGE('',*,*,#276,.F.);
#364=ORIENTED_EDGE('',*,*,#277,.F.);
#365=ORIENTED_EDGE('',*,*,#278,.F.);
#366=ORIENTED_EDGE('',*,*,#279,.F.);
#367=ORIENTED_EDGE('',*,*,#280,.F.);
#368=ORIENTED_EDGE('',*,*,#281,.F.);
#369=ORIENTED_EDGE('',*,*,#275,.T.);
#370=ORIENTED_EDGE('',*,*,#282,.F.);
#371=ORIENTED_EDGE('',*,*,#283,.F.);
#372=ORIENTED_EDGE('',*,*,#284,.F.);
#373=ORIENTED_EDGE('',*,*,#281,.T.);
#374=ORIENTED_EDGE('',*,*,#285,.T.);
#375=ORIENTED_EDGE('',*,*,#286,.T.);
#376=ORIENTED_EDGE('',*,*,#282,.T.);
#377=ORIENTED_EDGE('',*,*,#280,.T.);
#378=ORIENTED_EDGE('',*,*,#287,.T.);
#379=ORIENTED_EDGE('',*,*,#288,.F.);
#380=ORIENTED_EDGE('',*,*,#285,.F.);
#381=ORIENTED_EDGE('',*,*,#277,.T.);
#382=ORIENTED_EDGE('',*,*,#289,.T.);
#383=ORIENTED_EDGE('',*,*,#290,.F.);
#384=ORIENTED_EDGE('',*,*,#291,.F.);
#385=ORIENTED_EDGE('',*,*,#276,.T.);
#386=ORIENTED_EDGE('',*,*,#284,.T.);
#387=ORIENTED_EDGE('',*,*,#292,.F.);
#388=ORIENTED_EDGE('',*,*,#289,.F.);
#389=ORIENTED_EDGE('',*,*,#279,.T.);
#390=ORIENTED_EDGE('',*,*,#293,.T.);
#391=ORIENTED_EDGE('',*,*,#294,.F.);
#392=ORIENTED_EDGE('',*,*,#287,.F.);
#393=ORIENTED_EDGE('',*,*,#278,.T.);
#394=ORIENTED_EDGE('',*,*,#291,.T.);
#395=ORIENTED_EDGE('',*,*,#295,.F.);
#396=ORIENTED_EDGE('',*,*,#293,.F.);
#397=ORIENTED_EDGE('',*,*,#286,.F.);
#398=ORIENTED_EDGE('',*,*,#288,.T.);
#399=ORIENTED_EDGE('',*,*,#294,.T.);
#400=ORIENTED_EDGE('',*,*,#295,.T.);
#401=ORIENTED_EDGE('',*,*,#290,.T.);
#402=ORIENTED_EDGE('',*,*,#292,.T.);
#403=ORIENTED_EDGE('',*,*,#283,.T.);
#404=ORIENTED_EDGE('',*,*,#296,.F.);
#405=ORIENTED_EDGE('',*,*,#297,.T.);
#406=ORIENTED_EDGE('',*,*,#298,.F.);
#407=ORIENTED_EDGE('',*,*,#299,.F.);
#408=ORIENTED_EDGE('',*,*,#300,.F.);
#409=ORIENTED_EDGE('',*,*,#299,.T.);
#410=ORIENTED_EDGE('',*,*,#301,.F.);
#411=ORIENTED_EDGE('',*,*,#302,.F.);
#412=ORIENTED_EDGE('',*,*,#303,.F.);
#413=ORIENTED_EDGE('',*,*,#302,.T.);
#414=ORIENTED_EDGE('',*,*,#304,.F.);
#415=ORIENTED_EDGE('',*,*,#305,.F.);
#416=ORIENTED_EDGE('',*,*,#306,.F.);
#417=ORIENTED_EDGE('',*,*,#305,.T.);
#418=ORIENTED_EDGE('',*,*,#307,.F.);
#419=ORIENTED_EDGE('',*,*,#308,.F.);
#420=ORIENTED_EDGE('',*,*,#309,.F.);
#421=ORIENTED_EDGE('',*,*,#308,.T.);
#422=ORIENTED_EDGE('',*,*,#310,.F.);
#423=ORIENTED_EDGE('',*,*,#311,.F.);
#424=ORIENTED_EDGE('',*,*,#312,.F.);
#425=ORIENTED_EDGE('',*,*,#311,.T.);
#426=ORIENTED_EDGE('',*,*,#313,.F.);
#427=ORIENTED_EDGE('',*,*,#314,.F.);
#428=ORIENTED_EDGE('',*,*,#315,.F.);
#429=ORIENTED_EDGE('',*,*,#314,.T.);
#430=ORIENTED_EDGE('',*,*,#316,.F.);
#431=ORIENTED_EDGE('',*,*,#317,.F.);
#432=ORIENTED_EDGE('',*,*,#318,.F.);
#433=ORIENTED_EDGE('',*,*,#317,.T.);
#434=ORIENTED_EDGE('',*,*,#319,.F.);
#435=ORIENTED_EDGE('',*,*,#297,.F.);
#436=ORIENTED_EDGE('',*,*,#319,.T.);
#437=ORIENTED_EDGE('',*,*,#316,.T.);
#438=ORIENTED_EDGE('',*,*,#313,.T.);
#439=ORIENTED_EDGE('',*,*,#310,.T.);
#440=ORIENTED_EDGE('',*,*,#307,.T.);
#441=ORIENTED_EDGE('',*,*,#304,.T.);
#442=ORIENTED_EDGE('',*,*,#301,.T.);
#443=ORIENTED_EDGE('',*,*,#298,.T.);
#444=ORIENTED_EDGE('',*,*,#318,.T.);
#445=ORIENTED_EDGE('',*,*,#296,.T.);
#446=ORIENTED_EDGE('',*,*,#300,.T.);
#447=ORIENTED_EDGE('',*,*,#303,.T.);
#448=ORIENTED_EDGE('',*,*,#306,.T.);
#449=ORIENTED_EDGE('',*,*,#309,.T.);
#450=ORIENTED_EDGE('',*,*,#312,.T.);
#451=ORIENTED_EDGE('',*,*,#315,.T.);
#452=PLANE('',#522);
#453=PLANE('',#523);
#454=PLANE('',#524);
#455=PLANE('',#525);
#456=PLANE('',#526);
#457=PLANE('',#527);
#458=PLANE('',#528);
#459=PLANE('',#529);
#460=PLANE('',#530);
#461=PLANE('',#531);
#462=PLANE('',#532);
#463=PLANE('',#533);
#464=PLANE('',#534);
#465=PLANE('',#535);
#466=PLANE('',#536);
#467=PLANE('',#537);
#468=PLANE('',#538);
#469=PLANE('',#539);
#470=PLANE('',#540);
#471=PLANE('',#541);
#472=PLANE('',#542);
#473=PLANE('',#543);
#474=PLANE('',#544);
#475=PLANE('',#545);
#476=PLANE('',#546);
#477=ADVANCED_FACE('',(#34),#452,.F.);
#478=ADVANCED_FACE('',(#35),#453,.T.);
#479=ADVANCED_FACE('',(#36),#454,.T.);
#480=ADVANCED_FACE('',(#37),#455,.T.);
#481=ADVANCED_FACE('',(#38),#456,.F.);
#482=ADVANCED_FACE('',(#39),#457,.T.);
#483=ADVANCED_FACE('',(#40),#458,.T.);
#484=ADVANCED_FACE('',(#41),#459,.T.);
#485=ADVANCED_FACE('',(#42),#460,.T.);
#486=ADVANCED_FACE('',(#43),#461,.F.);
#487=ADVANCED_FACE('',(#44),#462,.T.);
#488=ADVANCED_FACE('',(#45),#463,.F.);
#489=ADVANCED_FACE('',(#46),#464,.T.);
#490=ADVANCED_FACE('',(#47),#465,.T.);
#491=ADVANCED_FACE('',(#48),#466,.T.);
#492=ADVANCED_FACE('',(#49),#467,.T.);
#493=ADVANCED_FACE('',(#50),#468,.T.);
#494=ADVANCED_FACE('',(#51),#469,.T.);
#495=ADVANCED_FACE('',(#52),#470,.T.);
#496=ADVANCED_FACE('',(#53),#471,.T.);
#497=ADVANCED_FACE('',(#54),#21,.T.);
#498=ADVANCED_FACE('',(#55),#472,.T.);
#499=ADVANCED_FACE('',(#56),#22,.T.);
#500=ADVANCED_FACE('',(#57),#23,.T.);
#501=ADVANCED_FACE('',(#58),#473,.T.);
#502=ADVANCED_FACE('',(#59),#474,.T.);
#503=ADVANCED_FACE('',(#60),#475,.T.);
#504=ADVANCED_FACE('',(#61),#476,.F.);
#505=CLOSED_SHELL('',(#477,#478,#479,#480,#481,#482,#483,#484,#485));
#506=CLOSED_SHELL('',(#486,#487,#488,#489,#490,#491,#492,#493,#494));
#507=CLOSED_SHELL('',(#495,#496,#497,#498,#499,#500,#501,#502,#503,#504));
#508=DERIVED_UNIT_ELEMENT(#510,1.);
#509=DERIVED_UNIT_ELEMENT(#863,-3.);
#510=(
MASS_UNIT()
NAMED_UNIT(*)
SI_UNIT(.KILO.,.GRAM.)
);
#511=DERIVED_UNIT((#508,#509));
#512=MEASURE_REPRESENTATION_ITEM('density measure',
POSITIVE_RATIO_MEASURE(1000.),#511);
#513=PROPERTY_DEFINITION_REPRESENTATION(#518,#515);
#514=PROPERTY_DEFINITION_REPRESENTATION(#519,#516);
#515=REPRESENTATION('material name',(#517),#860);
#516=REPRESENTATION('density',(#512),#860);
#517=DESCRIPTIVE_REPRESENTATION_ITEM('Og\X\F3lny','Og\X\F3lny');
#518=PROPERTY_DEFINITION('material property','material name',#875);
#519=PROPERTY_DEFINITION('material property','density of part',#875);
#520=AXIS2_PLACEMENT_3D('',#664,#548,#549);
#521=AXIS2_PLACEMENT_3D('',#665,#550,#551);
#522=AXIS2_PLACEMENT_3D('',#666,#552,#553);
#523=AXIS2_PLACEMENT_3D('',#681,#561,#562);
#524=AXIS2_PLACEMENT_3D('',#687,#566,#567);
#525=AXIS2_PLACEMENT_3D('',#691,#570,#571);
#526=AXIS2_PLACEMENT_3D('',#695,#574,#575);
#527=AXIS2_PLACEMENT_3D('',#699,#578,#579);
#528=AXIS2_PLACEMENT_3D('',#703,#582,#583);
#529=AXIS2_PLACEMENT_3D('',#707,#586,#587);
#530=AXIS2_PLACEMENT_3D('',#709,#589,#590);
#531=AXIS2_PLACEMENT_3D('',#710,#591,#592);
#532=AXIS2_PLACEMENT_3D('',#725,#600,#601);
#533=AXIS2_PLACEMENT_3D('',#731,#605,#606);
#534=AXIS2_PLACEMENT_3D('',#735,#609,#610);
#535=AXIS2_PLACEMENT_3D('',#739,#613,#614);
#536=AXIS2_PLACEMENT_3D('',#745,#618,#619);
#537=AXIS2_PLACEMENT_3D('',#747,#621,#622);
#538=AXIS2_PLACEMENT_3D('',#751,#625,#626);
#539=AXIS2_PLACEMENT_3D('',#753,#628,#629);
#540=AXIS2_PLACEMENT_3D('',#754,#630,#631);
#541=AXIS2_PLACEMENT_3D('',#763,#636,#637);
#542=AXIS2_PLACEMENT_3D('',#792,#642,#643);
#543=AXIS2_PLACEMENT_3D('',#844,#649,#650);
#544=AXIS2_PLACEMENT_3D('',#850,#654,#655);
#545=AXIS2_PLACEMENT_3D('',#853,#658,#659);
#546=AXIS2_PLACEMENT_3D('',#854,#660,#661);
#547=AXIS2_PLACEMENT_3D('',#855,#662,#663);
#548=DIRECTION('axis',(0.,0.,1.));
#549=DIRECTION('refdir',(1.,0.,0.));
#550=DIRECTION('axis',(0.,0.,1.));
#551=DIRECTION('refdir',(1.,0.,0.));
#552=DIRECTION('center_axis',(0.992546151641322,0.121869343405148,4.53061598590428E-17));
#553=DIRECTION('ref_axis',(0.121869343405148,-0.992546151641322,-3.68989061213241E-16));
#554=DIRECTION('',(0.120540723140913,-0.981725407938167,-0.147258811190725));
#555=DIRECTION('',(2.70566636324155E-17,-5.9211894646675E-16,1.));
#556=DIRECTION('',(-0.121869343405148,0.992546151641322,0.));
#557=DIRECTION('',(-0.0786797244700758,0.640794932941886,0.763669663449659));
#558=DIRECTION('',(-0.121869343405148,0.992546151641322,0.));
#559=DIRECTION('',(-0.0936451041675162,0.76267816962402,-0.639962970838478));
#560=DIRECTION('',(4.56464012117949E-17,0.,-1.));
#561=DIRECTION('center_axis',(0.,-0.148340452930245,0.988936352868298));
#562=DIRECTION('ref_axis',(0.,0.988936352868298,0.148340452930245));
#563=DIRECTION('',(-1.,0.,0.));
#564=DIRECTION('',(-0.122683226202979,-0.981465809623833,-0.147219871443575));
#565=DIRECTION('',(1.,0.,0.));
#566=DIRECTION('center_axis',(0.,-1.,0.));
#567=DIRECTION('ref_axis',(-1.,0.,0.));
#568=DIRECTION('',(-1.,0.,0.));
#569=DIRECTION('',(0.,0.,-1.));
#570=DIRECTION('center_axis',(0.,-0.642787609686539,-0.766044443118978));
#571=DIRECTION('ref_axis',(-1.,0.,0.));
#572=DIRECTION('',(-1.,0.,0.));
#573=DIRECTION('',(0.0953195540281533,0.762556432225226,-0.63986082103205));
#574=DIRECTION('center_axis',(-3.29374037475548E-31,-1.,-5.9211894646675E-16));
#575=DIRECTION('ref_axis',(-1.,-5.37236960147268E-32,6.46994553672482E-16));
#576=DIRECTION('',(0.,0.,-1.));
#577=DIRECTION('',(-1.,0.,0.));
#578=DIRECTION('center_axis',(0.,0.,-1.));
#579=DIRECTION('ref_axis',(0.,-1.,0.));
#580=DIRECTION('',(0.124034734589209,0.992277876713668,0.));
#581=DIRECTION('',(-1.,0.,0.));
#582=DIRECTION('center_axis',(0.992277876713668,-0.124034734589209,0.));
#583=DIRECTION('ref_axis',(-0.124034734589209,-0.992277876713668,0.));
#584=DIRECTION('',(0.124034734589209,0.992277876713668,0.));
#585=DIRECTION('',(0.0800903405649414,0.640722724519531,0.763583608802901));
#586=DIRECTION('center_axis',(0.,0.,-1.));
#587=DIRECTION('ref_axis',(0.,-1.,0.));
#588=DIRECTION('',(-1.,0.,0.));
#589=DIRECTION('center_axis',(0.,0.766044443118978,-0.642787609686539));
#590=DIRECTION('ref_axis',(1.,0.,0.));
#591=DIRECTION('center_axis',(0.992546151641322,0.121869343405148,4.53061598590428E-17));
#592=DIRECTION('ref_axis',(0.121869343405148,-0.992546151641322,-3.68989061213241E-16));
#593=DIRECTION('',(-0.120540723140913,0.981725407938167,-0.147258811190725));
#594=DIRECTION('',(4.56464012117949E-17,0.,-1.));
#595=DIRECTION('',(0.0936451041675163,-0.76267816962402,-0.639962970838478));
#596=DIRECTION('',(0.121869343405148,-0.992546151641322,0.));
#597=DIRECTION('',(0.0786797244700757,-0.640794932941886,0.763669663449659));
#598=DIRECTION('',(0.121869343405148,-0.992546151641322,0.));
#599=DIRECTION('',(2.70566636324155E-17,-5.9211894646675E-16,1.));
#600=DIRECTION('center_axis',(0.,-0.148340452930245,-0.988936352868298));
#601=DIRECTION('ref_axis',(0.,0.988936352868298,-0.148340452930245));
#602=DIRECTION('',(-1.,0.,0.));
#603=DIRECTION('',(0.122683226202979,0.981465809623833,-0.147219871443575));
#604=DIRECTION('',(1.,0.,0.));
#605=DIRECTION('center_axis',(-3.29374037475548E-31,-1.,-5.9211894646675E-16));
#606=DIRECTION('ref_axis',(-1.,-5.37236960147268E-32,6.46994553672482E-16));
#607=DIRECTION('',(1.,0.,0.));
#608=DIRECTION('',(0.,0.,-1.));
#609=DIRECTION('center_axis',(0.,0.,1.));
#610=DIRECTION('ref_axis',(0.,-1.,0.));
#611=DIRECTION('',(1.,0.,0.));
#612=DIRECTION('',(-0.124034734589209,-0.992277876713668,0.));
#613=DIRECTION('center_axis',(0.,-0.642787609686539,0.766044443118978));
#614=DIRECTION('ref_axis',(1.,0.,0.));
#615=DIRECTION('',(1.,0.,0.));
#616=DIRECTION('',(-0.0953195540281533,-0.762556432225226,-0.63986082103205));
#617=DIRECTION('',(1.,0.,0.));
#618=DIRECTION('center_axis',(0.,-1.,0.));
#619=DIRECTION('ref_axis',(1.,0.,0.));
#620=DIRECTION('',(0.,0.,-1.));
#621=DIRECTION('center_axis',(0.,0.766044443118978,0.642787609686539));
#622=DIRECTION('ref_axis',(-1.,0.,0.));
#623=DIRECTION('',(1.,0.,0.));
#624=DIRECTION('',(-0.0800903405649414,-0.640722724519531,0.763583608802901));
#625=DIRECTION('center_axis',(0.,0.,1.));
#626=DIRECTION('ref_axis',(0.,-1.,0.));
#627=DIRECTION('',(-0.124034734589209,-0.992277876713668,0.));
#628=DIRECTION('center_axis',(0.992277876713668,-0.124034734589209,0.));
#629=DIRECTION('ref_axis',(0.124034734589209,0.992277876713668,0.));
#630=DIRECTION('center_axis',(0.,0.,-1.));
#631=DIRECTION('ref_axis',(1.,0.,0.));
#632=DIRECTION('',(-1.,0.,0.));
#633=DIRECTION('',(0.,-1.,0.));
#634=DIRECTION('',(1.,0.,0.));
#635=DIRECTION('',(0.,-1.,0.));
#636=DIRECTION('center_axis',(-1.,0.,0.));
#637=DIRECTION('ref_axis',(0.,0.,-1.));
#638=DIRECTION('',(0.,0.,1.));
#639=DIRECTION('',(0.,0.,-1.));
#640=DIRECTION('',(0.,-1.,0.));
#641=DIRECTION('',(0.,-1.,0.));
#642=DIRECTION('center_axis',(-1.,0.,0.));
#643=DIRECTION('ref_axis',(0.,0.,-1.));
#644=DIRECTION('',(0.,0.,1.));
#645=DIRECTION('',(0.,0.,-1.));
#646=DIRECTION('',(0.,-1.,0.));
#647=DIRECTION('',(0.,-1.,0.));
#648=DIRECTION('',(0.,-1.,0.));
#649=DIRECTION('center_axis',(0.,0.,1.));
#650=DIRECTION('ref_axis',(-1.,0.,0.));
#651=DIRECTION('',(1.,0.,0.));
#652=DIRECTION('',(-1.,0.,0.));
#653=DIRECTION('',(0.,-1.,0.));
#654=DIRECTION('center_axis',(1.,0.,0.));
#655=DIRECTION('ref_axis',(0.,0.,1.));
#656=DIRECTION('',(0.,0.,-1.));
#657=DIRECTION('',(0.,0.,1.));
#658=DIRECTION('center_axis',(0.,-1.,0.));
#659=DIRECTION('ref_axis',(-1.,0.,0.));
#660=DIRECTION('center_axis',(0.,-1.,0.));
#661=DIRECTION('ref_axis',(-1.,0.,0.));
#662=DIRECTION('',(5.85762213715114E-16,0.,-1.));
#663=DIRECTION('',(1.,-4.77165462387263E-33,-6.12323399573678E-17));
#664=CARTESIAN_POINT('',(0.,0.,0.));
#665=CARTESIAN_POINT('',(0.,0.,0.));
#666=CARTESIAN_POINT('Origin',(-7.75034141540523,-7.80609184384635E-14,
2.77555756156289E-15));
#667=CARTESIAN_POINT('',(-7.75034141540524,0.,-22.1));
#668=CARTESIAN_POINT('',(-6.95224176953636,-6.5,-23.075));
#669=CARTESIAN_POINT('',(-8.43570941499826,5.58187441933353,-21.2627188371));
#670=CARTESIAN_POINT('',(-7.75034141540524,0.,-24.1));
#671=CARTESIAN_POINT('',(-7.75034141540524,-7.53563877964325E-14,-7.25691587870666E-15));
#672=CARTESIAN_POINT('',(-7.25920317179362,-4.,-24.1));
#673=CARTESIAN_POINT('',(-7.35915300896829,-3.18597390062987,-24.1));
#674=CARTESIAN_POINT('',(-7.15617469202573,-4.83909963117728,-25.1));
#675=CARTESIAN_POINT('',(-7.97369587738758,1.81907611461807,-17.1650951348247));
#676=CARTESIAN_POINT('',(-7.10706086766457,-5.23909963117728,-25.1));
#677=CARTESIAN_POINT('',(-7.28421167606547,-3.79632207756456,-25.1));
#678=CARTESIAN_POINT('',(-6.95224176953636,-6.5,-24.0419789655696));
#679=CARTESIAN_POINT('',(-6.38281442954279,-11.1376135224677,-20.1505591693242));
#680=CARTESIAN_POINT('',(-6.95224176953636,-6.5,-11.5375));
#681=CARTESIAN_POINT('Origin',(12.35,10.5,-20.525));
#682=CARTESIAN_POINT('',(-2.8125,-6.5,-23.075));
#683=CARTESIAN_POINT('',(12.35,-6.5,-23.075));
#684=CARTESIAN_POINT('',(-2.,0.,-22.1));
#685=CARTESIAN_POINT('',(-1.62239990969295,3.02080072245635,-21.6468798916315));
#686=CARTESIAN_POINT('',(1.175,0.,-22.1));
#687=CARTESIAN_POINT('Origin',(12.35,-6.5,-23.075));
#688=CARTESIAN_POINT('',(-2.8125,-6.5,-24.0419789655696));
#689=CARTESIAN_POINT('',(12.35,-6.5,-24.0419789655696));
#690=CARTESIAN_POINT('',(-2.8125,-6.5,-21.4425));
#691=CARTESIAN_POINT('Origin',(12.35,-6.5,-24.0419789655696));
#692=CARTESIAN_POINT('',(-2.65488745389716,-5.23909963117728,-25.1));
#693=CARTESIAN_POINT('',(12.35,-5.23909963117728,-25.1));
#694=CARTESIAN_POINT('',(-2.87267498651026,-6.9813998920821,-23.6380364936747));
#695=CARTESIAN_POINT('Origin',(9.77506679709162,-7.54951656745106E-14,-1.77635683940025E-14));
#696=CARTESIAN_POINT('',(-2.,0.,-24.1));
#697=CARTESIAN_POINT('',(-2.,-5.55111512312578E-16,-19.905));
#698=CARTESIAN_POINT('',(1.175,0.,-24.1));
#699=CARTESIAN_POINT('Origin',(12.35,-4.,-24.1));
#700=CARTESIAN_POINT('',(-2.5,-4.,-24.1));
#701=CARTESIAN_POINT('',(-2.54201923076923,-4.33615384615385,-24.1));
#702=CARTESIAN_POINT('',(12.35,-4.,-24.1));
#703=CARTESIAN_POINT('Origin',(-2.8125,-6.5,-19.81));
#704=CARTESIAN_POINT('',(-2.60488745389716,-4.83909963117728,-25.1));
#705=CARTESIAN_POINT('',(-2.61827151576476,-4.94617212611805,-25.1));
#706=CARTESIAN_POINT('',(-2.43844791484541,-3.50758331876324,-23.5131606510828));
#707=CARTESIAN_POINT('Origin',(12.35,-5.23909963117728,-25.1));
#708=CARTESIAN_POINT('',(12.35,-4.83909963117728,-25.1));
#709=CARTESIAN_POINT('Origin',(12.35,-4.83909963117728,-25.1));
#710=CARTESIAN_POINT('Origin',(-7.75034141540523,-7.80609184384635E-14,
2.77555756156289E-15));
#711=CARTESIAN_POINT('',(-6.95224176953637,-6.5,-16.925));
#712=CARTESIAN_POINT('',(-7.75034141540523,-7.14064125650643E-14,-17.9));
#713=CARTESIAN_POINT('',(-8.40544271685696,5.33537194443981,-18.700305791666));
#714=CARTESIAN_POINT('',(-6.95224176953637,-6.5,-15.9580210344304));
#715=CARTESIAN_POINT('',(-6.95224176953636,-6.5,-8.4625));
#716=CARTESIAN_POINT('',(-7.10706086766458,-5.23909963117728,-14.9));
#717=CARTESIAN_POINT('',(-7.77739862459032,0.220363284977436,-10.3189666806285));
#718=CARTESIAN_POINT('',(-7.15617469202574,-4.83909963117728,-14.9));
#719=CARTESIAN_POINT('',(-7.61615693493122,-1.09284489423827,-14.9));
#720=CARTESIAN_POINT('',(-7.25920317179363,-4.,-15.9));
#721=CARTESIAN_POINT('',(-6.91034715686415,-6.84120423906835,-12.5139846407964));
#722=CARTESIAN_POINT('',(-7.75034141540523,-7.21499327743826E-14,-15.9));
#723=CARTESIAN_POINT('',(-7.69109826783403,-0.482496717303585,-15.9));
#724=CARTESIAN_POINT('',(-7.75034141540524,-7.53563877964325E-14,-7.25691587870666E-15));
#725=CARTESIAN_POINT('Origin',(-32.35,10.5,-19.475));
#726=CARTESIAN_POINT('',(-2.,0.,-17.9));
#727=CARTESIAN_POINT('',(-21.175,0.,-17.9));
#728=CARTESIAN_POINT('',(-2.8125,-6.5,-16.925));
#729=CARTESIAN_POINT('',(-0.919321944611677,8.64542444310656,-19.196813666466));
#730=CARTESIAN_POINT('',(-32.35,-6.5,-16.925));
#731=CARTESIAN_POINT('Origin',(9.77506679709162,-7.54951656745106E-14,-1.77635683940025E-14));
#732=CARTESIAN_POINT('',(-2.,0.,-15.9));
#733=CARTESIAN_POINT('',(-21.175,0.,-15.9));
#734=CARTESIAN_POINT('',(-2.,5.55111512312578E-16,-20.095));
#735=CARTESIAN_POINT('Origin',(-32.35,-4.,-15.9));
#736=CARTESIAN_POINT('',(-2.5,-4.,-15.9));
#737=CARTESIAN_POINT('',(-32.35,-4.,-15.9));
#738=CARTESIAN_POINT('',(-1.82336538461538,1.41307692307692,-15.9));
#739=CARTESIAN_POINT('Origin',(-32.35,-6.5,-15.9580210344304));
#740=CARTESIAN_POINT('',(-2.8125,-6.5,-15.9580210344304));
#741=CARTESIAN_POINT('',(-32.35,-6.5,-15.9580210344304));
#742=CARTESIAN_POINT('',(-2.65488745389716,-5.23909963117728,-14.9));
#743=CARTESIAN_POINT('',(-2.44825374214113,-3.58602993712901,-13.5129098294138));
#744=CARTESIAN_POINT('',(-32.35,-5.23909963117728,-14.9));
#745=CARTESIAN_POINT('Origin',(-32.35,-6.5,-16.925));
#746=CARTESIAN_POINT('',(-2.8125,-6.5,-18.5575));
#747=CARTESIAN_POINT('Origin',(-32.35,-4.83909963117728,-14.9));
#748=CARTESIAN_POINT('',(-2.60488745389716,-4.83909963117728,-14.9));
#749=CARTESIAN_POINT('',(-32.35,-4.83909963117728,-14.9));
#750=CARTESIAN_POINT('',(-2.13881232822281,-1.11049862578248,-19.3435736435296));
#751=CARTESIAN_POINT('Origin',(-32.35,-5.23909963117728,-14.9));
#752=CARTESIAN_POINT('',(-1.89961766961091,0.803058643112722,-14.9));
#753=CARTESIAN_POINT('Origin',(-0.687499999999999,10.5,-20.19));
#754=CARTESIAN_POINT('Origin',(7.4283766746521,0.,0.));
#755=CARTESIAN_POINT('',(13.1787180900574,0.,0.));
#756=CARTESIAN_POINT('',(7.4283766746521,0.,0.));
#757=CARTESIAN_POINT('',(13.1787180900574,0.,0.));
#758=CARTESIAN_POINT('',(13.1787180900574,-5.,0.));
#759=CARTESIAN_POINT('',(13.1787180900574,0.,0.));
#760=CARTESIAN_POINT('',(7.4283766746521,-5.,0.));
#761=CARTESIAN_POINT('',(13.1787180900574,-5.,0.));
#762=CARTESIAN_POINT('',(7.4283766746521,0.,0.));
#763=CARTESIAN_POINT('Origin',(7.4283766746521,0.,21.6712164878845));
#764=CARTESIAN_POINT('',(7.4283766746521,0.,21.6712164878845));
#765=CARTESIAN_POINT('',(7.4283766746521,0.,0.));
#766=CARTESIAN_POINT('',(7.4283766746521,-5.,21.6712164878845));
#767=CARTESIAN_POINT('',(7.4283766746521,-5.,0.));
#768=CARTESIAN_POINT('',(7.4283766746521,0.,21.6712164878845));
#769=CARTESIAN_POINT('Ctrl Pts',(0.,0.,17.3124146461487));
#770=CARTESIAN_POINT('Ctrl Pts',(0.,-5.,17.3124146461487));
#771=CARTESIAN_POINT('Ctrl Pts',(1.37276371307208,0.,17.8414604940733));
#772=CARTESIAN_POINT('Ctrl Pts',(1.37276371307208,-5.,17.8414604940733));
#773=CARTESIAN_POINT('Ctrl Pts',(4.08807548103771,0.,18.8879074557636));
#774=CARTESIAN_POINT('Ctrl Pts',(4.08807548103771,-5.,18.8879074557636));
#775=CARTESIAN_POINT('Ctrl Pts',(6.32323379983347,0.,20.7503551741961));
#776=CARTESIAN_POINT('Ctrl Pts',(6.32323379983347,-5.,20.7503551741961));
#777=CARTESIAN_POINT('Ctrl Pts',(7.4283766746521,0.,21.6712164878845));
#778=CARTESIAN_POINT('Ctrl Pts',(7.4283766746521,-5.,21.6712164878845));
#779=CARTESIAN_POINT('',(0.,0.,17.3124146461487));
#780=CARTESIAN_POINT('Ctrl Pts',(7.4283766746521,0.,21.6712164878845));
#781=CARTESIAN_POINT('Ctrl Pts',(6.32323379983347,0.,20.7503551741961));
#782=CARTESIAN_POINT('Ctrl Pts',(4.08807548103771,0.,18.8879074557636));
#783=CARTESIAN_POINT('Ctrl Pts',(1.37276371307208,0.,17.8414604940733));
#784=CARTESIAN_POINT('Ctrl Pts',(0.,0.,17.3124146461487));
#785=CARTESIAN_POINT('',(0.,-5.,17.3124146461487));
#786=CARTESIAN_POINT('Ctrl Pts',(0.,-5.,17.3124146461487));
#787=CARTESIAN_POINT('Ctrl Pts',(1.37276371307208,-5.,17.8414604940733));
#788=CARTESIAN_POINT('Ctrl Pts',(4.08807548103771,-5.,18.8879074557636));
#789=CARTESIAN_POINT('Ctrl Pts',(6.32323379983347,-5.,20.7503551741961));
#790=CARTESIAN_POINT('Ctrl Pts',(7.4283766746521,-5.,21.6712164878845));
#791=CARTESIAN_POINT('',(0.,0.,17.3124146461487));
#792=CARTESIAN_POINT('Origin',(0.,0.,22.5306963920593));
#793=CARTESIAN_POINT('',(0.,0.,22.5306963920593));
#794=CARTESIAN_POINT('',(0.,0.,17.3124146461487));
#795=CARTESIAN_POINT('',(0.,-5.,22.5306963920593));
#796=CARTESIAN_POINT('',(0.,-5.,17.3124146461487));
#797=CARTESIAN_POINT('',(0.,0.,22.5306963920593));
#798=CARTESIAN_POINT('Ctrl Pts',(4.89085972309113,0.,25.3137803077698));
#799=CARTESIAN_POINT('Ctrl Pts',(4.89085972309113,-5.,25.3137803077698));
#800=CARTESIAN_POINT('Ctrl Pts',(4.06622260756977,0.,24.6998373671458));
#801=CARTESIAN_POINT('Ctrl Pts',(4.06622260756977,-5.,24.6998373671458));
#802=CARTESIAN_POINT('Ctrl Pts',(2.54889581494222,0.,23.570186451101));
#803=CARTESIAN_POINT('Ctrl Pts',(2.54889581494222,-5.,23.570186451101));
#804=CARTESIAN_POINT('Ctrl Pts',(0.798905276593878,0.,22.8565057438057));
#805=CARTESIAN_POINT('Ctrl Pts',(0.798905276593878,-5.,22.8565057438057));
#806=CARTESIAN_POINT('Ctrl Pts',(0.,0.,22.5306963920593));
#807=CARTESIAN_POINT('Ctrl Pts',(0.,-5.,22.5306963920593));
#808=CARTESIAN_POINT('',(4.89085972309113,0.,25.3137803077698));
#809=CARTESIAN_POINT('Ctrl Pts',(0.,0.,22.5306963920593));
#810=CARTESIAN_POINT('Ctrl Pts',(0.798905276593878,0.,22.8565057438057));
#811=CARTESIAN_POINT('Ctrl Pts',(2.54889581494222,0.,23.570186451101));
#812=CARTESIAN_POINT('Ctrl Pts',(4.06622260756977,0.,24.6998373671458));
#813=CARTESIAN_POINT('Ctrl Pts',(4.89085972309113,0.,25.3137803077698));
#814=CARTESIAN_POINT('',(4.89085972309113,-5.,25.3137803077698));
#815=CARTESIAN_POINT('Ctrl Pts',(4.89085972309113,-5.,25.3137803077698));
#816=CARTESIAN_POINT('Ctrl Pts',(4.06622260756977,-5.,24.6998373671458));
#817=CARTESIAN_POINT('Ctrl Pts',(2.54889581494222,-5.,23.570186451101));
#818=CARTESIAN_POINT('Ctrl Pts',(0.798905276593878,-5.,22.8565057438057));
#819=CARTESIAN_POINT('Ctrl Pts',(0.,-5.,22.5306963920593));
#820=CARTESIAN_POINT('',(4.89085972309113,0.,25.3137803077698));
#821=CARTESIAN_POINT('Ctrl Pts',(8.51296067237854,0.,30.1227855682373));
#822=CARTESIAN_POINT('Ctrl Pts',(8.51296067237854,-5.,30.1227855682373));
#823=CARTESIAN_POINT('Ctrl Pts',(8.10107642119525,0.,29.2250354807918));
#824=CARTESIAN_POINT('Ctrl Pts',(8.10107642119525,-5.,29.2250354807918));
#825=CARTESIAN_POINT('Ctrl Pts',(7.24543358089314,0.,27.3600614437982));
#826=CARTESIAN_POINT('Ctrl Pts',(7.24543358089314,-5.,27.3600614437982));
#827=CARTESIAN_POINT('Ctrl Pts',(5.69497025387599,0.,26.0126057894911));
#828=CARTESIAN_POINT('Ctrl Pts',(5.69497025387599,-5.,26.0126057894911));
#829=CARTESIAN_POINT('Ctrl Pts',(4.89085972309113,0.,25.3137803077698));
#830=CARTESIAN_POINT('Ctrl Pts',(4.89085972309113,-5.,25.3137803077698));
#831=CARTESIAN_POINT('',(8.51296067237854,0.,30.1227855682373));
#832=CARTESIAN_POINT('Ctrl Pts',(4.89085972309113,0.,25.3137803077698));
#833=CARTESIAN_POINT('Ctrl Pts',(5.69497025387599,0.,26.0126057894911));
#834=CARTESIAN_POINT('Ctrl Pts',(7.24543358089314,0.,27.3600614437982));
#835=CARTESIAN_POINT('Ctrl Pts',(8.10107642119525,0.,29.2250354807918));
#836=CARTESIAN_POINT('Ctrl Pts',(8.51296067237854,0.,30.1227855682373));
#837=CARTESIAN_POINT('',(8.51296067237854,-5.,30.1227855682373));
#838=CARTESIAN_POINT('Ctrl Pts',(8.51296067237854,-5.,30.1227855682373));
#839=CARTESIAN_POINT('Ctrl Pts',(8.10107642119525,-5.,29.2250354807918));
#840=CARTESIAN_POINT('Ctrl Pts',(7.24543358089314,-5.,27.3600614437982));
#841=CARTESIAN_POINT('Ctrl Pts',(5.69497025387599,-5.,26.0126057894911));
#842=CARTESIAN_POINT('Ctrl Pts',(4.89085972309113,-5.,25.3137803077698));
#843=CARTESIAN_POINT('',(8.51296067237854,0.,30.1227855682373));
#844=CARTESIAN_POINT('Origin',(13.1787180900574,0.,30.1227855682373));
#845=CARTESIAN_POINT('',(13.1787180900574,0.,30.1227855682373));
#846=CARTESIAN_POINT('',(8.51296067237854,0.,30.1227855682373));
#847=CARTESIAN_POINT('',(13.1787180900574,-5.,30.1227855682373));
#848=CARTESIAN_POINT('',(8.51296067237854,-5.,30.1227855682373));
#849=CARTESIAN_POINT('',(13.1787180900574,0.,30.1227855682373));
#850=CARTESIAN_POINT('Origin',(13.1787180900574,0.,0.));
#851=CARTESIAN_POINT('',(13.1787180900574,0.,30.1227855682373));
#852=CARTESIAN_POINT('',(13.1787180900574,-5.,30.1227855682373));
#853=CARTESIAN_POINT('Origin',(6.58935904502869,-5.,15.0613927841187));
#854=CARTESIAN_POINT('Origin',(6.58935904502869,0.,15.0613927841187));
#855=CARTESIAN_POINT('',(15.1787180900574,-7.54468155579425E-14,-4.3));
#856=UNCERTAINTY_MEASURE_WITH_UNIT(LENGTH_MEASURE(0.01),#862,
'DISTANCE_ACCURACY_VALUE',
'Maximum model space distance between geometric entities at asserted c
onnectivities');
#857=UNCERTAINTY_MEASURE_WITH_UNIT(LENGTH_MEASURE(0.01),#862,
'DISTANCE_ACCURACY_VALUE',
'Maximum model space distance between geometric entities at asserted c
onnectivities');
#858=UNCERTAINTY_MEASURE_WITH_UNIT(LENGTH_MEASURE(0.01),#862,
'DISTANCE_ACCURACY_VALUE',
'Maximum model space distance between geometric entities at asserted c
onnectivities');
#859=(
GEOMETRIC_REPRESENTATION_CONTEXT(3)
GLOBAL_UNCERTAINTY_ASSIGNED_CONTEXT((#856))
GLOBAL_UNIT_ASSIGNED_CONTEXT((#862,#864,#865))
REPRESENTATION_CONTEXT('','3D')
);
#860=(
GEOMETRIC_REPRESENTATION_CONTEXT(3)
GLOBAL_UNCERTAINTY_ASSIGNED_CONTEXT((#857))
GLOBAL_UNIT_ASSIGNED_CONTEXT((#862,#864,#865))
REPRESENTATION_CONTEXT('','3D')
);
#861=(
GEOMETRIC_REPRESENTATION_CONTEXT(3)
GLOBAL_UNCERTAINTY_ASSIGNED_CONTEXT((#858))
GLOBAL_UNIT_ASSIGNED_CONTEXT((#862,#864,#865))
REPRESENTATION_CONTEXT('','3D')
);
#862=(
LENGTH_UNIT()
NAMED_UNIT(*)
SI_UNIT(.MILLI.,.METRE.)
);
#863=(
LENGTH_UNIT()
NAMED_UNIT(*)
SI_UNIT($,.METRE.)
);
#864=(
NAMED_UNIT(*)
PLANE_ANGLE_UNIT()
SI_UNIT($,.RADIAN.)
);
#865=(
NAMED_UNIT(*)
SI_UNIT($,.STERADIAN.)
SOLID_ANGLE_UNIT()
);
#866=SHAPE_DEFINITION_REPRESENTATION(#868,#871);
#867=SHAPE_DEFINITION_REPRESENTATION(#869,#872);
#868=PRODUCT_DEFINITION_SHAPE('',$,#874);
#869=PRODUCT_DEFINITION_SHAPE('',$,#875);
#870=PRODUCT_DEFINITION_SHAPE($,$,#14);
#871=SHAPE_REPRESENTATION('',(#520,#547),#859);
#872=SHAPE_REPRESENTATION('',(#521),#860);
#873=PRODUCT_DEFINITION_CONTEXT('part definition',#881,'design');
#874=PRODUCT_DEFINITION('1 liczba','1 liczba v1',#876,#873);
#875=PRODUCT_DEFINITION('try1','try1 v1',#877,#873);
#876=PRODUCT_DEFINITION_FORMATION('',$,#883);
#877=PRODUCT_DEFINITION_FORMATION('',$,#884);
#878=PRODUCT_RELATED_PRODUCT_CATEGORY('1 liczba v1','1 liczba v1',(#883));
#879=PRODUCT_RELATED_PRODUCT_CATEGORY('try1 v1','try1 v1',(#884));
#880=APPLICATION_PROTOCOL_DEFINITION('international standard',
'automotive_design',2009,#881);
#881=APPLICATION_CONTEXT(
'Core Data for Automotive Mechanical Design Process');
#882=PRODUCT_CONTEXT('part definition',#881,'mechanical');
#883=PRODUCT('1 liczba','1 liczba v1',$,(#882));
#884=PRODUCT('try1','try1 v1',$,(#882));
#885=PRESENTATION_STYLE_ASSIGNMENT((#887));
#886=PRESENTATION_STYLE_ASSIGNMENT((#888));
#887=SURFACE_STYLE_USAGE(.BOTH.,#889);
#888=SURFACE_STYLE_USAGE(.BOTH.,#890);
#889=SURFACE_SIDE_STYLE('',(#891));
#890=SURFACE_SIDE_STYLE('',(#892));
#891=SURFACE_STYLE_FILL_AREA(#893);
#892=SURFACE_STYLE_FILL_AREA(#894);
#893=FILL_AREA_STYLE('Stal \X2\2014\X0\ satynowa',(#895));
#894=FILL_AREA_STYLE('Opaque(191,191,191)',(#896));
#895=FILL_AREA_STYLE_COLOUR('Stal \X2\2014\X0\ satynowa',#897);
#896=FILL_AREA_STYLE_COLOUR('Opaque(191,191,191)',#898);
#897=COLOUR_RGB('Stal \X2\2014\X0\ satynowa',0.627450980392157,0.627450980392157,
0.627450980392157);
#898=COLOUR_RGB('Opaque(191,191,191)',0.749019607843137,0.749019607843137,
0.749019607843137);
ENDSEC;
END-ISO-10303-21;
