ISO-10303-21;
HEADER;
/* Generated by software containing ST-Developer
 * from STEP Tools, Inc. (www.steptools.com) 
 */

FILE_DESCRIPTION(
/* description */ (''),
/* implementation_level */ '2;1');

FILE_NAME(
/* name */ 'try2.stp',
/* time_stamp */ '2026-07-26T18:04:12+02:00',
/* author */ ('wojta'),
/* organization */ (''),
/* preprocessor_version */ 'ST-DEVELOPER v20',
/* originating_system */ 'Autodesk Inventor 2025',
/* authorisation */ '');

FILE_SCHEMA (('AUTOMOTIVE_DESIGN { 1 0 10303 214 3 1 1 }'));
ENDSEC;

DATA;
#10=MECHANICAL_DESIGN_GEOMETRIC_PRESENTATION_REPRESENTATION('',(#21,#22,
#23,#24,#25,#26),#1675);
#11=GEOMETRICALLY_BOUNDED_WIREFRAME_SHAPE_REPRESENTATION('',(#12),#1674);
#12=GEOMETRIC_CURVE_SET('Szkic3',(#16,#17,#18,#19,#20));
#13=SHAPE_REPRESENTATION_RELATIONSHIP('SRR','None',#1682,#15);
#14=SHAPE_REPRESENTATION_RELATIONSHIP('SRR','None',#1682,#11);
#15=ADVANCED_BREP_SHAPE_REPRESENTATION('',(#27),#1674);
#16=POLYLINE('',(#1662,#1663));
#17=POLYLINE('',(#1664,#1665));
#18=POLYLINE('',(#1666,#1667));
#19=POLYLINE('',(#1668,#1669));
#20=POLYLINE('',(#1670,#1671));
#21=STYLED_ITEM('',(#1691),#27);
#22=STYLED_ITEM('',(#1692),#16);
#23=STYLED_ITEM('',(#1693),#17);
#24=STYLED_ITEM('',(#1692),#18);
#25=STYLED_ITEM('',(#1693),#19);
#26=STYLED_ITEM('',(#1693),#20);
#27=MANIFOLD_SOLID_BREP('Bry\X2\0142\X0\a1',#1052);
#28=FACE_BOUND('',#95,.T.);
#29=FACE_BOUND('',#132,.T.);
#30=FACE_BOUND('',#134,.T.);
#31=FACE_BOUND('',#135,.T.);
#32=FACE_OUTER_BOUND('',#82,.T.);
#33=FACE_OUTER_BOUND('',#83,.T.);
#34=FACE_OUTER_BOUND('',#84,.T.);
#35=FACE_OUTER_BOUND('',#85,.T.);
#36=FACE_OUTER_BOUND('',#86,.T.);
#37=FACE_OUTER_BOUND('',#87,.T.);
#38=FACE_OUTER_BOUND('',#88,.T.);
#39=FACE_OUTER_BOUND('',#89,.T.);
#40=FACE_OUTER_BOUND('',#90,.T.);
#41=FACE_OUTER_BOUND('',#91,.T.);
#42=FACE_OUTER_BOUND('',#92,.T.);
#43=FACE_OUTER_BOUND('',#93,.T.);
#44=FACE_OUTER_BOUND('',#94,.T.);
#45=FACE_OUTER_BOUND('',#96,.T.);
#46=FACE_OUTER_BOUND('',#97,.T.);
#47=FACE_OUTER_BOUND('',#98,.T.);
#48=FACE_OUTER_BOUND('',#99,.T.);
#49=FACE_OUTER_BOUND('',#100,.T.);
#50=FACE_OUTER_BOUND('',#101,.T.);
#51=FACE_OUTER_BOUND('',#102,.T.);
#52=FACE_OUTER_BOUND('',#103,.T.);
#53=FACE_OUTER_BOUND('',#104,.T.);
#54=FACE_OUTER_BOUND('',#105,.T.);
#55=FACE_OUTER_BOUND('',#106,.T.);
#56=FACE_OUTER_BOUND('',#107,.T.);
#57=FACE_OUTER_BOUND('',#108,.T.);
#58=FACE_OUTER_BOUND('',#109,.T.);
#59=FACE_OUTER_BOUND('',#110,.T.);
#60=FACE_OUTER_BOUND('',#111,.T.);
#61=FACE_OUTER_BOUND('',#112,.T.);
#62=FACE_OUTER_BOUND('',#113,.T.);
#63=FACE_OUTER_BOUND('',#114,.T.);
#64=FACE_OUTER_BOUND('',#115,.T.);
#65=FACE_OUTER_BOUND('',#116,.T.);
#66=FACE_OUTER_BOUND('',#117,.T.);
#67=FACE_OUTER_BOUND('',#118,.T.);
#68=FACE_OUTER_BOUND('',#119,.T.);
#69=FACE_OUTER_BOUND('',#120,.T.);
#70=FACE_OUTER_BOUND('',#121,.T.);
#71=FACE_OUTER_BOUND('',#122,.T.);
#72=FACE_OUTER_BOUND('',#123,.T.);
#73=FACE_OUTER_BOUND('',#124,.T.);
#74=FACE_OUTER_BOUND('',#125,.T.);
#75=FACE_OUTER_BOUND('',#126,.T.);
#76=FACE_OUTER_BOUND('',#127,.T.);
#77=FACE_OUTER_BOUND('',#128,.T.);
#78=FACE_OUTER_BOUND('',#129,.T.);
#79=FACE_OUTER_BOUND('',#130,.T.);
#80=FACE_OUTER_BOUND('',#131,.T.);
#81=FACE_OUTER_BOUND('',#133,.T.);
#82=EDGE_LOOP('',(#664,#665,#666,#667));
#83=EDGE_LOOP('',(#668,#669,#670,#671,#672,#673,#674));
#84=EDGE_LOOP('',(#675,#676,#677,#678));
#85=EDGE_LOOP('',(#679,#680,#681,#682,#683,#684,#685));
#86=EDGE_LOOP('',(#686,#687,#688,#689));
#87=EDGE_LOOP('',(#690,#691,#692,#693));
#88=EDGE_LOOP('',(#694,#695,#696,#697));
#89=EDGE_LOOP('',(#698,#699,#700,#701));
#90=EDGE_LOOP('',(#702,#703,#704,#705,#706,#707,#708,#709,#710,#711));
#91=EDGE_LOOP('',(#712,#713,#714,#715,#716,#717,#718,#719,#720,#721));
#92=EDGE_LOOP('',(#722,#723,#724,#725));
#93=EDGE_LOOP('',(#726,#727,#728,#729,#730,#731,#732,#733,#734,#735));
#94=EDGE_LOOP('',(#736,#737,#738,#739,#740,#741,#742,#743));
#95=EDGE_LOOP('',(#744,#745,#746,#747,#748,#749,#750,#751));
#96=EDGE_LOOP('',(#752,#753,#754,#755));
#97=EDGE_LOOP('',(#756,#757,#758,#759,#760,#761,#762,#763,#764,#765));
#98=EDGE_LOOP('',(#766,#767,#768,#769));
#99=EDGE_LOOP('',(#770,#771,#772,#773));
#100=EDGE_LOOP('',(#774,#775,#776,#777,#778,#779,#780,#781,#782,#783,#784,
#785));
#101=EDGE_LOOP('',(#786,#787,#788,#789));
#102=EDGE_LOOP('',(#790,#791,#792,#793));
#103=EDGE_LOOP('',(#794,#795,#796,#797));
#104=EDGE_LOOP('',(#798,#799,#800,#801,#802,#803,#804,#805,#806,#807,#808,
#809));
#105=EDGE_LOOP('',(#810,#811,#812,#813));
#106=EDGE_LOOP('',(#814,#815,#816,#817));
#107=EDGE_LOOP('',(#818,#819,#820,#821,#822));
#108=EDGE_LOOP('',(#823,#824,#825,#826));
#109=EDGE_LOOP('',(#827,#828,#829,#830));
#110=EDGE_LOOP('',(#831,#832,#833,#834));
#111=EDGE_LOOP('',(#835,#836,#837,#838));
#112=EDGE_LOOP('',(#839,#840,#841,#842));
#113=EDGE_LOOP('',(#843,#844,#845,#846,#847));
#114=EDGE_LOOP('',(#848,#849,#850,#851));
#115=EDGE_LOOP('',(#852,#853,#854,#855));
#116=EDGE_LOOP('',(#856,#857,#858,#859));
#117=EDGE_LOOP('',(#860,#861,#862,#863,#864));
#118=EDGE_LOOP('',(#865,#866,#867,#868));
#119=EDGE_LOOP('',(#869,#870,#871,#872));
#120=EDGE_LOOP('',(#873,#874,#875,#876));
#121=EDGE_LOOP('',(#877,#878,#879,#880,#881));
#122=EDGE_LOOP('',(#882,#883,#884,#885));
#123=EDGE_LOOP('',(#886,#887,#888,#889,#890,#891,#892));
#124=EDGE_LOOP('',(#893,#894,#895,#896));
#125=EDGE_LOOP('',(#897,#898,#899,#900,#901,#902,#903));
#126=EDGE_LOOP('',(#904,#905,#906,#907));
#127=EDGE_LOOP('',(#908,#909,#910,#911));
#128=EDGE_LOOP('',(#912,#913,#914,#915));
#129=EDGE_LOOP('',(#916,#917,#918,#919));
#130=EDGE_LOOP('',(#920,#921,#922,#923));
#131=EDGE_LOOP('',(#924,#925,#926,#927,#928,#929,#930,#931));
#132=EDGE_LOOP('',(#932,#933,#934,#935,#936,#937,#938,#939));
#133=EDGE_LOOP('',(#940,#941,#942,#943));
#134=EDGE_LOOP('',(#944,#945,#946,#947));
#135=EDGE_LOOP('',(#948,#949,#950,#951));
#136=LINE('',#1375,#280);
#137=LINE('',#1377,#281);
#138=LINE('',#1379,#282);
#139=LINE('',#1380,#283);
#140=LINE('',#1383,#284);
#141=LINE('',#1385,#285);
#142=LINE('',#1387,#286);
#143=LINE('',#1389,#287);
#144=LINE('',#1391,#288);
#145=LINE('',#1392,#289);
#146=LINE('',#1395,#290);
#147=LINE('',#1397,#291);
#148=LINE('',#1398,#292);
#149=LINE('',#1400,#293);
#150=LINE('',#1402,#294);
#151=LINE('',#1404,#295);
#152=LINE('',#1406,#296);
#153=LINE('',#1407,#297);
#154=LINE('',#1409,#298);
#155=LINE('',#1410,#299);
#156=LINE('',#1413,#300);
#157=LINE('',#1418,#301);
#158=LINE('',#1420,#302);
#159=LINE('',#1422,#303);
#160=LINE('',#1424,#304);
#161=LINE('',#1426,#305);
#162=LINE('',#1428,#306);
#163=LINE('',#1430,#307);
#164=LINE('',#1432,#308);
#165=LINE('',#1434,#309);
#166=LINE('',#1435,#310);
#167=LINE('',#1439,#311);
#168=LINE('',#1441,#312);
#169=LINE('',#1443,#313);
#170=LINE('',#1445,#314);
#171=LINE('',#1447,#315);
#172=LINE('',#1449,#316);
#173=LINE('',#1451,#317);
#174=LINE('',#1453,#318);
#175=LINE('',#1455,#319);
#176=LINE('',#1456,#320);
#177=LINE('',#1460,#321);
#178=LINE('',#1462,#322);
#179=LINE('',#1464,#323);
#180=LINE('',#1465,#324);
#181=LINE('',#1468,#325);
#182=LINE('',#1470,#326);
#183=LINE('',#1471,#327);
#184=LINE('',#1472,#328);
#185=LINE('',#1474,#329);
#186=LINE('',#1476,#330);
#187=LINE('',#1477,#331);
#188=LINE('',#1480,#332);
#189=LINE('',#1482,#333);
#190=LINE('',#1484,#334);
#191=LINE('',#1486,#335);
#192=LINE('',#1488,#336);
#193=LINE('',#1489,#337);
#194=LINE('',#1492,#338);
#195=LINE('',#1494,#339);
#196=LINE('',#1496,#340);
#197=LINE('',#1498,#341);
#198=LINE('',#1500,#342);
#199=LINE('',#1502,#343);
#200=LINE('',#1504,#344);
#201=LINE('',#1505,#345);
#202=LINE('',#1509,#346);
#203=LINE('',#1510,#347);
#204=LINE('',#1511,#348);
#205=LINE('',#1514,#349);
#206=LINE('',#1516,#350);
#207=LINE('',#1517,#351);
#208=LINE('',#1518,#352);
#209=LINE('',#1520,#353);
#210=LINE('',#1521,#354);
#211=LINE('',#1524,#355);
#212=LINE('',#1525,#356);
#213=LINE('',#1528,#357);
#214=LINE('',#1529,#358);
#215=LINE('',#1532,#359);
#216=LINE('',#1534,#360);
#217=LINE('',#1536,#361);
#218=LINE('',#1538,#362);
#219=LINE('',#1539,#363);
#220=LINE('',#1540,#364);
#221=LINE('',#1544,#365);
#222=LINE('',#1546,#366);
#223=LINE('',#1547,#367);
#224=LINE('',#1550,#368);
#225=LINE('',#1552,#369);
#226=LINE('',#1553,#370);
#227=LINE('',#1556,#371);
#228=LINE('',#1558,#372);
#229=LINE('',#1560,#373);
#230=LINE('',#1562,#374);
#231=LINE('',#1563,#375);
#232=LINE('',#1564,#376);
#233=LINE('',#1566,#377);
#234=LINE('',#1569,#378);
#235=LINE('',#1571,#379);
#236=LINE('',#1572,#380);
#237=LINE('',#1575,#381);
#238=LINE('',#1576,#382);
#239=LINE('',#1579,#383);
#240=LINE('',#1580,#384);
#241=LINE('',#1583,#385);
#242=LINE('',#1584,#386);
#243=LINE('',#1586,#387);
#244=LINE('',#1587,#388);
#245=LINE('',#1589,#389);
#246=LINE('',#1591,#390);
#247=LINE('',#1593,#391);
#248=LINE('',#1595,#392);
#249=LINE('',#1597,#393);
#250=LINE('',#1599,#394);
#251=LINE('',#1603,#395);
#252=LINE('',#1605,#396);
#253=LINE('',#1606,#397);
#254=LINE('',#1608,#398);
#255=LINE('',#1611,#399);
#256=LINE('',#1612,#400);
#257=LINE('',#1614,#401);
#258=LINE('',#1618,#402);
#259=LINE('',#1620,#403);
#260=LINE('',#1622,#404);
#261=LINE('',#1623,#405);
#262=LINE('',#1626,#406);
#263=LINE('',#1628,#407);
#264=LINE('',#1630,#408);
#265=LINE('',#1632,#409);
#266=LINE('',#1634,#410);
#267=LINE('',#1635,#411);
#268=LINE('',#1638,#412);
#269=LINE('',#1640,#413);
#270=LINE('',#1641,#414);
#271=LINE('',#1643,#415);
#272=LINE('',#1645,#416);
#273=LINE('',#1647,#417);
#274=LINE('',#1649,#418);
#275=LINE('',#1650,#419);
#276=LINE('',#1652,#420);
#277=LINE('',#1653,#421);
#278=LINE('',#1656,#422);
#279=LINE('',#1660,#423);
#280=VECTOR('',#1129,10.);
#281=VECTOR('',#1130,10.);
#282=VECTOR('',#1131,10.);
#283=VECTOR('',#1132,10.);
#284=VECTOR('',#1135,10.);
#285=VECTOR('',#1136,10.);
#286=VECTOR('',#1137,10.);
#287=VECTOR('',#1138,10.);
#288=VECTOR('',#1139,10.);
#289=VECTOR('',#1140,10.);
#290=VECTOR('',#1143,10.);
#291=VECTOR('',#1144,10.);
#292=VECTOR('',#1145,10.);
#293=VECTOR('',#1148,10.);
#294=VECTOR('',#1149,10.);
#295=VECTOR('',#1150,10.);
#296=VECTOR('',#1151,10.);
#297=VECTOR('',#1152,10.);
#298=VECTOR('',#1155,10.);
#299=VECTOR('',#1156,10.);
#300=VECTOR('',#1161,10.);
#301=VECTOR('',#1166,10.);
#302=VECTOR('',#1167,10.);
#303=VECTOR('',#1168,10.);
#304=VECTOR('',#1169,10.);
#305=VECTOR('',#1170,10.);
#306=VECTOR('',#1171,10.);
#307=VECTOR('',#1172,10.);
#308=VECTOR('',#1173,10.);
#309=VECTOR('',#1174,10.);
#310=VECTOR('',#1175,10.);
#311=VECTOR('',#1178,10.);
#312=VECTOR('',#1179,10.);
#313=VECTOR('',#1180,10.);
#314=VECTOR('',#1181,10.);
#315=VECTOR('',#1182,10.);
#316=VECTOR('',#1183,10.);
#317=VECTOR('',#1184,10.);
#318=VECTOR('',#1185,10.);
#319=VECTOR('',#1186,10.);
#320=VECTOR('',#1187,10.);
#321=VECTOR('',#1190,10.);
#322=VECTOR('',#1191,10.);
#323=VECTOR('',#1192,10.);
#324=VECTOR('',#1193,10.);
#325=VECTOR('',#1196,10.);
#326=VECTOR('',#1197,10.);
#327=VECTOR('',#1198,10.);
#328=VECTOR('',#1199,10.);
#329=VECTOR('',#1200,10.);
#330=VECTOR('',#1201,10.);
#331=VECTOR('',#1202,10.);
#332=VECTOR('',#1205,10.);
#333=VECTOR('',#1206,10.);
#334=VECTOR('',#1207,10.);
#335=VECTOR('',#1208,10.);
#336=VECTOR('',#1209,10.);
#337=VECTOR('',#1210,10.);
#338=VECTOR('',#1211,10.);
#339=VECTOR('',#1212,10.);
#340=VECTOR('',#1213,10.);
#341=VECTOR('',#1214,10.);
#342=VECTOR('',#1215,10.);
#343=VECTOR('',#1216,10.);
#344=VECTOR('',#1217,10.);
#345=VECTOR('',#1218,10.);
#346=VECTOR('',#1221,10.);
#347=VECTOR('',#1222,10.);
#348=VECTOR('',#1223,10.);
#349=VECTOR('',#1226,10.);
#350=VECTOR('',#1227,10.);
#351=VECTOR('',#1228,10.);
#352=VECTOR('',#1229,10.);
#353=VECTOR('',#1230,10.);
#354=VECTOR('',#1231,10.);
#355=VECTOR('',#1234,10.);
#356=VECTOR('',#1235,10.);
#357=VECTOR('',#1238,10.);
#358=VECTOR('',#1239,10.);
#359=VECTOR('',#1242,10.);
#360=VECTOR('',#1243,10.);
#361=VECTOR('',#1244,10.);
#362=VECTOR('',#1245,10.);
#363=VECTOR('',#1246,10.);
#364=VECTOR('',#1247,10.);
#365=VECTOR('',#1252,10.);
#366=VECTOR('',#1253,10.);
#367=VECTOR('',#1254,10.);
#368=VECTOR('',#1257,10.);
#369=VECTOR('',#1258,10.);
#370=VECTOR('',#1259,10.);
#371=VECTOR('',#1262,10.);
#372=VECTOR('',#1263,10.);
#373=VECTOR('',#1264,10.);
#374=VECTOR('',#1265,10.);
#375=VECTOR('',#1266,10.);
#376=VECTOR('',#1267,10.);
#377=VECTOR('',#1270,10.);
#378=VECTOR('',#1273,10.);
#379=VECTOR('',#1274,10.);
#380=VECTOR('',#1275,10.);
#381=VECTOR('',#1278,10.);
#382=VECTOR('',#1279,10.);
#383=VECTOR('',#1282,10.);
#384=VECTOR('',#1283,10.);
#385=VECTOR('',#1286,10.);
#386=VECTOR('',#1287,10.);
#387=VECTOR('',#1290,10.);
#388=VECTOR('',#1291,10.);
#389=VECTOR('',#1294,10.);
#390=VECTOR('',#1297,10.);
#391=VECTOR('',#1300,10.);
#392=VECTOR('',#1303,10.);
#393=VECTOR('',#1306,10.);
#394=VECTOR('',#1309,10.);
#395=VECTOR('',#1314,10.);
#396=VECTOR('',#1315,10.);
#397=VECTOR('',#1316,10.);
#398=VECTOR('',#1319,10.);
#399=VECTOR('',#1322,10.);
#400=VECTOR('',#1323,10.);
#401=VECTOR('',#1326,10.);
#402=VECTOR('',#1329,10.);
#403=VECTOR('',#1330,10.);
#404=VECTOR('',#1331,10.);
#405=VECTOR('',#1332,10.);
#406=VECTOR('',#1335,10.);
#407=VECTOR('',#1336,10.);
#408=VECTOR('',#1337,10.);
#409=VECTOR('',#1338,10.);
#410=VECTOR('',#1339,10.);
#411=VECTOR('',#1340,10.);
#412=VECTOR('',#1343,10.);
#413=VECTOR('',#1344,10.);
#414=VECTOR('',#1345,10.);
#415=VECTOR('',#1348,10.);
#416=VECTOR('',#1349,10.);
#417=VECTOR('',#1350,10.);
#418=VECTOR('',#1351,10.);
#419=VECTOR('',#1352,10.);
#420=VECTOR('',#1355,10.);
#421=VECTOR('',#1356,10.);
#422=VECTOR('',#1361,10.);
#423=VECTOR('',#1368,10.);
#424=VERTEX_POINT('',#1373);
#425=VERTEX_POINT('',#1374);
#426=VERTEX_POINT('',#1376);
#427=VERTEX_POINT('',#1378);
#428=VERTEX_POINT('',#1382);
#429=VERTEX_POINT('',#1384);
#430=VERTEX_POINT('',#1386);
#431=VERTEX_POINT('',#1388);
#432=VERTEX_POINT('',#1390);
#433=VERTEX_POINT('',#1394);
#434=VERTEX_POINT('',#1396);
#435=VERTEX_POINT('',#1401);
#436=VERTEX_POINT('',#1403);
#437=VERTEX_POINT('',#1405);
#438=VERTEX_POINT('',#1416);
#439=VERTEX_POINT('',#1417);
#440=VERTEX_POINT('',#1419);
#441=VERTEX_POINT('',#1421);
#442=VERTEX_POINT('',#1423);
#443=VERTEX_POINT('',#1425);
#444=VERTEX_POINT('',#1427);
#445=VERTEX_POINT('',#1429);
#446=VERTEX_POINT('',#1431);
#447=VERTEX_POINT('',#1433);
#448=VERTEX_POINT('',#1437);
#449=VERTEX_POINT('',#1438);
#450=VERTEX_POINT('',#1440);
#451=VERTEX_POINT('',#1442);
#452=VERTEX_POINT('',#1444);
#453=VERTEX_POINT('',#1446);
#454=VERTEX_POINT('',#1448);
#455=VERTEX_POINT('',#1450);
#456=VERTEX_POINT('',#1452);
#457=VERTEX_POINT('',#1454);
#458=VERTEX_POINT('',#1458);
#459=VERTEX_POINT('',#1459);
#460=VERTEX_POINT('',#1461);
#461=VERTEX_POINT('',#1463);
#462=VERTEX_POINT('',#1467);
#463=VERTEX_POINT('',#1469);
#464=VERTEX_POINT('',#1473);
#465=VERTEX_POINT('',#1475);
#466=VERTEX_POINT('',#1479);
#467=VERTEX_POINT('',#1481);
#468=VERTEX_POINT('',#1483);
#469=VERTEX_POINT('',#1485);
#470=VERTEX_POINT('',#1487);
#471=VERTEX_POINT('',#1490);
#472=VERTEX_POINT('',#1491);
#473=VERTEX_POINT('',#1493);
#474=VERTEX_POINT('',#1495);
#475=VERTEX_POINT('',#1497);
#476=VERTEX_POINT('',#1499);
#477=VERTEX_POINT('',#1501);
#478=VERTEX_POINT('',#1503);
#479=VERTEX_POINT('',#1507);
#480=VERTEX_POINT('',#1508);
#481=VERTEX_POINT('',#1513);
#482=VERTEX_POINT('',#1515);
#483=VERTEX_POINT('',#1519);
#484=VERTEX_POINT('',#1523);
#485=VERTEX_POINT('',#1527);
#486=VERTEX_POINT('',#1531);
#487=VERTEX_POINT('',#1533);
#488=VERTEX_POINT('',#1535);
#489=VERTEX_POINT('',#1537);
#490=VERTEX_POINT('',#1543);
#491=VERTEX_POINT('',#1545);
#492=VERTEX_POINT('',#1549);
#493=VERTEX_POINT('',#1551);
#494=VERTEX_POINT('',#1555);
#495=VERTEX_POINT('',#1557);
#496=VERTEX_POINT('',#1559);
#497=VERTEX_POINT('',#1561);
#498=VERTEX_POINT('',#1568);
#499=VERTEX_POINT('',#1570);
#500=VERTEX_POINT('',#1574);
#501=VERTEX_POINT('',#1578);
#502=VERTEX_POINT('',#1582);
#503=VERTEX_POINT('',#1602);
#504=VERTEX_POINT('',#1604);
#505=VERTEX_POINT('',#1610);
#506=VERTEX_POINT('',#1616);
#507=VERTEX_POINT('',#1617);
#508=VERTEX_POINT('',#1619);
#509=VERTEX_POINT('',#1621);
#510=VERTEX_POINT('',#1625);
#511=VERTEX_POINT('',#1627);
#512=VERTEX_POINT('',#1629);
#513=VERTEX_POINT('',#1631);
#514=VERTEX_POINT('',#1633);
#515=VERTEX_POINT('',#1637);
#516=VERTEX_POINT('',#1639);
#517=VERTEX_POINT('',#1644);
#518=VERTEX_POINT('',#1646);
#519=VERTEX_POINT('',#1648);
#520=EDGE_CURVE('',#424,#425,#136,.T.);
#521=EDGE_CURVE('',#426,#424,#137,.T.);
#522=EDGE_CURVE('',#426,#427,#138,.T.);
#523=EDGE_CURVE('',#425,#427,#139,.T.);
#524=EDGE_CURVE('',#428,#424,#140,.T.);
#525=EDGE_CURVE('',#428,#429,#141,.T.);
#526=EDGE_CURVE('',#429,#430,#142,.T.);
#527=EDGE_CURVE('',#430,#431,#143,.T.);
#528=EDGE_CURVE('',#431,#432,#144,.T.);
#529=EDGE_CURVE('',#432,#426,#145,.T.);
#530=EDGE_CURVE('',#433,#428,#146,.T.);
#531=EDGE_CURVE('',#434,#433,#147,.T.);
#532=EDGE_CURVE('',#429,#434,#148,.T.);
#533=EDGE_CURVE('',#425,#433,#149,.T.);
#534=EDGE_CURVE('',#427,#435,#150,.T.);
#535=EDGE_CURVE('',#435,#436,#151,.T.);
#536=EDGE_CURVE('',#436,#437,#152,.T.);
#537=EDGE_CURVE('',#437,#434,#153,.T.);
#538=EDGE_CURVE('',#432,#435,#154,.T.);
#539=EDGE_CURVE('',#431,#436,#155,.T.);
#540=EDGE_CURVE('',#430,#437,#156,.T.);
#541=EDGE_CURVE('',#438,#439,#157,.T.);
#542=EDGE_CURVE('',#440,#439,#158,.F.);
#543=EDGE_CURVE('',#441,#440,#159,.F.);
#544=EDGE_CURVE('',#441,#442,#160,.T.);
#545=EDGE_CURVE('',#442,#443,#161,.T.);
#546=EDGE_CURVE('',#443,#444,#162,.T.);
#547=EDGE_CURVE('',#444,#445,#163,.T.);
#548=EDGE_CURVE('',#445,#446,#164,.T.);
#549=EDGE_CURVE('',#447,#446,#165,.F.);
#550=EDGE_CURVE('',#438,#447,#166,.F.);
#551=EDGE_CURVE('',#448,#449,#167,.T.);
#552=EDGE_CURVE('',#450,#449,#168,.F.);
#553=EDGE_CURVE('',#451,#450,#169,.F.);
#554=EDGE_CURVE('',#451,#452,#170,.T.);
#555=EDGE_CURVE('',#452,#453,#171,.T.);
#556=EDGE_CURVE('',#453,#454,#172,.T.);
#557=EDGE_CURVE('',#454,#455,#173,.T.);
#558=EDGE_CURVE('',#455,#456,#174,.T.);
#559=EDGE_CURVE('',#457,#456,#175,.F.);
#560=EDGE_CURVE('',#448,#457,#176,.F.);
#561=EDGE_CURVE('',#458,#459,#177,.T.);
#562=EDGE_CURVE('',#459,#460,#178,.T.);
#563=EDGE_CURVE('',#460,#461,#179,.T.);
#564=EDGE_CURVE('',#461,#458,#180,.T.);
#565=EDGE_CURVE('',#459,#462,#181,.T.);
#566=EDGE_CURVE('',#463,#462,#182,.T.);
#567=EDGE_CURVE('',#463,#455,#183,.T.);
#568=EDGE_CURVE('',#443,#454,#184,.T.);
#569=EDGE_CURVE('',#442,#464,#185,.T.);
#570=EDGE_CURVE('',#465,#464,#186,.T.);
#571=EDGE_CURVE('',#460,#465,#187,.T.);
#572=EDGE_CURVE('',#458,#466,#188,.T.);
#573=EDGE_CURVE('',#467,#466,#189,.T.);
#574=EDGE_CURVE('',#467,#468,#190,.T.);
#575=EDGE_CURVE('',#469,#468,#191,.T.);
#576=EDGE_CURVE('',#469,#470,#192,.T.);
#577=EDGE_CURVE('',#462,#470,#193,.T.);
#578=EDGE_CURVE('',#471,#472,#194,.T.);
#579=EDGE_CURVE('',#473,#471,#195,.T.);
#580=EDGE_CURVE('',#474,#473,#196,.T.);
#581=EDGE_CURVE('',#475,#474,#197,.T.);
#582=EDGE_CURVE('',#476,#475,#198,.T.);
#583=EDGE_CURVE('',#477,#476,#199,.T.);
#584=EDGE_CURVE('',#478,#477,#200,.T.);
#585=EDGE_CURVE('',#472,#478,#201,.T.);
#586=EDGE_CURVE('',#479,#480,#202,.T.);
#587=EDGE_CURVE('',#480,#467,#203,.T.);
#588=EDGE_CURVE('',#466,#479,#204,.T.);
#589=EDGE_CURVE('',#480,#481,#205,.T.);
#590=EDGE_CURVE('',#482,#481,#206,.T.);
#591=EDGE_CURVE('',#482,#445,#207,.T.);
#592=EDGE_CURVE('',#453,#444,#208,.T.);
#593=EDGE_CURVE('',#452,#483,#209,.T.);
#594=EDGE_CURVE('',#468,#483,#210,.T.);
#595=EDGE_CURVE('',#483,#484,#211,.T.);
#596=EDGE_CURVE('',#484,#469,#212,.T.);
#597=EDGE_CURVE('',#484,#485,#213,.T.);
#598=EDGE_CURVE('',#470,#485,#214,.T.);
#599=EDGE_CURVE('',#486,#451,#215,.T.);
#600=EDGE_CURVE('',#487,#486,#216,.T.);
#601=EDGE_CURVE('',#488,#487,#217,.T.);
#602=EDGE_CURVE('',#489,#488,#218,.T.);
#603=EDGE_CURVE('',#456,#489,#219,.T.);
#604=EDGE_CURVE('',#485,#463,#220,.T.);
#605=EDGE_CURVE('',#490,#465,#221,.T.);
#606=EDGE_CURVE('',#464,#491,#222,.T.);
#607=EDGE_CURVE('',#491,#490,#223,.T.);
#608=EDGE_CURVE('',#491,#492,#224,.T.);
#609=EDGE_CURVE('',#493,#492,#225,.T.);
#610=EDGE_CURVE('',#490,#493,#226,.T.);
#611=EDGE_CURVE('',#494,#441,#227,.T.);
#612=EDGE_CURVE('',#495,#494,#228,.T.);
#613=EDGE_CURVE('',#496,#495,#229,.T.);
#614=EDGE_CURVE('',#497,#496,#230,.T.);
#615=EDGE_CURVE('',#446,#497,#231,.T.);
#616=EDGE_CURVE('',#492,#482,#232,.T.);
#617=EDGE_CURVE('',#481,#493,#233,.T.);
#618=EDGE_CURVE('',#494,#498,#234,.T.);
#619=EDGE_CURVE('',#498,#499,#235,.T.);
#620=EDGE_CURVE('',#499,#495,#236,.T.);
#621=EDGE_CURVE('',#500,#440,#237,.T.);
#622=EDGE_CURVE('',#500,#498,#238,.T.);
#623=EDGE_CURVE('',#439,#501,#239,.T.);
#624=EDGE_CURVE('',#501,#500,#240,.T.);
#625=EDGE_CURVE('',#502,#438,#241,.T.);
#626=EDGE_CURVE('',#502,#501,#242,.T.);
#627=EDGE_CURVE('',#488,#477,#243,.T.);
#628=EDGE_CURVE('',#476,#489,#244,.T.);
#629=EDGE_CURVE('',#478,#487,#245,.T.);
#630=EDGE_CURVE('',#486,#472,#246,.T.);
#631=EDGE_CURVE('',#471,#450,#247,.T.);
#632=EDGE_CURVE('',#449,#473,#248,.T.);
#633=EDGE_CURVE('',#474,#448,#249,.T.);
#634=EDGE_CURVE('',#457,#475,#250,.T.);
#635=EDGE_CURVE('',#496,#503,#251,.T.);
#636=EDGE_CURVE('',#503,#504,#252,.T.);
#637=EDGE_CURVE('',#504,#497,#253,.T.);
#638=EDGE_CURVE('',#499,#503,#254,.T.);
#639=EDGE_CURVE('',#447,#505,#255,.T.);
#640=EDGE_CURVE('',#505,#502,#256,.T.);
#641=EDGE_CURVE('',#504,#505,#257,.T.);
#642=EDGE_CURVE('',#506,#507,#258,.T.);
#643=EDGE_CURVE('',#508,#506,#259,.T.);
#644=EDGE_CURVE('',#508,#509,#260,.T.);
#645=EDGE_CURVE('',#507,#509,#261,.T.);
#646=EDGE_CURVE('',#510,#506,#262,.T.);
#647=EDGE_CURVE('',#510,#511,#263,.T.);
#648=EDGE_CURVE('',#511,#512,#264,.T.);
#649=EDGE_CURVE('',#512,#513,#265,.T.);
#650=EDGE_CURVE('',#513,#514,#266,.T.);
#651=EDGE_CURVE('',#514,#508,#267,.T.);
#652=EDGE_CURVE('',#515,#510,#268,.T.);
#653=EDGE_CURVE('',#516,#515,#269,.T.);
#654=EDGE_CURVE('',#511,#516,#270,.T.);
#655=EDGE_CURVE('',#507,#515,#271,.T.);
#656=EDGE_CURVE('',#509,#517,#272,.T.);
#657=EDGE_CURVE('',#517,#518,#273,.T.);
#658=EDGE_CURVE('',#518,#519,#274,.T.);
#659=EDGE_CURVE('',#519,#516,#275,.T.);
#660=EDGE_CURVE('',#514,#517,#276,.T.);
#661=EDGE_CURVE('',#513,#518,#277,.T.);
#662=EDGE_CURVE('',#512,#519,#278,.T.);
#663=EDGE_CURVE('',#479,#461,#279,.T.);
#664=ORIENTED_EDGE('',*,*,#520,.F.);
#665=ORIENTED_EDGE('',*,*,#521,.F.);
#666=ORIENTED_EDGE('',*,*,#522,.T.);
#667=ORIENTED_EDGE('',*,*,#523,.F.);
#668=ORIENTED_EDGE('',*,*,#524,.F.);
#669=ORIENTED_EDGE('',*,*,#525,.T.);
#670=ORIENTED_EDGE('',*,*,#526,.T.);
#671=ORIENTED_EDGE('',*,*,#527,.T.);
#672=ORIENTED_EDGE('',*,*,#528,.T.);
#673=ORIENTED_EDGE('',*,*,#529,.T.);
#674=ORIENTED_EDGE('',*,*,#521,.T.);
#675=ORIENTED_EDGE('',*,*,#530,.F.);
#676=ORIENTED_EDGE('',*,*,#531,.F.);
#677=ORIENTED_EDGE('',*,*,#532,.F.);
#678=ORIENTED_EDGE('',*,*,#525,.F.);
#679=ORIENTED_EDGE('',*,*,#533,.F.);
#680=ORIENTED_EDGE('',*,*,#523,.T.);
#681=ORIENTED_EDGE('',*,*,#534,.T.);
#682=ORIENTED_EDGE('',*,*,#535,.T.);
#683=ORIENTED_EDGE('',*,*,#536,.T.);
#684=ORIENTED_EDGE('',*,*,#537,.T.);
#685=ORIENTED_EDGE('',*,*,#531,.T.);
#686=ORIENTED_EDGE('',*,*,#535,.F.);
#687=ORIENTED_EDGE('',*,*,#538,.F.);
#688=ORIENTED_EDGE('',*,*,#528,.F.);
#689=ORIENTED_EDGE('',*,*,#539,.T.);
#690=ORIENTED_EDGE('',*,*,#534,.F.);
#691=ORIENTED_EDGE('',*,*,#522,.F.);
#692=ORIENTED_EDGE('',*,*,#529,.F.);
#693=ORIENTED_EDGE('',*,*,#538,.T.);
#694=ORIENTED_EDGE('',*,*,#537,.F.);
#695=ORIENTED_EDGE('',*,*,#540,.F.);
#696=ORIENTED_EDGE('',*,*,#526,.F.);
#697=ORIENTED_EDGE('',*,*,#532,.T.);
#698=ORIENTED_EDGE('',*,*,#536,.F.);
#699=ORIENTED_EDGE('',*,*,#539,.F.);
#700=ORIENTED_EDGE('',*,*,#527,.F.);
#701=ORIENTED_EDGE('',*,*,#540,.T.);
#702=ORIENTED_EDGE('',*,*,#541,.T.);
#703=ORIENTED_EDGE('',*,*,#542,.F.);
#704=ORIENTED_EDGE('',*,*,#543,.F.);
#705=ORIENTED_EDGE('',*,*,#544,.T.);
#706=ORIENTED_EDGE('',*,*,#545,.T.);
#707=ORIENTED_EDGE('',*,*,#546,.T.);
#708=ORIENTED_EDGE('',*,*,#547,.T.);
#709=ORIENTED_EDGE('',*,*,#548,.T.);
#710=ORIENTED_EDGE('',*,*,#549,.F.);
#711=ORIENTED_EDGE('',*,*,#550,.F.);
#712=ORIENTED_EDGE('',*,*,#551,.T.);
#713=ORIENTED_EDGE('',*,*,#552,.F.);
#714=ORIENTED_EDGE('',*,*,#553,.F.);
#715=ORIENTED_EDGE('',*,*,#554,.T.);
#716=ORIENTED_EDGE('',*,*,#555,.T.);
#717=ORIENTED_EDGE('',*,*,#556,.T.);
#718=ORIENTED_EDGE('',*,*,#557,.T.);
#719=ORIENTED_EDGE('',*,*,#558,.T.);
#720=ORIENTED_EDGE('',*,*,#559,.F.);
#721=ORIENTED_EDGE('',*,*,#560,.F.);
#722=ORIENTED_EDGE('',*,*,#561,.T.);
#723=ORIENTED_EDGE('',*,*,#562,.T.);
#724=ORIENTED_EDGE('',*,*,#563,.T.);
#725=ORIENTED_EDGE('',*,*,#564,.T.);
#726=ORIENTED_EDGE('',*,*,#562,.F.);
#727=ORIENTED_EDGE('',*,*,#565,.T.);
#728=ORIENTED_EDGE('',*,*,#566,.F.);
#729=ORIENTED_EDGE('',*,*,#567,.T.);
#730=ORIENTED_EDGE('',*,*,#557,.F.);
#731=ORIENTED_EDGE('',*,*,#568,.F.);
#732=ORIENTED_EDGE('',*,*,#545,.F.);
#733=ORIENTED_EDGE('',*,*,#569,.T.);
#734=ORIENTED_EDGE('',*,*,#570,.F.);
#735=ORIENTED_EDGE('',*,*,#571,.F.);
#736=ORIENTED_EDGE('',*,*,#561,.F.);
#737=ORIENTED_EDGE('',*,*,#572,.T.);
#738=ORIENTED_EDGE('',*,*,#573,.F.);
#739=ORIENTED_EDGE('',*,*,#574,.T.);
#740=ORIENTED_EDGE('',*,*,#575,.F.);
#741=ORIENTED_EDGE('',*,*,#576,.T.);
#742=ORIENTED_EDGE('',*,*,#577,.F.);
#743=ORIENTED_EDGE('',*,*,#565,.F.);
#744=ORIENTED_EDGE('',*,*,#578,.F.);
#745=ORIENTED_EDGE('',*,*,#579,.F.);
#746=ORIENTED_EDGE('',*,*,#580,.F.);
#747=ORIENTED_EDGE('',*,*,#581,.F.);
#748=ORIENTED_EDGE('',*,*,#582,.F.);
#749=ORIENTED_EDGE('',*,*,#583,.F.);
#750=ORIENTED_EDGE('',*,*,#584,.F.);
#751=ORIENTED_EDGE('',*,*,#585,.F.);
#752=ORIENTED_EDGE('',*,*,#586,.T.);
#753=ORIENTED_EDGE('',*,*,#587,.T.);
#754=ORIENTED_EDGE('',*,*,#573,.T.);
#755=ORIENTED_EDGE('',*,*,#588,.T.);
#756=ORIENTED_EDGE('',*,*,#587,.F.);
#757=ORIENTED_EDGE('',*,*,#589,.T.);
#758=ORIENTED_EDGE('',*,*,#590,.F.);
#759=ORIENTED_EDGE('',*,*,#591,.T.);
#760=ORIENTED_EDGE('',*,*,#547,.F.);
#761=ORIENTED_EDGE('',*,*,#592,.F.);
#762=ORIENTED_EDGE('',*,*,#555,.F.);
#763=ORIENTED_EDGE('',*,*,#593,.T.);
#764=ORIENTED_EDGE('',*,*,#594,.F.);
#765=ORIENTED_EDGE('',*,*,#574,.F.);
#766=ORIENTED_EDGE('',*,*,#575,.T.);
#767=ORIENTED_EDGE('',*,*,#594,.T.);
#768=ORIENTED_EDGE('',*,*,#595,.T.);
#769=ORIENTED_EDGE('',*,*,#596,.T.);
#770=ORIENTED_EDGE('',*,*,#596,.F.);
#771=ORIENTED_EDGE('',*,*,#597,.T.);
#772=ORIENTED_EDGE('',*,*,#598,.F.);
#773=ORIENTED_EDGE('',*,*,#576,.F.);
#774=ORIENTED_EDGE('',*,*,#554,.F.);
#775=ORIENTED_EDGE('',*,*,#599,.F.);
#776=ORIENTED_EDGE('',*,*,#600,.F.);
#777=ORIENTED_EDGE('',*,*,#601,.F.);
#778=ORIENTED_EDGE('',*,*,#602,.F.);
#779=ORIENTED_EDGE('',*,*,#603,.F.);
#780=ORIENTED_EDGE('',*,*,#558,.F.);
#781=ORIENTED_EDGE('',*,*,#567,.F.);
#782=ORIENTED_EDGE('',*,*,#604,.F.);
#783=ORIENTED_EDGE('',*,*,#597,.F.);
#784=ORIENTED_EDGE('',*,*,#595,.F.);
#785=ORIENTED_EDGE('',*,*,#593,.F.);
#786=ORIENTED_EDGE('',*,*,#577,.T.);
#787=ORIENTED_EDGE('',*,*,#598,.T.);
#788=ORIENTED_EDGE('',*,*,#604,.T.);
#789=ORIENTED_EDGE('',*,*,#566,.T.);
#790=ORIENTED_EDGE('',*,*,#605,.T.);
#791=ORIENTED_EDGE('',*,*,#570,.T.);
#792=ORIENTED_EDGE('',*,*,#606,.T.);
#793=ORIENTED_EDGE('',*,*,#607,.T.);
#794=ORIENTED_EDGE('',*,*,#607,.F.);
#795=ORIENTED_EDGE('',*,*,#608,.T.);
#796=ORIENTED_EDGE('',*,*,#609,.F.);
#797=ORIENTED_EDGE('',*,*,#610,.F.);
#798=ORIENTED_EDGE('',*,*,#544,.F.);
#799=ORIENTED_EDGE('',*,*,#611,.F.);
#800=ORIENTED_EDGE('',*,*,#612,.F.);
#801=ORIENTED_EDGE('',*,*,#613,.F.);
#802=ORIENTED_EDGE('',*,*,#614,.F.);
#803=ORIENTED_EDGE('',*,*,#615,.F.);
#804=ORIENTED_EDGE('',*,*,#548,.F.);
#805=ORIENTED_EDGE('',*,*,#591,.F.);
#806=ORIENTED_EDGE('',*,*,#616,.F.);
#807=ORIENTED_EDGE('',*,*,#608,.F.);
#808=ORIENTED_EDGE('',*,*,#606,.F.);
#809=ORIENTED_EDGE('',*,*,#569,.F.);
#810=ORIENTED_EDGE('',*,*,#617,.T.);
#811=ORIENTED_EDGE('',*,*,#609,.T.);
#812=ORIENTED_EDGE('',*,*,#616,.T.);
#813=ORIENTED_EDGE('',*,*,#590,.T.);
#814=ORIENTED_EDGE('',*,*,#612,.T.);
#815=ORIENTED_EDGE('',*,*,#618,.T.);
#816=ORIENTED_EDGE('',*,*,#619,.T.);
#817=ORIENTED_EDGE('',*,*,#620,.T.);
#818=ORIENTED_EDGE('',*,*,#618,.F.);
#819=ORIENTED_EDGE('',*,*,#611,.T.);
#820=ORIENTED_EDGE('',*,*,#543,.T.);
#821=ORIENTED_EDGE('',*,*,#621,.F.);
#822=ORIENTED_EDGE('',*,*,#622,.T.);
#823=ORIENTED_EDGE('',*,*,#623,.T.);
#824=ORIENTED_EDGE('',*,*,#624,.T.);
#825=ORIENTED_EDGE('',*,*,#621,.T.);
#826=ORIENTED_EDGE('',*,*,#542,.T.);
#827=ORIENTED_EDGE('',*,*,#623,.F.);
#828=ORIENTED_EDGE('',*,*,#541,.F.);
#829=ORIENTED_EDGE('',*,*,#625,.F.);
#830=ORIENTED_EDGE('',*,*,#626,.T.);
#831=ORIENTED_EDGE('',*,*,#602,.T.);
#832=ORIENTED_EDGE('',*,*,#627,.T.);
#833=ORIENTED_EDGE('',*,*,#583,.T.);
#834=ORIENTED_EDGE('',*,*,#628,.T.);
#835=ORIENTED_EDGE('',*,*,#627,.F.);
#836=ORIENTED_EDGE('',*,*,#601,.T.);
#837=ORIENTED_EDGE('',*,*,#629,.F.);
#838=ORIENTED_EDGE('',*,*,#584,.T.);
#839=ORIENTED_EDGE('',*,*,#600,.T.);
#840=ORIENTED_EDGE('',*,*,#630,.T.);
#841=ORIENTED_EDGE('',*,*,#585,.T.);
#842=ORIENTED_EDGE('',*,*,#629,.T.);
#843=ORIENTED_EDGE('',*,*,#630,.F.);
#844=ORIENTED_EDGE('',*,*,#599,.T.);
#845=ORIENTED_EDGE('',*,*,#553,.T.);
#846=ORIENTED_EDGE('',*,*,#631,.F.);
#847=ORIENTED_EDGE('',*,*,#578,.T.);
#848=ORIENTED_EDGE('',*,*,#632,.T.);
#849=ORIENTED_EDGE('',*,*,#579,.T.);
#850=ORIENTED_EDGE('',*,*,#631,.T.);
#851=ORIENTED_EDGE('',*,*,#552,.T.);
#852=ORIENTED_EDGE('',*,*,#632,.F.);
#853=ORIENTED_EDGE('',*,*,#551,.F.);
#854=ORIENTED_EDGE('',*,*,#633,.F.);
#855=ORIENTED_EDGE('',*,*,#580,.T.);
#856=ORIENTED_EDGE('',*,*,#634,.T.);
#857=ORIENTED_EDGE('',*,*,#581,.T.);
#858=ORIENTED_EDGE('',*,*,#633,.T.);
#859=ORIENTED_EDGE('',*,*,#560,.T.);
#860=ORIENTED_EDGE('',*,*,#628,.F.);
#861=ORIENTED_EDGE('',*,*,#582,.T.);
#862=ORIENTED_EDGE('',*,*,#634,.F.);
#863=ORIENTED_EDGE('',*,*,#559,.T.);
#864=ORIENTED_EDGE('',*,*,#603,.T.);
#865=ORIENTED_EDGE('',*,*,#614,.T.);
#866=ORIENTED_EDGE('',*,*,#635,.T.);
#867=ORIENTED_EDGE('',*,*,#636,.T.);
#868=ORIENTED_EDGE('',*,*,#637,.T.);
#869=ORIENTED_EDGE('',*,*,#620,.F.);
#870=ORIENTED_EDGE('',*,*,#638,.T.);
#871=ORIENTED_EDGE('',*,*,#635,.F.);
#872=ORIENTED_EDGE('',*,*,#613,.T.);
#873=ORIENTED_EDGE('',*,*,#639,.T.);
#874=ORIENTED_EDGE('',*,*,#640,.T.);
#875=ORIENTED_EDGE('',*,*,#625,.T.);
#876=ORIENTED_EDGE('',*,*,#550,.T.);
#877=ORIENTED_EDGE('',*,*,#637,.F.);
#878=ORIENTED_EDGE('',*,*,#641,.T.);
#879=ORIENTED_EDGE('',*,*,#639,.F.);
#880=ORIENTED_EDGE('',*,*,#549,.T.);
#881=ORIENTED_EDGE('',*,*,#615,.T.);
#882=ORIENTED_EDGE('',*,*,#642,.F.);
#883=ORIENTED_EDGE('',*,*,#643,.F.);
#884=ORIENTED_EDGE('',*,*,#644,.T.);
#885=ORIENTED_EDGE('',*,*,#645,.F.);
#886=ORIENTED_EDGE('',*,*,#646,.F.);
#887=ORIENTED_EDGE('',*,*,#647,.T.);
#888=ORIENTED_EDGE('',*,*,#648,.T.);
#889=ORIENTED_EDGE('',*,*,#649,.T.);
#890=ORIENTED_EDGE('',*,*,#650,.T.);
#891=ORIENTED_EDGE('',*,*,#651,.T.);
#892=ORIENTED_EDGE('',*,*,#643,.T.);
#893=ORIENTED_EDGE('',*,*,#652,.F.);
#894=ORIENTED_EDGE('',*,*,#653,.F.);
#895=ORIENTED_EDGE('',*,*,#654,.F.);
#896=ORIENTED_EDGE('',*,*,#647,.F.);
#897=ORIENTED_EDGE('',*,*,#655,.F.);
#898=ORIENTED_EDGE('',*,*,#645,.T.);
#899=ORIENTED_EDGE('',*,*,#656,.T.);
#900=ORIENTED_EDGE('',*,*,#657,.T.);
#901=ORIENTED_EDGE('',*,*,#658,.T.);
#902=ORIENTED_EDGE('',*,*,#659,.T.);
#903=ORIENTED_EDGE('',*,*,#653,.T.);
#904=ORIENTED_EDGE('',*,*,#657,.F.);
#905=ORIENTED_EDGE('',*,*,#660,.F.);
#906=ORIENTED_EDGE('',*,*,#650,.F.);
#907=ORIENTED_EDGE('',*,*,#661,.T.);
#908=ORIENTED_EDGE('',*,*,#656,.F.);
#909=ORIENTED_EDGE('',*,*,#644,.F.);
#910=ORIENTED_EDGE('',*,*,#651,.F.);
#911=ORIENTED_EDGE('',*,*,#660,.T.);
#912=ORIENTED_EDGE('',*,*,#659,.F.);
#913=ORIENTED_EDGE('',*,*,#662,.F.);
#914=ORIENTED_EDGE('',*,*,#648,.F.);
#915=ORIENTED_EDGE('',*,*,#654,.T.);
#916=ORIENTED_EDGE('',*,*,#658,.F.);
#917=ORIENTED_EDGE('',*,*,#661,.F.);
#918=ORIENTED_EDGE('',*,*,#649,.F.);
#919=ORIENTED_EDGE('',*,*,#662,.T.);
#920=ORIENTED_EDGE('',*,*,#546,.F.);
#921=ORIENTED_EDGE('',*,*,#568,.T.);
#922=ORIENTED_EDGE('',*,*,#556,.F.);
#923=ORIENTED_EDGE('',*,*,#592,.T.);
#924=ORIENTED_EDGE('',*,*,#563,.F.);
#925=ORIENTED_EDGE('',*,*,#571,.T.);
#926=ORIENTED_EDGE('',*,*,#605,.F.);
#927=ORIENTED_EDGE('',*,*,#610,.T.);
#928=ORIENTED_EDGE('',*,*,#617,.F.);
#929=ORIENTED_EDGE('',*,*,#589,.F.);
#930=ORIENTED_EDGE('',*,*,#586,.F.);
#931=ORIENTED_EDGE('',*,*,#663,.T.);
#932=ORIENTED_EDGE('',*,*,#622,.F.);
#933=ORIENTED_EDGE('',*,*,#624,.F.);
#934=ORIENTED_EDGE('',*,*,#626,.F.);
#935=ORIENTED_EDGE('',*,*,#640,.F.);
#936=ORIENTED_EDGE('',*,*,#641,.F.);
#937=ORIENTED_EDGE('',*,*,#636,.F.);
#938=ORIENTED_EDGE('',*,*,#638,.F.);
#939=ORIENTED_EDGE('',*,*,#619,.F.);
#940=ORIENTED_EDGE('',*,*,#564,.F.);
#941=ORIENTED_EDGE('',*,*,#663,.F.);
#942=ORIENTED_EDGE('',*,*,#588,.F.);
#943=ORIENTED_EDGE('',*,*,#572,.F.);
#944=ORIENTED_EDGE('',*,*,#520,.T.);
#945=ORIENTED_EDGE('',*,*,#533,.T.);
#946=ORIENTED_EDGE('',*,*,#530,.T.);
#947=ORIENTED_EDGE('',*,*,#524,.T.);
#948=ORIENTED_EDGE('',*,*,#642,.T.);
#949=ORIENTED_EDGE('',*,*,#655,.T.);
#950=ORIENTED_EDGE('',*,*,#652,.T.);
#951=ORIENTED_EDGE('',*,*,#646,.T.);
#952=PLANE('',#1075);
#953=PLANE('',#1076);
#954=PLANE('',#1077);
#955=PLANE('',#1078);
#956=PLANE('',#1079);
#957=PLANE('',#1080);
#958=PLANE('',#1081);
#959=PLANE('',#1082);
#960=PLANE('',#1083);
#961=PLANE('',#1084);
#962=PLANE('',#1085);
#963=PLANE('',#1086);
#964=PLANE('',#1087);
#965=PLANE('',#1088);
#966=PLANE('',#1089);
#967=PLANE('',#1090);
#968=PLANE('',#1091);
#969=PLANE('',#1092);
#970=PLANE('',#1093);
#971=PLANE('',#1094);
#972=PLANE('',#1095);
#973=PLANE('',#1096);
#974=PLANE('',#1097);
#975=PLANE('',#1098);
#976=PLANE('',#1099);
#977=PLANE('',#1100);
#978=PLANE('',#1101);
#979=PLANE('',#1102);
#980=PLANE('',#1103);
#981=PLANE('',#1104);
#982=PLANE('',#1105);
#983=PLANE('',#1106);
#984=PLANE('',#1107);
#985=PLANE('',#1108);
#986=PLANE('',#1109);
#987=PLANE('',#1110);
#988=PLANE('',#1111);
#989=PLANE('',#1112);
#990=PLANE('',#1113);
#991=PLANE('',#1114);
#992=PLANE('',#1115);
#993=PLANE('',#1116);
#994=PLANE('',#1117);
#995=PLANE('',#1118);
#996=PLANE('',#1119);
#997=PLANE('',#1120);
#998=PLANE('',#1121);
#999=PLANE('',#1122);
#1000=PLANE('',#1123);
#1001=PLANE('',#1124);
#1002=ADVANCED_FACE('',(#32),#952,.T.);
#1003=ADVANCED_FACE('',(#33),#953,.T.);
#1004=ADVANCED_FACE('',(#34),#954,.T.);
#1005=ADVANCED_FACE('',(#35),#955,.T.);
#1006=ADVANCED_FACE('',(#36),#956,.T.);
#1007=ADVANCED_FACE('',(#37),#957,.T.);
#1008=ADVANCED_FACE('',(#38),#958,.T.);
#1009=ADVANCED_FACE('',(#39),#959,.T.);
#1010=ADVANCED_FACE('',(#40),#960,.T.);
#1011=ADVANCED_FACE('',(#41),#961,.T.);
#1012=ADVANCED_FACE('',(#42),#962,.T.);
#1013=ADVANCED_FACE('',(#43),#963,.T.);
#1014=ADVANCED_FACE('',(#44,#28),#964,.T.);
#1015=ADVANCED_FACE('',(#45),#965,.T.);
#1016=ADVANCED_FACE('',(#46),#966,.T.);
#1017=ADVANCED_FACE('',(#47),#967,.T.);
#1018=ADVANCED_FACE('',(#48),#968,.T.);
#1019=ADVANCED_FACE('',(#49),#969,.T.);
#1020=ADVANCED_FACE('',(#50),#970,.T.);
#1021=ADVANCED_FACE('',(#51),#971,.T.);
#1022=ADVANCED_FACE('',(#52),#972,.T.);
#1023=ADVANCED_FACE('',(#53),#973,.T.);
#1024=ADVANCED_FACE('',(#54),#974,.T.);
#1025=ADVANCED_FACE('',(#55),#975,.T.);
#1026=ADVANCED_FACE('',(#56),#976,.F.);
#1027=ADVANCED_FACE('',(#57),#977,.T.);
#1028=ADVANCED_FACE('',(#58),#978,.F.);
#1029=ADVANCED_FACE('',(#59),#979,.T.);
#1030=ADVANCED_FACE('',(#60),#980,.F.);
#1031=ADVANCED_FACE('',(#61),#981,.T.);
#1032=ADVANCED_FACE('',(#62),#982,.F.);
#1033=ADVANCED_FACE('',(#63),#983,.T.);
#1034=ADVANCED_FACE('',(#64),#984,.F.);
#1035=ADVANCED_FACE('',(#65),#985,.T.);
#1036=ADVANCED_FACE('',(#66),#986,.F.);
#1037=ADVANCED_FACE('',(#67),#987,.T.);
#1038=ADVANCED_FACE('',(#68),#988,.F.);
#1039=ADVANCED_FACE('',(#69),#989,.T.);
#1040=ADVANCED_FACE('',(#70),#990,.F.);
#1041=ADVANCED_FACE('',(#71),#991,.T.);
#1042=ADVANCED_FACE('',(#72),#992,.T.);
#1043=ADVANCED_FACE('',(#73),#993,.T.);
#1044=ADVANCED_FACE('',(#74),#994,.T.);
#1045=ADVANCED_FACE('',(#75),#995,.T.);
#1046=ADVANCED_FACE('',(#76),#996,.T.);
#1047=ADVANCED_FACE('',(#77),#997,.T.);
#1048=ADVANCED_FACE('',(#78),#998,.T.);
#1049=ADVANCED_FACE('',(#79),#999,.T.);
#1050=ADVANCED_FACE('',(#80,#29),#1000,.T.);
#1051=ADVANCED_FACE('',(#81,#30,#31),#1001,.F.);
#1052=CLOSED_SHELL('',(#1002,#1003,#1004,#1005,#1006,#1007,#1008,#1009,
#1010,#1011,#1012,#1013,#1014,#1015,#1016,#1017,#1018,#1019,#1020,#1021,
#1022,#1023,#1024,#1025,#1026,#1027,#1028,#1029,#1030,#1031,#1032,#1033,
#1034,#1035,#1036,#1037,#1038,#1039,#1040,#1041,#1042,#1043,#1044,#1045,
#1046,#1047,#1048,#1049,#1050,#1051));
#1053=DERIVED_UNIT_ELEMENT(#1056,1.);
#1054=DERIVED_UNIT_ELEMENT(#1677,-3.);
#1055=DIMENSIONAL_EXPONENTS(0.,1.,0.,0.,0.,0.,0.);
#1056=(
CONVERSION_BASED_UNIT('gram',#1058)
MASS_UNIT()
NAMED_UNIT(#1055)
);
#1057=(
MASS_UNIT()
NAMED_UNIT(*)
SI_UNIT(.KILO.,.GRAM.)
);
#1058=MASS_MEASURE_WITH_UNIT(MASS_MEASURE(0.001),#1057);
#1059=DERIVED_UNIT((#1053,#1054));
#1060=MEASURE_REPRESENTATION_ITEM('density measure',
POSITIVE_RATIO_MEASURE(1.),#1059);
#1061=PROPERTY_DEFINITION_REPRESENTATION(#1066,#1063);
#1062=PROPERTY_DEFINITION_REPRESENTATION(#1067,#1064);
#1063=REPRESENTATION('material name',(#1065),#1674);
#1064=REPRESENTATION('density',(#1060),#1674);
#1065=DESCRIPTIVE_REPRESENTATION_ITEM('Og\X\F3lny','Og\X\F3lny');
#1066=PROPERTY_DEFINITION('material property','material name',#1684);
#1067=PROPERTY_DEFINITION('material property','density of part',#1684);
#1068=DATE_TIME_ROLE('creation_date');
#1069=APPLIED_DATE_AND_TIME_ASSIGNMENT(#1070,#1068,(#1684));
#1070=DATE_AND_TIME(#1071,#1072);
#1071=CALENDAR_DATE(2026,21,7);
#1072=LOCAL_TIME(0,0,0.,#1073);
#1073=COORDINATED_UNIVERSAL_TIME_OFFSET(0,0,.BEHIND.);
#1074=AXIS2_PLACEMENT_3D('',#1371,#1125,#1126);
#1075=AXIS2_PLACEMENT_3D('',#1372,#1127,#1128);
#1076=AXIS2_PLACEMENT_3D('',#1381,#1133,#1134);
#1077=AXIS2_PLACEMENT_3D('',#1393,#1141,#1142);
#1078=AXIS2_PLACEMENT_3D('',#1399,#1146,#1147);
#1079=AXIS2_PLACEMENT_3D('',#1408,#1153,#1154);
#1080=AXIS2_PLACEMENT_3D('',#1411,#1157,#1158);
#1081=AXIS2_PLACEMENT_3D('',#1412,#1159,#1160);
#1082=AXIS2_PLACEMENT_3D('',#1414,#1162,#1163);
#1083=AXIS2_PLACEMENT_3D('',#1415,#1164,#1165);
#1084=AXIS2_PLACEMENT_3D('',#1436,#1176,#1177);
#1085=AXIS2_PLACEMENT_3D('',#1457,#1188,#1189);
#1086=AXIS2_PLACEMENT_3D('',#1466,#1194,#1195);
#1087=AXIS2_PLACEMENT_3D('',#1478,#1203,#1204);
#1088=AXIS2_PLACEMENT_3D('',#1506,#1219,#1220);
#1089=AXIS2_PLACEMENT_3D('',#1512,#1224,#1225);
#1090=AXIS2_PLACEMENT_3D('',#1522,#1232,#1233);
#1091=AXIS2_PLACEMENT_3D('',#1526,#1236,#1237);
#1092=AXIS2_PLACEMENT_3D('',#1530,#1240,#1241);
#1093=AXIS2_PLACEMENT_3D('',#1541,#1248,#1249);
#1094=AXIS2_PLACEMENT_3D('',#1542,#1250,#1251);
#1095=AXIS2_PLACEMENT_3D('',#1548,#1255,#1256);
#1096=AXIS2_PLACEMENT_3D('',#1554,#1260,#1261);
#1097=AXIS2_PLACEMENT_3D('',#1565,#1268,#1269);
#1098=AXIS2_PLACEMENT_3D('',#1567,#1271,#1272);
#1099=AXIS2_PLACEMENT_3D('',#1573,#1276,#1277);
#1100=AXIS2_PLACEMENT_3D('',#1577,#1280,#1281);
#1101=AXIS2_PLACEMENT_3D('',#1581,#1284,#1285);
#1102=AXIS2_PLACEMENT_3D('',#1585,#1288,#1289);
#1103=AXIS2_PLACEMENT_3D('',#1588,#1292,#1293);
#1104=AXIS2_PLACEMENT_3D('',#1590,#1295,#1296);
#1105=AXIS2_PLACEMENT_3D('',#1592,#1298,#1299);
#1106=AXIS2_PLACEMENT_3D('',#1594,#1301,#1302);
#1107=AXIS2_PLACEMENT_3D('',#1596,#1304,#1305);
#1108=AXIS2_PLACEMENT_3D('',#1598,#1307,#1308);
#1109=AXIS2_PLACEMENT_3D('',#1600,#1310,#1311);
#1110=AXIS2_PLACEMENT_3D('',#1601,#1312,#1313);
#1111=AXIS2_PLACEMENT_3D('',#1607,#1317,#1318);
#1112=AXIS2_PLACEMENT_3D('',#1609,#1320,#1321);
#1113=AXIS2_PLACEMENT_3D('',#1613,#1324,#1325);
#1114=AXIS2_PLACEMENT_3D('',#1615,#1327,#1328);
#1115=AXIS2_PLACEMENT_3D('',#1624,#1333,#1334);
#1116=AXIS2_PLACEMENT_3D('',#1636,#1341,#1342);
#1117=AXIS2_PLACEMENT_3D('',#1642,#1346,#1347);
#1118=AXIS2_PLACEMENT_3D('',#1651,#1353,#1354);
#1119=AXIS2_PLACEMENT_3D('',#1654,#1357,#1358);
#1120=AXIS2_PLACEMENT_3D('',#1655,#1359,#1360);
#1121=AXIS2_PLACEMENT_3D('',#1657,#1362,#1363);
#1122=AXIS2_PLACEMENT_3D('',#1658,#1364,#1365);
#1123=AXIS2_PLACEMENT_3D('',#1659,#1366,#1367);
#1124=AXIS2_PLACEMENT_3D('',#1661,#1369,#1370);
#1125=DIRECTION('axis',(0.,0.,1.));
#1126=DIRECTION('refdir',(1.,0.,0.));
#1127=DIRECTION('center_axis',(-1.,0.,0.));
#1128=DIRECTION('ref_axis',(0.,-1.,0.));
#1129=DIRECTION('',(0.,0.,1.));
#1130=DIRECTION('',(0.,0.992277876713668,-0.124034734589209));
#1131=DIRECTION('',(0.,0.,1.));
#1132=DIRECTION('',(0.,-0.992277876713668,-0.124034734589209));
#1133=DIRECTION('center_axis',(0.,-0.124034734589209,-0.992277876713668));
#1134=DIRECTION('ref_axis',(0.,-0.992277876713668,0.124034734589209));
#1135=DIRECTION('',(-1.,0.,0.));
#1136=DIRECTION('',(-0.147219871443575,-0.981465809623833,0.122683226202979));
#1137=DIRECTION('',(-1.,0.,0.));
#1138=DIRECTION('',(-0.63986082103205,0.762556432225226,-0.0953195540281533));
#1139=DIRECTION('',(0.,0.992277876713668,-0.124034734589209));
#1140=DIRECTION('',(0.763583608802901,0.640722724519531,-0.0800903405649414));
#1141=DIRECTION('center_axis',(0.988936352868298,-0.148340452930245,0.));
#1142=DIRECTION('ref_axis',(0.148340452930245,0.988936352868298,0.));
#1143=DIRECTION('',(0.,0.,-1.));
#1144=DIRECTION('',(0.147219871443575,0.981465809623833,0.122683226202979));
#1145=DIRECTION('',(0.,0.,1.));
#1146=DIRECTION('center_axis',(0.,-0.124034734589209,0.992277876713668));
#1147=DIRECTION('ref_axis',(0.,0.992277876713668,0.124034734589209));
#1148=DIRECTION('',(1.,0.,0.));
#1149=DIRECTION('',(-0.763583608802901,-0.640722724519531,-0.0800903405649414));
#1150=DIRECTION('',(0.,-0.992277876713668,-0.124034734589209));
#1151=DIRECTION('',(0.63986082103205,-0.762556432225226,-0.0953195540281533));
#1152=DIRECTION('',(1.,0.,0.));
#1153=DIRECTION('center_axis',(-1.,0.,0.));
#1154=DIRECTION('ref_axis',(0.,-1.,0.));
#1155=DIRECTION('',(0.,0.,1.));
#1156=DIRECTION('',(0.,0.,1.));
#1157=DIRECTION('center_axis',(-0.642787609686539,0.766044443118978,0.));
#1158=DIRECTION('ref_axis',(0.,0.,-1.));
#1159=DIRECTION('center_axis',(0.,-1.,0.));
#1160=DIRECTION('ref_axis',(0.,0.,1.));
#1161=DIRECTION('',(0.,0.,1.));
#1162=DIRECTION('center_axis',(-0.766044443118978,-0.642787609686539,0.));
#1163=DIRECTION('ref_axis',(0.,0.,1.));
#1164=DIRECTION('center_axis',(0.,0.788205438016109,0.615412209402636));
#1165=DIRECTION('ref_axis',(1.,0.,0.));
#1166=DIRECTION('',(-1.,0.,0.));
#1167=DIRECTION('',(-0.524114470903346,0.524114470903346,-0.671273448588138));
#1168=DIRECTION('',(0.,0.615412209402636,-0.788205438016109));
#1169=DIRECTION('',(-1.,0.,0.));
#1170=DIRECTION('',(0.,-0.615412209402636,0.788205438016109));
#1171=DIRECTION('',(1.,0.,0.));
#1172=DIRECTION('',(0.,0.615412209402636,-0.788205438016109));
#1173=DIRECTION('',(-1.,0.,0.));
#1174=DIRECTION('',(0.,-0.615412209402636,0.788205438016109));
#1175=DIRECTION('',(-0.524114470903345,-0.524114470903346,0.671273448588139));
#1176=DIRECTION('center_axis',(0.,0.788205438016109,-0.615412209402635));
#1177=DIRECTION('ref_axis',(-1.,0.,0.));
#1178=DIRECTION('',(1.,0.,0.));
#1179=DIRECTION('',(0.524114470903345,0.524114470903345,0.671273448588139));
#1180=DIRECTION('',(0.,0.615412209402635,0.788205438016109));
#1181=DIRECTION('',(1.,0.,0.));
#1182=DIRECTION('',(0.,-0.615412209402635,-0.788205438016109));
#1183=DIRECTION('',(-1.,0.,0.));
#1184=DIRECTION('',(0.,0.615412209402635,0.788205438016109));
#1185=DIRECTION('',(1.,0.,0.));
#1186=DIRECTION('',(0.,-0.615412209402635,-0.788205438016109));
#1187=DIRECTION('',(0.524114470903345,-0.524114470903345,-0.671273448588139));
#1188=DIRECTION('center_axis',(-0.707106781186547,-0.707106781186548,0.));
#1189=DIRECTION('ref_axis',(0.,0.,1.));
#1190=DIRECTION('',(-0.707106781186548,0.707106781186547,0.));
#1191=DIRECTION('',(0.,0.,-1.));
#1192=DIRECTION('',(0.707106781186548,-0.707106781186547,0.));
#1193=DIRECTION('',(0.,0.,1.));
#1194=DIRECTION('center_axis',(-1.,0.,0.));
#1195=DIRECTION('ref_axis',(0.,0.,1.));
#1196=DIRECTION('',(0.,1.,0.));
#1197=DIRECTION('',(0.,0.,1.));
#1198=DIRECTION('',(0.,-0.970142500145332,-0.242535625036333));
#1199=DIRECTION('',(0.,0.,1.));
#1200=DIRECTION('',(0.,0.970142500145332,-0.242535625036333));
#1201=DIRECTION('',(0.,0.,1.));
#1202=DIRECTION('',(0.,1.,0.));
#1203=DIRECTION('center_axis',(0.,0.,1.));
#1204=DIRECTION('ref_axis',(1.,0.,0.));
#1205=DIRECTION('',(1.,0.,0.));
#1206=DIRECTION('',(-0.707106781186547,-0.707106781186548,0.));
#1207=DIRECTION('',(0.,1.,0.));
#1208=DIRECTION('',(0.707106781186548,-0.707106781186548,0.));
#1209=DIRECTION('',(-1.,0.,0.));
#1210=DIRECTION('',(0.707106781186546,0.707106781186548,0.));
#1211=DIRECTION('',(0.,1.,0.));
#1212=DIRECTION('',(0.707106781186548,0.707106781186548,0.));
#1213=DIRECTION('',(1.,0.,0.));
#1214=DIRECTION('',(0.707106781186548,-0.707106781186548,0.));
#1215=DIRECTION('',(0.,-1.,0.));
#1216=DIRECTION('',(-0.707106781186548,-0.707106781186548,0.));
#1217=DIRECTION('',(-1.,0.,0.));
#1218=DIRECTION('',(-0.707106781186547,0.707106781186548,0.));
#1219=DIRECTION('center_axis',(0.707106781186548,-0.707106781186547,0.));
#1220=DIRECTION('ref_axis',(0.,0.,-1.));
#1221=DIRECTION('',(0.707106781186547,0.707106781186548,0.));
#1222=DIRECTION('',(0.,0.,1.));
#1223=DIRECTION('',(0.,0.,-1.));
#1224=DIRECTION('center_axis',(1.,0.,0.));
#1225=DIRECTION('ref_axis',(0.,0.,-1.));
#1226=DIRECTION('',(0.,1.,0.));
#1227=DIRECTION('',(0.,0.,-1.));
#1228=DIRECTION('',(0.,-0.970142500145332,0.242535625036333));
#1229=DIRECTION('',(0.,0.,-1.));
#1230=DIRECTION('',(0.,0.970142500145332,0.242535625036333));
#1231=DIRECTION('',(0.,0.,-1.));
#1232=DIRECTION('center_axis',(0.707106781186548,0.707106781186548,0.));
#1233=DIRECTION('ref_axis',(0.,0.,-1.));
#1234=DIRECTION('',(-0.696310623822791,0.696310623822791,0.174077655955698));
#1235=DIRECTION('',(0.,0.,1.));
#1236=DIRECTION('center_axis',(0.,1.,0.));
#1237=DIRECTION('ref_axis',(-1.,0.,0.));
#1238=DIRECTION('',(-1.,0.,0.));
#1239=DIRECTION('',(0.,0.,-1.));
#1240=DIRECTION('center_axis',(0.,0.242535625036333,-0.970142500145332));
#1241=DIRECTION('ref_axis',(0.,-0.970142500145332,-0.242535625036333));
#1242=DIRECTION('',(0.,-0.970142500145332,-0.242535625036333));
#1243=DIRECTION('',(0.696310623822791,-0.696310623822792,-0.174077655955698));
#1244=DIRECTION('',(1.,0.,0.));
#1245=DIRECTION('',(0.696310623822791,0.696310623822791,0.174077655955698));
#1246=DIRECTION('',(0.,0.970142500145332,0.242535625036333));
#1247=DIRECTION('',(-0.69631062382279,-0.696310623822792,-0.174077655955698));
#1248=DIRECTION('center_axis',(-0.707106781186549,0.707106781186547,0.));
#1249=DIRECTION('ref_axis',(0.,0.,1.));
#1250=DIRECTION('center_axis',(-0.707106781186548,0.707106781186547,0.));
#1251=DIRECTION('ref_axis',(0.,0.,1.));
#1252=DIRECTION('',(-0.707106781186547,-0.707106781186548,0.));
#1253=DIRECTION('',(0.69631062382279,0.696310623822792,-0.174077655955698));
#1254=DIRECTION('',(0.,0.,-1.));
#1255=DIRECTION('center_axis',(0.,1.,0.));
#1256=DIRECTION('ref_axis',(1.,0.,0.));
#1257=DIRECTION('',(1.,0.,0.));
#1258=DIRECTION('',(0.,0.,1.));
#1259=DIRECTION('',(1.,0.,0.));
#1260=DIRECTION('center_axis',(0.,0.242535625036333,0.970142500145332));
#1261=DIRECTION('ref_axis',(0.,-0.970142500145332,0.242535625036333));
#1262=DIRECTION('',(0.,-0.970142500145332,0.242535625036333));
#1263=DIRECTION('',(-0.696310623822791,-0.696310623822791,0.174077655955698));
#1264=DIRECTION('',(-1.,0.,0.));
#1265=DIRECTION('',(-0.696310623822791,0.696310623822791,-0.174077655955698));
#1266=DIRECTION('',(0.,0.970142500145332,-0.242535625036333));
#1267=DIRECTION('',(0.69631062382279,-0.696310623822792,0.174077655955698));
#1268=DIRECTION('center_axis',(0.707106781186549,0.707106781186547,0.));
#1269=DIRECTION('ref_axis',(0.,0.,-1.));
#1270=DIRECTION('',(-0.707106781186546,0.707106781186548,0.));
#1271=DIRECTION('center_axis',(0.707106781186548,-0.707106781186548,0.));
#1272=DIRECTION('ref_axis',(0.,0.,-1.));
#1273=DIRECTION('',(0.,0.,-1.));
#1274=DIRECTION('',(0.707106781186547,0.707106781186547,0.));
#1275=DIRECTION('',(0.,0.,1.));
#1276=DIRECTION('center_axis',(-1.,0.,0.));
#1277=DIRECTION('ref_axis',(0.,1.,0.));
#1278=DIRECTION('',(0.,0.,1.));
#1279=DIRECTION('',(0.,1.,0.));
#1280=DIRECTION('center_axis',(0.707106781186548,0.707106781186548,0.));
#1281=DIRECTION('ref_axis',(0.,0.,-1.));
#1282=DIRECTION('',(0.,0.,-1.));
#1283=DIRECTION('',(-0.707106781186548,0.707106781186548,0.));
#1284=DIRECTION('center_axis',(0.,-1.,0.));
#1285=DIRECTION('ref_axis',(-1.,0.,0.));
#1286=DIRECTION('',(0.,0.,1.));
#1287=DIRECTION('',(-1.,0.,0.));
#1288=DIRECTION('center_axis',(0.707106781186548,-0.707106781186548,0.));
#1289=DIRECTION('ref_axis',(0.,0.,-1.));
#1290=DIRECTION('',(0.,0.,1.));
#1291=DIRECTION('',(0.,0.,-1.));
#1292=DIRECTION('center_axis',(0.,1.,0.));
#1293=DIRECTION('ref_axis',(-1.,0.,0.));
#1294=DIRECTION('',(0.,0.,-1.));
#1295=DIRECTION('center_axis',(-0.707106781186548,-0.707106781186547,0.));
#1296=DIRECTION('ref_axis',(0.,0.,1.));
#1297=DIRECTION('',(0.,0.,1.));
#1298=DIRECTION('center_axis',(1.,0.,0.));
#1299=DIRECTION('ref_axis',(0.,1.,0.));
#1300=DIRECTION('',(0.,0.,-1.));
#1301=DIRECTION('center_axis',(-0.707106781186548,0.707106781186548,0.));
#1302=DIRECTION('ref_axis',(0.,0.,1.));
#1303=DIRECTION('',(0.,0.,1.));
#1304=DIRECTION('center_axis',(0.,-1.,0.));
#1305=DIRECTION('ref_axis',(1.,0.,0.));
#1306=DIRECTION('',(0.,0.,-1.));
#1307=DIRECTION('center_axis',(0.707106781186548,0.707106781186548,0.));
#1308=DIRECTION('ref_axis',(0.,0.,-1.));
#1309=DIRECTION('',(0.,0.,1.));
#1310=DIRECTION('center_axis',(-1.,0.,0.));
#1311=DIRECTION('ref_axis',(0.,-1.,0.));
#1312=DIRECTION('center_axis',(-0.707106781186548,-0.707106781186548,0.));
#1313=DIRECTION('ref_axis',(0.,0.,1.));
#1314=DIRECTION('',(0.,0.,-1.));
#1315=DIRECTION('',(0.707106781186548,-0.707106781186548,0.));
#1316=DIRECTION('',(0.,0.,1.));
#1317=DIRECTION('center_axis',(0.,1.,0.));
#1318=DIRECTION('ref_axis',(1.,0.,0.));
#1319=DIRECTION('',(1.,0.,0.));
#1320=DIRECTION('center_axis',(-0.707106781186548,0.707106781186547,0.));
#1321=DIRECTION('ref_axis',(0.,0.,1.));
#1322=DIRECTION('',(0.,0.,-1.));
#1323=DIRECTION('',(-0.707106781186547,-0.707106781186548,0.));
#1324=DIRECTION('center_axis',(1.,0.,0.));
#1325=DIRECTION('ref_axis',(0.,-1.,0.));
#1326=DIRECTION('',(0.,-1.,0.));
#1327=DIRECTION('center_axis',(1.,0.,0.));
#1328=DIRECTION('ref_axis',(0.,-1.,0.));
#1329=DIRECTION('',(0.,0.,-1.));
#1330=DIRECTION('',(0.,0.992277876713668,0.124034734589209));
#1331=DIRECTION('',(0.,0.,-1.));
#1332=DIRECTION('',(0.,-0.992277876713668,0.124034734589209));
#1333=DIRECTION('center_axis',(0.,-0.124034734589209,0.992277876713668));
#1334=DIRECTION('ref_axis',(0.,-0.992277876713668,-0.124034734589209));
#1335=DIRECTION('',(1.,0.,0.));
#1336=DIRECTION('',(0.147219871443575,-0.981465809623833,-0.122683226202979));
#1337=DIRECTION('',(1.,0.,0.));
#1338=DIRECTION('',(0.63986082103205,0.762556432225226,0.0953195540281533));
#1339=DIRECTION('',(0.,0.992277876713668,0.124034734589209));
#1340=DIRECTION('',(-0.763583608802901,0.640722724519531,0.0800903405649414));
#1341=DIRECTION('center_axis',(-0.988936352868298,-0.148340452930245,0.));
#1342=DIRECTION('ref_axis',(-0.148340452930245,0.988936352868298,0.));
#1343=DIRECTION('',(0.,0.,1.));
#1344=DIRECTION('',(-0.147219871443575,0.981465809623833,-0.122683226202979));
#1345=DIRECTION('',(0.,0.,-1.));
#1346=DIRECTION('center_axis',(0.,-0.124034734589209,-0.992277876713668));
#1347=DIRECTION('ref_axis',(0.,0.992277876713668,-0.124034734589209));
#1348=DIRECTION('',(-1.,0.,0.));
#1349=DIRECTION('',(0.763583608802901,-0.640722724519531,0.0800903405649414));
#1350=DIRECTION('',(0.,-0.992277876713668,0.124034734589209));
#1351=DIRECTION('',(-0.63986082103205,-0.762556432225226,0.0953195540281533));
#1352=DIRECTION('',(-1.,0.,0.));
#1353=DIRECTION('center_axis',(1.,0.,0.));
#1354=DIRECTION('ref_axis',(0.,-1.,0.));
#1355=DIRECTION('',(0.,0.,-1.));
#1356=DIRECTION('',(0.,0.,-1.));
#1357=DIRECTION('center_axis',(0.642787609686539,0.766044443118978,0.));
#1358=DIRECTION('ref_axis',(0.,0.,1.));
#1359=DIRECTION('center_axis',(0.,-1.,0.));
#1360=DIRECTION('ref_axis',(0.,0.,-1.));
#1361=DIRECTION('',(0.,0.,-1.));
#1362=DIRECTION('center_axis',(0.766044443118978,-0.642787609686539,0.));
#1363=DIRECTION('ref_axis',(0.,0.,-1.));
#1364=DIRECTION('center_axis',(0.,1.,0.));
#1365=DIRECTION('ref_axis',(0.,0.,1.));
#1366=DIRECTION('center_axis',(0.,0.,-1.));
#1367=DIRECTION('ref_axis',(-1.,0.,0.));
#1368=DIRECTION('',(-1.,0.,0.));
#1369=DIRECTION('center_axis',(0.,1.,0.));
#1370=DIRECTION('ref_axis',(0.,0.,1.));
#1371=CARTESIAN_POINT('',(0.,0.,0.));
#1372=CARTESIAN_POINT('Origin',(-14.1,-4.,-42.35));
#1373=CARTESIAN_POINT('',(-14.1,0.,-28.));
#1374=CARTESIAN_POINT('',(-14.1,0.,-12.));
#1375=CARTESIAN_POINT('',(-14.1,0.,-31.175));
#1376=CARTESIAN_POINT('',(-14.1,-4.,-27.5));
#1377=CARTESIAN_POINT('',(-14.1,-4.33615384615385,-27.4579807692308));
#1378=CARTESIAN_POINT('',(-14.1,-4.,-12.5));
#1379=CARTESIAN_POINT('',(-14.1,-4.,-42.35));
#1380=CARTESIAN_POINT('',(-14.1,1.41307692307692,-11.8233653846154));
#1381=CARTESIAN_POINT('Origin',(-9.81,-6.5,-27.1875));
#1382=CARTESIAN_POINT('',(-12.1,0.,-28.));
#1383=CARTESIAN_POINT('',(-9.905,-5.55111512312578E-16,-28.));
#1384=CARTESIAN_POINT('',(-13.075,-6.5,-27.1875));
#1385=CARTESIAN_POINT('',(-11.6468798916315,3.02080072245635,-28.377600090307));
#1386=CARTESIAN_POINT('',(-14.0419789655696,-6.5,-27.1875));
#1387=CARTESIAN_POINT('',(-11.4425,-6.5,-27.1875));
#1388=CARTESIAN_POINT('',(-15.1,-5.23909963117728,-27.3451125461028));
#1389=CARTESIAN_POINT('',(-13.6380364936747,-6.9813998920821,-27.1273250134897));
#1390=CARTESIAN_POINT('',(-15.1,-4.83909963117728,-27.3951125461028));
#1391=CARTESIAN_POINT('',(-15.1,-4.94617212611805,-27.3817284842352));
#1392=CARTESIAN_POINT('',(-13.5131606510828,-3.50758331876324,-27.5615520851546));
#1393=CARTESIAN_POINT('Origin',(-10.525,10.5,-42.35));
#1394=CARTESIAN_POINT('',(-12.1,0.,-12.));
#1395=CARTESIAN_POINT('',(-12.1,0.,-31.175));
#1396=CARTESIAN_POINT('',(-13.075,-6.5,-12.8125));
#1397=CARTESIAN_POINT('',(-10.803186333534,8.64542444310656,-10.9193219446117));
#1398=CARTESIAN_POINT('',(-13.075,-6.5,-42.35));
#1399=CARTESIAN_POINT('Origin',(-9.81,10.5,-10.6875));
#1400=CARTESIAN_POINT('',(-9.905,5.55111512312578E-16,-12.));
#1401=CARTESIAN_POINT('',(-15.1,-4.83909963117728,-12.6048874538972));
#1402=CARTESIAN_POINT('',(-10.6564263564704,-1.11049862578248,-12.1388123282228));
#1403=CARTESIAN_POINT('',(-15.1,-5.23909963117728,-12.6548874538972));
#1404=CARTESIAN_POINT('',(-15.1,0.803058643112722,-11.8996176696109));
#1405=CARTESIAN_POINT('',(-14.0419789655696,-6.5,-12.8125));
#1406=CARTESIAN_POINT('',(-16.4870901705862,-3.58602993712901,-12.4482537421411));
#1407=CARTESIAN_POINT('',(-11.4425,-6.5,-12.8125));
#1408=CARTESIAN_POINT('Origin',(-15.1,-5.23909963117728,-42.35));
#1409=CARTESIAN_POINT('',(-15.1,-4.83909963117728,-42.35));
#1410=CARTESIAN_POINT('',(-15.1,-5.23909963117728,-42.35));
#1411=CARTESIAN_POINT('Origin',(-15.1,-4.83909963117728,-42.35));
#1412=CARTESIAN_POINT('Origin',(-13.075,-6.5,-42.35));
#1413=CARTESIAN_POINT('',(-14.0419789655696,-6.5,-42.35));
#1414=CARTESIAN_POINT('Origin',(-14.0419789655696,-6.5,-42.35));
#1415=CARTESIAN_POINT('Origin',(-22.,5.94028500029066,-34.4850712500727));
#1416=CARTESIAN_POINT('',(-4.8,6.,-34.5615528128088));
#1417=CARTESIAN_POINT('',(-15.2,6.,-34.5615528128088));
#1418=CARTESIAN_POINT('',(-19.,6.,-34.5615528128088));
#1419=CARTESIAN_POINT('',(-16.,6.8,-35.5861739379324));
#1420=CARTESIAN_POINT('',(-15.7012160855588,6.50121608555883,-35.2034985497029));
#1421=CARTESIAN_POINT('',(-16.,7.88057000058133,-36.9701425001453));
#1422=CARTESIAN_POINT('',(-16.,6.0093248125763,-34.5734958127507));
#1423=CARTESIAN_POINT('',(-20.,7.88057000058133,-36.9701425001453));
#1424=CARTESIAN_POINT('',(-22.,7.88057000058133,-36.9701425001453));
#1425=CARTESIAN_POINT('',(-20.,4.,-32.));
#1426=CARTESIAN_POINT('',(-20.,6.15296312547233,-34.7574643749637));
#1427=CARTESIAN_POINT('',(0.,4.,-32.));
#1428=CARTESIAN_POINT('',(-22.,4.,-32.));
#1429=CARTESIAN_POINT('',(0.,7.88057000058133,-36.9701425001453));
#1430=CARTESIAN_POINT('',(0.,-3.54846187598099,-22.3321081246003));
#1431=CARTESIAN_POINT('',(-4.,7.88057000058133,-36.9701425001453));
#1432=CARTESIAN_POINT('',(-22.,7.88057000058133,-36.9701425001453));
#1433=CARTESIAN_POINT('',(-4.,6.8,-35.5861739379324));
#1434=CARTESIAN_POINT('',(-4.,5.25186043761263,-33.6033533126054));
#1435=CARTESIAN_POINT('',(-7.5951356577647,3.2048643422353,-30.9816090096441));
#1436=CARTESIAN_POINT('Origin',(2.,5.94028500029066,-5.51492874992734));
#1437=CARTESIAN_POINT('',(-15.2,6.,-5.43844718719117));
#1438=CARTESIAN_POINT('',(-4.8,6.,-5.43844718719117));
#1439=CARTESIAN_POINT('',(-1.,6.,-5.43844718719117));
#1440=CARTESIAN_POINT('',(-4.,6.8,-4.41382606206764));
#1441=CARTESIAN_POINT('',(-4.29878391444118,6.50121608555882,-4.79650145029705));
#1442=CARTESIAN_POINT('',(-4.,7.88057000058133,-3.02985749985467));
#1443=CARTESIAN_POINT('',(-4.,6.0093248125763,-5.42650418724931));
#1444=CARTESIAN_POINT('',(0.,7.88057000058133,-3.02985749985467));
#1445=CARTESIAN_POINT('',(2.,7.88057000058133,-3.02985749985467));
#1446=CARTESIAN_POINT('',(0.,4.,-8.));
#1447=CARTESIAN_POINT('',(1.38777878078145E-16,6.15296312547233,-5.24253562503633));
#1448=CARTESIAN_POINT('',(-20.,4.,-8.));
#1449=CARTESIAN_POINT('',(2.,4.,-8.));
#1450=CARTESIAN_POINT('',(-20.,7.88057000058133,-3.02985749985467));
#1451=CARTESIAN_POINT('',(-20.,-3.54846187598099,-17.6678918753997));
#1452=CARTESIAN_POINT('',(-16.,7.88057000058133,-3.02985749985467));
#1453=CARTESIAN_POINT('',(2.,7.88057000058133,-3.02985749985467));
#1454=CARTESIAN_POINT('',(-16.,6.8,-4.41382606206764));
#1455=CARTESIAN_POINT('',(-16.,5.25186043761263,-6.39664668739464));
#1456=CARTESIAN_POINT('',(-12.4048643422353,3.2048643422353,-9.01839099035589));
#1457=CARTESIAN_POINT('Origin',(-19.,1.,-30.));
#1458=CARTESIAN_POINT('',(-18.,0.,0.));
#1459=CARTESIAN_POINT('',(-20.,2.,0.));
#1460=CARTESIAN_POINT('',(-19.,1.,-2.22044604925031E-15));
#1461=CARTESIAN_POINT('',(-20.,2.,-40.));
#1462=CARTESIAN_POINT('',(-20.,2.,-30.));
#1463=CARTESIAN_POINT('',(-18.,0.,-40.));
#1464=CARTESIAN_POINT('',(-14.,-4.,-40.));
#1465=CARTESIAN_POINT('',(-18.,0.,-30.));
#1466=CARTESIAN_POINT('Origin',(-20.,0.,-40.));
#1467=CARTESIAN_POINT('',(-20.,11.2,0.));
#1468=CARTESIAN_POINT('',(-20.,0.,0.));
#1469=CARTESIAN_POINT('',(-20.,11.2,-2.2));
#1470=CARTESIAN_POINT('',(-20.,11.2,-21.));
#1471=CARTESIAN_POINT('',(-20.,-8.16470588235294,-7.04117647058824));
#1472=CARTESIAN_POINT('',(-20.,4.,-40.));
#1473=CARTESIAN_POINT('',(-20.,11.2,-37.8));
#1474=CARTESIAN_POINT('',(-20.,1.24705882352941,-35.3117647058824));
#1475=CARTESIAN_POINT('',(-20.,11.2,-40.));
#1476=CARTESIAN_POINT('',(-20.,11.2,-39.));
#1477=CARTESIAN_POINT('',(-20.,0.,-40.));
#1478=CARTESIAN_POINT('Origin',(-20.,0.,0.));
#1479=CARTESIAN_POINT('',(-2.,0.,0.));
#1480=CARTESIAN_POINT('',(-20.,0.,0.));
#1481=CARTESIAN_POINT('',(0.,2.,0.));
#1482=CARTESIAN_POINT('',(-6.,-4.,0.));
#1483=CARTESIAN_POINT('',(0.,11.2,0.));
#1484=CARTESIAN_POINT('',(0.,0.,0.));
#1485=CARTESIAN_POINT('',(-0.800000000000001,12.,0.));
#1486=CARTESIAN_POINT('',(-2.4,13.6,-6.93889390390723E-17));
#1487=CARTESIAN_POINT('',(-19.2,12.,0.));
#1488=CARTESIAN_POINT('',(14.,12.,0.));
#1489=CARTESIAN_POINT('',(-22.6,8.59999999999999,2.22044604925031E-15));
#1490=CARTESIAN_POINT('',(-4.,6.8,0.));
#1491=CARTESIAN_POINT('',(-4.,9.2,0.));
#1492=CARTESIAN_POINT('',(-4.,11.,0.));
#1493=CARTESIAN_POINT('',(-4.8,6.,0.));
#1494=CARTESIAN_POINT('',(-9.9,0.900000000000001,-5.55111512312578E-16));
#1495=CARTESIAN_POINT('',(-15.2,6.,0.));
#1496=CARTESIAN_POINT('',(5.,6.,0.));
#1497=CARTESIAN_POINT('',(-16.,6.8,0.));
#1498=CARTESIAN_POINT('',(-15.1,5.9,-5.55111512312578E-16));
#1499=CARTESIAN_POINT('',(-16.,9.2,0.));
#1500=CARTESIAN_POINT('',(-16.,9.,0.));
#1501=CARTESIAN_POINT('',(-15.2,10.,0.));
#1502=CARTESIAN_POINT('',(-19.1,6.1,-5.55111512312578E-16));
#1503=CARTESIAN_POINT('',(-4.8,10.,0.));
#1504=CARTESIAN_POINT('',(-1.,10.,0.));
#1505=CARTESIAN_POINT('',(-5.9,11.1,0.));
#1506=CARTESIAN_POINT('Origin',(-1.,1.,-10.));
#1507=CARTESIAN_POINT('',(-2.,0.,-40.));
#1508=CARTESIAN_POINT('',(0.,2.,-40.));
#1509=CARTESIAN_POINT('',(-1.,1.,-40.));
#1510=CARTESIAN_POINT('',(0.,2.,-10.));
#1511=CARTESIAN_POINT('',(-2.,0.,-10.));
#1512=CARTESIAN_POINT('Origin',(0.,0.,0.));
#1513=CARTESIAN_POINT('',(0.,11.2,-40.));
#1514=CARTESIAN_POINT('',(0.,0.,-40.));
#1515=CARTESIAN_POINT('',(0.,11.2,-37.8));
#1516=CARTESIAN_POINT('',(0.,11.2,-19.));
#1517=CARTESIAN_POINT('',(0.,-8.16470588235294,-32.9588235294118));
#1518=CARTESIAN_POINT('',(0.,4.,0.));
#1519=CARTESIAN_POINT('',(0.,11.2,-2.2));
#1520=CARTESIAN_POINT('',(0.,1.24705882352941,-4.68823529411765));
#1521=CARTESIAN_POINT('',(0.,11.2,-1.));
#1522=CARTESIAN_POINT('Origin',(-0.4,11.6,-1.));
#1523=CARTESIAN_POINT('',(-0.800000000000001,12.,-2.));
#1524=CARTESIAN_POINT('',(8.07272727272727,3.12727272727273,-4.21818181818182));
#1525=CARTESIAN_POINT('',(-0.800000000000001,12.,-1.));
#1526=CARTESIAN_POINT('Origin',(14.,12.,-2.));
#1527=CARTESIAN_POINT('',(-19.2,12.,-2.));
#1528=CARTESIAN_POINT('',(14.,12.,-2.));
#1529=CARTESIAN_POINT('',(-19.2,12.,-21.));
#1530=CARTESIAN_POINT('Origin',(14.,-8.,-7.));
#1531=CARTESIAN_POINT('',(-4.,9.2,-2.7));
#1532=CARTESIAN_POINT('',(-4.,0.305882352941176,-4.92352941176471));
#1533=CARTESIAN_POINT('',(-4.8,10.,-2.5));
#1534=CARTESIAN_POINT('',(4.94545454545454,0.254545454545449,-4.93636363636364));
#1535=CARTESIAN_POINT('',(-15.2,10.,-2.5));
#1536=CARTESIAN_POINT('',(-1.,10.,-2.5));
#1537=CARTESIAN_POINT('',(-16.,9.2,-2.7));
#1538=CARTESIAN_POINT('',(-13.3090909090909,11.8909090909091,-2.02727272727273));
#1539=CARTESIAN_POINT('',(-16.,-1.57647058823529,-5.39411764705882));
#1540=CARTESIAN_POINT('',(-17.6484848484849,13.5515151515151,-1.61212121212122));
#1541=CARTESIAN_POINT('Origin',(-19.6,11.6,-21.));
#1542=CARTESIAN_POINT('Origin',(-19.6,11.6,-39.));
#1543=CARTESIAN_POINT('',(-19.2,12.,-40.));
#1544=CARTESIAN_POINT('',(-17.6,13.6,-40.));
#1545=CARTESIAN_POINT('',(-19.2,12.,-38.));
#1546=CARTESIAN_POINT('',(-28.0727272727273,3.12727272727272,-35.7818181818182));
#1547=CARTESIAN_POINT('',(-19.2,12.,-39.));
#1548=CARTESIAN_POINT('Origin',(-34.,12.,-38.));
#1549=CARTESIAN_POINT('',(-0.800000000000001,12.,-38.));
#1550=CARTESIAN_POINT('',(-34.,12.,-38.));
#1551=CARTESIAN_POINT('',(-0.800000000000001,12.,-40.));
#1552=CARTESIAN_POINT('',(-0.800000000000001,12.,-19.));
#1553=CARTESIAN_POINT('',(-34.,12.,-40.));
#1554=CARTESIAN_POINT('Origin',(-34.,-8.,-33.));
#1555=CARTESIAN_POINT('',(-16.,9.2,-37.3));
#1556=CARTESIAN_POINT('',(-16.,0.305882352941176,-35.0764705882353));
#1557=CARTESIAN_POINT('',(-15.2,10.,-37.5));
#1558=CARTESIAN_POINT('',(-24.9454545454545,0.254545454545454,-35.0636363636364));
#1559=CARTESIAN_POINT('',(-4.8,10.,-37.5));
#1560=CARTESIAN_POINT('',(-19.,10.,-37.5));
#1561=CARTESIAN_POINT('',(-4.,9.2,-37.3));
#1562=CARTESIAN_POINT('',(-6.69090909090909,11.8909090909091,-37.9727272727273));
#1563=CARTESIAN_POINT('',(-4.,-1.57647058823529,-34.6058823529412));
#1564=CARTESIAN_POINT('',(-2.35151515151512,13.5515151515151,-38.3878787878788));
#1565=CARTESIAN_POINT('Origin',(-0.4,11.6,-19.));
#1566=CARTESIAN_POINT('',(2.6,8.59999999999999,-40.));
#1567=CARTESIAN_POINT('Origin',(-15.6,9.6,-31.6));
#1568=CARTESIAN_POINT('',(-16.,9.2,-40.));
#1569=CARTESIAN_POINT('',(-16.,9.2,-31.6));
#1570=CARTESIAN_POINT('',(-15.2,10.,-40.));
#1571=CARTESIAN_POINT('',(-14.1,11.1,-40.));
#1572=CARTESIAN_POINT('',(-15.2,10.,-31.6));
#1573=CARTESIAN_POINT('Origin',(-16.,10.,-31.6));
#1574=CARTESIAN_POINT('',(-16.,6.8,-40.));
#1575=CARTESIAN_POINT('',(-16.,6.8,-31.6));
#1576=CARTESIAN_POINT('',(-16.,11.,-40.));
#1577=CARTESIAN_POINT('Origin',(-15.6,6.4,-31.6));
#1578=CARTESIAN_POINT('',(-15.2,6.,-40.));
#1579=CARTESIAN_POINT('',(-15.2,6.,-31.6));
#1580=CARTESIAN_POINT('',(-10.1,0.900000000000001,-40.));
#1581=CARTESIAN_POINT('Origin',(-16.,6.,-31.6));
#1582=CARTESIAN_POINT('',(-4.8,6.,-40.));
#1583=CARTESIAN_POINT('',(-4.8,6.,-31.6));
#1584=CARTESIAN_POINT('',(-25.,6.,-40.));
#1585=CARTESIAN_POINT('Origin',(-15.6,9.6,-8.4));
#1586=CARTESIAN_POINT('',(-15.2,10.,-8.4));
#1587=CARTESIAN_POINT('',(-16.,9.2,-8.4));
#1588=CARTESIAN_POINT('Origin',(-16.,10.,-8.4));
#1589=CARTESIAN_POINT('',(-4.8,10.,-8.4));
#1590=CARTESIAN_POINT('Origin',(-4.4,9.6,-8.4));
#1591=CARTESIAN_POINT('',(-4.,9.2,-8.4));
#1592=CARTESIAN_POINT('Origin',(-4.,10.,-8.4));
#1593=CARTESIAN_POINT('',(-4.,6.8,-8.4));
#1594=CARTESIAN_POINT('Origin',(-4.4,6.4,-8.4));
#1595=CARTESIAN_POINT('',(-4.8,6.,-8.4));
#1596=CARTESIAN_POINT('Origin',(-4.,6.,-8.4));
#1597=CARTESIAN_POINT('',(-15.2,6.,-8.4));
#1598=CARTESIAN_POINT('Origin',(-15.6,6.4,-8.4));
#1599=CARTESIAN_POINT('',(-16.,6.8,-8.4));
#1600=CARTESIAN_POINT('Origin',(-16.,6.,-8.4));
#1601=CARTESIAN_POINT('Origin',(-4.4,9.6,-31.6));
#1602=CARTESIAN_POINT('',(-4.8,10.,-40.));
#1603=CARTESIAN_POINT('',(-4.8,10.,-31.6));
#1604=CARTESIAN_POINT('',(-4.,9.2,-40.));
#1605=CARTESIAN_POINT('',(-0.9,6.1,-40.));
#1606=CARTESIAN_POINT('',(-4.,9.2,-31.6));
#1607=CARTESIAN_POINT('Origin',(-4.,10.,-31.6));
#1608=CARTESIAN_POINT('',(-19.,10.,-40.));
#1609=CARTESIAN_POINT('Origin',(-4.4,6.4,-31.6));
#1610=CARTESIAN_POINT('',(-4.,6.8,-40.));
#1611=CARTESIAN_POINT('',(-4.,6.8,-31.6));
#1612=CARTESIAN_POINT('',(-4.9,5.9,-40.));
#1613=CARTESIAN_POINT('Origin',(-4.,6.,-31.6));
#1614=CARTESIAN_POINT('',(-4.,9.,-40.));
#1615=CARTESIAN_POINT('Origin',(-5.9,-4.,2.35));
#1616=CARTESIAN_POINT('',(-5.9,0.,-12.));
#1617=CARTESIAN_POINT('',(-5.9,0.,-28.));
#1618=CARTESIAN_POINT('',(-5.9,0.,-8.825));
#1619=CARTESIAN_POINT('',(-5.9,-4.,-12.5));
#1620=CARTESIAN_POINT('',(-5.9,-4.33615384615385,-12.5420192307692));
#1621=CARTESIAN_POINT('',(-5.9,-4.,-27.5));
#1622=CARTESIAN_POINT('',(-5.9,-4.,2.35));
#1623=CARTESIAN_POINT('',(-5.9,1.41307692307692,-28.1766346153846));
#1624=CARTESIAN_POINT('Origin',(-10.19,-6.5,-12.8125));
#1625=CARTESIAN_POINT('',(-7.9,0.,-12.));
#1626=CARTESIAN_POINT('',(-10.095,-5.55111512312578E-16,-12.));
#1627=CARTESIAN_POINT('',(-6.925,-6.5,-12.8125));
#1628=CARTESIAN_POINT('',(-8.35312010836845,3.02080072245635,-11.622399909693));
#1629=CARTESIAN_POINT('',(-5.95802103443044,-6.5,-12.8125));
#1630=CARTESIAN_POINT('',(-8.5575,-6.5,-12.8125));
#1631=CARTESIAN_POINT('',(-4.9,-5.23909963117728,-12.6548874538972));
#1632=CARTESIAN_POINT('',(-6.36196350632531,-6.9813998920821,-12.8726749865103));
#1633=CARTESIAN_POINT('',(-4.9,-4.83909963117728,-12.6048874538972));
#1634=CARTESIAN_POINT('',(-4.9,-4.94617212611805,-12.6182715157648));
#1635=CARTESIAN_POINT('',(-6.48683934891723,-3.50758331876324,-12.4384479148454));
#1636=CARTESIAN_POINT('Origin',(-9.475,10.5,2.35));
#1637=CARTESIAN_POINT('',(-7.9,0.,-28.));
#1638=CARTESIAN_POINT('',(-7.9,0.,-8.825));
#1639=CARTESIAN_POINT('',(-6.925,-6.5,-27.1875));
#1640=CARTESIAN_POINT('',(-9.19681366646599,8.64542444310656,-29.0806780553883));
#1641=CARTESIAN_POINT('',(-6.925,-6.5,2.35));
#1642=CARTESIAN_POINT('Origin',(-10.19,10.5,-29.3125));
#1643=CARTESIAN_POINT('',(-10.095,5.55111512312578E-16,-28.));
#1644=CARTESIAN_POINT('',(-4.9,-4.83909963117728,-27.3951125461028));
#1645=CARTESIAN_POINT('',(-9.34357364352963,-1.11049862578248,-27.8611876717772));
#1646=CARTESIAN_POINT('',(-4.9,-5.23909963117728,-27.3451125461028));
#1647=CARTESIAN_POINT('',(-4.9,0.803058643112722,-28.1003823303891));
#1648=CARTESIAN_POINT('',(-5.95802103443044,-6.5,-27.1875));
#1649=CARTESIAN_POINT('',(-3.51290982941376,-3.58602993712901,-27.5517462578589));
#1650=CARTESIAN_POINT('',(-8.5575,-6.5,-27.1875));
#1651=CARTESIAN_POINT('Origin',(-4.9,-5.23909963117728,2.35));
#1652=CARTESIAN_POINT('',(-4.9,-4.83909963117728,2.35));
#1653=CARTESIAN_POINT('',(-4.9,-5.23909963117728,2.35));
#1654=CARTESIAN_POINT('Origin',(-4.9,-4.83909963117728,2.35));
#1655=CARTESIAN_POINT('Origin',(-6.925,-6.5,2.35));
#1656=CARTESIAN_POINT('',(-5.95802103443044,-6.5,2.35));
#1657=CARTESIAN_POINT('Origin',(-5.95802103443044,-6.5,2.35));
#1658=CARTESIAN_POINT('Origin',(-10.,4.,-20.));
#1659=CARTESIAN_POINT('Origin',(0.,0.,-40.));
#1660=CARTESIAN_POINT('',(0.,0.,-40.));
#1661=CARTESIAN_POINT('Origin',(-10.,0.,-20.));
#1662=CARTESIAN_POINT('polyline point',(-20.,0.,0.));
#1663=CARTESIAN_POINT('polyline point',(0.,0.,0.));
#1664=CARTESIAN_POINT('polyline point',(-10.,0.,0.));
#1665=CARTESIAN_POINT('polyline point',(-10.,0.,-40.));
#1666=CARTESIAN_POINT('polyline point',(-4.,0.,-40.));
#1667=CARTESIAN_POINT('polyline point',(-16.,0.,-40.));
#1668=CARTESIAN_POINT('polyline point',(-10.,0.,-20.));
#1669=CARTESIAN_POINT('polyline point',(-10.,0.,-15.9));
#1670=CARTESIAN_POINT('polyline point',(-10.,0.,-20.));
#1671=CARTESIAN_POINT('polyline point',(-5.9,0.,-20.));
#1672=UNCERTAINTY_MEASURE_WITH_UNIT(LENGTH_MEASURE(0.01),#1676,
'DISTANCE_ACCURACY_VALUE',
'Maximum model space distance between geometric entities at asserted c
onnectivities');
#1673=UNCERTAINTY_MEASURE_WITH_UNIT(LENGTH_MEASURE(0.01),#1676,
'DISTANCE_ACCURACY_VALUE',
'Maximum model space distance between geometric entities at asserted c
onnectivities');
#1674=(
GEOMETRIC_REPRESENTATION_CONTEXT(3)
GLOBAL_UNCERTAINTY_ASSIGNED_CONTEXT((#1672))
GLOBAL_UNIT_ASSIGNED_CONTEXT((#1676,#1678,#1679))
REPRESENTATION_CONTEXT('','3D')
);
#1675=(
GEOMETRIC_REPRESENTATION_CONTEXT(3)
GLOBAL_UNCERTAINTY_ASSIGNED_CONTEXT((#1673))
GLOBAL_UNIT_ASSIGNED_CONTEXT((#1676,#1678,#1679))
REPRESENTATION_CONTEXT('','3D')
);
#1676=(
LENGTH_UNIT()
NAMED_UNIT(*)
SI_UNIT(.MILLI.,.METRE.)
);
#1677=(
LENGTH_UNIT()
NAMED_UNIT(*)
SI_UNIT(.CENTI.,.METRE.)
);
#1678=(
NAMED_UNIT(*)
PLANE_ANGLE_UNIT()
SI_UNIT($,.RADIAN.)
);
#1679=(
NAMED_UNIT(*)
SI_UNIT($,.STERADIAN.)
SOLID_ANGLE_UNIT()
);
#1680=SHAPE_DEFINITION_REPRESENTATION(#1681,#1682);
#1681=PRODUCT_DEFINITION_SHAPE('',$,#1684);
#1682=SHAPE_REPRESENTATION('',(#1074),#1674);
#1683=PRODUCT_DEFINITION_CONTEXT('part definition',#1688,'design');
#1684=PRODUCT_DEFINITION('try2','try2',#1685,#1683);
#1685=PRODUCT_DEFINITION_FORMATION('',$,#1690);
#1686=PRODUCT_RELATED_PRODUCT_CATEGORY('try2','try2',(#1690));
#1687=APPLICATION_PROTOCOL_DEFINITION('international standard',
'automotive_design',2009,#1688);
#1688=APPLICATION_CONTEXT(
'Core Data for Automotive Mechanical Design Process');
#1689=PRODUCT_CONTEXT('part definition',#1688,'mechanical');
#1690=PRODUCT('try2','try2',$,(#1689));
#1691=PRESENTATION_STYLE_ASSIGNMENT((#1694));
#1692=PRESENTATION_STYLE_ASSIGNMENT((#1695));
#1693=PRESENTATION_STYLE_ASSIGNMENT((#1696));
#1694=SURFACE_STYLE_USAGE(.BOTH.,#1699);
#1695=SURFACE_STYLE_USAGE(.BOTH.,#1700);
#1696=SURFACE_STYLE_USAGE(.BOTH.,#1701);
#1697=SURFACE_STYLE_RENDERING_WITH_PROPERTIES($,#1711,(#1698));
#1698=SURFACE_STYLE_TRANSPARENT(0.);
#1699=SURFACE_SIDE_STYLE('',(#1702,#1697));
#1700=SURFACE_SIDE_STYLE('',(#1703));
#1701=SURFACE_SIDE_STYLE('',(#1704));
#1702=SURFACE_STYLE_FILL_AREA(#1705);
#1703=SURFACE_STYLE_FILL_AREA(#1706);
#1704=SURFACE_STYLE_FILL_AREA(#1707);
#1705=FILL_AREA_STYLE('',(#1708));
#1706=FILL_AREA_STYLE('',(#1709));
#1707=FILL_AREA_STYLE('',(#1710));
#1708=FILL_AREA_STYLE_COLOUR('',#1711);
#1709=FILL_AREA_STYLE_COLOUR('',#1712);
#1710=FILL_AREA_STYLE_COLOUR('',#1713);
#1711=COLOUR_RGB('',0.749019607843137,0.749019607843137,0.749019607843137);
#1712=COLOUR_RGB('',1.,1.,0.);
#1713=COLOUR_RGB('',0.,0.,0.501960784313725);
ENDSEC;
END-ISO-10303-21;
