ISO-10303-21;
HEADER;
/* Generated by software containing ST-Developer
 * from STEP Tools, Inc. (www.steptools.com) 
 */

FILE_DESCRIPTION(
/* description */ (''),
/* implementation_level */ '2;1');

FILE_NAME(
/* name */ 'try1.stp',
/* time_stamp */ '2026-07-21T23:09:25+02:00',
/* author */ ('wojta'),
/* organization */ (''),
/* preprocessor_version */ 'ST-DEVELOPER v20',
/* originating_system */ 'Autodesk Inventor 2025',
/* authorisation */ '');

FILE_SCHEMA (('AUTOMOTIVE_DESIGN { 1 0 10303 214 3 1 1 }'));
ENDSEC;

DATA;
#10=MECHANICAL_DESIGN_GEOMETRIC_PRESENTATION_REPRESENTATION('',(#20,#21,
#22,#23,#24),#1711);
#11=GEOMETRICALLY_BOUNDED_WIREFRAME_SHAPE_REPRESENTATION('',(#12),#1710);
#12=GEOMETRIC_CURVE_SET('Szkic3',(#16,#17,#18,#19));
#13=SHAPE_REPRESENTATION_RELATIONSHIP('SRR','None',#1718,#15);
#14=SHAPE_REPRESENTATION_RELATIONSHIP('SRR','None',#1718,#11);
#15=ADVANCED_BREP_SHAPE_REPRESENTATION('',(#25),#1710);
#16=POLYLINE('',(#1700,#1701));
#17=POLYLINE('',(#1702,#1703));
#18=POLYLINE('',(#1704,#1705));
#19=POLYLINE('',(#1706,#1707));
#20=STYLED_ITEM('',(#1727),#25);
#21=STYLED_ITEM('',(#1728),#16);
#22=STYLED_ITEM('',(#1729),#17);
#23=STYLED_ITEM('',(#1728),#18);
#24=STYLED_ITEM('',(#1729),#19);
#25=MANIFOLD_SOLID_BREP('Bry\X2\0142\X0\a1',#1074);
#26=FACE_BOUND('',#85,.T.);
#27=FACE_BOUND('',#132,.T.);
#28=FACE_OUTER_BOUND('',#80,.T.);
#29=FACE_OUTER_BOUND('',#81,.T.);
#30=FACE_OUTER_BOUND('',#82,.T.);
#31=FACE_OUTER_BOUND('',#83,.T.);
#32=FACE_OUTER_BOUND('',#84,.T.);
#33=FACE_OUTER_BOUND('',#86,.T.);
#34=FACE_OUTER_BOUND('',#87,.T.);
#35=FACE_OUTER_BOUND('',#88,.T.);
#36=FACE_OUTER_BOUND('',#89,.T.);
#37=FACE_OUTER_BOUND('',#90,.T.);
#38=FACE_OUTER_BOUND('',#91,.T.);
#39=FACE_OUTER_BOUND('',#92,.T.);
#40=FACE_OUTER_BOUND('',#93,.T.);
#41=FACE_OUTER_BOUND('',#94,.T.);
#42=FACE_OUTER_BOUND('',#95,.T.);
#43=FACE_OUTER_BOUND('',#96,.T.);
#44=FACE_OUTER_BOUND('',#97,.T.);
#45=FACE_OUTER_BOUND('',#98,.T.);
#46=FACE_OUTER_BOUND('',#99,.T.);
#47=FACE_OUTER_BOUND('',#100,.T.);
#48=FACE_OUTER_BOUND('',#101,.T.);
#49=FACE_OUTER_BOUND('',#102,.T.);
#50=FACE_OUTER_BOUND('',#103,.T.);
#51=FACE_OUTER_BOUND('',#104,.T.);
#52=FACE_OUTER_BOUND('',#105,.T.);
#53=FACE_OUTER_BOUND('',#106,.T.);
#54=FACE_OUTER_BOUND('',#107,.T.);
#55=FACE_OUTER_BOUND('',#108,.T.);
#56=FACE_OUTER_BOUND('',#109,.T.);
#57=FACE_OUTER_BOUND('',#110,.T.);
#58=FACE_OUTER_BOUND('',#111,.T.);
#59=FACE_OUTER_BOUND('',#112,.T.);
#60=FACE_OUTER_BOUND('',#113,.T.);
#61=FACE_OUTER_BOUND('',#114,.T.);
#62=FACE_OUTER_BOUND('',#115,.T.);
#63=FACE_OUTER_BOUND('',#116,.T.);
#64=FACE_OUTER_BOUND('',#117,.T.);
#65=FACE_OUTER_BOUND('',#118,.T.);
#66=FACE_OUTER_BOUND('',#119,.T.);
#67=FACE_OUTER_BOUND('',#120,.T.);
#68=FACE_OUTER_BOUND('',#121,.T.);
#69=FACE_OUTER_BOUND('',#122,.T.);
#70=FACE_OUTER_BOUND('',#123,.T.);
#71=FACE_OUTER_BOUND('',#124,.T.);
#72=FACE_OUTER_BOUND('',#125,.T.);
#73=FACE_OUTER_BOUND('',#126,.T.);
#74=FACE_OUTER_BOUND('',#127,.T.);
#75=FACE_OUTER_BOUND('',#128,.T.);
#76=FACE_OUTER_BOUND('',#129,.T.);
#77=FACE_OUTER_BOUND('',#130,.T.);
#78=FACE_OUTER_BOUND('',#131,.T.);
#79=FACE_OUTER_BOUND('',#133,.T.);
#80=EDGE_LOOP('',(#674,#675,#676,#677,#678,#679,#680,#681,#682,#683));
#81=EDGE_LOOP('',(#684,#685,#686,#687,#688,#689,#690,#691,#692,#693));
#82=EDGE_LOOP('',(#694,#695,#696,#697,#698,#699,#700,#701));
#83=EDGE_LOOP('',(#702,#703,#704,#705,#706,#707,#708,#709,#710,#711));
#84=EDGE_LOOP('',(#712,#713,#714,#715,#716,#717,#718,#719));
#85=EDGE_LOOP('',(#720,#721,#722,#723,#724,#725,#726,#727));
#86=EDGE_LOOP('',(#728,#729,#730,#731));
#87=EDGE_LOOP('',(#732,#733,#734,#735));
#88=EDGE_LOOP('',(#736,#737,#738,#739,#740,#741,#742,#743));
#89=EDGE_LOOP('',(#744,#745,#746,#747,#748,#749,#750,#751,#752,#753));
#90=EDGE_LOOP('',(#754,#755,#756,#757));
#91=EDGE_LOOP('',(#758,#759,#760,#761));
#92=EDGE_LOOP('',(#762,#763,#764,#765,#766,#767,#768,#769,#770,#771,#772,
#773));
#93=EDGE_LOOP('',(#774,#775,#776,#777));
#94=EDGE_LOOP('',(#778,#779,#780,#781));
#95=EDGE_LOOP('',(#782,#783,#784,#785));
#96=EDGE_LOOP('',(#786,#787,#788,#789,#790,#791,#792,#793,#794,#795,#796,
#797));
#97=EDGE_LOOP('',(#798,#799,#800,#801));
#98=EDGE_LOOP('',(#802,#803,#804,#805));
#99=EDGE_LOOP('',(#806,#807,#808,#809,#810));
#100=EDGE_LOOP('',(#811,#812,#813,#814));
#101=EDGE_LOOP('',(#815,#816,#817,#818));
#102=EDGE_LOOP('',(#819,#820,#821,#822));
#103=EDGE_LOOP('',(#823,#824,#825,#826));
#104=EDGE_LOOP('',(#827,#828,#829,#830));
#105=EDGE_LOOP('',(#831,#832,#833,#834,#835));
#106=EDGE_LOOP('',(#836,#837,#838,#839));
#107=EDGE_LOOP('',(#840,#841,#842,#843));
#108=EDGE_LOOP('',(#844,#845,#846,#847));
#109=EDGE_LOOP('',(#848,#849,#850,#851,#852));
#110=EDGE_LOOP('',(#853,#854,#855,#856));
#111=EDGE_LOOP('',(#857,#858,#859,#860));
#112=EDGE_LOOP('',(#861,#862,#863,#864));
#113=EDGE_LOOP('',(#865,#866,#867,#868,#869));
#114=EDGE_LOOP('',(#870,#871,#872,#873));
#115=EDGE_LOOP('',(#874,#875,#876,#877,#878,#879,#880));
#116=EDGE_LOOP('',(#881,#882,#883,#884));
#117=EDGE_LOOP('',(#885,#886,#887,#888,#889,#890,#891));
#118=EDGE_LOOP('',(#892,#893,#894,#895));
#119=EDGE_LOOP('',(#896,#897,#898,#899));
#120=EDGE_LOOP('',(#900,#901,#902,#903));
#121=EDGE_LOOP('',(#904,#905,#906,#907));
#122=EDGE_LOOP('',(#908,#909,#910,#911));
#123=EDGE_LOOP('',(#912,#913,#914,#915,#916,#917,#918));
#124=EDGE_LOOP('',(#919,#920,#921,#922));
#125=EDGE_LOOP('',(#923,#924,#925,#926,#927,#928,#929));
#126=EDGE_LOOP('',(#930,#931,#932,#933));
#127=EDGE_LOOP('',(#934,#935,#936,#937));
#128=EDGE_LOOP('',(#938,#939,#940,#941));
#129=EDGE_LOOP('',(#942,#943,#944,#945));
#130=EDGE_LOOP('',(#946,#947,#948,#949));
#131=EDGE_LOOP('',(#950,#951,#952,#953,#954,#955,#956,#957));
#132=EDGE_LOOP('',(#958,#959,#960,#961,#962,#963,#964,#965));
#133=EDGE_LOOP('',(#966,#967,#968,#969));
#134=LINE('',#1407,#282);
#135=LINE('',#1409,#283);
#136=LINE('',#1411,#284);
#137=LINE('',#1413,#285);
#138=LINE('',#1415,#286);
#139=LINE('',#1417,#287);
#140=LINE('',#1419,#288);
#141=LINE('',#1421,#289);
#142=LINE('',#1423,#290);
#143=LINE('',#1424,#291);
#144=LINE('',#1428,#292);
#145=LINE('',#1430,#293);
#146=LINE('',#1432,#294);
#147=LINE('',#1434,#295);
#148=LINE('',#1436,#296);
#149=LINE('',#1438,#297);
#150=LINE('',#1440,#298);
#151=LINE('',#1442,#299);
#152=LINE('',#1444,#300);
#153=LINE('',#1445,#301);
#154=LINE('',#1449,#302);
#155=LINE('',#1451,#303);
#156=LINE('',#1453,#304);
#157=LINE('',#1455,#305);
#158=LINE('',#1457,#306);
#159=LINE('',#1459,#307);
#160=LINE('',#1461,#308);
#161=LINE('',#1462,#309);
#162=LINE('',#1465,#310);
#163=LINE('',#1467,#311);
#164=LINE('',#1468,#312);
#165=LINE('',#1469,#313);
#166=LINE('',#1471,#314);
#167=LINE('',#1473,#315);
#168=LINE('',#1474,#316);
#169=LINE('',#1477,#317);
#170=LINE('',#1479,#318);
#171=LINE('',#1481,#319);
#172=LINE('',#1483,#320);
#173=LINE('',#1485,#321);
#174=LINE('',#1486,#322);
#175=LINE('',#1489,#323);
#176=LINE('',#1491,#324);
#177=LINE('',#1493,#325);
#178=LINE('',#1495,#326);
#179=LINE('',#1497,#327);
#180=LINE('',#1499,#328);
#181=LINE('',#1501,#329);
#182=LINE('',#1502,#330);
#183=LINE('',#1505,#331);
#184=LINE('',#1507,#332);
#185=LINE('',#1508,#333);
#186=LINE('',#1511,#334);
#187=LINE('',#1512,#335);
#188=LINE('',#1516,#336);
#189=LINE('',#1517,#337);
#190=LINE('',#1518,#338);
#191=LINE('',#1520,#339);
#192=LINE('',#1521,#340);
#193=LINE('',#1524,#341);
#194=LINE('',#1526,#342);
#195=LINE('',#1527,#343);
#196=LINE('',#1528,#344);
#197=LINE('',#1530,#345);
#198=LINE('',#1531,#346);
#199=LINE('',#1534,#347);
#200=LINE('',#1535,#348);
#201=LINE('',#1538,#349);
#202=LINE('',#1539,#350);
#203=LINE('',#1542,#351);
#204=LINE('',#1544,#352);
#205=LINE('',#1546,#353);
#206=LINE('',#1548,#354);
#207=LINE('',#1549,#355);
#208=LINE('',#1550,#356);
#209=LINE('',#1554,#357);
#210=LINE('',#1556,#358);
#211=LINE('',#1557,#359);
#212=LINE('',#1560,#360);
#213=LINE('',#1562,#361);
#214=LINE('',#1563,#362);
#215=LINE('',#1566,#363);
#216=LINE('',#1568,#364);
#217=LINE('',#1570,#365);
#218=LINE('',#1572,#366);
#219=LINE('',#1573,#367);
#220=LINE('',#1574,#368);
#221=LINE('',#1576,#369);
#222=LINE('',#1579,#370);
#223=LINE('',#1581,#371);
#224=LINE('',#1582,#372);
#225=LINE('',#1585,#373);
#226=LINE('',#1586,#374);
#227=LINE('',#1589,#375);
#228=LINE('',#1590,#376);
#229=LINE('',#1593,#377);
#230=LINE('',#1594,#378);
#231=LINE('',#1596,#379);
#232=LINE('',#1597,#380);
#233=LINE('',#1599,#381);
#234=LINE('',#1601,#382);
#235=LINE('',#1603,#383);
#236=LINE('',#1605,#384);
#237=LINE('',#1607,#385);
#238=LINE('',#1609,#386);
#239=LINE('',#1613,#387);
#240=LINE('',#1615,#388);
#241=LINE('',#1616,#389);
#242=LINE('',#1618,#390);
#243=LINE('',#1621,#391);
#244=LINE('',#1622,#392);
#245=LINE('',#1624,#393);
#246=LINE('',#1626,#394);
#247=LINE('',#1628,#395);
#248=LINE('',#1630,#396);
#249=LINE('',#1631,#397);
#250=LINE('',#1634,#398);
#251=LINE('',#1636,#399);
#252=LINE('',#1638,#400);
#253=LINE('',#1640,#401);
#254=LINE('',#1641,#402);
#255=LINE('',#1644,#403);
#256=LINE('',#1645,#404);
#257=LINE('',#1648,#405);
#258=LINE('',#1650,#406);
#259=LINE('',#1652,#407);
#260=LINE('',#1653,#408);
#261=LINE('',#1655,#409);
#262=LINE('',#1656,#410);
#263=LINE('',#1659,#411);
#264=LINE('',#1663,#412);
#265=LINE('',#1665,#413);
#266=LINE('',#1666,#414);
#267=LINE('',#1669,#415);
#268=LINE('',#1671,#416);
#269=LINE('',#1673,#417);
#270=LINE('',#1675,#418);
#271=LINE('',#1676,#419);
#272=LINE('',#1679,#420);
#273=LINE('',#1680,#421);
#274=LINE('',#1683,#422);
#275=LINE('',#1685,#423);
#276=LINE('',#1687,#424);
#277=LINE('',#1688,#425);
#278=LINE('',#1690,#426);
#279=LINE('',#1691,#427);
#280=LINE('',#1694,#428);
#281=LINE('',#1698,#429);
#282=VECTOR('',#1153,10.);
#283=VECTOR('',#1154,10.);
#284=VECTOR('',#1155,10.);
#285=VECTOR('',#1156,10.);
#286=VECTOR('',#1157,10.);
#287=VECTOR('',#1158,10.);
#288=VECTOR('',#1159,10.);
#289=VECTOR('',#1160,10.);
#290=VECTOR('',#1161,10.);
#291=VECTOR('',#1162,10.);
#292=VECTOR('',#1165,10.);
#293=VECTOR('',#1166,10.);
#294=VECTOR('',#1167,10.);
#295=VECTOR('',#1168,10.);
#296=VECTOR('',#1169,10.);
#297=VECTOR('',#1170,10.);
#298=VECTOR('',#1171,10.);
#299=VECTOR('',#1172,10.);
#300=VECTOR('',#1173,10.);
#301=VECTOR('',#1174,10.);
#302=VECTOR('',#1177,10.);
#303=VECTOR('',#1178,10.);
#304=VECTOR('',#1179,10.);
#305=VECTOR('',#1180,10.);
#306=VECTOR('',#1181,10.);
#307=VECTOR('',#1182,10.);
#308=VECTOR('',#1183,10.);
#309=VECTOR('',#1184,10.);
#310=VECTOR('',#1187,10.);
#311=VECTOR('',#1188,10.);
#312=VECTOR('',#1189,10.);
#313=VECTOR('',#1190,10.);
#314=VECTOR('',#1191,10.);
#315=VECTOR('',#1192,10.);
#316=VECTOR('',#1193,10.);
#317=VECTOR('',#1196,10.);
#318=VECTOR('',#1197,10.);
#319=VECTOR('',#1198,10.);
#320=VECTOR('',#1199,10.);
#321=VECTOR('',#1200,10.);
#322=VECTOR('',#1201,10.);
#323=VECTOR('',#1202,10.);
#324=VECTOR('',#1203,10.);
#325=VECTOR('',#1204,10.);
#326=VECTOR('',#1205,10.);
#327=VECTOR('',#1206,10.);
#328=VECTOR('',#1207,10.);
#329=VECTOR('',#1208,10.);
#330=VECTOR('',#1209,10.);
#331=VECTOR('',#1212,10.);
#332=VECTOR('',#1213,10.);
#333=VECTOR('',#1214,10.);
#334=VECTOR('',#1217,10.);
#335=VECTOR('',#1218,10.);
#336=VECTOR('',#1221,10.);
#337=VECTOR('',#1222,10.);
#338=VECTOR('',#1223,10.);
#339=VECTOR('',#1224,10.);
#340=VECTOR('',#1225,10.);
#341=VECTOR('',#1228,10.);
#342=VECTOR('',#1229,10.);
#343=VECTOR('',#1230,10.);
#344=VECTOR('',#1231,10.);
#345=VECTOR('',#1232,10.);
#346=VECTOR('',#1233,10.);
#347=VECTOR('',#1236,10.);
#348=VECTOR('',#1237,10.);
#349=VECTOR('',#1240,10.);
#350=VECTOR('',#1241,10.);
#351=VECTOR('',#1244,10.);
#352=VECTOR('',#1245,10.);
#353=VECTOR('',#1246,10.);
#354=VECTOR('',#1247,10.);
#355=VECTOR('',#1248,10.);
#356=VECTOR('',#1249,10.);
#357=VECTOR('',#1254,10.);
#358=VECTOR('',#1255,10.);
#359=VECTOR('',#1256,10.);
#360=VECTOR('',#1259,10.);
#361=VECTOR('',#1260,10.);
#362=VECTOR('',#1261,10.);
#363=VECTOR('',#1264,10.);
#364=VECTOR('',#1265,10.);
#365=VECTOR('',#1266,10.);
#366=VECTOR('',#1267,10.);
#367=VECTOR('',#1268,10.);
#368=VECTOR('',#1269,10.);
#369=VECTOR('',#1272,10.);
#370=VECTOR('',#1275,10.);
#371=VECTOR('',#1276,10.);
#372=VECTOR('',#1277,10.);
#373=VECTOR('',#1280,10.);
#374=VECTOR('',#1281,10.);
#375=VECTOR('',#1284,10.);
#376=VECTOR('',#1285,10.);
#377=VECTOR('',#1288,10.);
#378=VECTOR('',#1289,10.);
#379=VECTOR('',#1292,10.);
#380=VECTOR('',#1293,10.);
#381=VECTOR('',#1296,10.);
#382=VECTOR('',#1299,10.);
#383=VECTOR('',#1302,10.);
#384=VECTOR('',#1305,10.);
#385=VECTOR('',#1308,10.);
#386=VECTOR('',#1311,10.);
#387=VECTOR('',#1316,10.);
#388=VECTOR('',#1317,10.);
#389=VECTOR('',#1318,10.);
#390=VECTOR('',#1321,10.);
#391=VECTOR('',#1324,10.);
#392=VECTOR('',#1325,10.);
#393=VECTOR('',#1328,10.);
#394=VECTOR('',#1331,10.);
#395=VECTOR('',#1332,10.);
#396=VECTOR('',#1333,10.);
#397=VECTOR('',#1334,10.);
#398=VECTOR('',#1337,10.);
#399=VECTOR('',#1338,10.);
#400=VECTOR('',#1339,10.);
#401=VECTOR('',#1340,10.);
#402=VECTOR('',#1341,10.);
#403=VECTOR('',#1344,10.);
#404=VECTOR('',#1345,10.);
#405=VECTOR('',#1348,10.);
#406=VECTOR('',#1349,10.);
#407=VECTOR('',#1350,10.);
#408=VECTOR('',#1351,10.);
#409=VECTOR('',#1354,10.);
#410=VECTOR('',#1355,10.);
#411=VECTOR('',#1360,10.);
#412=VECTOR('',#1365,10.);
#413=VECTOR('',#1366,10.);
#414=VECTOR('',#1367,10.);
#415=VECTOR('',#1370,10.);
#416=VECTOR('',#1371,10.);
#417=VECTOR('',#1372,10.);
#418=VECTOR('',#1373,10.);
#419=VECTOR('',#1374,10.);
#420=VECTOR('',#1377,10.);
#421=VECTOR('',#1378,10.);
#422=VECTOR('',#1381,10.);
#423=VECTOR('',#1382,10.);
#424=VECTOR('',#1383,10.);
#425=VECTOR('',#1384,10.);
#426=VECTOR('',#1387,10.);
#427=VECTOR('',#1388,10.);
#428=VECTOR('',#1393,10.);
#429=VECTOR('',#1400,10.);
#430=VERTEX_POINT('',#1405);
#431=VERTEX_POINT('',#1406);
#432=VERTEX_POINT('',#1408);
#433=VERTEX_POINT('',#1410);
#434=VERTEX_POINT('',#1412);
#435=VERTEX_POINT('',#1414);
#436=VERTEX_POINT('',#1416);
#437=VERTEX_POINT('',#1418);
#438=VERTEX_POINT('',#1420);
#439=VERTEX_POINT('',#1422);
#440=VERTEX_POINT('',#1426);
#441=VERTEX_POINT('',#1427);
#442=VERTEX_POINT('',#1429);
#443=VERTEX_POINT('',#1431);
#444=VERTEX_POINT('',#1433);
#445=VERTEX_POINT('',#1435);
#446=VERTEX_POINT('',#1437);
#447=VERTEX_POINT('',#1439);
#448=VERTEX_POINT('',#1441);
#449=VERTEX_POINT('',#1443);
#450=VERTEX_POINT('',#1447);
#451=VERTEX_POINT('',#1448);
#452=VERTEX_POINT('',#1450);
#453=VERTEX_POINT('',#1452);
#454=VERTEX_POINT('',#1454);
#455=VERTEX_POINT('',#1456);
#456=VERTEX_POINT('',#1458);
#457=VERTEX_POINT('',#1460);
#458=VERTEX_POINT('',#1464);
#459=VERTEX_POINT('',#1466);
#460=VERTEX_POINT('',#1470);
#461=VERTEX_POINT('',#1472);
#462=VERTEX_POINT('',#1476);
#463=VERTEX_POINT('',#1478);
#464=VERTEX_POINT('',#1480);
#465=VERTEX_POINT('',#1482);
#466=VERTEX_POINT('',#1484);
#467=VERTEX_POINT('',#1487);
#468=VERTEX_POINT('',#1488);
#469=VERTEX_POINT('',#1490);
#470=VERTEX_POINT('',#1492);
#471=VERTEX_POINT('',#1494);
#472=VERTEX_POINT('',#1496);
#473=VERTEX_POINT('',#1498);
#474=VERTEX_POINT('',#1500);
#475=VERTEX_POINT('',#1504);
#476=VERTEX_POINT('',#1506);
#477=VERTEX_POINT('',#1510);
#478=VERTEX_POINT('',#1514);
#479=VERTEX_POINT('',#1515);
#480=VERTEX_POINT('',#1519);
#481=VERTEX_POINT('',#1523);
#482=VERTEX_POINT('',#1525);
#483=VERTEX_POINT('',#1529);
#484=VERTEX_POINT('',#1533);
#485=VERTEX_POINT('',#1537);
#486=VERTEX_POINT('',#1541);
#487=VERTEX_POINT('',#1543);
#488=VERTEX_POINT('',#1545);
#489=VERTEX_POINT('',#1547);
#490=VERTEX_POINT('',#1553);
#491=VERTEX_POINT('',#1555);
#492=VERTEX_POINT('',#1559);
#493=VERTEX_POINT('',#1561);
#494=VERTEX_POINT('',#1565);
#495=VERTEX_POINT('',#1567);
#496=VERTEX_POINT('',#1569);
#497=VERTEX_POINT('',#1571);
#498=VERTEX_POINT('',#1578);
#499=VERTEX_POINT('',#1580);
#500=VERTEX_POINT('',#1584);
#501=VERTEX_POINT('',#1588);
#502=VERTEX_POINT('',#1592);
#503=VERTEX_POINT('',#1612);
#504=VERTEX_POINT('',#1614);
#505=VERTEX_POINT('',#1620);
#506=VERTEX_POINT('',#1627);
#507=VERTEX_POINT('',#1629);
#508=VERTEX_POINT('',#1633);
#509=VERTEX_POINT('',#1635);
#510=VERTEX_POINT('',#1637);
#511=VERTEX_POINT('',#1639);
#512=VERTEX_POINT('',#1643);
#513=VERTEX_POINT('',#1647);
#514=VERTEX_POINT('',#1649);
#515=VERTEX_POINT('',#1651);
#516=VERTEX_POINT('',#1662);
#517=VERTEX_POINT('',#1664);
#518=VERTEX_POINT('',#1668);
#519=VERTEX_POINT('',#1670);
#520=VERTEX_POINT('',#1672);
#521=VERTEX_POINT('',#1674);
#522=VERTEX_POINT('',#1678);
#523=VERTEX_POINT('',#1682);
#524=VERTEX_POINT('',#1684);
#525=VERTEX_POINT('',#1686);
#526=EDGE_CURVE('',#430,#431,#134,.T.);
#527=EDGE_CURVE('',#432,#431,#135,.F.);
#528=EDGE_CURVE('',#433,#432,#136,.F.);
#529=EDGE_CURVE('',#433,#434,#137,.T.);
#530=EDGE_CURVE('',#434,#435,#138,.T.);
#531=EDGE_CURVE('',#435,#436,#139,.T.);
#532=EDGE_CURVE('',#436,#437,#140,.T.);
#533=EDGE_CURVE('',#437,#438,#141,.T.);
#534=EDGE_CURVE('',#439,#438,#142,.F.);
#535=EDGE_CURVE('',#430,#439,#143,.F.);
#536=EDGE_CURVE('',#440,#441,#144,.T.);
#537=EDGE_CURVE('',#442,#441,#145,.F.);
#538=EDGE_CURVE('',#443,#442,#146,.F.);
#539=EDGE_CURVE('',#443,#444,#147,.T.);
#540=EDGE_CURVE('',#444,#445,#148,.T.);
#541=EDGE_CURVE('',#445,#446,#149,.T.);
#542=EDGE_CURVE('',#446,#447,#150,.T.);
#543=EDGE_CURVE('',#447,#448,#151,.T.);
#544=EDGE_CURVE('',#449,#448,#152,.F.);
#545=EDGE_CURVE('',#440,#449,#153,.F.);
#546=EDGE_CURVE('',#450,#451,#154,.T.);
#547=EDGE_CURVE('',#451,#452,#155,.T.);
#548=EDGE_CURVE('',#452,#453,#156,.T.);
#549=EDGE_CURVE('',#453,#454,#157,.T.);
#550=EDGE_CURVE('',#454,#455,#158,.T.);
#551=EDGE_CURVE('',#455,#456,#159,.T.);
#552=EDGE_CURVE('',#456,#457,#160,.T.);
#553=EDGE_CURVE('',#457,#450,#161,.T.);
#554=EDGE_CURVE('',#451,#458,#162,.T.);
#555=EDGE_CURVE('',#459,#458,#163,.T.);
#556=EDGE_CURVE('',#459,#447,#164,.T.);
#557=EDGE_CURVE('',#435,#446,#165,.T.);
#558=EDGE_CURVE('',#434,#460,#166,.T.);
#559=EDGE_CURVE('',#461,#460,#167,.T.);
#560=EDGE_CURVE('',#452,#461,#168,.T.);
#561=EDGE_CURVE('',#450,#462,#169,.T.);
#562=EDGE_CURVE('',#463,#462,#170,.T.);
#563=EDGE_CURVE('',#463,#464,#171,.T.);
#564=EDGE_CURVE('',#465,#464,#172,.T.);
#565=EDGE_CURVE('',#465,#466,#173,.T.);
#566=EDGE_CURVE('',#458,#466,#174,.T.);
#567=EDGE_CURVE('',#467,#468,#175,.T.);
#568=EDGE_CURVE('',#469,#467,#176,.T.);
#569=EDGE_CURVE('',#470,#469,#177,.T.);
#570=EDGE_CURVE('',#471,#470,#178,.T.);
#571=EDGE_CURVE('',#472,#471,#179,.T.);
#572=EDGE_CURVE('',#473,#472,#180,.T.);
#573=EDGE_CURVE('',#474,#473,#181,.T.);
#574=EDGE_CURVE('',#468,#474,#182,.T.);
#575=EDGE_CURVE('',#455,#475,#183,.T.);
#576=EDGE_CURVE('',#476,#475,#184,.T.);
#577=EDGE_CURVE('',#476,#456,#185,.T.);
#578=EDGE_CURVE('',#457,#477,#186,.T.);
#579=EDGE_CURVE('',#462,#477,#187,.T.);
#580=EDGE_CURVE('',#478,#479,#188,.T.);
#581=EDGE_CURVE('',#479,#463,#189,.T.);
#582=EDGE_CURVE('',#477,#476,#190,.T.);
#583=EDGE_CURVE('',#475,#480,#191,.T.);
#584=EDGE_CURVE('',#480,#478,#192,.T.);
#585=EDGE_CURVE('',#479,#481,#193,.T.);
#586=EDGE_CURVE('',#482,#481,#194,.T.);
#587=EDGE_CURVE('',#482,#437,#195,.T.);
#588=EDGE_CURVE('',#445,#436,#196,.T.);
#589=EDGE_CURVE('',#444,#483,#197,.T.);
#590=EDGE_CURVE('',#464,#483,#198,.T.);
#591=EDGE_CURVE('',#483,#484,#199,.T.);
#592=EDGE_CURVE('',#484,#465,#200,.T.);
#593=EDGE_CURVE('',#484,#485,#201,.T.);
#594=EDGE_CURVE('',#466,#485,#202,.T.);
#595=EDGE_CURVE('',#486,#443,#203,.T.);
#596=EDGE_CURVE('',#487,#486,#204,.T.);
#597=EDGE_CURVE('',#488,#487,#205,.T.);
#598=EDGE_CURVE('',#489,#488,#206,.T.);
#599=EDGE_CURVE('',#448,#489,#207,.T.);
#600=EDGE_CURVE('',#485,#459,#208,.T.);
#601=EDGE_CURVE('',#490,#461,#209,.T.);
#602=EDGE_CURVE('',#460,#491,#210,.T.);
#603=EDGE_CURVE('',#491,#490,#211,.T.);
#604=EDGE_CURVE('',#491,#492,#212,.T.);
#605=EDGE_CURVE('',#493,#492,#213,.T.);
#606=EDGE_CURVE('',#490,#493,#214,.T.);
#607=EDGE_CURVE('',#494,#433,#215,.T.);
#608=EDGE_CURVE('',#495,#494,#216,.T.);
#609=EDGE_CURVE('',#496,#495,#217,.T.);
#610=EDGE_CURVE('',#497,#496,#218,.T.);
#611=EDGE_CURVE('',#438,#497,#219,.T.);
#612=EDGE_CURVE('',#492,#482,#220,.T.);
#613=EDGE_CURVE('',#481,#493,#221,.T.);
#614=EDGE_CURVE('',#494,#498,#222,.T.);
#615=EDGE_CURVE('',#498,#499,#223,.T.);
#616=EDGE_CURVE('',#499,#495,#224,.T.);
#617=EDGE_CURVE('',#500,#432,#225,.T.);
#618=EDGE_CURVE('',#500,#498,#226,.T.);
#619=EDGE_CURVE('',#431,#501,#227,.T.);
#620=EDGE_CURVE('',#501,#500,#228,.T.);
#621=EDGE_CURVE('',#502,#430,#229,.T.);
#622=EDGE_CURVE('',#502,#501,#230,.T.);
#623=EDGE_CURVE('',#488,#473,#231,.T.);
#624=EDGE_CURVE('',#472,#489,#232,.T.);
#625=EDGE_CURVE('',#474,#487,#233,.T.);
#626=EDGE_CURVE('',#486,#468,#234,.T.);
#627=EDGE_CURVE('',#467,#442,#235,.T.);
#628=EDGE_CURVE('',#441,#469,#236,.T.);
#629=EDGE_CURVE('',#470,#440,#237,.T.);
#630=EDGE_CURVE('',#449,#471,#238,.T.);
#631=EDGE_CURVE('',#496,#503,#239,.T.);
#632=EDGE_CURVE('',#503,#504,#240,.T.);
#633=EDGE_CURVE('',#504,#497,#241,.T.);
#634=EDGE_CURVE('',#499,#503,#242,.T.);
#635=EDGE_CURVE('',#439,#505,#243,.T.);
#636=EDGE_CURVE('',#505,#502,#244,.T.);
#637=EDGE_CURVE('',#504,#505,#245,.T.);
#638=EDGE_CURVE('',#480,#454,#246,.T.);
#639=EDGE_CURVE('',#506,#480,#247,.T.);
#640=EDGE_CURVE('',#506,#507,#248,.T.);
#641=EDGE_CURVE('',#454,#507,#249,.T.);
#642=EDGE_CURVE('',#475,#508,#250,.T.);
#643=EDGE_CURVE('',#508,#509,#251,.T.);
#644=EDGE_CURVE('',#509,#510,#252,.T.);
#645=EDGE_CURVE('',#510,#511,#253,.T.);
#646=EDGE_CURVE('',#511,#506,#254,.T.);
#647=EDGE_CURVE('',#512,#455,#255,.T.);
#648=EDGE_CURVE('',#508,#512,#256,.T.);
#649=EDGE_CURVE('',#507,#513,#257,.T.);
#650=EDGE_CURVE('',#513,#514,#258,.T.);
#651=EDGE_CURVE('',#514,#515,#259,.T.);
#652=EDGE_CURVE('',#515,#512,#260,.T.);
#653=EDGE_CURVE('',#511,#513,#261,.T.);
#654=EDGE_CURVE('',#510,#514,#262,.T.);
#655=EDGE_CURVE('',#509,#515,#263,.T.);
#656=EDGE_CURVE('',#516,#457,#264,.T.);
#657=EDGE_CURVE('',#516,#517,#265,.T.);
#658=EDGE_CURVE('',#477,#517,#266,.T.);
#659=EDGE_CURVE('',#456,#518,#267,.T.);
#660=EDGE_CURVE('',#518,#519,#268,.T.);
#661=EDGE_CURVE('',#519,#520,#269,.T.);
#662=EDGE_CURVE('',#520,#521,#270,.T.);
#663=EDGE_CURVE('',#521,#516,#271,.T.);
#664=EDGE_CURVE('',#522,#476,#272,.T.);
#665=EDGE_CURVE('',#518,#522,#273,.T.);
#666=EDGE_CURVE('',#517,#523,#274,.T.);
#667=EDGE_CURVE('',#523,#524,#275,.T.);
#668=EDGE_CURVE('',#524,#525,#276,.T.);
#669=EDGE_CURVE('',#525,#522,#277,.T.);
#670=EDGE_CURVE('',#521,#523,#278,.T.);
#671=EDGE_CURVE('',#520,#524,#279,.T.);
#672=EDGE_CURVE('',#519,#525,#280,.T.);
#673=EDGE_CURVE('',#478,#453,#281,.T.);
#674=ORIENTED_EDGE('',*,*,#526,.T.);
#675=ORIENTED_EDGE('',*,*,#527,.F.);
#676=ORIENTED_EDGE('',*,*,#528,.F.);
#677=ORIENTED_EDGE('',*,*,#529,.T.);
#678=ORIENTED_EDGE('',*,*,#530,.T.);
#679=ORIENTED_EDGE('',*,*,#531,.T.);
#680=ORIENTED_EDGE('',*,*,#532,.T.);
#681=ORIENTED_EDGE('',*,*,#533,.T.);
#682=ORIENTED_EDGE('',*,*,#534,.F.);
#683=ORIENTED_EDGE('',*,*,#535,.F.);
#684=ORIENTED_EDGE('',*,*,#536,.T.);
#685=ORIENTED_EDGE('',*,*,#537,.F.);
#686=ORIENTED_EDGE('',*,*,#538,.F.);
#687=ORIENTED_EDGE('',*,*,#539,.T.);
#688=ORIENTED_EDGE('',*,*,#540,.T.);
#689=ORIENTED_EDGE('',*,*,#541,.T.);
#690=ORIENTED_EDGE('',*,*,#542,.T.);
#691=ORIENTED_EDGE('',*,*,#543,.T.);
#692=ORIENTED_EDGE('',*,*,#544,.F.);
#693=ORIENTED_EDGE('',*,*,#545,.F.);
#694=ORIENTED_EDGE('',*,*,#546,.T.);
#695=ORIENTED_EDGE('',*,*,#547,.T.);
#696=ORIENTED_EDGE('',*,*,#548,.T.);
#697=ORIENTED_EDGE('',*,*,#549,.T.);
#698=ORIENTED_EDGE('',*,*,#550,.T.);
#699=ORIENTED_EDGE('',*,*,#551,.T.);
#700=ORIENTED_EDGE('',*,*,#552,.T.);
#701=ORIENTED_EDGE('',*,*,#553,.T.);
#702=ORIENTED_EDGE('',*,*,#547,.F.);
#703=ORIENTED_EDGE('',*,*,#554,.T.);
#704=ORIENTED_EDGE('',*,*,#555,.F.);
#705=ORIENTED_EDGE('',*,*,#556,.T.);
#706=ORIENTED_EDGE('',*,*,#542,.F.);
#707=ORIENTED_EDGE('',*,*,#557,.F.);
#708=ORIENTED_EDGE('',*,*,#530,.F.);
#709=ORIENTED_EDGE('',*,*,#558,.T.);
#710=ORIENTED_EDGE('',*,*,#559,.F.);
#711=ORIENTED_EDGE('',*,*,#560,.F.);
#712=ORIENTED_EDGE('',*,*,#546,.F.);
#713=ORIENTED_EDGE('',*,*,#561,.T.);
#714=ORIENTED_EDGE('',*,*,#562,.F.);
#715=ORIENTED_EDGE('',*,*,#563,.T.);
#716=ORIENTED_EDGE('',*,*,#564,.F.);
#717=ORIENTED_EDGE('',*,*,#565,.T.);
#718=ORIENTED_EDGE('',*,*,#566,.F.);
#719=ORIENTED_EDGE('',*,*,#554,.F.);
#720=ORIENTED_EDGE('',*,*,#567,.F.);
#721=ORIENTED_EDGE('',*,*,#568,.F.);
#722=ORIENTED_EDGE('',*,*,#569,.F.);
#723=ORIENTED_EDGE('',*,*,#570,.F.);
#724=ORIENTED_EDGE('',*,*,#571,.F.);
#725=ORIENTED_EDGE('',*,*,#572,.F.);
#726=ORIENTED_EDGE('',*,*,#573,.F.);
#727=ORIENTED_EDGE('',*,*,#574,.F.);
#728=ORIENTED_EDGE('',*,*,#551,.F.);
#729=ORIENTED_EDGE('',*,*,#575,.T.);
#730=ORIENTED_EDGE('',*,*,#576,.F.);
#731=ORIENTED_EDGE('',*,*,#577,.T.);
#732=ORIENTED_EDGE('',*,*,#553,.F.);
#733=ORIENTED_EDGE('',*,*,#578,.T.);
#734=ORIENTED_EDGE('',*,*,#579,.F.);
#735=ORIENTED_EDGE('',*,*,#561,.F.);
#736=ORIENTED_EDGE('',*,*,#580,.T.);
#737=ORIENTED_EDGE('',*,*,#581,.T.);
#738=ORIENTED_EDGE('',*,*,#562,.T.);
#739=ORIENTED_EDGE('',*,*,#579,.T.);
#740=ORIENTED_EDGE('',*,*,#582,.T.);
#741=ORIENTED_EDGE('',*,*,#576,.T.);
#742=ORIENTED_EDGE('',*,*,#583,.T.);
#743=ORIENTED_EDGE('',*,*,#584,.T.);
#744=ORIENTED_EDGE('',*,*,#581,.F.);
#745=ORIENTED_EDGE('',*,*,#585,.T.);
#746=ORIENTED_EDGE('',*,*,#586,.F.);
#747=ORIENTED_EDGE('',*,*,#587,.T.);
#748=ORIENTED_EDGE('',*,*,#532,.F.);
#749=ORIENTED_EDGE('',*,*,#588,.F.);
#750=ORIENTED_EDGE('',*,*,#540,.F.);
#751=ORIENTED_EDGE('',*,*,#589,.T.);
#752=ORIENTED_EDGE('',*,*,#590,.F.);
#753=ORIENTED_EDGE('',*,*,#563,.F.);
#754=ORIENTED_EDGE('',*,*,#564,.T.);
#755=ORIENTED_EDGE('',*,*,#590,.T.);
#756=ORIENTED_EDGE('',*,*,#591,.T.);
#757=ORIENTED_EDGE('',*,*,#592,.T.);
#758=ORIENTED_EDGE('',*,*,#592,.F.);
#759=ORIENTED_EDGE('',*,*,#593,.T.);
#760=ORIENTED_EDGE('',*,*,#594,.F.);
#761=ORIENTED_EDGE('',*,*,#565,.F.);
#762=ORIENTED_EDGE('',*,*,#539,.F.);
#763=ORIENTED_EDGE('',*,*,#595,.F.);
#764=ORIENTED_EDGE('',*,*,#596,.F.);
#765=ORIENTED_EDGE('',*,*,#597,.F.);
#766=ORIENTED_EDGE('',*,*,#598,.F.);
#767=ORIENTED_EDGE('',*,*,#599,.F.);
#768=ORIENTED_EDGE('',*,*,#543,.F.);
#769=ORIENTED_EDGE('',*,*,#556,.F.);
#770=ORIENTED_EDGE('',*,*,#600,.F.);
#771=ORIENTED_EDGE('',*,*,#593,.F.);
#772=ORIENTED_EDGE('',*,*,#591,.F.);
#773=ORIENTED_EDGE('',*,*,#589,.F.);
#774=ORIENTED_EDGE('',*,*,#566,.T.);
#775=ORIENTED_EDGE('',*,*,#594,.T.);
#776=ORIENTED_EDGE('',*,*,#600,.T.);
#777=ORIENTED_EDGE('',*,*,#555,.T.);
#778=ORIENTED_EDGE('',*,*,#601,.T.);
#779=ORIENTED_EDGE('',*,*,#559,.T.);
#780=ORIENTED_EDGE('',*,*,#602,.T.);
#781=ORIENTED_EDGE('',*,*,#603,.T.);
#782=ORIENTED_EDGE('',*,*,#603,.F.);
#783=ORIENTED_EDGE('',*,*,#604,.T.);
#784=ORIENTED_EDGE('',*,*,#605,.F.);
#785=ORIENTED_EDGE('',*,*,#606,.F.);
#786=ORIENTED_EDGE('',*,*,#529,.F.);
#787=ORIENTED_EDGE('',*,*,#607,.F.);
#788=ORIENTED_EDGE('',*,*,#608,.F.);
#789=ORIENTED_EDGE('',*,*,#609,.F.);
#790=ORIENTED_EDGE('',*,*,#610,.F.);
#791=ORIENTED_EDGE('',*,*,#611,.F.);
#792=ORIENTED_EDGE('',*,*,#533,.F.);
#793=ORIENTED_EDGE('',*,*,#587,.F.);
#794=ORIENTED_EDGE('',*,*,#612,.F.);
#795=ORIENTED_EDGE('',*,*,#604,.F.);
#796=ORIENTED_EDGE('',*,*,#602,.F.);
#797=ORIENTED_EDGE('',*,*,#558,.F.);
#798=ORIENTED_EDGE('',*,*,#613,.T.);
#799=ORIENTED_EDGE('',*,*,#605,.T.);
#800=ORIENTED_EDGE('',*,*,#612,.T.);
#801=ORIENTED_EDGE('',*,*,#586,.T.);
#802=ORIENTED_EDGE('',*,*,#608,.T.);
#803=ORIENTED_EDGE('',*,*,#614,.T.);
#804=ORIENTED_EDGE('',*,*,#615,.T.);
#805=ORIENTED_EDGE('',*,*,#616,.T.);
#806=ORIENTED_EDGE('',*,*,#614,.F.);
#807=ORIENTED_EDGE('',*,*,#607,.T.);
#808=ORIENTED_EDGE('',*,*,#528,.T.);
#809=ORIENTED_EDGE('',*,*,#617,.F.);
#810=ORIENTED_EDGE('',*,*,#618,.T.);
#811=ORIENTED_EDGE('',*,*,#619,.T.);
#812=ORIENTED_EDGE('',*,*,#620,.T.);
#813=ORIENTED_EDGE('',*,*,#617,.T.);
#814=ORIENTED_EDGE('',*,*,#527,.T.);
#815=ORIENTED_EDGE('',*,*,#619,.F.);
#816=ORIENTED_EDGE('',*,*,#526,.F.);
#817=ORIENTED_EDGE('',*,*,#621,.F.);
#818=ORIENTED_EDGE('',*,*,#622,.T.);
#819=ORIENTED_EDGE('',*,*,#598,.T.);
#820=ORIENTED_EDGE('',*,*,#623,.T.);
#821=ORIENTED_EDGE('',*,*,#572,.T.);
#822=ORIENTED_EDGE('',*,*,#624,.T.);
#823=ORIENTED_EDGE('',*,*,#623,.F.);
#824=ORIENTED_EDGE('',*,*,#597,.T.);
#825=ORIENTED_EDGE('',*,*,#625,.F.);
#826=ORIENTED_EDGE('',*,*,#573,.T.);
#827=ORIENTED_EDGE('',*,*,#596,.T.);
#828=ORIENTED_EDGE('',*,*,#626,.T.);
#829=ORIENTED_EDGE('',*,*,#574,.T.);
#830=ORIENTED_EDGE('',*,*,#625,.T.);
#831=ORIENTED_EDGE('',*,*,#626,.F.);
#832=ORIENTED_EDGE('',*,*,#595,.T.);
#833=ORIENTED_EDGE('',*,*,#538,.T.);
#834=ORIENTED_EDGE('',*,*,#627,.F.);
#835=ORIENTED_EDGE('',*,*,#567,.T.);
#836=ORIENTED_EDGE('',*,*,#628,.T.);
#837=ORIENTED_EDGE('',*,*,#568,.T.);
#838=ORIENTED_EDGE('',*,*,#627,.T.);
#839=ORIENTED_EDGE('',*,*,#537,.T.);
#840=ORIENTED_EDGE('',*,*,#628,.F.);
#841=ORIENTED_EDGE('',*,*,#536,.F.);
#842=ORIENTED_EDGE('',*,*,#629,.F.);
#843=ORIENTED_EDGE('',*,*,#569,.T.);
#844=ORIENTED_EDGE('',*,*,#630,.T.);
#845=ORIENTED_EDGE('',*,*,#570,.T.);
#846=ORIENTED_EDGE('',*,*,#629,.T.);
#847=ORIENTED_EDGE('',*,*,#545,.T.);
#848=ORIENTED_EDGE('',*,*,#624,.F.);
#849=ORIENTED_EDGE('',*,*,#571,.T.);
#850=ORIENTED_EDGE('',*,*,#630,.F.);
#851=ORIENTED_EDGE('',*,*,#544,.T.);
#852=ORIENTED_EDGE('',*,*,#599,.T.);
#853=ORIENTED_EDGE('',*,*,#610,.T.);
#854=ORIENTED_EDGE('',*,*,#631,.T.);
#855=ORIENTED_EDGE('',*,*,#632,.T.);
#856=ORIENTED_EDGE('',*,*,#633,.T.);
#857=ORIENTED_EDGE('',*,*,#616,.F.);
#858=ORIENTED_EDGE('',*,*,#634,.T.);
#859=ORIENTED_EDGE('',*,*,#631,.F.);
#860=ORIENTED_EDGE('',*,*,#609,.T.);
#861=ORIENTED_EDGE('',*,*,#635,.T.);
#862=ORIENTED_EDGE('',*,*,#636,.T.);
#863=ORIENTED_EDGE('',*,*,#621,.T.);
#864=ORIENTED_EDGE('',*,*,#535,.T.);
#865=ORIENTED_EDGE('',*,*,#633,.F.);
#866=ORIENTED_EDGE('',*,*,#637,.T.);
#867=ORIENTED_EDGE('',*,*,#635,.F.);
#868=ORIENTED_EDGE('',*,*,#534,.T.);
#869=ORIENTED_EDGE('',*,*,#611,.T.);
#870=ORIENTED_EDGE('',*,*,#638,.F.);
#871=ORIENTED_EDGE('',*,*,#639,.F.);
#872=ORIENTED_EDGE('',*,*,#640,.T.);
#873=ORIENTED_EDGE('',*,*,#641,.F.);
#874=ORIENTED_EDGE('',*,*,#583,.F.);
#875=ORIENTED_EDGE('',*,*,#642,.T.);
#876=ORIENTED_EDGE('',*,*,#643,.T.);
#877=ORIENTED_EDGE('',*,*,#644,.T.);
#878=ORIENTED_EDGE('',*,*,#645,.T.);
#879=ORIENTED_EDGE('',*,*,#646,.T.);
#880=ORIENTED_EDGE('',*,*,#639,.T.);
#881=ORIENTED_EDGE('',*,*,#575,.F.);
#882=ORIENTED_EDGE('',*,*,#647,.F.);
#883=ORIENTED_EDGE('',*,*,#648,.F.);
#884=ORIENTED_EDGE('',*,*,#642,.F.);
#885=ORIENTED_EDGE('',*,*,#550,.F.);
#886=ORIENTED_EDGE('',*,*,#641,.T.);
#887=ORIENTED_EDGE('',*,*,#649,.T.);
#888=ORIENTED_EDGE('',*,*,#650,.T.);
#889=ORIENTED_EDGE('',*,*,#651,.T.);
#890=ORIENTED_EDGE('',*,*,#652,.T.);
#891=ORIENTED_EDGE('',*,*,#647,.T.);
#892=ORIENTED_EDGE('',*,*,#650,.F.);
#893=ORIENTED_EDGE('',*,*,#653,.F.);
#894=ORIENTED_EDGE('',*,*,#645,.F.);
#895=ORIENTED_EDGE('',*,*,#654,.T.);
#896=ORIENTED_EDGE('',*,*,#649,.F.);
#897=ORIENTED_EDGE('',*,*,#640,.F.);
#898=ORIENTED_EDGE('',*,*,#646,.F.);
#899=ORIENTED_EDGE('',*,*,#653,.T.);
#900=ORIENTED_EDGE('',*,*,#652,.F.);
#901=ORIENTED_EDGE('',*,*,#655,.F.);
#902=ORIENTED_EDGE('',*,*,#643,.F.);
#903=ORIENTED_EDGE('',*,*,#648,.T.);
#904=ORIENTED_EDGE('',*,*,#651,.F.);
#905=ORIENTED_EDGE('',*,*,#654,.F.);
#906=ORIENTED_EDGE('',*,*,#644,.F.);
#907=ORIENTED_EDGE('',*,*,#655,.T.);
#908=ORIENTED_EDGE('',*,*,#578,.F.);
#909=ORIENTED_EDGE('',*,*,#656,.F.);
#910=ORIENTED_EDGE('',*,*,#657,.T.);
#911=ORIENTED_EDGE('',*,*,#658,.F.);
#912=ORIENTED_EDGE('',*,*,#552,.F.);
#913=ORIENTED_EDGE('',*,*,#659,.T.);
#914=ORIENTED_EDGE('',*,*,#660,.T.);
#915=ORIENTED_EDGE('',*,*,#661,.T.);
#916=ORIENTED_EDGE('',*,*,#662,.T.);
#917=ORIENTED_EDGE('',*,*,#663,.T.);
#918=ORIENTED_EDGE('',*,*,#656,.T.);
#919=ORIENTED_EDGE('',*,*,#577,.F.);
#920=ORIENTED_EDGE('',*,*,#664,.F.);
#921=ORIENTED_EDGE('',*,*,#665,.F.);
#922=ORIENTED_EDGE('',*,*,#659,.F.);
#923=ORIENTED_EDGE('',*,*,#582,.F.);
#924=ORIENTED_EDGE('',*,*,#658,.T.);
#925=ORIENTED_EDGE('',*,*,#666,.T.);
#926=ORIENTED_EDGE('',*,*,#667,.T.);
#927=ORIENTED_EDGE('',*,*,#668,.T.);
#928=ORIENTED_EDGE('',*,*,#669,.T.);
#929=ORIENTED_EDGE('',*,*,#664,.T.);
#930=ORIENTED_EDGE('',*,*,#667,.F.);
#931=ORIENTED_EDGE('',*,*,#670,.F.);
#932=ORIENTED_EDGE('',*,*,#662,.F.);
#933=ORIENTED_EDGE('',*,*,#671,.T.);
#934=ORIENTED_EDGE('',*,*,#666,.F.);
#935=ORIENTED_EDGE('',*,*,#657,.F.);
#936=ORIENTED_EDGE('',*,*,#663,.F.);
#937=ORIENTED_EDGE('',*,*,#670,.T.);
#938=ORIENTED_EDGE('',*,*,#669,.F.);
#939=ORIENTED_EDGE('',*,*,#672,.F.);
#940=ORIENTED_EDGE('',*,*,#660,.F.);
#941=ORIENTED_EDGE('',*,*,#665,.T.);
#942=ORIENTED_EDGE('',*,*,#668,.F.);
#943=ORIENTED_EDGE('',*,*,#671,.F.);
#944=ORIENTED_EDGE('',*,*,#661,.F.);
#945=ORIENTED_EDGE('',*,*,#672,.T.);
#946=ORIENTED_EDGE('',*,*,#531,.F.);
#947=ORIENTED_EDGE('',*,*,#557,.T.);
#948=ORIENTED_EDGE('',*,*,#541,.F.);
#949=ORIENTED_EDGE('',*,*,#588,.T.);
#950=ORIENTED_EDGE('',*,*,#548,.F.);
#951=ORIENTED_EDGE('',*,*,#560,.T.);
#952=ORIENTED_EDGE('',*,*,#601,.F.);
#953=ORIENTED_EDGE('',*,*,#606,.T.);
#954=ORIENTED_EDGE('',*,*,#613,.F.);
#955=ORIENTED_EDGE('',*,*,#585,.F.);
#956=ORIENTED_EDGE('',*,*,#580,.F.);
#957=ORIENTED_EDGE('',*,*,#673,.T.);
#958=ORIENTED_EDGE('',*,*,#618,.F.);
#959=ORIENTED_EDGE('',*,*,#620,.F.);
#960=ORIENTED_EDGE('',*,*,#622,.F.);
#961=ORIENTED_EDGE('',*,*,#636,.F.);
#962=ORIENTED_EDGE('',*,*,#637,.F.);
#963=ORIENTED_EDGE('',*,*,#632,.F.);
#964=ORIENTED_EDGE('',*,*,#634,.F.);
#965=ORIENTED_EDGE('',*,*,#615,.F.);
#966=ORIENTED_EDGE('',*,*,#549,.F.);
#967=ORIENTED_EDGE('',*,*,#673,.F.);
#968=ORIENTED_EDGE('',*,*,#584,.F.);
#969=ORIENTED_EDGE('',*,*,#638,.T.);
#970=PLANE('',#1097);
#971=PLANE('',#1098);
#972=PLANE('',#1099);
#973=PLANE('',#1100);
#974=PLANE('',#1101);
#975=PLANE('',#1102);
#976=PLANE('',#1103);
#977=PLANE('',#1104);
#978=PLANE('',#1105);
#979=PLANE('',#1106);
#980=PLANE('',#1107);
#981=PLANE('',#1108);
#982=PLANE('',#1109);
#983=PLANE('',#1110);
#984=PLANE('',#1111);
#985=PLANE('',#1112);
#986=PLANE('',#1113);
#987=PLANE('',#1114);
#988=PLANE('',#1115);
#989=PLANE('',#1116);
#990=PLANE('',#1117);
#991=PLANE('',#1118);
#992=PLANE('',#1119);
#993=PLANE('',#1120);
#994=PLANE('',#1121);
#995=PLANE('',#1122);
#996=PLANE('',#1123);
#997=PLANE('',#1124);
#998=PLANE('',#1125);
#999=PLANE('',#1126);
#1000=PLANE('',#1127);
#1001=PLANE('',#1128);
#1002=PLANE('',#1129);
#1003=PLANE('',#1130);
#1004=PLANE('',#1131);
#1005=PLANE('',#1132);
#1006=PLANE('',#1133);
#1007=PLANE('',#1134);
#1008=PLANE('',#1135);
#1009=PLANE('',#1136);
#1010=PLANE('',#1137);
#1011=PLANE('',#1138);
#1012=PLANE('',#1139);
#1013=PLANE('',#1140);
#1014=PLANE('',#1141);
#1015=PLANE('',#1142);
#1016=PLANE('',#1143);
#1017=PLANE('',#1144);
#1018=PLANE('',#1145);
#1019=PLANE('',#1146);
#1020=PLANE('',#1147);
#1021=PLANE('',#1148);
#1022=ADVANCED_FACE('',(#28),#970,.T.);
#1023=ADVANCED_FACE('',(#29),#971,.T.);
#1024=ADVANCED_FACE('',(#30),#972,.T.);
#1025=ADVANCED_FACE('',(#31),#973,.T.);
#1026=ADVANCED_FACE('',(#32,#26),#974,.T.);
#1027=ADVANCED_FACE('',(#33),#975,.F.);
#1028=ADVANCED_FACE('',(#34),#976,.F.);
#1029=ADVANCED_FACE('',(#35),#977,.T.);
#1030=ADVANCED_FACE('',(#36),#978,.T.);
#1031=ADVANCED_FACE('',(#37),#979,.T.);
#1032=ADVANCED_FACE('',(#38),#980,.T.);
#1033=ADVANCED_FACE('',(#39),#981,.T.);
#1034=ADVANCED_FACE('',(#40),#982,.T.);
#1035=ADVANCED_FACE('',(#41),#983,.T.);
#1036=ADVANCED_FACE('',(#42),#984,.T.);
#1037=ADVANCED_FACE('',(#43),#985,.T.);
#1038=ADVANCED_FACE('',(#44),#986,.T.);
#1039=ADVANCED_FACE('',(#45),#987,.T.);
#1040=ADVANCED_FACE('',(#46),#988,.F.);
#1041=ADVANCED_FACE('',(#47),#989,.T.);
#1042=ADVANCED_FACE('',(#48),#990,.F.);
#1043=ADVANCED_FACE('',(#49),#991,.T.);
#1044=ADVANCED_FACE('',(#50),#992,.F.);
#1045=ADVANCED_FACE('',(#51),#993,.T.);
#1046=ADVANCED_FACE('',(#52),#994,.F.);
#1047=ADVANCED_FACE('',(#53),#995,.T.);
#1048=ADVANCED_FACE('',(#54),#996,.F.);
#1049=ADVANCED_FACE('',(#55),#997,.T.);
#1050=ADVANCED_FACE('',(#56),#998,.F.);
#1051=ADVANCED_FACE('',(#57),#999,.T.);
#1052=ADVANCED_FACE('',(#58),#1000,.F.);
#1053=ADVANCED_FACE('',(#59),#1001,.T.);
#1054=ADVANCED_FACE('',(#60),#1002,.F.);
#1055=ADVANCED_FACE('',(#61),#1003,.T.);
#1056=ADVANCED_FACE('',(#62),#1004,.T.);
#1057=ADVANCED_FACE('',(#63),#1005,.T.);
#1058=ADVANCED_FACE('',(#64),#1006,.T.);
#1059=ADVANCED_FACE('',(#65),#1007,.T.);
#1060=ADVANCED_FACE('',(#66),#1008,.T.);
#1061=ADVANCED_FACE('',(#67),#1009,.T.);
#1062=ADVANCED_FACE('',(#68),#1010,.T.);
#1063=ADVANCED_FACE('',(#69),#1011,.T.);
#1064=ADVANCED_FACE('',(#70),#1012,.T.);
#1065=ADVANCED_FACE('',(#71),#1013,.T.);
#1066=ADVANCED_FACE('',(#72),#1014,.T.);
#1067=ADVANCED_FACE('',(#73),#1015,.T.);
#1068=ADVANCED_FACE('',(#74),#1016,.T.);
#1069=ADVANCED_FACE('',(#75),#1017,.T.);
#1070=ADVANCED_FACE('',(#76),#1018,.T.);
#1071=ADVANCED_FACE('',(#77),#1019,.T.);
#1072=ADVANCED_FACE('',(#78,#27),#1020,.T.);
#1073=ADVANCED_FACE('',(#79),#1021,.F.);
#1074=CLOSED_SHELL('',(#1022,#1023,#1024,#1025,#1026,#1027,#1028,#1029,
#1030,#1031,#1032,#1033,#1034,#1035,#1036,#1037,#1038,#1039,#1040,#1041,
#1042,#1043,#1044,#1045,#1046,#1047,#1048,#1049,#1050,#1051,#1052,#1053,
#1054,#1055,#1056,#1057,#1058,#1059,#1060,#1061,#1062,#1063,#1064,#1065,
#1066,#1067,#1068,#1069,#1070,#1071,#1072,#1073));
#1075=DERIVED_UNIT_ELEMENT(#1078,1.);
#1076=DERIVED_UNIT_ELEMENT(#1713,-3.);
#1077=DIMENSIONAL_EXPONENTS(0.,1.,0.,0.,0.,0.,0.);
#1078=(
CONVERSION_BASED_UNIT('gram',#1080)
MASS_UNIT()
NAMED_UNIT(#1077)
);
#1079=(
MASS_UNIT()
NAMED_UNIT(*)
SI_UNIT(.KILO.,.GRAM.)
);
#1080=MASS_MEASURE_WITH_UNIT(MASS_MEASURE(0.001),#1079);
#1081=DERIVED_UNIT((#1075,#1076));
#1082=MEASURE_REPRESENTATION_ITEM('density measure',
POSITIVE_RATIO_MEASURE(1.),#1081);
#1083=PROPERTY_DEFINITION_REPRESENTATION(#1088,#1085);
#1084=PROPERTY_DEFINITION_REPRESENTATION(#1089,#1086);
#1085=REPRESENTATION('material name',(#1087),#1710);
#1086=REPRESENTATION('density',(#1082),#1710);
#1087=DESCRIPTIVE_REPRESENTATION_ITEM('Og\X\F3lny','Og\X\F3lny');
#1088=PROPERTY_DEFINITION('material property','material name',#1720);
#1089=PROPERTY_DEFINITION('material property','density of part',#1720);
#1090=DATE_TIME_ROLE('creation_date');
#1091=APPLIED_DATE_AND_TIME_ASSIGNMENT(#1092,#1090,(#1720));
#1092=DATE_AND_TIME(#1093,#1094);
#1093=CALENDAR_DATE(2026,21,7);
#1094=LOCAL_TIME(0,0,0.,#1095);
#1095=COORDINATED_UNIVERSAL_TIME_OFFSET(0,0,.BEHIND.);
#1096=AXIS2_PLACEMENT_3D('',#1403,#1149,#1150);
#1097=AXIS2_PLACEMENT_3D('',#1404,#1151,#1152);
#1098=AXIS2_PLACEMENT_3D('',#1425,#1163,#1164);
#1099=AXIS2_PLACEMENT_3D('',#1446,#1175,#1176);
#1100=AXIS2_PLACEMENT_3D('',#1463,#1185,#1186);
#1101=AXIS2_PLACEMENT_3D('',#1475,#1194,#1195);
#1102=AXIS2_PLACEMENT_3D('',#1503,#1210,#1211);
#1103=AXIS2_PLACEMENT_3D('',#1509,#1215,#1216);
#1104=AXIS2_PLACEMENT_3D('',#1513,#1219,#1220);
#1105=AXIS2_PLACEMENT_3D('',#1522,#1226,#1227);
#1106=AXIS2_PLACEMENT_3D('',#1532,#1234,#1235);
#1107=AXIS2_PLACEMENT_3D('',#1536,#1238,#1239);
#1108=AXIS2_PLACEMENT_3D('',#1540,#1242,#1243);
#1109=AXIS2_PLACEMENT_3D('',#1551,#1250,#1251);
#1110=AXIS2_PLACEMENT_3D('',#1552,#1252,#1253);
#1111=AXIS2_PLACEMENT_3D('',#1558,#1257,#1258);
#1112=AXIS2_PLACEMENT_3D('',#1564,#1262,#1263);
#1113=AXIS2_PLACEMENT_3D('',#1575,#1270,#1271);
#1114=AXIS2_PLACEMENT_3D('',#1577,#1273,#1274);
#1115=AXIS2_PLACEMENT_3D('',#1583,#1278,#1279);
#1116=AXIS2_PLACEMENT_3D('',#1587,#1282,#1283);
#1117=AXIS2_PLACEMENT_3D('',#1591,#1286,#1287);
#1118=AXIS2_PLACEMENT_3D('',#1595,#1290,#1291);
#1119=AXIS2_PLACEMENT_3D('',#1598,#1294,#1295);
#1120=AXIS2_PLACEMENT_3D('',#1600,#1297,#1298);
#1121=AXIS2_PLACEMENT_3D('',#1602,#1300,#1301);
#1122=AXIS2_PLACEMENT_3D('',#1604,#1303,#1304);
#1123=AXIS2_PLACEMENT_3D('',#1606,#1306,#1307);
#1124=AXIS2_PLACEMENT_3D('',#1608,#1309,#1310);
#1125=AXIS2_PLACEMENT_3D('',#1610,#1312,#1313);
#1126=AXIS2_PLACEMENT_3D('',#1611,#1314,#1315);
#1127=AXIS2_PLACEMENT_3D('',#1617,#1319,#1320);
#1128=AXIS2_PLACEMENT_3D('',#1619,#1322,#1323);
#1129=AXIS2_PLACEMENT_3D('',#1623,#1326,#1327);
#1130=AXIS2_PLACEMENT_3D('',#1625,#1329,#1330);
#1131=AXIS2_PLACEMENT_3D('',#1632,#1335,#1336);
#1132=AXIS2_PLACEMENT_3D('',#1642,#1342,#1343);
#1133=AXIS2_PLACEMENT_3D('',#1646,#1346,#1347);
#1134=AXIS2_PLACEMENT_3D('',#1654,#1352,#1353);
#1135=AXIS2_PLACEMENT_3D('',#1657,#1356,#1357);
#1136=AXIS2_PLACEMENT_3D('',#1658,#1358,#1359);
#1137=AXIS2_PLACEMENT_3D('',#1660,#1361,#1362);
#1138=AXIS2_PLACEMENT_3D('',#1661,#1363,#1364);
#1139=AXIS2_PLACEMENT_3D('',#1667,#1368,#1369);
#1140=AXIS2_PLACEMENT_3D('',#1677,#1375,#1376);
#1141=AXIS2_PLACEMENT_3D('',#1681,#1379,#1380);
#1142=AXIS2_PLACEMENT_3D('',#1689,#1385,#1386);
#1143=AXIS2_PLACEMENT_3D('',#1692,#1389,#1390);
#1144=AXIS2_PLACEMENT_3D('',#1693,#1391,#1392);
#1145=AXIS2_PLACEMENT_3D('',#1695,#1394,#1395);
#1146=AXIS2_PLACEMENT_3D('',#1696,#1396,#1397);
#1147=AXIS2_PLACEMENT_3D('',#1697,#1398,#1399);
#1148=AXIS2_PLACEMENT_3D('',#1699,#1401,#1402);
#1149=DIRECTION('axis',(0.,0.,1.));
#1150=DIRECTION('refdir',(1.,0.,0.));
#1151=DIRECTION('center_axis',(0.,0.788205438016109,0.615412209402636));
#1152=DIRECTION('ref_axis',(1.,0.,0.));
#1153=DIRECTION('',(-1.,0.,0.));
#1154=DIRECTION('',(-0.524114470903346,0.524114470903346,-0.671273448588138));
#1155=DIRECTION('',(0.,0.615412209402636,-0.788205438016109));
#1156=DIRECTION('',(-1.,0.,0.));
#1157=DIRECTION('',(0.,-0.615412209402636,0.788205438016109));
#1158=DIRECTION('',(1.,0.,0.));
#1159=DIRECTION('',(0.,0.615412209402636,-0.788205438016109));
#1160=DIRECTION('',(-1.,0.,0.));
#1161=DIRECTION('',(0.,-0.615412209402636,0.788205438016109));
#1162=DIRECTION('',(-0.524114470903345,-0.524114470903346,0.671273448588139));
#1163=DIRECTION('center_axis',(0.,0.788205438016109,-0.615412209402635));
#1164=DIRECTION('ref_axis',(-1.,0.,0.));
#1165=DIRECTION('',(1.,0.,0.));
#1166=DIRECTION('',(0.524114470903345,0.524114470903345,0.671273448588139));
#1167=DIRECTION('',(0.,0.615412209402635,0.788205438016109));
#1168=DIRECTION('',(1.,0.,0.));
#1169=DIRECTION('',(0.,-0.615412209402635,-0.788205438016109));
#1170=DIRECTION('',(-1.,0.,0.));
#1171=DIRECTION('',(0.,0.615412209402635,0.788205438016109));
#1172=DIRECTION('',(1.,0.,0.));
#1173=DIRECTION('',(0.,-0.615412209402635,-0.788205438016109));
#1174=DIRECTION('',(0.524114470903345,-0.524114470903345,-0.671273448588139));
#1175=DIRECTION('center_axis',(-0.707106781186547,-0.707106781186548,0.));
#1176=DIRECTION('ref_axis',(0.,0.,1.));
#1177=DIRECTION('',(-0.707106781186548,0.707106781186547,0.));
#1178=DIRECTION('',(0.,0.,-1.));
#1179=DIRECTION('',(0.707106781186548,-0.707106781186547,0.));
#1180=DIRECTION('',(0.,0.,1.));
#1181=DIRECTION('',(0.,0.,1.));
#1182=DIRECTION('',(0.,0.,1.));
#1183=DIRECTION('',(0.,0.,1.));
#1184=DIRECTION('',(0.,0.,1.));
#1185=DIRECTION('center_axis',(-1.,0.,0.));
#1186=DIRECTION('ref_axis',(0.,0.,1.));
#1187=DIRECTION('',(0.,1.,0.));
#1188=DIRECTION('',(0.,0.,1.));
#1189=DIRECTION('',(0.,-0.970142500145332,-0.242535625036333));
#1190=DIRECTION('',(0.,0.,1.));
#1191=DIRECTION('',(0.,0.970142500145332,-0.242535625036333));
#1192=DIRECTION('',(0.,0.,1.));
#1193=DIRECTION('',(0.,1.,0.));
#1194=DIRECTION('center_axis',(0.,0.,1.));
#1195=DIRECTION('ref_axis',(1.,0.,0.));
#1196=DIRECTION('',(1.,0.,0.));
#1197=DIRECTION('',(-0.707106781186547,-0.707106781186548,0.));
#1198=DIRECTION('',(0.,1.,0.));
#1199=DIRECTION('',(0.707106781186548,-0.707106781186548,0.));
#1200=DIRECTION('',(-1.,0.,0.));
#1201=DIRECTION('',(0.707106781186546,0.707106781186548,0.));
#1202=DIRECTION('',(0.,1.,0.));
#1203=DIRECTION('',(0.707106781186548,0.707106781186548,0.));
#1204=DIRECTION('',(1.,0.,0.));
#1205=DIRECTION('',(0.707106781186548,-0.707106781186548,0.));
#1206=DIRECTION('',(0.,-1.,0.));
#1207=DIRECTION('',(-0.707106781186548,-0.707106781186548,0.));
#1208=DIRECTION('',(-1.,0.,0.));
#1209=DIRECTION('',(-0.707106781186547,0.707106781186548,0.));
#1210=DIRECTION('center_axis',(0.,1.,0.));
#1211=DIRECTION('ref_axis',(0.,0.,1.));
#1212=DIRECTION('',(1.,0.,0.));
#1213=DIRECTION('',(0.,0.,-1.));
#1214=DIRECTION('',(-1.,0.,0.));
#1215=DIRECTION('center_axis',(0.,1.,0.));
#1216=DIRECTION('ref_axis',(0.,0.,1.));
#1217=DIRECTION('',(1.,0.,0.));
#1218=DIRECTION('',(0.,0.,-1.));
#1219=DIRECTION('center_axis',(0.707106781186548,-0.707106781186547,0.));
#1220=DIRECTION('ref_axis',(0.,0.,-1.));
#1221=DIRECTION('',(0.707106781186547,0.707106781186548,0.));
#1222=DIRECTION('',(0.,0.,1.));
#1223=DIRECTION('',(0.,0.,-1.));
#1224=DIRECTION('',(0.,0.,-1.));
#1225=DIRECTION('',(0.,0.,-1.));
#1226=DIRECTION('center_axis',(1.,0.,0.));
#1227=DIRECTION('ref_axis',(0.,0.,-1.));
#1228=DIRECTION('',(0.,1.,0.));
#1229=DIRECTION('',(0.,0.,-1.));
#1230=DIRECTION('',(0.,-0.970142500145332,0.242535625036333));
#1231=DIRECTION('',(0.,0.,-1.));
#1232=DIRECTION('',(0.,0.970142500145332,0.242535625036333));
#1233=DIRECTION('',(0.,0.,-1.));
#1234=DIRECTION('center_axis',(0.707106781186548,0.707106781186548,0.));
#1235=DIRECTION('ref_axis',(0.,0.,-1.));
#1236=DIRECTION('',(-0.696310623822791,0.696310623822791,0.174077655955698));
#1237=DIRECTION('',(0.,0.,1.));
#1238=DIRECTION('center_axis',(0.,1.,0.));
#1239=DIRECTION('ref_axis',(-1.,0.,0.));
#1240=DIRECTION('',(-1.,0.,0.));
#1241=DIRECTION('',(0.,0.,-1.));
#1242=DIRECTION('center_axis',(0.,0.242535625036333,-0.970142500145332));
#1243=DIRECTION('ref_axis',(0.,-0.970142500145332,-0.242535625036333));
#1244=DIRECTION('',(0.,-0.970142500145332,-0.242535625036333));
#1245=DIRECTION('',(0.696310623822791,-0.696310623822792,-0.174077655955698));
#1246=DIRECTION('',(1.,0.,0.));
#1247=DIRECTION('',(0.696310623822791,0.696310623822791,0.174077655955698));
#1248=DIRECTION('',(0.,0.970142500145332,0.242535625036333));
#1249=DIRECTION('',(-0.69631062382279,-0.696310623822792,-0.174077655955698));
#1250=DIRECTION('center_axis',(-0.707106781186549,0.707106781186547,0.));
#1251=DIRECTION('ref_axis',(0.,0.,1.));
#1252=DIRECTION('center_axis',(-0.707106781186548,0.707106781186547,0.));
#1253=DIRECTION('ref_axis',(0.,0.,1.));
#1254=DIRECTION('',(-0.707106781186547,-0.707106781186548,0.));
#1255=DIRECTION('',(0.69631062382279,0.696310623822792,-0.174077655955698));
#1256=DIRECTION('',(0.,0.,-1.));
#1257=DIRECTION('center_axis',(0.,1.,0.));
#1258=DIRECTION('ref_axis',(1.,0.,0.));
#1259=DIRECTION('',(1.,0.,0.));
#1260=DIRECTION('',(0.,0.,1.));
#1261=DIRECTION('',(1.,0.,0.));
#1262=DIRECTION('center_axis',(0.,0.242535625036333,0.970142500145332));
#1263=DIRECTION('ref_axis',(0.,-0.970142500145332,0.242535625036333));
#1264=DIRECTION('',(0.,-0.970142500145332,0.242535625036333));
#1265=DIRECTION('',(-0.696310623822791,-0.696310623822791,0.174077655955698));
#1266=DIRECTION('',(-1.,0.,0.));
#1267=DIRECTION('',(-0.696310623822791,0.696310623822791,-0.174077655955698));
#1268=DIRECTION('',(0.,0.970142500145332,-0.242535625036333));
#1269=DIRECTION('',(0.69631062382279,-0.696310623822792,0.174077655955698));
#1270=DIRECTION('center_axis',(0.707106781186549,0.707106781186547,0.));
#1271=DIRECTION('ref_axis',(0.,0.,-1.));
#1272=DIRECTION('',(-0.707106781186546,0.707106781186548,0.));
#1273=DIRECTION('center_axis',(0.707106781186548,-0.707106781186548,0.));
#1274=DIRECTION('ref_axis',(0.,0.,-1.));
#1275=DIRECTION('',(0.,0.,-1.));
#1276=DIRECTION('',(0.707106781186547,0.707106781186547,0.));
#1277=DIRECTION('',(0.,0.,1.));
#1278=DIRECTION('center_axis',(-1.,0.,0.));
#1279=DIRECTION('ref_axis',(0.,1.,0.));
#1280=DIRECTION('',(0.,0.,1.));
#1281=DIRECTION('',(0.,1.,0.));
#1282=DIRECTION('center_axis',(0.707106781186548,0.707106781186548,0.));
#1283=DIRECTION('ref_axis',(0.,0.,-1.));
#1284=DIRECTION('',(0.,0.,-1.));
#1285=DIRECTION('',(-0.707106781186548,0.707106781186548,0.));
#1286=DIRECTION('center_axis',(0.,-1.,0.));
#1287=DIRECTION('ref_axis',(-1.,0.,0.));
#1288=DIRECTION('',(0.,0.,1.));
#1289=DIRECTION('',(-1.,0.,0.));
#1290=DIRECTION('center_axis',(0.707106781186548,-0.707106781186548,0.));
#1291=DIRECTION('ref_axis',(0.,0.,-1.));
#1292=DIRECTION('',(0.,0.,1.));
#1293=DIRECTION('',(0.,0.,-1.));
#1294=DIRECTION('center_axis',(0.,1.,0.));
#1295=DIRECTION('ref_axis',(-1.,0.,0.));
#1296=DIRECTION('',(0.,0.,-1.));
#1297=DIRECTION('center_axis',(-0.707106781186548,-0.707106781186547,0.));
#1298=DIRECTION('ref_axis',(0.,0.,1.));
#1299=DIRECTION('',(0.,0.,1.));
#1300=DIRECTION('center_axis',(1.,0.,0.));
#1301=DIRECTION('ref_axis',(0.,1.,0.));
#1302=DIRECTION('',(0.,0.,-1.));
#1303=DIRECTION('center_axis',(-0.707106781186548,0.707106781186548,0.));
#1304=DIRECTION('ref_axis',(0.,0.,1.));
#1305=DIRECTION('',(0.,0.,1.));
#1306=DIRECTION('center_axis',(0.,-1.,0.));
#1307=DIRECTION('ref_axis',(1.,0.,0.));
#1308=DIRECTION('',(0.,0.,-1.));
#1309=DIRECTION('center_axis',(0.707106781186548,0.707106781186548,0.));
#1310=DIRECTION('ref_axis',(0.,0.,-1.));
#1311=DIRECTION('',(0.,0.,1.));
#1312=DIRECTION('center_axis',(-1.,0.,0.));
#1313=DIRECTION('ref_axis',(0.,-1.,0.));
#1314=DIRECTION('center_axis',(-0.707106781186548,-0.707106781186548,0.));
#1315=DIRECTION('ref_axis',(0.,0.,1.));
#1316=DIRECTION('',(0.,0.,-1.));
#1317=DIRECTION('',(0.707106781186548,-0.707106781186548,0.));
#1318=DIRECTION('',(0.,0.,1.));
#1319=DIRECTION('center_axis',(0.,1.,0.));
#1320=DIRECTION('ref_axis',(1.,0.,0.));
#1321=DIRECTION('',(1.,0.,0.));
#1322=DIRECTION('center_axis',(-0.707106781186548,0.707106781186547,0.));
#1323=DIRECTION('ref_axis',(0.,0.,1.));
#1324=DIRECTION('',(0.,0.,-1.));
#1325=DIRECTION('',(-0.707106781186547,-0.707106781186548,0.));
#1326=DIRECTION('center_axis',(1.,0.,0.));
#1327=DIRECTION('ref_axis',(0.,-1.,0.));
#1328=DIRECTION('',(0.,-1.,0.));
#1329=DIRECTION('center_axis',(0.,0.,-1.));
#1330=DIRECTION('ref_axis',(0.,-1.,0.));
#1331=DIRECTION('',(-1.,0.,0.));
#1332=DIRECTION('',(0.124034734589209,0.992277876713668,0.));
#1333=DIRECTION('',(-1.,0.,0.));
#1334=DIRECTION('',(0.124034734589209,-0.992277876713668,0.));
#1335=DIRECTION('center_axis',(0.992277876713668,-0.124034734589209,0.));
#1336=DIRECTION('ref_axis',(-0.124034734589209,-0.992277876713668,0.));
#1337=DIRECTION('',(-0.122683226202979,-0.981465809623833,-0.147219871443575));
#1338=DIRECTION('',(0.,0.,-1.));
#1339=DIRECTION('',(0.0953195540281533,0.762556432225226,-0.63986082103205));
#1340=DIRECTION('',(0.124034734589209,0.992277876713668,0.));
#1341=DIRECTION('',(0.0800903405649414,0.640722724519531,0.763583608802901));
#1342=DIRECTION('center_axis',(0.,-0.148340452930245,0.988936352868298));
#1343=DIRECTION('ref_axis',(0.,0.988936352868298,0.148340452930245));
#1344=DIRECTION('',(-0.122683226202979,0.981465809623833,0.147219871443575));
#1345=DIRECTION('',(-1.,0.,0.));
#1346=DIRECTION('center_axis',(-0.992277876713668,-0.124034734589209,0.));
#1347=DIRECTION('ref_axis',(-0.124034734589209,0.992277876713668,0.));
#1348=DIRECTION('',(0.0800903405649414,-0.640722724519531,-0.763583608802901));
#1349=DIRECTION('',(0.124034734589209,-0.992277876713668,0.));
#1350=DIRECTION('',(0.0953195540281533,-0.762556432225226,0.63986082103205));
#1351=DIRECTION('',(0.,0.,1.));
#1352=DIRECTION('center_axis',(0.,0.,-1.));
#1353=DIRECTION('ref_axis',(0.,-1.,0.));
#1354=DIRECTION('',(-1.,0.,0.));
#1355=DIRECTION('',(-1.,0.,0.));
#1356=DIRECTION('center_axis',(0.,0.766044443118978,-0.642787609686539));
#1357=DIRECTION('ref_axis',(1.,0.,0.));
#1358=DIRECTION('center_axis',(0.,-1.,0.));
#1359=DIRECTION('ref_axis',(-1.,0.,0.));
#1360=DIRECTION('',(-1.,0.,0.));
#1361=DIRECTION('center_axis',(0.,-0.642787609686539,-0.766044443118978));
#1362=DIRECTION('ref_axis',(-1.,0.,0.));
#1363=DIRECTION('center_axis',(0.,0.,1.));
#1364=DIRECTION('ref_axis',(0.,-1.,0.));
#1365=DIRECTION('',(-0.124034734589209,0.992277876713668,0.));
#1366=DIRECTION('',(1.,0.,0.));
#1367=DIRECTION('',(-0.124034734589209,-0.992277876713668,0.));
#1368=DIRECTION('center_axis',(-0.992277876713668,-0.124034734589209,0.));
#1369=DIRECTION('ref_axis',(0.124034734589209,-0.992277876713668,0.));
#1370=DIRECTION('',(0.122683226202979,-0.981465809623833,0.147219871443575));
#1371=DIRECTION('',(0.,0.,1.));
#1372=DIRECTION('',(-0.0953195540281533,0.762556432225226,0.63986082103205));
#1373=DIRECTION('',(-0.124034734589209,0.992277876713668,0.));
#1374=DIRECTION('',(-0.0800903405649414,0.640722724519531,-0.763583608802901));
#1375=DIRECTION('center_axis',(0.,-0.148340452930245,-0.988936352868298));
#1376=DIRECTION('ref_axis',(0.,0.988936352868298,-0.148340452930245));
#1377=DIRECTION('',(0.122683226202979,0.981465809623833,-0.147219871443575));
#1378=DIRECTION('',(1.,0.,0.));
#1379=DIRECTION('center_axis',(0.992277876713668,-0.124034734589209,0.));
#1380=DIRECTION('ref_axis',(0.124034734589209,0.992277876713668,0.));
#1381=DIRECTION('',(-0.0800903405649414,-0.640722724519531,0.763583608802901));
#1382=DIRECTION('',(-0.124034734589209,-0.992277876713668,0.));
#1383=DIRECTION('',(-0.0953195540281533,-0.762556432225226,-0.63986082103205));
#1384=DIRECTION('',(0.,0.,-1.));
#1385=DIRECTION('center_axis',(0.,0.,1.));
#1386=DIRECTION('ref_axis',(0.,-1.,0.));
#1387=DIRECTION('',(1.,0.,0.));
#1388=DIRECTION('',(1.,0.,0.));
#1389=DIRECTION('center_axis',(0.,0.766044443118978,0.642787609686539));
#1390=DIRECTION('ref_axis',(-1.,0.,0.));
#1391=DIRECTION('center_axis',(0.,-1.,0.));
#1392=DIRECTION('ref_axis',(1.,0.,0.));
#1393=DIRECTION('',(1.,0.,0.));
#1394=DIRECTION('center_axis',(0.,-0.642787609686539,0.766044443118978));
#1395=DIRECTION('ref_axis',(1.,0.,0.));
#1396=DIRECTION('center_axis',(0.,1.,0.));
#1397=DIRECTION('ref_axis',(0.,0.,1.));
#1398=DIRECTION('center_axis',(0.,0.,-1.));
#1399=DIRECTION('ref_axis',(-1.,0.,0.));
#1400=DIRECTION('',(-1.,0.,0.));
#1401=DIRECTION('center_axis',(0.,1.,0.));
#1402=DIRECTION('ref_axis',(0.,0.,1.));
#1403=CARTESIAN_POINT('',(0.,0.,0.));
#1404=CARTESIAN_POINT('Origin',(-22.,5.94028500029066,-34.4850712500727));
#1405=CARTESIAN_POINT('',(-4.8,6.,-34.5615528128088));
#1406=CARTESIAN_POINT('',(-15.2,6.,-34.5615528128088));
#1407=CARTESIAN_POINT('',(-19.,6.,-34.5615528128088));
#1408=CARTESIAN_POINT('',(-16.,6.8,-35.5861739379324));
#1409=CARTESIAN_POINT('',(-15.7012160855588,6.50121608555883,-35.2034985497029));
#1410=CARTESIAN_POINT('',(-16.,7.88057000058133,-36.9701425001453));
#1411=CARTESIAN_POINT('',(-16.,6.0093248125763,-34.5734958127507));
#1412=CARTESIAN_POINT('',(-20.,7.88057000058133,-36.9701425001453));
#1413=CARTESIAN_POINT('',(-22.,7.88057000058133,-36.9701425001453));
#1414=CARTESIAN_POINT('',(-20.,4.,-32.));
#1415=CARTESIAN_POINT('',(-20.,6.15296312547233,-34.7574643749637));
#1416=CARTESIAN_POINT('',(0.,4.,-32.));
#1417=CARTESIAN_POINT('',(-22.,4.,-32.));
#1418=CARTESIAN_POINT('',(0.,7.88057000058133,-36.9701425001453));
#1419=CARTESIAN_POINT('',(0.,-3.54846187598099,-22.3321081246003));
#1420=CARTESIAN_POINT('',(-4.,7.88057000058133,-36.9701425001453));
#1421=CARTESIAN_POINT('',(-22.,7.88057000058133,-36.9701425001453));
#1422=CARTESIAN_POINT('',(-4.,6.8,-35.5861739379324));
#1423=CARTESIAN_POINT('',(-4.,5.25186043761263,-33.6033533126054));
#1424=CARTESIAN_POINT('',(-7.5951356577647,3.2048643422353,-30.9816090096441));
#1425=CARTESIAN_POINT('Origin',(2.,5.94028500029066,-5.51492874992734));
#1426=CARTESIAN_POINT('',(-15.2,6.,-5.43844718719117));
#1427=CARTESIAN_POINT('',(-4.8,6.,-5.43844718719117));
#1428=CARTESIAN_POINT('',(-1.,6.,-5.43844718719117));
#1429=CARTESIAN_POINT('',(-4.,6.8,-4.41382606206764));
#1430=CARTESIAN_POINT('',(-4.29878391444118,6.50121608555882,-4.79650145029705));
#1431=CARTESIAN_POINT('',(-4.,7.88057000058133,-3.02985749985467));
#1432=CARTESIAN_POINT('',(-4.,6.0093248125763,-5.42650418724931));
#1433=CARTESIAN_POINT('',(0.,7.88057000058133,-3.02985749985467));
#1434=CARTESIAN_POINT('',(2.,7.88057000058133,-3.02985749985467));
#1435=CARTESIAN_POINT('',(0.,4.,-8.));
#1436=CARTESIAN_POINT('',(1.38777878078145E-16,6.15296312547233,-5.24253562503633));
#1437=CARTESIAN_POINT('',(-20.,4.,-8.));
#1438=CARTESIAN_POINT('',(2.,4.,-8.));
#1439=CARTESIAN_POINT('',(-20.,7.88057000058133,-3.02985749985467));
#1440=CARTESIAN_POINT('',(-20.,-3.54846187598099,-17.6678918753997));
#1441=CARTESIAN_POINT('',(-16.,7.88057000058133,-3.02985749985467));
#1442=CARTESIAN_POINT('',(2.,7.88057000058133,-3.02985749985467));
#1443=CARTESIAN_POINT('',(-16.,6.8,-4.41382606206764));
#1444=CARTESIAN_POINT('',(-16.,5.25186043761263,-6.39664668739464));
#1445=CARTESIAN_POINT('',(-12.4048643422353,3.2048643422353,-9.01839099035589));
#1446=CARTESIAN_POINT('Origin',(-19.,1.,-30.));
#1447=CARTESIAN_POINT('',(-18.,0.,0.));
#1448=CARTESIAN_POINT('',(-20.,2.,0.));
#1449=CARTESIAN_POINT('',(-19.,1.,-2.22044604925031E-15));
#1450=CARTESIAN_POINT('',(-20.,2.,-40.));
#1451=CARTESIAN_POINT('',(-20.,2.,-30.));
#1452=CARTESIAN_POINT('',(-18.,0.,-40.));
#1453=CARTESIAN_POINT('',(-14.,-4.,-40.));
#1454=CARTESIAN_POINT('',(-18.,0.,-24.1));
#1455=CARTESIAN_POINT('',(-18.,0.,-30.));
#1456=CARTESIAN_POINT('',(-18.,0.,-22.1));
#1457=CARTESIAN_POINT('',(-18.,5.55111512312578E-16,-19.905));
#1458=CARTESIAN_POINT('',(-18.,0.,-17.9));
#1459=CARTESIAN_POINT('',(-18.,0.,-30.));
#1460=CARTESIAN_POINT('',(-18.,0.,-15.9));
#1461=CARTESIAN_POINT('',(-18.,-5.55111512312578E-16,-20.095));
#1462=CARTESIAN_POINT('',(-18.,0.,-30.));
#1463=CARTESIAN_POINT('Origin',(-20.,0.,-40.));
#1464=CARTESIAN_POINT('',(-20.,11.2,0.));
#1465=CARTESIAN_POINT('',(-20.,0.,0.));
#1466=CARTESIAN_POINT('',(-20.,11.2,-2.2));
#1467=CARTESIAN_POINT('',(-20.,11.2,-21.));
#1468=CARTESIAN_POINT('',(-20.,-8.16470588235294,-7.04117647058824));
#1469=CARTESIAN_POINT('',(-20.,4.,-40.));
#1470=CARTESIAN_POINT('',(-20.,11.2,-37.8));
#1471=CARTESIAN_POINT('',(-20.,1.24705882352941,-35.3117647058824));
#1472=CARTESIAN_POINT('',(-20.,11.2,-40.));
#1473=CARTESIAN_POINT('',(-20.,11.2,-39.));
#1474=CARTESIAN_POINT('',(-20.,0.,-40.));
#1475=CARTESIAN_POINT('Origin',(-20.,0.,0.));
#1476=CARTESIAN_POINT('',(-2.,0.,0.));
#1477=CARTESIAN_POINT('',(-20.,0.,0.));
#1478=CARTESIAN_POINT('',(0.,2.,0.));
#1479=CARTESIAN_POINT('',(-6.,-4.,0.));
#1480=CARTESIAN_POINT('',(0.,11.2,0.));
#1481=CARTESIAN_POINT('',(0.,0.,0.));
#1482=CARTESIAN_POINT('',(-0.800000000000001,12.,0.));
#1483=CARTESIAN_POINT('',(-2.4,13.6,-6.93889390390723E-17));
#1484=CARTESIAN_POINT('',(-19.2,12.,0.));
#1485=CARTESIAN_POINT('',(14.,12.,0.));
#1486=CARTESIAN_POINT('',(-22.6,8.59999999999999,2.22044604925031E-15));
#1487=CARTESIAN_POINT('',(-4.,6.8,0.));
#1488=CARTESIAN_POINT('',(-4.,9.2,0.));
#1489=CARTESIAN_POINT('',(-4.,11.,0.));
#1490=CARTESIAN_POINT('',(-4.8,6.,0.));
#1491=CARTESIAN_POINT('',(-9.9,0.900000000000001,-5.55111512312578E-16));
#1492=CARTESIAN_POINT('',(-15.2,6.,0.));
#1493=CARTESIAN_POINT('',(5.,6.,0.));
#1494=CARTESIAN_POINT('',(-16.,6.8,0.));
#1495=CARTESIAN_POINT('',(-15.1,5.9,-5.55111512312578E-16));
#1496=CARTESIAN_POINT('',(-16.,9.2,0.));
#1497=CARTESIAN_POINT('',(-16.,9.,0.));
#1498=CARTESIAN_POINT('',(-15.2,10.,0.));
#1499=CARTESIAN_POINT('',(-19.1,6.1,-5.55111512312578E-16));
#1500=CARTESIAN_POINT('',(-4.8,10.,0.));
#1501=CARTESIAN_POINT('',(-1.,10.,0.));
#1502=CARTESIAN_POINT('',(-5.9,11.1,0.));
#1503=CARTESIAN_POINT('Origin',(-10.,0.,-20.));
#1504=CARTESIAN_POINT('',(-2.,0.,-22.1));
#1505=CARTESIAN_POINT('',(1.175,0.,-22.1));
#1506=CARTESIAN_POINT('',(-2.,0.,-17.9));
#1507=CARTESIAN_POINT('',(-2.,0.,-10.));
#1508=CARTESIAN_POINT('',(-21.175,0.,-17.9));
#1509=CARTESIAN_POINT('Origin',(-10.,0.,-20.));
#1510=CARTESIAN_POINT('',(-2.,0.,-15.9));
#1511=CARTESIAN_POINT('',(-21.175,0.,-15.9));
#1512=CARTESIAN_POINT('',(-2.,0.,-10.));
#1513=CARTESIAN_POINT('Origin',(-1.,1.,-10.));
#1514=CARTESIAN_POINT('',(-2.,0.,-40.));
#1515=CARTESIAN_POINT('',(0.,2.,-40.));
#1516=CARTESIAN_POINT('',(-1.,1.,-40.));
#1517=CARTESIAN_POINT('',(0.,2.,-10.));
#1518=CARTESIAN_POINT('',(-2.,5.55111512312578E-16,-20.095));
#1519=CARTESIAN_POINT('',(-2.,0.,-24.1));
#1520=CARTESIAN_POINT('',(-2.,-5.55111512312578E-16,-19.905));
#1521=CARTESIAN_POINT('',(-2.,0.,-10.));
#1522=CARTESIAN_POINT('Origin',(0.,0.,0.));
#1523=CARTESIAN_POINT('',(0.,11.2,-40.));
#1524=CARTESIAN_POINT('',(0.,0.,-40.));
#1525=CARTESIAN_POINT('',(0.,11.2,-37.8));
#1526=CARTESIAN_POINT('',(0.,11.2,-19.));
#1527=CARTESIAN_POINT('',(0.,-8.16470588235294,-32.9588235294118));
#1528=CARTESIAN_POINT('',(0.,4.,0.));
#1529=CARTESIAN_POINT('',(0.,11.2,-2.2));
#1530=CARTESIAN_POINT('',(0.,1.24705882352941,-4.68823529411765));
#1531=CARTESIAN_POINT('',(0.,11.2,-1.));
#1532=CARTESIAN_POINT('Origin',(-0.4,11.6,-1.));
#1533=CARTESIAN_POINT('',(-0.800000000000001,12.,-2.));
#1534=CARTESIAN_POINT('',(8.07272727272727,3.12727272727273,-4.21818181818182));
#1535=CARTESIAN_POINT('',(-0.800000000000001,12.,-1.));
#1536=CARTESIAN_POINT('Origin',(14.,12.,-2.));
#1537=CARTESIAN_POINT('',(-19.2,12.,-2.));
#1538=CARTESIAN_POINT('',(14.,12.,-2.));
#1539=CARTESIAN_POINT('',(-19.2,12.,-21.));
#1540=CARTESIAN_POINT('Origin',(14.,-8.,-7.));
#1541=CARTESIAN_POINT('',(-4.,9.2,-2.7));
#1542=CARTESIAN_POINT('',(-4.,0.305882352941176,-4.92352941176471));
#1543=CARTESIAN_POINT('',(-4.8,10.,-2.5));
#1544=CARTESIAN_POINT('',(4.94545454545454,0.254545454545449,-4.93636363636364));
#1545=CARTESIAN_POINT('',(-15.2,10.,-2.5));
#1546=CARTESIAN_POINT('',(-1.,10.,-2.5));
#1547=CARTESIAN_POINT('',(-16.,9.2,-2.7));
#1548=CARTESIAN_POINT('',(-13.3090909090909,11.8909090909091,-2.02727272727273));
#1549=CARTESIAN_POINT('',(-16.,-1.57647058823529,-5.39411764705882));
#1550=CARTESIAN_POINT('',(-17.6484848484849,13.5515151515151,-1.61212121212122));
#1551=CARTESIAN_POINT('Origin',(-19.6,11.6,-21.));
#1552=CARTESIAN_POINT('Origin',(-19.6,11.6,-39.));
#1553=CARTESIAN_POINT('',(-19.2,12.,-40.));
#1554=CARTESIAN_POINT('',(-17.6,13.6,-40.));
#1555=CARTESIAN_POINT('',(-19.2,12.,-38.));
#1556=CARTESIAN_POINT('',(-28.0727272727273,3.12727272727272,-35.7818181818182));
#1557=CARTESIAN_POINT('',(-19.2,12.,-39.));
#1558=CARTESIAN_POINT('Origin',(-34.,12.,-38.));
#1559=CARTESIAN_POINT('',(-0.800000000000001,12.,-38.));
#1560=CARTESIAN_POINT('',(-34.,12.,-38.));
#1561=CARTESIAN_POINT('',(-0.800000000000001,12.,-40.));
#1562=CARTESIAN_POINT('',(-0.800000000000001,12.,-19.));
#1563=CARTESIAN_POINT('',(-34.,12.,-40.));
#1564=CARTESIAN_POINT('Origin',(-34.,-8.,-33.));
#1565=CARTESIAN_POINT('',(-16.,9.2,-37.3));
#1566=CARTESIAN_POINT('',(-16.,0.305882352941176,-35.0764705882353));
#1567=CARTESIAN_POINT('',(-15.2,10.,-37.5));
#1568=CARTESIAN_POINT('',(-24.9454545454545,0.254545454545454,-35.0636363636364));
#1569=CARTESIAN_POINT('',(-4.8,10.,-37.5));
#1570=CARTESIAN_POINT('',(-19.,10.,-37.5));
#1571=CARTESIAN_POINT('',(-4.,9.2,-37.3));
#1572=CARTESIAN_POINT('',(-6.69090909090909,11.8909090909091,-37.9727272727273));
#1573=CARTESIAN_POINT('',(-4.,-1.57647058823529,-34.6058823529412));
#1574=CARTESIAN_POINT('',(-2.35151515151512,13.5515151515151,-38.3878787878788));
#1575=CARTESIAN_POINT('Origin',(-0.4,11.6,-19.));
#1576=CARTESIAN_POINT('',(2.6,8.59999999999999,-40.));
#1577=CARTESIAN_POINT('Origin',(-15.6,9.6,-31.6));
#1578=CARTESIAN_POINT('',(-16.,9.2,-40.));
#1579=CARTESIAN_POINT('',(-16.,9.2,-31.6));
#1580=CARTESIAN_POINT('',(-15.2,10.,-40.));
#1581=CARTESIAN_POINT('',(-14.1,11.1,-40.));
#1582=CARTESIAN_POINT('',(-15.2,10.,-31.6));
#1583=CARTESIAN_POINT('Origin',(-16.,10.,-31.6));
#1584=CARTESIAN_POINT('',(-16.,6.8,-40.));
#1585=CARTESIAN_POINT('',(-16.,6.8,-31.6));
#1586=CARTESIAN_POINT('',(-16.,11.,-40.));
#1587=CARTESIAN_POINT('Origin',(-15.6,6.4,-31.6));
#1588=CARTESIAN_POINT('',(-15.2,6.,-40.));
#1589=CARTESIAN_POINT('',(-15.2,6.,-31.6));
#1590=CARTESIAN_POINT('',(-10.1,0.900000000000001,-40.));
#1591=CARTESIAN_POINT('Origin',(-16.,6.,-31.6));
#1592=CARTESIAN_POINT('',(-4.8,6.,-40.));
#1593=CARTESIAN_POINT('',(-4.8,6.,-31.6));
#1594=CARTESIAN_POINT('',(-25.,6.,-40.));
#1595=CARTESIAN_POINT('Origin',(-15.6,9.6,-8.4));
#1596=CARTESIAN_POINT('',(-15.2,10.,-8.4));
#1597=CARTESIAN_POINT('',(-16.,9.2,-8.4));
#1598=CARTESIAN_POINT('Origin',(-16.,10.,-8.4));
#1599=CARTESIAN_POINT('',(-4.8,10.,-8.4));
#1600=CARTESIAN_POINT('Origin',(-4.4,9.6,-8.4));
#1601=CARTESIAN_POINT('',(-4.,9.2,-8.4));
#1602=CARTESIAN_POINT('Origin',(-4.,10.,-8.4));
#1603=CARTESIAN_POINT('',(-4.,6.8,-8.4));
#1604=CARTESIAN_POINT('Origin',(-4.4,6.4,-8.4));
#1605=CARTESIAN_POINT('',(-4.8,6.,-8.4));
#1606=CARTESIAN_POINT('Origin',(-4.,6.,-8.4));
#1607=CARTESIAN_POINT('',(-15.2,6.,-8.4));
#1608=CARTESIAN_POINT('Origin',(-15.6,6.4,-8.4));
#1609=CARTESIAN_POINT('',(-16.,6.8,-8.4));
#1610=CARTESIAN_POINT('Origin',(-16.,6.,-8.4));
#1611=CARTESIAN_POINT('Origin',(-4.4,9.6,-31.6));
#1612=CARTESIAN_POINT('',(-4.8,10.,-40.));
#1613=CARTESIAN_POINT('',(-4.8,10.,-31.6));
#1614=CARTESIAN_POINT('',(-4.,9.2,-40.));
#1615=CARTESIAN_POINT('',(-0.9,6.1,-40.));
#1616=CARTESIAN_POINT('',(-4.,9.2,-31.6));
#1617=CARTESIAN_POINT('Origin',(-4.,10.,-31.6));
#1618=CARTESIAN_POINT('',(-19.,10.,-40.));
#1619=CARTESIAN_POINT('Origin',(-4.4,6.4,-31.6));
#1620=CARTESIAN_POINT('',(-4.,6.8,-40.));
#1621=CARTESIAN_POINT('',(-4.,6.8,-31.6));
#1622=CARTESIAN_POINT('',(-4.9,5.9,-40.));
#1623=CARTESIAN_POINT('Origin',(-4.,6.,-31.6));
#1624=CARTESIAN_POINT('',(-4.,9.,-40.));
#1625=CARTESIAN_POINT('Origin',(12.35,-4.,-24.1));
#1626=CARTESIAN_POINT('',(1.175,0.,-24.1));
#1627=CARTESIAN_POINT('',(-2.5,-4.,-24.1));
#1628=CARTESIAN_POINT('',(-2.54201923076923,-4.33615384615385,-24.1));
#1629=CARTESIAN_POINT('',(-17.5,-4.,-24.1));
#1630=CARTESIAN_POINT('',(12.35,-4.,-24.1));
#1631=CARTESIAN_POINT('',(-18.1766346153846,1.41307692307692,-24.1));
#1632=CARTESIAN_POINT('Origin',(-2.8125,-6.5,-19.81));
#1633=CARTESIAN_POINT('',(-2.8125,-6.5,-23.075));
#1634=CARTESIAN_POINT('',(-1.62239990969295,3.02080072245635,-21.6468798916315));
#1635=CARTESIAN_POINT('',(-2.8125,-6.5,-24.0419789655696));
#1636=CARTESIAN_POINT('',(-2.8125,-6.5,-21.4425));
#1637=CARTESIAN_POINT('',(-2.65488745389716,-5.23909963117728,-25.1));
#1638=CARTESIAN_POINT('',(-2.87267498651026,-6.9813998920821,-23.6380364936747));
#1639=CARTESIAN_POINT('',(-2.60488745389716,-4.83909963117728,-25.1));
#1640=CARTESIAN_POINT('',(-2.61827151576476,-4.94617212611805,-25.1));
#1641=CARTESIAN_POINT('',(-2.43844791484541,-3.50758331876324,-23.5131606510828));
#1642=CARTESIAN_POINT('Origin',(12.35,10.5,-20.525));
#1643=CARTESIAN_POINT('',(-17.1875,-6.5,-23.075));
#1644=CARTESIAN_POINT('',(-19.0806780553883,8.64542444310656,-20.803186333534));
#1645=CARTESIAN_POINT('',(12.35,-6.5,-23.075));
#1646=CARTESIAN_POINT('Origin',(-19.3125,10.5,-19.81));
#1647=CARTESIAN_POINT('',(-17.3951125461028,-4.83909963117728,-25.1));
#1648=CARTESIAN_POINT('',(-17.8611876717772,-1.11049862578248,-20.6564263564704));
#1649=CARTESIAN_POINT('',(-17.3451125461028,-5.23909963117728,-25.1));
#1650=CARTESIAN_POINT('',(-18.1003823303891,0.803058643112722,-25.1));
#1651=CARTESIAN_POINT('',(-17.1875,-6.5,-24.0419789655696));
#1652=CARTESIAN_POINT('',(-17.5517462578589,-3.58602993712901,-26.4870901705862));
#1653=CARTESIAN_POINT('',(-17.1875,-6.5,-21.4425));
#1654=CARTESIAN_POINT('Origin',(12.35,-5.23909963117728,-25.1));
#1655=CARTESIAN_POINT('',(12.35,-4.83909963117728,-25.1));
#1656=CARTESIAN_POINT('',(12.35,-5.23909963117728,-25.1));
#1657=CARTESIAN_POINT('Origin',(12.35,-4.83909963117728,-25.1));
#1658=CARTESIAN_POINT('Origin',(12.35,-6.5,-23.075));
#1659=CARTESIAN_POINT('',(12.35,-6.5,-24.0419789655696));
#1660=CARTESIAN_POINT('Origin',(12.35,-6.5,-24.0419789655696));
#1661=CARTESIAN_POINT('Origin',(-32.35,-4.,-15.9));
#1662=CARTESIAN_POINT('',(-17.5,-4.,-15.9));
#1663=CARTESIAN_POINT('',(-17.4579807692308,-4.33615384615385,-15.9));
#1664=CARTESIAN_POINT('',(-2.5,-4.,-15.9));
#1665=CARTESIAN_POINT('',(-32.35,-4.,-15.9));
#1666=CARTESIAN_POINT('',(-1.82336538461538,1.41307692307692,-15.9));
#1667=CARTESIAN_POINT('Origin',(-17.1875,-6.5,-20.19));
#1668=CARTESIAN_POINT('',(-17.1875,-6.5,-16.925));
#1669=CARTESIAN_POINT('',(-18.377600090307,3.02080072245635,-18.3531201083685));
#1670=CARTESIAN_POINT('',(-17.1875,-6.5,-15.9580210344304));
#1671=CARTESIAN_POINT('',(-17.1875,-6.5,-18.5575));
#1672=CARTESIAN_POINT('',(-17.3451125461028,-5.23909963117728,-14.9));
#1673=CARTESIAN_POINT('',(-17.1273250134897,-6.9813998920821,-16.3619635063253));
#1674=CARTESIAN_POINT('',(-17.3951125461028,-4.83909963117728,-14.9));
#1675=CARTESIAN_POINT('',(-17.3817284842352,-4.94617212611805,-14.9));
#1676=CARTESIAN_POINT('',(-17.5615520851546,-3.50758331876324,-16.4868393489172));
#1677=CARTESIAN_POINT('Origin',(-32.35,10.5,-19.475));
#1678=CARTESIAN_POINT('',(-2.8125,-6.5,-16.925));
#1679=CARTESIAN_POINT('',(-0.919321944611677,8.64542444310656,-19.196813666466));
#1680=CARTESIAN_POINT('',(-32.35,-6.5,-16.925));
#1681=CARTESIAN_POINT('Origin',(-0.687499999999999,10.5,-20.19));
#1682=CARTESIAN_POINT('',(-2.60488745389716,-4.83909963117728,-14.9));
#1683=CARTESIAN_POINT('',(-2.13881232822281,-1.11049862578248,-19.3435736435296));
#1684=CARTESIAN_POINT('',(-2.65488745389716,-5.23909963117728,-14.9));
#1685=CARTESIAN_POINT('',(-1.89961766961091,0.803058643112722,-14.9));
#1686=CARTESIAN_POINT('',(-2.8125,-6.5,-15.9580210344304));
#1687=CARTESIAN_POINT('',(-2.44825374214113,-3.58602993712901,-13.5129098294138));
#1688=CARTESIAN_POINT('',(-2.8125,-6.5,-18.5575));
#1689=CARTESIAN_POINT('Origin',(-32.35,-5.23909963117728,-14.9));
#1690=CARTESIAN_POINT('',(-32.35,-4.83909963117728,-14.9));
#1691=CARTESIAN_POINT('',(-32.35,-5.23909963117728,-14.9));
#1692=CARTESIAN_POINT('Origin',(-32.35,-4.83909963117728,-14.9));
#1693=CARTESIAN_POINT('Origin',(-32.35,-6.5,-16.925));
#1694=CARTESIAN_POINT('',(-32.35,-6.5,-15.9580210344304));
#1695=CARTESIAN_POINT('Origin',(-32.35,-6.5,-15.9580210344304));
#1696=CARTESIAN_POINT('Origin',(-10.,4.,-20.));
#1697=CARTESIAN_POINT('Origin',(0.,0.,-40.));
#1698=CARTESIAN_POINT('',(0.,0.,-40.));
#1699=CARTESIAN_POINT('Origin',(-10.,0.,-20.));
#1700=CARTESIAN_POINT('polyline point',(-20.,0.,0.));
#1701=CARTESIAN_POINT('polyline point',(0.,0.,0.));
#1702=CARTESIAN_POINT('polyline point',(-10.,0.,0.));
#1703=CARTESIAN_POINT('polyline point',(-10.,0.,-40.));
#1704=CARTESIAN_POINT('polyline point',(-4.,0.,-40.));
#1705=CARTESIAN_POINT('polyline point',(-16.,0.,-40.));
#1706=CARTESIAN_POINT('polyline point',(-10.,0.,-20.));
#1707=CARTESIAN_POINT('polyline point',(-10.,0.,-15.9));
#1708=UNCERTAINTY_MEASURE_WITH_UNIT(LENGTH_MEASURE(0.01),#1712,
'DISTANCE_ACCURACY_VALUE',
'Maximum model space distance between geometric entities at asserted c
onnectivities');
#1709=UNCERTAINTY_MEASURE_WITH_UNIT(LENGTH_MEASURE(0.01),#1712,
'DISTANCE_ACCURACY_VALUE',
'Maximum model space distance between geometric entities at asserted c
onnectivities');
#1710=(
GEOMETRIC_REPRESENTATION_CONTEXT(3)
GLOBAL_UNCERTAINTY_ASSIGNED_CONTEXT((#1708))
GLOBAL_UNIT_ASSIGNED_CONTEXT((#1712,#1714,#1715))
REPRESENTATION_CONTEXT('','3D')
);
#1711=(
GEOMETRIC_REPRESENTATION_CONTEXT(3)
GLOBAL_UNCERTAINTY_ASSIGNED_CONTEXT((#1709))
GLOBAL_UNIT_ASSIGNED_CONTEXT((#1712,#1714,#1715))
REPRESENTATION_CONTEXT('','3D')
);
#1712=(
LENGTH_UNIT()
NAMED_UNIT(*)
SI_UNIT(.MILLI.,.METRE.)
);
#1713=(
LENGTH_UNIT()
NAMED_UNIT(*)
SI_UNIT(.CENTI.,.METRE.)
);
#1714=(
NAMED_UNIT(*)
PLANE_ANGLE_UNIT()
SI_UNIT($,.RADIAN.)
);
#1715=(
NAMED_UNIT(*)
SI_UNIT($,.STERADIAN.)
SOLID_ANGLE_UNIT()
);
#1716=SHAPE_DEFINITION_REPRESENTATION(#1717,#1718);
#1717=PRODUCT_DEFINITION_SHAPE('',$,#1720);
#1718=SHAPE_REPRESENTATION('',(#1096),#1710);
#1719=PRODUCT_DEFINITION_CONTEXT('part definition',#1724,'design');
#1720=PRODUCT_DEFINITION('try1','try1',#1721,#1719);
#1721=PRODUCT_DEFINITION_FORMATION('',$,#1726);
#1722=PRODUCT_RELATED_PRODUCT_CATEGORY('try1','try1',(#1726));
#1723=APPLICATION_PROTOCOL_DEFINITION('international standard',
'automotive_design',2009,#1724);
#1724=APPLICATION_CONTEXT(
'Core Data for Automotive Mechanical Design Process');
#1725=PRODUCT_CONTEXT('part definition',#1724,'mechanical');
#1726=PRODUCT('try1','try1',$,(#1725));
#1727=PRESENTATION_STYLE_ASSIGNMENT((#1730));
#1728=PRESENTATION_STYLE_ASSIGNMENT((#1731));
#1729=PRESENTATION_STYLE_ASSIGNMENT((#1732));
#1730=SURFACE_STYLE_USAGE(.BOTH.,#1735);
#1731=SURFACE_STYLE_USAGE(.BOTH.,#1736);
#1732=SURFACE_STYLE_USAGE(.BOTH.,#1737);
#1733=SURFACE_STYLE_RENDERING_WITH_PROPERTIES($,#1747,(#1734));
#1734=SURFACE_STYLE_TRANSPARENT(0.);
#1735=SURFACE_SIDE_STYLE('',(#1738,#1733));
#1736=SURFACE_SIDE_STYLE('',(#1739));
#1737=SURFACE_SIDE_STYLE('',(#1740));
#1738=SURFACE_STYLE_FILL_AREA(#1741);
#1739=SURFACE_STYLE_FILL_AREA(#1742);
#1740=SURFACE_STYLE_FILL_AREA(#1743);
#1741=FILL_AREA_STYLE('',(#1744));
#1742=FILL_AREA_STYLE('',(#1745));
#1743=FILL_AREA_STYLE('',(#1746));
#1744=FILL_AREA_STYLE_COLOUR('',#1747);
#1745=FILL_AREA_STYLE_COLOUR('',#1748);
#1746=FILL_AREA_STYLE_COLOUR('',#1749);
#1747=COLOUR_RGB('',0.749019607843137,0.749019607843137,0.749019607843137);
#1748=COLOUR_RGB('',1.,1.,0.);
#1749=COLOUR_RGB('',0.,0.,0.501960784313725);
ENDSEC;
END-ISO-10303-21;
