ISO-10303-21;
HEADER;
/* Generated by software containing ST-Developer
 * from STEP Tools, Inc. (www.steptools.com) 
 */

FILE_DESCRIPTION(
/* description */ ('Linia produkcyjna Politechnika Pozna\X2\0144\X0\sa
ka'),
/* implementation_level */ '2;1');

FILE_NAME(
/* name */ 'Uchwyt do HMI.step',
/* time_stamp */ '2026-09-04T13:55:13+02:00',
/* author */ (''),
/* organization */ (''),
/* preprocessor_version */ 'ST-DEVELOPER v20.1',
/* originating_system */ 'Autodesk Translation Framework v15.8.0.0',
/* authorisation */ '');

FILE_SCHEMA (('AUTOMOTIVE_DESIGN { 1 0 10303 214 3 1 1 }'));
ENDSEC;

DATA;
#10=MECHANICAL_DESIGN_GEOMETRIC_PRESENTATION_REPRESENTATION('',(#17),#1431);
#11=ITEM_DEFINED_TRANSFORMATION($,$,#919,#961);
#12=(
REPRESENTATION_RELATIONSHIP($,$,#1442,#1441)
REPRESENTATION_RELATIONSHIP_WITH_TRANSFORMATION(#11)
SHAPE_REPRESENTATION_RELATIONSHIP()
);
#13=CONTEXT_DEPENDENT_SHAPE_REPRESENTATION(#12,#1440);
#14=NEXT_ASSEMBLY_USAGE_OCCURRENCE('Bez nazwy v1:1','Bez nazwy v1:1',
'Bez nazwy v1:1',#1444,#1445,'Bez nazwy v1:1');
#15=SHAPE_REPRESENTATION_RELATIONSHIP('SRR','None',#1442,#16);
#16=ADVANCED_BREP_SHAPE_REPRESENTATION('',(#18),#1430);
#17=STYLED_ITEM('',(#1456),#18);
#18=MANIFOLD_SOLID_BREP('Bry\X2\0142\X0\a1',#905);
#19=CIRCLE('',#948,3.);
#20=CIRCLE('',#949,3.);
#21=CIRCLE('',#951,3.);
#22=CIRCLE('',#952,3.);
#23=CYLINDRICAL_SURFACE('',#947,3.);
#24=CYLINDRICAL_SURFACE('',#950,3.);
#25=FACE_BOUND('',#85,.T.);
#26=FACE_BOUND('',#86,.T.);
#27=FACE_BOUND('',#89,.T.);
#28=FACE_BOUND('',#90,.T.);
#29=FACE_BOUND('',#106,.T.);
#30=FACE_BOUND('',#109,.T.);
#31=FACE_BOUND('',#110,.T.);
#32=FACE_BOUND('',#112,.T.);
#33=FACE_BOUND('',#113,.T.);
#34=FACE_OUTER_BOUND('',#71,.T.);
#35=FACE_OUTER_BOUND('',#72,.T.);
#36=FACE_OUTER_BOUND('',#73,.T.);
#37=FACE_OUTER_BOUND('',#74,.T.);
#38=FACE_OUTER_BOUND('',#75,.T.);
#39=FACE_OUTER_BOUND('',#76,.T.);
#40=FACE_OUTER_BOUND('',#77,.T.);
#41=FACE_OUTER_BOUND('',#78,.T.);
#42=FACE_OUTER_BOUND('',#79,.T.);
#43=FACE_OUTER_BOUND('',#80,.T.);
#44=FACE_OUTER_BOUND('',#81,.T.);
#45=FACE_OUTER_BOUND('',#82,.T.);
#46=FACE_OUTER_BOUND('',#83,.T.);
#47=FACE_OUTER_BOUND('',#84,.T.);
#48=FACE_OUTER_BOUND('',#87,.T.);
#49=FACE_OUTER_BOUND('',#88,.T.);
#50=FACE_OUTER_BOUND('',#91,.T.);
#51=FACE_OUTER_BOUND('',#92,.T.);
#52=FACE_OUTER_BOUND('',#93,.T.);
#53=FACE_OUTER_BOUND('',#94,.T.);
#54=FACE_OUTER_BOUND('',#95,.T.);
#55=FACE_OUTER_BOUND('',#96,.T.);
#56=FACE_OUTER_BOUND('',#97,.T.);
#57=FACE_OUTER_BOUND('',#98,.T.);
#58=FACE_OUTER_BOUND('',#99,.T.);
#59=FACE_OUTER_BOUND('',#100,.T.);
#60=FACE_OUTER_BOUND('',#101,.T.);
#61=FACE_OUTER_BOUND('',#102,.T.);
#62=FACE_OUTER_BOUND('',#103,.T.);
#63=FACE_OUTER_BOUND('',#104,.T.);
#64=FACE_OUTER_BOUND('',#105,.T.);
#65=FACE_OUTER_BOUND('',#107,.T.);
#66=FACE_OUTER_BOUND('',#108,.T.);
#67=FACE_OUTER_BOUND('',#111,.T.);
#68=FACE_OUTER_BOUND('',#114,.T.);
#69=FACE_OUTER_BOUND('',#115,.T.);
#70=FACE_OUTER_BOUND('',#116,.T.);
#71=EDGE_LOOP('',(#577,#578,#579,#580));
#72=EDGE_LOOP('',(#581,#582,#583,#584));
#73=EDGE_LOOP('',(#585,#586,#587,#588,#589));
#74=EDGE_LOOP('',(#590,#591,#592,#593,#594));
#75=EDGE_LOOP('',(#595,#596,#597,#598,#599,#600,#601,#602));
#76=EDGE_LOOP('',(#603,#604,#605,#606));
#77=EDGE_LOOP('',(#607,#608,#609,#610));
#78=EDGE_LOOP('',(#611,#612,#613,#614));
#79=EDGE_LOOP('',(#615,#616,#617,#618));
#80=EDGE_LOOP('',(#619,#620,#621,#622));
#81=EDGE_LOOP('',(#623,#624,#625,#626));
#82=EDGE_LOOP('',(#627,#628,#629,#630,#631,#632,#633,#634,#635,#636,#637,
#638,#639,#640));
#83=EDGE_LOOP('',(#641,#642,#643,#644));
#84=EDGE_LOOP('',(#645,#646,#647,#648,#649,#650));
#85=EDGE_LOOP('',(#651,#652,#653,#654));
#86=EDGE_LOOP('',(#655,#656,#657,#658));
#87=EDGE_LOOP('',(#659,#660,#661,#662));
#88=EDGE_LOOP('',(#663,#664,#665,#666,#667,#668,#669,#670));
#89=EDGE_LOOP('',(#671,#672,#673,#674));
#90=EDGE_LOOP('',(#675,#676,#677,#678));
#91=EDGE_LOOP('',(#679,#680,#681,#682,#683,#684,#685,#686,#687,#688,#689,
#690,#691,#692));
#92=EDGE_LOOP('',(#693,#694,#695,#696,#697,#698,#699,#700,#701,#702,#703,
#704));
#93=EDGE_LOOP('',(#705,#706,#707,#708,#709,#710,#711,#712));
#94=EDGE_LOOP('',(#713,#714,#715,#716,#717,#718));
#95=EDGE_LOOP('',(#719,#720,#721,#722));
#96=EDGE_LOOP('',(#723,#724,#725,#726,#727,#728,#729,#730));
#97=EDGE_LOOP('',(#731,#732,#733,#734,#735,#736,#737,#738,#739,#740,#741,
#742));
#98=EDGE_LOOP('',(#743,#744,#745,#746,#747,#748,#749,#750));
#99=EDGE_LOOP('',(#751,#752,#753,#754,#755));
#100=EDGE_LOOP('',(#756,#757,#758,#759,#760,#761,#762,#763,#764,#765,#766,
#767));
#101=EDGE_LOOP('',(#768,#769,#770,#771,#772));
#102=EDGE_LOOP('',(#773,#774,#775,#776));
#103=EDGE_LOOP('',(#777,#778,#779,#780));
#104=EDGE_LOOP('',(#781,#782,#783,#784,#785,#786,#787,#788,#789,#790,#791,
#792,#793,#794));
#105=EDGE_LOOP('',(#795,#796,#797,#798));
#106=EDGE_LOOP('',(#799,#800,#801,#802));
#107=EDGE_LOOP('',(#803,#804,#805,#806));
#108=EDGE_LOOP('',(#807,#808,#809,#810));
#109=EDGE_LOOP('',(#811));
#110=EDGE_LOOP('',(#812));
#111=EDGE_LOOP('',(#813,#814,#815,#816,#817,#818));
#112=EDGE_LOOP('',(#819));
#113=EDGE_LOOP('',(#820));
#114=EDGE_LOOP('',(#821,#822,#823,#824));
#115=EDGE_LOOP('',(#825,#826,#827,#828));
#116=EDGE_LOOP('',(#829,#830,#831,#832));
#117=LINE('',#1179,#241);
#118=LINE('',#1181,#242);
#119=LINE('',#1183,#243);
#120=LINE('',#1184,#244);
#121=LINE('',#1188,#245);
#122=LINE('',#1190,#246);
#123=LINE('',#1192,#247);
#124=LINE('',#1193,#248);
#125=LINE('',#1197,#249);
#126=LINE('',#1199,#250);
#127=LINE('',#1200,#251);
#128=LINE('',#1201,#252);
#129=LINE('',#1205,#253);
#130=LINE('',#1207,#254);
#131=LINE('',#1208,#255);
#132=LINE('',#1209,#256);
#133=LINE('',#1211,#257);
#134=LINE('',#1213,#258);
#135=LINE('',#1215,#259);
#136=LINE('',#1217,#260);
#137=LINE('',#1219,#261);
#138=LINE('',#1220,#262);
#139=LINE('',#1224,#263);
#140=LINE('',#1226,#264);
#141=LINE('',#1228,#265);
#142=LINE('',#1229,#266);
#143=LINE('',#1233,#267);
#144=LINE('',#1235,#268);
#145=LINE('',#1237,#269);
#146=LINE('',#1238,#270);
#147=LINE('',#1242,#271);
#148=LINE('',#1244,#272);
#149=LINE('',#1246,#273);
#150=LINE('',#1247,#274);
#151=LINE('',#1251,#275);
#152=LINE('',#1253,#276);
#153=LINE('',#1255,#277);
#154=LINE('',#1256,#278);
#155=LINE('',#1260,#279);
#156=LINE('',#1262,#280);
#157=LINE('',#1264,#281);
#158=LINE('',#1265,#282);
#159=LINE('',#1268,#283);
#160=LINE('',#1270,#284);
#161=LINE('',#1271,#285);
#162=LINE('',#1274,#286);
#163=LINE('',#1276,#287);
#164=LINE('',#1278,#288);
#165=LINE('',#1279,#289);
#166=LINE('',#1281,#290);
#167=LINE('',#1283,#291);
#168=LINE('',#1285,#292);
#169=LINE('',#1287,#293);
#170=LINE('',#1289,#294);
#171=LINE('',#1290,#295);
#172=LINE('',#1291,#296);
#173=LINE('',#1294,#297);
#174=LINE('',#1295,#298);
#175=LINE('',#1299,#299);
#176=LINE('',#1301,#300);
#177=LINE('',#1303,#301);
#178=LINE('',#1305,#302);
#179=LINE('',#1307,#303);
#180=LINE('',#1308,#304);
#181=LINE('',#1310,#305);
#182=LINE('',#1311,#306);
#183=LINE('',#1314,#307);
#184=LINE('',#1315,#308);
#185=LINE('',#1316,#309);
#186=LINE('',#1319,#310);
#187=LINE('',#1320,#311);
#188=LINE('',#1323,#312);
#189=LINE('',#1325,#313);
#190=LINE('',#1326,#314);
#191=LINE('',#1328,#315);
#192=LINE('',#1330,#316);
#193=LINE('',#1331,#317);
#194=LINE('',#1332,#318);
#195=LINE('',#1333,#319);
#196=LINE('',#1334,#320);
#197=LINE('',#1336,#321);
#198=LINE('',#1338,#322);
#199=LINE('',#1340,#323);
#200=LINE('',#1341,#324);
#201=LINE('',#1342,#325);
#202=LINE('',#1343,#326);
#203=LINE('',#1346,#327);
#204=LINE('',#1347,#328);
#205=LINE('',#1348,#329);
#206=LINE('',#1349,#330);
#207=LINE('',#1351,#331);
#208=LINE('',#1354,#332);
#209=LINE('',#1356,#333);
#210=LINE('',#1358,#334);
#211=LINE('',#1359,#335);
#212=LINE('',#1361,#336);
#213=LINE('',#1365,#337);
#214=LINE('',#1366,#338);
#215=LINE('',#1368,#339);
#216=LINE('',#1370,#340);
#217=LINE('',#1371,#341);
#218=LINE('',#1373,#342);
#219=LINE('',#1374,#343);
#220=LINE('',#1376,#344);
#221=LINE('',#1379,#345);
#222=LINE('',#1381,#346);
#223=LINE('',#1382,#347);
#224=LINE('',#1385,#348);
#225=LINE('',#1386,#349);
#226=LINE('',#1387,#350);
#227=LINE('',#1388,#351);
#228=LINE('',#1391,#352);
#229=LINE('',#1392,#353);
#230=LINE('',#1397,#354);
#231=LINE('',#1403,#355);
#232=LINE('',#1406,#356);
#233=LINE('',#1407,#357);
#234=LINE('',#1409,#358);
#235=LINE('',#1411,#359);
#236=LINE('',#1413,#360);
#237=LINE('',#1414,#361);
#238=LINE('',#1416,#362);
#239=LINE('',#1418,#363);
#240=LINE('',#1419,#364);
#241=VECTOR('',#968,10.);
#242=VECTOR('',#969,10.);
#243=VECTOR('',#970,10.);
#244=VECTOR('',#971,10.);
#245=VECTOR('',#974,10.);
#246=VECTOR('',#975,10.);
#247=VECTOR('',#976,10.);
#248=VECTOR('',#977,10.);
#249=VECTOR('',#980,10.);
#250=VECTOR('',#981,10.);
#251=VECTOR('',#982,10.);
#252=VECTOR('',#983,10.);
#253=VECTOR('',#986,10.);
#254=VECTOR('',#987,10.);
#255=VECTOR('',#988,10.);
#256=VECTOR('',#989,10.);
#257=VECTOR('',#992,10.);
#258=VECTOR('',#993,10.);
#259=VECTOR('',#994,10.);
#260=VECTOR('',#995,10.);
#261=VECTOR('',#996,10.);
#262=VECTOR('',#997,10.);
#263=VECTOR('',#1000,10.);
#264=VECTOR('',#1001,10.);
#265=VECTOR('',#1002,10.);
#266=VECTOR('',#1003,10.);
#267=VECTOR('',#1006,10.);
#268=VECTOR('',#1007,10.);
#269=VECTOR('',#1008,10.);
#270=VECTOR('',#1009,10.);
#271=VECTOR('',#1012,10.);
#272=VECTOR('',#1013,10.);
#273=VECTOR('',#1014,10.);
#274=VECTOR('',#1015,10.);
#275=VECTOR('',#1018,10.);
#276=VECTOR('',#1019,10.);
#277=VECTOR('',#1020,10.);
#278=VECTOR('',#1021,10.);
#279=VECTOR('',#1024,10.);
#280=VECTOR('',#1025,10.);
#281=VECTOR('',#1026,10.);
#282=VECTOR('',#1027,10.);
#283=VECTOR('',#1030,10.);
#284=VECTOR('',#1031,10.);
#285=VECTOR('',#1032,10.);
#286=VECTOR('',#1035,10.);
#287=VECTOR('',#1036,10.);
#288=VECTOR('',#1037,10.);
#289=VECTOR('',#1038,10.);
#290=VECTOR('',#1039,10.);
#291=VECTOR('',#1040,10.);
#292=VECTOR('',#1041,10.);
#293=VECTOR('',#1042,10.);
#294=VECTOR('',#1043,10.);
#295=VECTOR('',#1044,10.);
#296=VECTOR('',#1045,10.);
#297=VECTOR('',#1048,10.);
#298=VECTOR('',#1049,10.);
#299=VECTOR('',#1052,10.);
#300=VECTOR('',#1053,10.);
#301=VECTOR('',#1054,10.);
#302=VECTOR('',#1055,10.);
#303=VECTOR('',#1056,10.);
#304=VECTOR('',#1057,10.);
#305=VECTOR('',#1058,10.);
#306=VECTOR('',#1059,10.);
#307=VECTOR('',#1060,10.);
#308=VECTOR('',#1061,10.);
#309=VECTOR('',#1062,10.);
#310=VECTOR('',#1065,10.);
#311=VECTOR('',#1066,10.);
#312=VECTOR('',#1069,10.);
#313=VECTOR('',#1070,10.);
#314=VECTOR('',#1071,10.);
#315=VECTOR('',#1072,10.);
#316=VECTOR('',#1073,10.);
#317=VECTOR('',#1074,10.);
#318=VECTOR('',#1075,10.);
#319=VECTOR('',#1076,10.);
#320=VECTOR('',#1077,10.);
#321=VECTOR('',#1080,10.);
#322=VECTOR('',#1081,10.);
#323=VECTOR('',#1082,10.);
#324=VECTOR('',#1083,10.);
#325=VECTOR('',#1084,10.);
#326=VECTOR('',#1085,10.);
#327=VECTOR('',#1088,10.);
#328=VECTOR('',#1089,10.);
#329=VECTOR('',#1090,10.);
#330=VECTOR('',#1091,10.);
#331=VECTOR('',#1094,10.);
#332=VECTOR('',#1097,10.);
#333=VECTOR('',#1098,10.);
#334=VECTOR('',#1099,10.);
#335=VECTOR('',#1100,10.);
#336=VECTOR('',#1103,10.);
#337=VECTOR('',#1108,10.);
#338=VECTOR('',#1109,10.);
#339=VECTOR('',#1110,10.);
#340=VECTOR('',#1111,10.);
#341=VECTOR('',#1112,10.);
#342=VECTOR('',#1113,10.);
#343=VECTOR('',#1114,10.);
#344=VECTOR('',#1117,10.);
#345=VECTOR('',#1120,10.);
#346=VECTOR('',#1121,10.);
#347=VECTOR('',#1122,10.);
#348=VECTOR('',#1125,10.);
#349=VECTOR('',#1126,10.);
#350=VECTOR('',#1127,10.);
#351=VECTOR('',#1128,10.);
#352=VECTOR('',#1131,10.);
#353=VECTOR('',#1132,10.);
#354=VECTOR('',#1137,3.);
#355=VECTOR('',#1144,3.);
#356=VECTOR('',#1149,10.);
#357=VECTOR('',#1150,10.);
#358=VECTOR('',#1151,10.);
#359=VECTOR('',#1152,10.);
#360=VECTOR('',#1153,10.);
#361=VECTOR('',#1154,10.);
#362=VECTOR('',#1157,10.);
#363=VECTOR('',#1160,10.);
#364=VECTOR('',#1161,10.);
#365=VERTEX_POINT('',#1177);
#366=VERTEX_POINT('',#1178);
#367=VERTEX_POINT('',#1180);
#368=VERTEX_POINT('',#1182);
#369=VERTEX_POINT('',#1186);
#370=VERTEX_POINT('',#1187);
#371=VERTEX_POINT('',#1189);
#372=VERTEX_POINT('',#1191);
#373=VERTEX_POINT('',#1195);
#374=VERTEX_POINT('',#1196);
#375=VERTEX_POINT('',#1198);
#376=VERTEX_POINT('',#1203);
#377=VERTEX_POINT('',#1204);
#378=VERTEX_POINT('',#1206);
#379=VERTEX_POINT('',#1212);
#380=VERTEX_POINT('',#1214);
#381=VERTEX_POINT('',#1216);
#382=VERTEX_POINT('',#1218);
#383=VERTEX_POINT('',#1222);
#384=VERTEX_POINT('',#1223);
#385=VERTEX_POINT('',#1225);
#386=VERTEX_POINT('',#1227);
#387=VERTEX_POINT('',#1231);
#388=VERTEX_POINT('',#1232);
#389=VERTEX_POINT('',#1234);
#390=VERTEX_POINT('',#1236);
#391=VERTEX_POINT('',#1240);
#392=VERTEX_POINT('',#1241);
#393=VERTEX_POINT('',#1243);
#394=VERTEX_POINT('',#1245);
#395=VERTEX_POINT('',#1249);
#396=VERTEX_POINT('',#1250);
#397=VERTEX_POINT('',#1252);
#398=VERTEX_POINT('',#1254);
#399=VERTEX_POINT('',#1258);
#400=VERTEX_POINT('',#1259);
#401=VERTEX_POINT('',#1261);
#402=VERTEX_POINT('',#1263);
#403=VERTEX_POINT('',#1267);
#404=VERTEX_POINT('',#1269);
#405=VERTEX_POINT('',#1273);
#406=VERTEX_POINT('',#1275);
#407=VERTEX_POINT('',#1277);
#408=VERTEX_POINT('',#1280);
#409=VERTEX_POINT('',#1282);
#410=VERTEX_POINT('',#1284);
#411=VERTEX_POINT('',#1286);
#412=VERTEX_POINT('',#1288);
#413=VERTEX_POINT('',#1293);
#414=VERTEX_POINT('',#1297);
#415=VERTEX_POINT('',#1298);
#416=VERTEX_POINT('',#1300);
#417=VERTEX_POINT('',#1302);
#418=VERTEX_POINT('',#1304);
#419=VERTEX_POINT('',#1306);
#420=VERTEX_POINT('',#1309);
#421=VERTEX_POINT('',#1312);
#422=VERTEX_POINT('',#1313);
#423=VERTEX_POINT('',#1318);
#424=VERTEX_POINT('',#1322);
#425=VERTEX_POINT('',#1324);
#426=VERTEX_POINT('',#1327);
#427=VERTEX_POINT('',#1329);
#428=VERTEX_POINT('',#1337);
#429=VERTEX_POINT('',#1339);
#430=VERTEX_POINT('',#1345);
#431=VERTEX_POINT('',#1353);
#432=VERTEX_POINT('',#1355);
#433=VERTEX_POINT('',#1357);
#434=VERTEX_POINT('',#1364);
#435=VERTEX_POINT('',#1367);
#436=VERTEX_POINT('',#1369);
#437=VERTEX_POINT('',#1372);
#438=VERTEX_POINT('',#1378);
#439=VERTEX_POINT('',#1380);
#440=VERTEX_POINT('',#1384);
#441=VERTEX_POINT('',#1390);
#442=VERTEX_POINT('',#1394);
#443=VERTEX_POINT('',#1396);
#444=VERTEX_POINT('',#1400);
#445=VERTEX_POINT('',#1402);
#446=VERTEX_POINT('',#1408);
#447=VERTEX_POINT('',#1410);
#448=VERTEX_POINT('',#1412);
#449=EDGE_CURVE('',#365,#366,#117,.T.);
#450=EDGE_CURVE('',#365,#367,#118,.T.);
#451=EDGE_CURVE('',#368,#367,#119,.T.);
#452=EDGE_CURVE('',#366,#368,#120,.T.);
#453=EDGE_CURVE('',#369,#370,#121,.T.);
#454=EDGE_CURVE('',#369,#371,#122,.T.);
#455=EDGE_CURVE('',#372,#371,#123,.T.);
#456=EDGE_CURVE('',#370,#372,#124,.T.);
#457=EDGE_CURVE('',#373,#374,#125,.T.);
#458=EDGE_CURVE('',#373,#375,#126,.T.);
#459=EDGE_CURVE('',#366,#375,#127,.T.);
#460=EDGE_CURVE('',#374,#368,#128,.T.);
#461=EDGE_CURVE('',#376,#377,#129,.T.);
#462=EDGE_CURVE('',#378,#376,#130,.T.);
#463=EDGE_CURVE('',#378,#370,#131,.T.);
#464=EDGE_CURVE('',#377,#372,#132,.T.);
#465=EDGE_CURVE('',#366,#369,#133,.T.);
#466=EDGE_CURVE('',#370,#379,#134,.T.);
#467=EDGE_CURVE('',#379,#380,#135,.T.);
#468=EDGE_CURVE('',#381,#380,#136,.T.);
#469=EDGE_CURVE('',#381,#382,#137,.T.);
#470=EDGE_CURVE('',#382,#365,#138,.T.);
#471=EDGE_CURVE('',#383,#384,#139,.T.);
#472=EDGE_CURVE('',#385,#383,#140,.T.);
#473=EDGE_CURVE('',#386,#385,#141,.T.);
#474=EDGE_CURVE('',#386,#384,#142,.T.);
#475=EDGE_CURVE('',#387,#388,#143,.T.);
#476=EDGE_CURVE('',#389,#387,#144,.T.);
#477=EDGE_CURVE('',#390,#389,#145,.T.);
#478=EDGE_CURVE('',#390,#388,#146,.T.);
#479=EDGE_CURVE('',#391,#392,#147,.T.);
#480=EDGE_CURVE('',#393,#391,#148,.T.);
#481=EDGE_CURVE('',#394,#393,#149,.T.);
#482=EDGE_CURVE('',#394,#392,#150,.T.);
#483=EDGE_CURVE('',#395,#396,#151,.T.);
#484=EDGE_CURVE('',#397,#395,#152,.T.);
#485=EDGE_CURVE('',#398,#397,#153,.T.);
#486=EDGE_CURVE('',#398,#396,#154,.T.);
#487=EDGE_CURVE('',#399,#400,#155,.T.);
#488=EDGE_CURVE('',#401,#400,#156,.T.);
#489=EDGE_CURVE('',#402,#401,#157,.T.);
#490=EDGE_CURVE('',#399,#402,#158,.T.);
#491=EDGE_CURVE('',#403,#384,#159,.T.);
#492=EDGE_CURVE('',#403,#404,#160,.T.);
#493=EDGE_CURVE('',#383,#404,#161,.T.);
#494=EDGE_CURVE('',#405,#395,#162,.T.);
#495=EDGE_CURVE('',#405,#406,#163,.T.);
#496=EDGE_CURVE('',#407,#406,#164,.T.);
#497=EDGE_CURVE('',#380,#407,#165,.T.);
#498=EDGE_CURVE('',#379,#408,#166,.T.);
#499=EDGE_CURVE('',#408,#409,#167,.T.);
#500=EDGE_CURVE('',#409,#410,#168,.T.);
#501=EDGE_CURVE('',#410,#411,#169,.T.);
#502=EDGE_CURVE('',#412,#411,#170,.T.);
#503=EDGE_CURVE('',#392,#412,#171,.T.);
#504=EDGE_CURVE('',#397,#394,#172,.T.);
#505=EDGE_CURVE('',#413,#412,#173,.T.);
#506=EDGE_CURVE('',#391,#413,#174,.T.);
#507=EDGE_CURVE('',#414,#415,#175,.T.);
#508=EDGE_CURVE('',#415,#416,#176,.T.);
#509=EDGE_CURVE('',#416,#417,#177,.T.);
#510=EDGE_CURVE('',#417,#418,#178,.T.);
#511=EDGE_CURVE('',#418,#419,#179,.T.);
#512=EDGE_CURVE('',#419,#414,#180,.T.);
#513=EDGE_CURVE('',#411,#420,#181,.T.);
#514=EDGE_CURVE('',#420,#413,#182,.T.);
#515=EDGE_CURVE('',#421,#422,#183,.T.);
#516=EDGE_CURVE('',#422,#401,#184,.T.);
#517=EDGE_CURVE('',#400,#421,#185,.T.);
#518=EDGE_CURVE('',#423,#396,#186,.T.);
#519=EDGE_CURVE('',#405,#423,#187,.T.);
#520=EDGE_CURVE('',#424,#415,#188,.T.);
#521=EDGE_CURVE('',#425,#414,#189,.T.);
#522=EDGE_CURVE('',#407,#425,#190,.T.);
#523=EDGE_CURVE('',#426,#406,#191,.T.);
#524=EDGE_CURVE('',#427,#426,#192,.T.);
#525=EDGE_CURVE('',#424,#427,#193,.T.);
#526=EDGE_CURVE('',#385,#390,#194,.T.);
#527=EDGE_CURVE('',#389,#386,#195,.T.);
#528=EDGE_CURVE('',#393,#398,#196,.T.);
#529=EDGE_CURVE('',#387,#421,#197,.T.);
#530=EDGE_CURVE('',#428,#399,#198,.T.);
#531=EDGE_CURVE('',#428,#429,#199,.T.);
#532=EDGE_CURVE('',#429,#382,#200,.T.);
#533=EDGE_CURVE('',#381,#427,#201,.T.);
#534=EDGE_CURVE('',#426,#403,#202,.T.);
#535=EDGE_CURVE('',#430,#423,#203,.T.);
#536=EDGE_CURVE('',#430,#410,#204,.T.);
#537=EDGE_CURVE('',#409,#428,#205,.T.);
#538=EDGE_CURVE('',#402,#404,#206,.T.);
#539=EDGE_CURVE('',#420,#430,#207,.T.);
#540=EDGE_CURVE('',#424,#431,#208,.T.);
#541=EDGE_CURVE('',#432,#431,#209,.T.);
#542=EDGE_CURVE('',#433,#432,#210,.T.);
#543=EDGE_CURVE('',#416,#433,#211,.T.);
#544=EDGE_CURVE('',#422,#388,#212,.T.);
#545=EDGE_CURVE('',#367,#434,#213,.T.);
#546=EDGE_CURVE('',#432,#434,#214,.T.);
#547=EDGE_CURVE('',#435,#431,#215,.T.);
#548=EDGE_CURVE('',#436,#435,#216,.T.);
#549=EDGE_CURVE('',#377,#436,#217,.T.);
#550=EDGE_CURVE('',#371,#437,#218,.T.);
#551=EDGE_CURVE('',#374,#437,#219,.T.);
#552=EDGE_CURVE('',#435,#425,#220,.T.);
#553=EDGE_CURVE('',#438,#369,#221,.T.);
#554=EDGE_CURVE('',#438,#439,#222,.T.);
#555=EDGE_CURVE('',#437,#439,#223,.T.);
#556=EDGE_CURVE('',#375,#440,#224,.T.);
#557=EDGE_CURVE('',#440,#365,#225,.T.);
#558=EDGE_CURVE('',#429,#408,#226,.T.);
#559=EDGE_CURVE('',#378,#438,#227,.T.);
#560=EDGE_CURVE('',#441,#440,#228,.T.);
#561=EDGE_CURVE('',#441,#434,#229,.T.);
#562=EDGE_CURVE('',#442,#442,#19,.T.);
#563=EDGE_CURVE('',#442,#443,#230,.T.);
#564=EDGE_CURVE('',#443,#443,#20,.T.);
#565=EDGE_CURVE('',#444,#444,#21,.T.);
#566=EDGE_CURVE('',#444,#445,#231,.T.);
#567=EDGE_CURVE('',#445,#445,#22,.T.);
#568=EDGE_CURVE('',#441,#373,#232,.T.);
#569=EDGE_CURVE('',#439,#376,#233,.T.);
#570=EDGE_CURVE('',#436,#446,#234,.T.);
#571=EDGE_CURVE('',#446,#447,#235,.T.);
#572=EDGE_CURVE('',#448,#447,#236,.T.);
#573=EDGE_CURVE('',#433,#448,#237,.T.);
#574=EDGE_CURVE('',#448,#417,#238,.T.);
#575=EDGE_CURVE('',#446,#419,#239,.T.);
#576=EDGE_CURVE('',#447,#418,#240,.T.);
#577=ORIENTED_EDGE('',*,*,#449,.F.);
#578=ORIENTED_EDGE('',*,*,#450,.T.);
#579=ORIENTED_EDGE('',*,*,#451,.F.);
#580=ORIENTED_EDGE('',*,*,#452,.F.);
#581=ORIENTED_EDGE('',*,*,#453,.F.);
#582=ORIENTED_EDGE('',*,*,#454,.T.);
#583=ORIENTED_EDGE('',*,*,#455,.F.);
#584=ORIENTED_EDGE('',*,*,#456,.F.);
#585=ORIENTED_EDGE('',*,*,#457,.F.);
#586=ORIENTED_EDGE('',*,*,#458,.T.);
#587=ORIENTED_EDGE('',*,*,#459,.F.);
#588=ORIENTED_EDGE('',*,*,#452,.T.);
#589=ORIENTED_EDGE('',*,*,#460,.F.);
#590=ORIENTED_EDGE('',*,*,#461,.F.);
#591=ORIENTED_EDGE('',*,*,#462,.F.);
#592=ORIENTED_EDGE('',*,*,#463,.T.);
#593=ORIENTED_EDGE('',*,*,#456,.T.);
#594=ORIENTED_EDGE('',*,*,#464,.F.);
#595=ORIENTED_EDGE('',*,*,#449,.T.);
#596=ORIENTED_EDGE('',*,*,#465,.T.);
#597=ORIENTED_EDGE('',*,*,#453,.T.);
#598=ORIENTED_EDGE('',*,*,#466,.T.);
#599=ORIENTED_EDGE('',*,*,#467,.T.);
#600=ORIENTED_EDGE('',*,*,#468,.F.);
#601=ORIENTED_EDGE('',*,*,#469,.T.);
#602=ORIENTED_EDGE('',*,*,#470,.T.);
#603=ORIENTED_EDGE('',*,*,#471,.F.);
#604=ORIENTED_EDGE('',*,*,#472,.F.);
#605=ORIENTED_EDGE('',*,*,#473,.F.);
#606=ORIENTED_EDGE('',*,*,#474,.T.);
#607=ORIENTED_EDGE('',*,*,#475,.F.);
#608=ORIENTED_EDGE('',*,*,#476,.F.);
#609=ORIENTED_EDGE('',*,*,#477,.F.);
#610=ORIENTED_EDGE('',*,*,#478,.T.);
#611=ORIENTED_EDGE('',*,*,#479,.F.);
#612=ORIENTED_EDGE('',*,*,#480,.F.);
#613=ORIENTED_EDGE('',*,*,#481,.F.);
#614=ORIENTED_EDGE('',*,*,#482,.T.);
#615=ORIENTED_EDGE('',*,*,#483,.F.);
#616=ORIENTED_EDGE('',*,*,#484,.F.);
#617=ORIENTED_EDGE('',*,*,#485,.F.);
#618=ORIENTED_EDGE('',*,*,#486,.T.);
#619=ORIENTED_EDGE('',*,*,#487,.T.);
#620=ORIENTED_EDGE('',*,*,#488,.F.);
#621=ORIENTED_EDGE('',*,*,#489,.F.);
#622=ORIENTED_EDGE('',*,*,#490,.F.);
#623=ORIENTED_EDGE('',*,*,#471,.T.);
#624=ORIENTED_EDGE('',*,*,#491,.F.);
#625=ORIENTED_EDGE('',*,*,#492,.T.);
#626=ORIENTED_EDGE('',*,*,#493,.F.);
#627=ORIENTED_EDGE('',*,*,#494,.F.);
#628=ORIENTED_EDGE('',*,*,#495,.T.);
#629=ORIENTED_EDGE('',*,*,#496,.F.);
#630=ORIENTED_EDGE('',*,*,#497,.F.);
#631=ORIENTED_EDGE('',*,*,#467,.F.);
#632=ORIENTED_EDGE('',*,*,#498,.T.);
#633=ORIENTED_EDGE('',*,*,#499,.T.);
#634=ORIENTED_EDGE('',*,*,#500,.T.);
#635=ORIENTED_EDGE('',*,*,#501,.T.);
#636=ORIENTED_EDGE('',*,*,#502,.F.);
#637=ORIENTED_EDGE('',*,*,#503,.F.);
#638=ORIENTED_EDGE('',*,*,#482,.F.);
#639=ORIENTED_EDGE('',*,*,#504,.F.);
#640=ORIENTED_EDGE('',*,*,#484,.T.);
#641=ORIENTED_EDGE('',*,*,#479,.T.);
#642=ORIENTED_EDGE('',*,*,#503,.T.);
#643=ORIENTED_EDGE('',*,*,#505,.F.);
#644=ORIENTED_EDGE('',*,*,#506,.F.);
#645=ORIENTED_EDGE('',*,*,#507,.T.);
#646=ORIENTED_EDGE('',*,*,#508,.T.);
#647=ORIENTED_EDGE('',*,*,#509,.T.);
#648=ORIENTED_EDGE('',*,*,#510,.T.);
#649=ORIENTED_EDGE('',*,*,#511,.T.);
#650=ORIENTED_EDGE('',*,*,#512,.T.);
#651=ORIENTED_EDGE('',*,*,#502,.T.);
#652=ORIENTED_EDGE('',*,*,#513,.T.);
#653=ORIENTED_EDGE('',*,*,#514,.T.);
#654=ORIENTED_EDGE('',*,*,#505,.T.);
#655=ORIENTED_EDGE('',*,*,#515,.T.);
#656=ORIENTED_EDGE('',*,*,#516,.T.);
#657=ORIENTED_EDGE('',*,*,#488,.T.);
#658=ORIENTED_EDGE('',*,*,#517,.T.);
#659=ORIENTED_EDGE('',*,*,#483,.T.);
#660=ORIENTED_EDGE('',*,*,#518,.F.);
#661=ORIENTED_EDGE('',*,*,#519,.F.);
#662=ORIENTED_EDGE('',*,*,#494,.T.);
#663=ORIENTED_EDGE('',*,*,#520,.T.);
#664=ORIENTED_EDGE('',*,*,#507,.F.);
#665=ORIENTED_EDGE('',*,*,#521,.F.);
#666=ORIENTED_EDGE('',*,*,#522,.F.);
#667=ORIENTED_EDGE('',*,*,#496,.T.);
#668=ORIENTED_EDGE('',*,*,#523,.F.);
#669=ORIENTED_EDGE('',*,*,#524,.F.);
#670=ORIENTED_EDGE('',*,*,#525,.F.);
#671=ORIENTED_EDGE('',*,*,#526,.T.);
#672=ORIENTED_EDGE('',*,*,#477,.T.);
#673=ORIENTED_EDGE('',*,*,#527,.T.);
#674=ORIENTED_EDGE('',*,*,#473,.T.);
#675=ORIENTED_EDGE('',*,*,#481,.T.);
#676=ORIENTED_EDGE('',*,*,#528,.T.);
#677=ORIENTED_EDGE('',*,*,#485,.T.);
#678=ORIENTED_EDGE('',*,*,#504,.T.);
#679=ORIENTED_EDGE('',*,*,#529,.T.);
#680=ORIENTED_EDGE('',*,*,#517,.F.);
#681=ORIENTED_EDGE('',*,*,#487,.F.);
#682=ORIENTED_EDGE('',*,*,#530,.F.);
#683=ORIENTED_EDGE('',*,*,#531,.T.);
#684=ORIENTED_EDGE('',*,*,#532,.T.);
#685=ORIENTED_EDGE('',*,*,#469,.F.);
#686=ORIENTED_EDGE('',*,*,#533,.T.);
#687=ORIENTED_EDGE('',*,*,#524,.T.);
#688=ORIENTED_EDGE('',*,*,#534,.T.);
#689=ORIENTED_EDGE('',*,*,#491,.T.);
#690=ORIENTED_EDGE('',*,*,#474,.F.);
#691=ORIENTED_EDGE('',*,*,#527,.F.);
#692=ORIENTED_EDGE('',*,*,#476,.T.);
#693=ORIENTED_EDGE('',*,*,#523,.T.);
#694=ORIENTED_EDGE('',*,*,#495,.F.);
#695=ORIENTED_EDGE('',*,*,#519,.T.);
#696=ORIENTED_EDGE('',*,*,#535,.F.);
#697=ORIENTED_EDGE('',*,*,#536,.T.);
#698=ORIENTED_EDGE('',*,*,#500,.F.);
#699=ORIENTED_EDGE('',*,*,#537,.T.);
#700=ORIENTED_EDGE('',*,*,#530,.T.);
#701=ORIENTED_EDGE('',*,*,#490,.T.);
#702=ORIENTED_EDGE('',*,*,#538,.T.);
#703=ORIENTED_EDGE('',*,*,#492,.F.);
#704=ORIENTED_EDGE('',*,*,#534,.F.);
#705=ORIENTED_EDGE('',*,*,#539,.T.);
#706=ORIENTED_EDGE('',*,*,#535,.T.);
#707=ORIENTED_EDGE('',*,*,#518,.T.);
#708=ORIENTED_EDGE('',*,*,#486,.F.);
#709=ORIENTED_EDGE('',*,*,#528,.F.);
#710=ORIENTED_EDGE('',*,*,#480,.T.);
#711=ORIENTED_EDGE('',*,*,#506,.T.);
#712=ORIENTED_EDGE('',*,*,#514,.F.);
#713=ORIENTED_EDGE('',*,*,#520,.F.);
#714=ORIENTED_EDGE('',*,*,#540,.T.);
#715=ORIENTED_EDGE('',*,*,#541,.F.);
#716=ORIENTED_EDGE('',*,*,#542,.F.);
#717=ORIENTED_EDGE('',*,*,#543,.F.);
#718=ORIENTED_EDGE('',*,*,#508,.F.);
#719=ORIENTED_EDGE('',*,*,#475,.T.);
#720=ORIENTED_EDGE('',*,*,#544,.F.);
#721=ORIENTED_EDGE('',*,*,#515,.F.);
#722=ORIENTED_EDGE('',*,*,#529,.F.);
#723=ORIENTED_EDGE('',*,*,#489,.T.);
#724=ORIENTED_EDGE('',*,*,#516,.F.);
#725=ORIENTED_EDGE('',*,*,#544,.T.);
#726=ORIENTED_EDGE('',*,*,#478,.F.);
#727=ORIENTED_EDGE('',*,*,#526,.F.);
#728=ORIENTED_EDGE('',*,*,#472,.T.);
#729=ORIENTED_EDGE('',*,*,#493,.T.);
#730=ORIENTED_EDGE('',*,*,#538,.F.);
#731=ORIENTED_EDGE('',*,*,#545,.T.);
#732=ORIENTED_EDGE('',*,*,#546,.F.);
#733=ORIENTED_EDGE('',*,*,#541,.T.);
#734=ORIENTED_EDGE('',*,*,#547,.F.);
#735=ORIENTED_EDGE('',*,*,#548,.F.);
#736=ORIENTED_EDGE('',*,*,#549,.F.);
#737=ORIENTED_EDGE('',*,*,#464,.T.);
#738=ORIENTED_EDGE('',*,*,#455,.T.);
#739=ORIENTED_EDGE('',*,*,#550,.T.);
#740=ORIENTED_EDGE('',*,*,#551,.F.);
#741=ORIENTED_EDGE('',*,*,#460,.T.);
#742=ORIENTED_EDGE('',*,*,#451,.T.);
#743=ORIENTED_EDGE('',*,*,#522,.T.);
#744=ORIENTED_EDGE('',*,*,#552,.F.);
#745=ORIENTED_EDGE('',*,*,#547,.T.);
#746=ORIENTED_EDGE('',*,*,#540,.F.);
#747=ORIENTED_EDGE('',*,*,#525,.T.);
#748=ORIENTED_EDGE('',*,*,#533,.F.);
#749=ORIENTED_EDGE('',*,*,#468,.T.);
#750=ORIENTED_EDGE('',*,*,#497,.T.);
#751=ORIENTED_EDGE('',*,*,#553,.F.);
#752=ORIENTED_EDGE('',*,*,#554,.T.);
#753=ORIENTED_EDGE('',*,*,#555,.F.);
#754=ORIENTED_EDGE('',*,*,#550,.F.);
#755=ORIENTED_EDGE('',*,*,#454,.F.);
#756=ORIENTED_EDGE('',*,*,#459,.T.);
#757=ORIENTED_EDGE('',*,*,#556,.T.);
#758=ORIENTED_EDGE('',*,*,#557,.T.);
#759=ORIENTED_EDGE('',*,*,#470,.F.);
#760=ORIENTED_EDGE('',*,*,#532,.F.);
#761=ORIENTED_EDGE('',*,*,#558,.T.);
#762=ORIENTED_EDGE('',*,*,#498,.F.);
#763=ORIENTED_EDGE('',*,*,#466,.F.);
#764=ORIENTED_EDGE('',*,*,#463,.F.);
#765=ORIENTED_EDGE('',*,*,#559,.T.);
#766=ORIENTED_EDGE('',*,*,#553,.T.);
#767=ORIENTED_EDGE('',*,*,#465,.F.);
#768=ORIENTED_EDGE('',*,*,#557,.F.);
#769=ORIENTED_EDGE('',*,*,#560,.F.);
#770=ORIENTED_EDGE('',*,*,#561,.T.);
#771=ORIENTED_EDGE('',*,*,#545,.F.);
#772=ORIENTED_EDGE('',*,*,#450,.F.);
#773=ORIENTED_EDGE('',*,*,#562,.F.);
#774=ORIENTED_EDGE('',*,*,#563,.T.);
#775=ORIENTED_EDGE('',*,*,#564,.F.);
#776=ORIENTED_EDGE('',*,*,#563,.F.);
#777=ORIENTED_EDGE('',*,*,#565,.F.);
#778=ORIENTED_EDGE('',*,*,#566,.T.);
#779=ORIENTED_EDGE('',*,*,#567,.F.);
#780=ORIENTED_EDGE('',*,*,#566,.F.);
#781=ORIENTED_EDGE('',*,*,#561,.F.);
#782=ORIENTED_EDGE('',*,*,#568,.T.);
#783=ORIENTED_EDGE('',*,*,#457,.T.);
#784=ORIENTED_EDGE('',*,*,#551,.T.);
#785=ORIENTED_EDGE('',*,*,#555,.T.);
#786=ORIENTED_EDGE('',*,*,#569,.T.);
#787=ORIENTED_EDGE('',*,*,#461,.T.);
#788=ORIENTED_EDGE('',*,*,#549,.T.);
#789=ORIENTED_EDGE('',*,*,#570,.T.);
#790=ORIENTED_EDGE('',*,*,#571,.T.);
#791=ORIENTED_EDGE('',*,*,#572,.F.);
#792=ORIENTED_EDGE('',*,*,#573,.F.);
#793=ORIENTED_EDGE('',*,*,#542,.T.);
#794=ORIENTED_EDGE('',*,*,#546,.T.);
#795=ORIENTED_EDGE('',*,*,#574,.T.);
#796=ORIENTED_EDGE('',*,*,#509,.F.);
#797=ORIENTED_EDGE('',*,*,#543,.T.);
#798=ORIENTED_EDGE('',*,*,#573,.T.);
#799=ORIENTED_EDGE('',*,*,#531,.F.);
#800=ORIENTED_EDGE('',*,*,#537,.F.);
#801=ORIENTED_EDGE('',*,*,#499,.F.);
#802=ORIENTED_EDGE('',*,*,#558,.F.);
#803=ORIENTED_EDGE('',*,*,#571,.F.);
#804=ORIENTED_EDGE('',*,*,#575,.T.);
#805=ORIENTED_EDGE('',*,*,#511,.F.);
#806=ORIENTED_EDGE('',*,*,#576,.F.);
#807=ORIENTED_EDGE('',*,*,#572,.T.);
#808=ORIENTED_EDGE('',*,*,#576,.T.);
#809=ORIENTED_EDGE('',*,*,#510,.F.);
#810=ORIENTED_EDGE('',*,*,#574,.F.);
#811=ORIENTED_EDGE('',*,*,#564,.T.);
#812=ORIENTED_EDGE('',*,*,#567,.T.);
#813=ORIENTED_EDGE('',*,*,#521,.T.);
#814=ORIENTED_EDGE('',*,*,#512,.F.);
#815=ORIENTED_EDGE('',*,*,#575,.F.);
#816=ORIENTED_EDGE('',*,*,#570,.F.);
#817=ORIENTED_EDGE('',*,*,#548,.T.);
#818=ORIENTED_EDGE('',*,*,#552,.T.);
#819=ORIENTED_EDGE('',*,*,#562,.T.);
#820=ORIENTED_EDGE('',*,*,#565,.T.);
#821=ORIENTED_EDGE('',*,*,#560,.T.);
#822=ORIENTED_EDGE('',*,*,#556,.F.);
#823=ORIENTED_EDGE('',*,*,#458,.F.);
#824=ORIENTED_EDGE('',*,*,#568,.F.);
#825=ORIENTED_EDGE('',*,*,#462,.T.);
#826=ORIENTED_EDGE('',*,*,#569,.F.);
#827=ORIENTED_EDGE('',*,*,#554,.F.);
#828=ORIENTED_EDGE('',*,*,#559,.F.);
#829=ORIENTED_EDGE('',*,*,#501,.F.);
#830=ORIENTED_EDGE('',*,*,#536,.F.);
#831=ORIENTED_EDGE('',*,*,#539,.F.);
#832=ORIENTED_EDGE('',*,*,#513,.F.);
#833=PLANE('',#920);
#834=PLANE('',#921);
#835=PLANE('',#922);
#836=PLANE('',#923);
#837=PLANE('',#924);
#838=PLANE('',#925);
#839=PLANE('',#926);
#840=PLANE('',#927);
#841=PLANE('',#928);
#842=PLANE('',#929);
#843=PLANE('',#930);
#844=PLANE('',#931);
#845=PLANE('',#932);
#846=PLANE('',#933);
#847=PLANE('',#934);
#848=PLANE('',#935);
#849=PLANE('',#936);
#850=PLANE('',#937);
#851=PLANE('',#938);
#852=PLANE('',#939);
#853=PLANE('',#940);
#854=PLANE('',#941);
#855=PLANE('',#942);
#856=PLANE('',#943);
#857=PLANE('',#944);
#858=PLANE('',#945);
#859=PLANE('',#946);
#860=PLANE('',#953);
#861=PLANE('',#954);
#862=PLANE('',#955);
#863=PLANE('',#956);
#864=PLANE('',#957);
#865=PLANE('',#958);
#866=PLANE('',#959);
#867=PLANE('',#960);
#868=ADVANCED_FACE('',(#34),#833,.F.);
#869=ADVANCED_FACE('',(#35),#834,.F.);
#870=ADVANCED_FACE('',(#36),#835,.F.);
#871=ADVANCED_FACE('',(#37),#836,.T.);
#872=ADVANCED_FACE('',(#38),#837,.T.);
#873=ADVANCED_FACE('',(#39),#838,.F.);
#874=ADVANCED_FACE('',(#40),#839,.F.);
#875=ADVANCED_FACE('',(#41),#840,.F.);
#876=ADVANCED_FACE('',(#42),#841,.F.);
#877=ADVANCED_FACE('',(#43),#842,.F.);
#878=ADVANCED_FACE('',(#44),#843,.T.);
#879=ADVANCED_FACE('',(#45),#844,.T.);
#880=ADVANCED_FACE('',(#46),#845,.F.);
#881=ADVANCED_FACE('',(#47,#25,#26),#846,.T.);
#882=ADVANCED_FACE('',(#48),#847,.F.);
#883=ADVANCED_FACE('',(#49,#27,#28),#848,.F.);
#884=ADVANCED_FACE('',(#50),#849,.T.);
#885=ADVANCED_FACE('',(#51),#850,.T.);
#886=ADVANCED_FACE('',(#52),#851,.F.);
#887=ADVANCED_FACE('',(#53),#852,.T.);
#888=ADVANCED_FACE('',(#54),#853,.T.);
#889=ADVANCED_FACE('',(#55),#854,.F.);
#890=ADVANCED_FACE('',(#56),#855,.T.);
#891=ADVANCED_FACE('',(#57),#856,.T.);
#892=ADVANCED_FACE('',(#58),#857,.F.);
#893=ADVANCED_FACE('',(#59),#858,.T.);
#894=ADVANCED_FACE('',(#60),#859,.T.);
#895=ADVANCED_FACE('',(#61),#23,.F.);
#896=ADVANCED_FACE('',(#62),#24,.F.);
#897=ADVANCED_FACE('',(#63),#860,.T.);
#898=ADVANCED_FACE('',(#64,#29),#861,.F.);
#899=ADVANCED_FACE('',(#65),#862,.T.);
#900=ADVANCED_FACE('',(#66,#30,#31),#863,.T.);
#901=ADVANCED_FACE('',(#67,#32,#33),#864,.T.);
#902=ADVANCED_FACE('',(#68),#865,.F.);
#903=ADVANCED_FACE('',(#69),#866,.F.);
#904=ADVANCED_FACE('',(#70),#867,.F.);
#905=CLOSED_SHELL('',(#868,#869,#870,#871,#872,#873,#874,#875,#876,#877,
#878,#879,#880,#881,#882,#883,#884,#885,#886,#887,#888,#889,#890,#891,#892,
#893,#894,#895,#896,#897,#898,#899,#900,#901,#902,#903,#904));
#906=DERIVED_UNIT_ELEMENT(#908,1.);
#907=DERIVED_UNIT_ELEMENT(#1433,-3.);
#908=(
MASS_UNIT()
NAMED_UNIT(*)
SI_UNIT(.KILO.,.GRAM.)
);
#909=DERIVED_UNIT((#906,#907));
#910=MEASURE_REPRESENTATION_ITEM('density measure',
POSITIVE_RATIO_MEASURE(7850.),#909);
#911=PROPERTY_DEFINITION_REPRESENTATION(#916,#913);
#912=PROPERTY_DEFINITION_REPRESENTATION(#917,#914);
#913=REPRESENTATION('material name',(#915),#1430);
#914=REPRESENTATION('density',(#910),#1430);
#915=DESCRIPTIVE_REPRESENTATION_ITEM('Stal','Stal');
#916=PROPERTY_DEFINITION('material property','material name',#1445);
#917=PROPERTY_DEFINITION('material property','density of part',#1445);
#918=AXIS2_PLACEMENT_3D('',#1174,#962,#963);
#919=AXIS2_PLACEMENT_3D('',#1175,#964,#965);
#920=AXIS2_PLACEMENT_3D('',#1176,#966,#967);
#921=AXIS2_PLACEMENT_3D('',#1185,#972,#973);
#922=AXIS2_PLACEMENT_3D('',#1194,#978,#979);
#923=AXIS2_PLACEMENT_3D('',#1202,#984,#985);
#924=AXIS2_PLACEMENT_3D('',#1210,#990,#991);
#925=AXIS2_PLACEMENT_3D('',#1221,#998,#999);
#926=AXIS2_PLACEMENT_3D('',#1230,#1004,#1005);
#927=AXIS2_PLACEMENT_3D('',#1239,#1010,#1011);
#928=AXIS2_PLACEMENT_3D('',#1248,#1016,#1017);
#929=AXIS2_PLACEMENT_3D('',#1257,#1022,#1023);
#930=AXIS2_PLACEMENT_3D('',#1266,#1028,#1029);
#931=AXIS2_PLACEMENT_3D('',#1272,#1033,#1034);
#932=AXIS2_PLACEMENT_3D('',#1292,#1046,#1047);
#933=AXIS2_PLACEMENT_3D('',#1296,#1050,#1051);
#934=AXIS2_PLACEMENT_3D('',#1317,#1063,#1064);
#935=AXIS2_PLACEMENT_3D('',#1321,#1067,#1068);
#936=AXIS2_PLACEMENT_3D('',#1335,#1078,#1079);
#937=AXIS2_PLACEMENT_3D('',#1344,#1086,#1087);
#938=AXIS2_PLACEMENT_3D('',#1350,#1092,#1093);
#939=AXIS2_PLACEMENT_3D('',#1352,#1095,#1096);
#940=AXIS2_PLACEMENT_3D('',#1360,#1101,#1102);
#941=AXIS2_PLACEMENT_3D('',#1362,#1104,#1105);
#942=AXIS2_PLACEMENT_3D('',#1363,#1106,#1107);
#943=AXIS2_PLACEMENT_3D('',#1375,#1115,#1116);
#944=AXIS2_PLACEMENT_3D('',#1377,#1118,#1119);
#945=AXIS2_PLACEMENT_3D('',#1383,#1123,#1124);
#946=AXIS2_PLACEMENT_3D('',#1389,#1129,#1130);
#947=AXIS2_PLACEMENT_3D('',#1393,#1133,#1134);
#948=AXIS2_PLACEMENT_3D('',#1395,#1135,#1136);
#949=AXIS2_PLACEMENT_3D('',#1398,#1138,#1139);
#950=AXIS2_PLACEMENT_3D('',#1399,#1140,#1141);
#951=AXIS2_PLACEMENT_3D('',#1401,#1142,#1143);
#952=AXIS2_PLACEMENT_3D('',#1404,#1145,#1146);
#953=AXIS2_PLACEMENT_3D('',#1405,#1147,#1148);
#954=AXIS2_PLACEMENT_3D('',#1415,#1155,#1156);
#955=AXIS2_PLACEMENT_3D('',#1417,#1158,#1159);
#956=AXIS2_PLACEMENT_3D('',#1420,#1162,#1163);
#957=AXIS2_PLACEMENT_3D('',#1421,#1164,#1165);
#958=AXIS2_PLACEMENT_3D('',#1422,#1166,#1167);
#959=AXIS2_PLACEMENT_3D('',#1423,#1168,#1169);
#960=AXIS2_PLACEMENT_3D('',#1424,#1170,#1171);
#961=AXIS2_PLACEMENT_3D('',#1425,#1172,#1173);
#962=DIRECTION('axis',(0.,0.,1.));
#963=DIRECTION('refdir',(1.,0.,0.));
#964=DIRECTION('axis',(0.,0.,1.));
#965=DIRECTION('refdir',(1.,0.,0.));
#966=DIRECTION('center_axis',(-1.16025418405801E-16,1.,0.));
#967=DIRECTION('ref_axis',(-1.,-1.16025418405801E-16,7.77156117237609E-16));
#968=DIRECTION('',(-1.,-1.16025418405801E-16,1.94289029309402E-15));
#969=DIRECTION('',(0.,0.,1.));
#970=DIRECTION('',(1.,1.16025418405801E-16,-2.94209101525666E-15));
#971=DIRECTION('',(0.,0.,1.));
#972=DIRECTION('center_axis',(-1.16025418405801E-16,1.,0.));
#973=DIRECTION('ref_axis',(-1.,-1.16025418405801E-16,8.02964392949819E-47));
#974=DIRECTION('',(-1.,-1.16025418405801E-16,1.94289029309402E-15));
#975=DIRECTION('',(0.,0.,1.));
#976=DIRECTION('',(1.,1.16025418405801E-16,-2.94209101525666E-15));
#977=DIRECTION('',(0.,0.,1.));
#978=DIRECTION('center_axis',(-1.,-1.16025418405801E-16,-3.77919224419859E-31));
#979=DIRECTION('ref_axis',(-1.16025418405801E-16,1.,1.97215226305253E-31));
#980=DIRECTION('',(-3.77919224419859E-31,3.26074968527502E-62,1.));
#981=DIRECTION('',(-1.16025418405801E-16,1.,1.97215226305253E-31));
#982=DIRECTION('',(3.77919224419859E-31,-3.26074968527502E-62,-1.));
#983=DIRECTION('',(6.54531272934504E-15,1.,-1.92569057730511E-29));
#984=DIRECTION('center_axis',(1.,1.16025418405801E-16,3.77919224419859E-31));
#985=DIRECTION('ref_axis',(-1.16025418405801E-16,1.,1.97215226305253E-31));
#986=DIRECTION('',(-3.77919224419859E-31,3.26074968527502E-62,1.));
#987=DIRECTION('',(1.16025418405801E-16,-1.,4.384823613691E-47));
#988=DIRECTION('',(-3.77919224419859E-31,3.26074968527502E-62,1.));
#989=DIRECTION('',(2.27524596723466E-17,1.,-6.69398071770005E-32));
#990=DIRECTION('center_axis',(-1.94289029309402E-15,0.,-1.));
#991=DIRECTION('ref_axis',(-1.,0.,1.94289029309402E-15));
#992=DIRECTION('',(-1.,-4.93038065763132E-32,-3.77919224419859E-31));
#993=DIRECTION('',(-1.,-1.16025418405801E-16,-3.77919224419859E-31));
#994=DIRECTION('',(0.,1.,0.));
#995=DIRECTION('',(-1.,0.,1.94289029309402E-15));
#996=DIRECTION('',(1.16025418405801E-16,-1.,1.97215226305253E-31));
#997=DIRECTION('',(-1.,-1.90638317053418E-14,1.11022302462519E-15));
#998=DIRECTION('center_axis',(1.16025418405801E-16,-1.,0.));
#999=DIRECTION('ref_axis',(-1.,-1.16025418405801E-16,8.02964392949815E-47));
#1000=DIRECTION('',(1.,1.16025418405801E-16,3.77919224419859E-31));
#1001=DIRECTION('',(0.,0.,-1.));
#1002=DIRECTION('',(-1.,-1.16025418405801E-16,0.));
#1003=DIRECTION('',(0.,0.,-1.));
#1004=DIRECTION('center_axis',(-1.16025418405801E-16,1.,0.));
#1005=DIRECTION('ref_axis',(1.,1.16025418405801E-16,-8.02964392949815E-47));
#1006=DIRECTION('',(-1.,-1.16025418405801E-16,-3.77919224419859E-31));
#1007=DIRECTION('',(0.,0.,-1.));
#1008=DIRECTION('',(1.,1.16025418405801E-16,0.));
#1009=DIRECTION('',(0.,0.,-1.));
#1010=DIRECTION('center_axis',(-1.16025418405801E-16,1.,0.));
#1011=DIRECTION('ref_axis',(1.,1.16025418405801E-16,-8.02964392949815E-47));
#1012=DIRECTION('',(-1.,-1.16025418405801E-16,1.88959608043166E-31));
#1013=DIRECTION('',(0.,0.,-1.));
#1014=DIRECTION('',(1.,1.16025418405801E-16,0.));
#1015=DIRECTION('',(0.,0.,-1.));
#1016=DIRECTION('center_axis',(1.16025418405801E-16,-1.,0.));
#1017=DIRECTION('ref_axis',(-1.,-1.16025418405801E-16,8.02964392949815E-47));
#1018=DIRECTION('',(1.,1.16025418405801E-16,-1.88959608043166E-31));
#1019=DIRECTION('',(0.,0.,-1.));
#1020=DIRECTION('',(-1.,-1.16025418405801E-16,0.));
#1021=DIRECTION('',(0.,0.,-1.));
#1022=DIRECTION('center_axis',(3.77919224419859E-31,-3.26074968527502E-62,
-1.));
#1023=DIRECTION('ref_axis',(-1.,-4.93038065763133E-32,-3.77919224419859E-31));
#1024=DIRECTION('',(0.,1.,0.));
#1025=DIRECTION('',(1.,4.93038065763132E-32,3.77919224419859E-31));
#1026=DIRECTION('',(-4.93038065763132E-32,1.,-5.12403531950172E-62));
#1027=DIRECTION('',(-1.,-4.93038065763132E-32,-3.77919224419859E-31));
#1028=DIRECTION('center_axis',(3.77919224419859E-31,-3.26074968527502E-62,
-1.));
#1029=DIRECTION('ref_axis',(-1.,-4.93038065763133E-32,-3.77919224419859E-31));
#1030=DIRECTION('',(-4.93038065763132E-32,1.,-5.12403531950172E-62));
#1031=DIRECTION('',(-1.,-4.93038065763132E-32,-3.77919224419859E-31));
#1032=DIRECTION('',(4.93038065763132E-32,-1.,5.12403531950172E-62));
#1033=DIRECTION('center_axis',(1.,4.93038065763132E-32,3.77919224419859E-31));
#1034=DIRECTION('ref_axis',(-4.93038065763133E-32,1.,-5.12403531950172E-62));
#1035=DIRECTION('',(0.,1.,0.));
#1036=DIRECTION('',(0.,0.,1.));
#1037=DIRECTION('',(0.,1.,0.));
#1038=DIRECTION('',(7.21644966006352E-16,0.,-1.));
#1039=DIRECTION('',(3.77919224419859E-31,-3.26074968527502E-62,-1.));
#1040=DIRECTION('',(-4.93038065763132E-32,1.,-5.12403531950172E-62));
#1041=DIRECTION('',(-3.77919224419859E-31,3.26074968527502E-62,1.));
#1042=DIRECTION('',(-4.93038065763132E-32,1.,-5.12403531950172E-62));
#1043=DIRECTION('',(-3.33066907387547E-16,0.,-1.));
#1044=DIRECTION('',(0.,1.,0.));
#1045=DIRECTION('',(-1.16025418405801E-16,1.,0.));
#1046=DIRECTION('center_axis',(1.88959608043166E-31,3.94430452610506E-31,
1.));
#1047=DIRECTION('ref_axis',(-1.,-1.16025418405801E-16,8.02964392949814E-47));
#1048=DIRECTION('',(-1.,-1.16025418405801E-16,8.02964392949819E-47));
#1049=DIRECTION('',(-4.93038065763132E-32,1.,-3.94430452610506E-31));
#1050=DIRECTION('center_axis',(0.,1.,0.));
#1051=DIRECTION('ref_axis',(0.,0.,1.));
#1052=DIRECTION('',(1.,4.93038065763132E-32,0.));
#1053=DIRECTION('',(0.,0.,-1.));
#1054=DIRECTION('',(-1.,-4.93038065763132E-32,-3.77919224419859E-31));
#1055=DIRECTION('',(-0.342020143325719,-1.59458470543375E-30,0.93969262078589));
#1056=DIRECTION('',(0.939692620785909,-4.63753120153334E-30,0.342020143325668));
#1057=DIRECTION('',(0.342020143325668,1.98901515804426E-30,-0.939692620785909));
#1058=DIRECTION('',(1.,4.93038065763132E-32,3.77919224419859E-31));
#1059=DIRECTION('',(-3.77919224419859E-31,3.26074968527502E-62,1.));
#1060=DIRECTION('',(-1.,-4.93038065763132E-32,-3.77919224419859E-31));
#1061=DIRECTION('',(0.,0.,-1.));
#1062=DIRECTION('',(-3.77919224419859E-31,3.26074968527502E-62,1.));
#1063=DIRECTION('center_axis',(1.88959608043166E-31,3.94430452610506E-31,
1.));
#1064=DIRECTION('ref_axis',(-1.,-1.16025418405801E-16,8.02964392949814E-47));
#1065=DIRECTION('',(-4.93038065763132E-32,1.,-3.94430452610506E-31));
#1066=DIRECTION('',(1.,-6.1610265534224E-17,2.89298411270445E-31));
#1067=DIRECTION('center_axis',(0.,0.,-1.));
#1068=DIRECTION('ref_axis',(-1.,0.,0.));
#1069=DIRECTION('',(0.,1.,0.));
#1070=DIRECTION('',(-4.93038065763133E-32,1.,2.7916492843971E-46));
#1071=DIRECTION('',(-1.,0.,5.6621374255883E-15));
#1072=DIRECTION('',(-1.,-4.93038065763132E-32,0.));
#1073=DIRECTION('',(-4.93038065763132E-32,1.,0.));
#1074=DIRECTION('',(-1.,-1.16025418405801E-16,5.55111512312578E-17));
#1075=DIRECTION('',(-1.16025418405801E-16,1.,0.));
#1076=DIRECTION('',(-2.61683125759462E-15,-1.,0.));
#1077=DIRECTION('',(-1.20772382817188E-17,-1.,0.));
#1078=DIRECTION('center_axis',(-1.,-4.93038065763132E-32,-3.77919224419859E-31));
#1079=DIRECTION('ref_axis',(4.93038065763133E-32,-1.,5.12403531950172E-62));
#1080=DIRECTION('',(-4.93038065763132E-32,1.,-5.12403531950172E-62));
#1081=DIRECTION('',(-3.77919224419859E-31,3.26074968527502E-62,1.));
#1082=DIRECTION('',(4.93038065763132E-32,-1.,5.12403531950172E-62));
#1083=DIRECTION('',(-3.77919224419859E-31,3.26074968527502E-62,1.));
#1084=DIRECTION('',(3.77919224419859E-31,4.38482361369099E-47,-1.));
#1085=DIRECTION('',(3.77919224419859E-31,1.8632856342267E-62,-1.));
#1086=DIRECTION('center_axis',(4.93038065763132E-32,-1.,5.12403531950172E-62));
#1087=DIRECTION('ref_axis',(1.,4.93038065763133E-32,3.77919224419859E-31));
#1088=DIRECTION('',(0.,0.,1.));
#1089=DIRECTION('',(-1.,-4.93038065763132E-32,-3.77919224419859E-31));
#1090=DIRECTION('',(1.,4.93038065763132E-32,3.77919224419859E-31));
#1091=DIRECTION('',(-3.77919224419859E-31,3.26074968527502E-62,1.));
#1092=DIRECTION('center_axis',(1.,4.93038065763132E-32,3.77919224419859E-31));
#1093=DIRECTION('ref_axis',(4.93038065763133E-32,-1.,5.12403531950172E-62));
#1094=DIRECTION('',(4.93038065763132E-32,-1.,5.12403531950172E-62));
#1095=DIRECTION('center_axis',(1.,4.93038065763132E-32,3.77919224419859E-31));
#1096=DIRECTION('ref_axis',(-4.93038065763133E-32,1.,-5.12403531950172E-62));
#1097=DIRECTION('',(-3.77919224419859E-31,-4.38482361369099E-47,1.));
#1098=DIRECTION('',(0.,1.,0.));
#1099=DIRECTION('',(-3.77919224419859E-31,3.26074968527502E-62,1.));
#1100=DIRECTION('',(4.93038065763132E-32,-1.,5.12403531950172E-62));
#1101=DIRECTION('center_axis',(3.77919224419859E-31,-3.26074968527502E-62,
-1.));
#1102=DIRECTION('ref_axis',(-1.,-4.93038065763133E-32,-3.77919224419859E-31));
#1103=DIRECTION('',(4.93038065763132E-32,-1.,5.12403531950172E-62));
#1104=DIRECTION('center_axis',(-1.,-4.93038065763132E-32,-3.77919224419859E-31));
#1105=DIRECTION('ref_axis',(-4.93038065763133E-32,1.,-5.12403531950172E-62));
#1106=DIRECTION('center_axis',(2.94209101525666E-15,0.,1.));
#1107=DIRECTION('ref_axis',(1.,0.,-2.94209101525666E-15));
#1108=DIRECTION('',(1.16025418405801E-16,-1.,-3.41357341033102E-31));
#1109=DIRECTION('',(-1.,0.,2.94209101525666E-15));
#1110=DIRECTION('',(1.,0.,-2.94209101525666E-15));
#1111=DIRECTION('',(-4.93038065763133E-32,1.,1.45056286346124E-46));
#1112=DIRECTION('',(-1.,0.,2.94209101525666E-15));
#1113=DIRECTION('',(-2.38197638700085E-15,-1.,7.00799132674875E-30));
#1114=DIRECTION('',(-1.,0.,2.94209101525666E-15));
#1115=DIRECTION('center_axis',(0.,1.,0.));
#1116=DIRECTION('ref_axis',(0.,0.,1.));
#1117=DIRECTION('',(0.342020143325668,0.,-0.939692620785909));
#1118=DIRECTION('center_axis',(1.,1.16025418405801E-16,3.77919224419859E-31));
#1119=DIRECTION('ref_axis',(1.16025418405801E-16,-1.,-1.97215226305253E-31));
#1120=DIRECTION('',(-3.77919224419859E-31,3.26074968527502E-62,1.));
#1121=DIRECTION('',(1.16025418405801E-16,-1.,-1.97215226305253E-31));
#1122=DIRECTION('',(3.77919224419859E-31,-3.26074968527502E-62,-1.));
#1123=DIRECTION('center_axis',(-4.93038065763132E-32,1.,-5.12403531950172E-62));
#1124=DIRECTION('ref_axis',(-1.,-4.93038065763133E-32,-3.77919224419859E-31));
#1125=DIRECTION('',(1.,4.93038065763132E-32,3.77919224419859E-31));
#1126=DIRECTION('',(-3.77919224419859E-31,3.26074968527502E-62,1.));
#1127=DIRECTION('',(-1.,-4.93038065763132E-32,-3.77919224419859E-31));
#1128=DIRECTION('',(1.,4.93038065763132E-32,3.77919224419859E-31));
#1129=DIRECTION('center_axis',(-1.,-1.16025418405801E-16,-3.77919224419859E-31));
#1130=DIRECTION('ref_axis',(1.16025418405801E-16,-1.,-1.97215226305253E-31));
#1131=DIRECTION('',(-1.16025418405801E-16,1.,-4.384823613691E-47));
#1132=DIRECTION('',(-3.77919224419859E-31,3.26074968527502E-62,1.));
#1133=DIRECTION('center_axis',(-0.939692620785909,-4.63304232164173E-32,
-0.342020143325668));
#1134=DIRECTION('ref_axis',(-0.342020143325668,1.21314956940855E-15,0.939692620785909));
#1135=DIRECTION('center_axis',(-0.939692620785909,-4.63304232164173E-32,
-0.342020143325668));
#1136=DIRECTION('ref_axis',(-0.342020143325668,1.21314956940855E-15,0.939692620785909));
#1137=DIRECTION('',(-0.939692620785909,-4.63304232164173E-32,-0.342020143325668));
#1138=DIRECTION('center_axis',(0.93969262078589,4.63304232164164E-32,0.342020143325719));
#1139=DIRECTION('ref_axis',(-0.342020143325719,1.21314956940855E-15,0.93969262078589));
#1140=DIRECTION('center_axis',(-0.939692620785909,-4.63304232164173E-32,
-0.342020143325668));
#1141=DIRECTION('ref_axis',(-0.342020143325668,1.21314956940855E-15,0.939692620785909));
#1142=DIRECTION('center_axis',(-0.939692620785909,-4.63304232164173E-32,
-0.342020143325668));
#1143=DIRECTION('ref_axis',(-0.342020143325668,1.21314956940855E-15,0.939692620785909));
#1144=DIRECTION('',(-0.939692620785909,-4.63304232164173E-32,-0.342020143325668));
#1145=DIRECTION('center_axis',(0.93969262078589,4.63304232164164E-32,0.342020143325719));
#1146=DIRECTION('ref_axis',(-0.342020143325719,1.21314956940855E-15,0.93969262078589));
#1147=DIRECTION('center_axis',(-1.72461829067985E-16,-1.,-6.51766406834032E-47));
#1148=DIRECTION('ref_axis',(1.,-1.72461829067985E-16,3.77919224419859E-31));
#1149=DIRECTION('',(-1.,1.72461829067985E-16,-3.77919224419859E-31));
#1150=DIRECTION('',(-1.,1.72461829067985E-16,-3.77919224419859E-31));
#1151=DIRECTION('',(-0.342020143325668,-1.98901515804426E-30,0.939692620785909));
#1152=DIRECTION('',(-0.939692620785909,4.63753120153334E-30,-0.342020143325668));
#1153=DIRECTION('',(-0.342020143325719,-1.59458470543375E-30,0.93969262078589));
#1154=DIRECTION('',(-1.,1.72461829067985E-16,-3.77919224419859E-31));
#1155=DIRECTION('center_axis',(-3.77919224419859E-31,3.26074968527502E-62,
1.));
#1156=DIRECTION('ref_axis',(1.,4.93038065763133E-32,3.77919224419859E-31));
#1157=DIRECTION('',(-4.93038065763132E-32,1.,-5.12403531950172E-62));
#1158=DIRECTION('center_axis',(-0.342020143325668,-1.68628949917317E-32,
0.939692620785909));
#1159=DIRECTION('ref_axis',(0.939692620785909,-4.63753120153334E-30,0.342020143325668));
#1160=DIRECTION('',(-4.93038065763132E-32,1.,-5.12403531950172E-62));
#1161=DIRECTION('',(-4.93038065763132E-32,1.,-5.12403531950172E-62));
#1162=DIRECTION('center_axis',(-0.93969262078589,-4.63304232164164E-32,
-0.342020143325719));
#1163=DIRECTION('ref_axis',(-0.342020143325719,-1.59458470543375E-30,0.93969262078589));
#1164=DIRECTION('center_axis',(0.939692620785909,4.63304232164173E-32,0.342020143325668));
#1165=DIRECTION('ref_axis',(0.342020143325668,1.98901515804426E-30,-0.939692620785909));
#1166=DIRECTION('center_axis',(3.77919224419859E-31,-3.26074968527502E-62,
-1.));
#1167=DIRECTION('ref_axis',(-1.,-4.93038065763133E-32,-3.77919224419859E-31));
#1168=DIRECTION('center_axis',(3.77919224419859E-31,-3.26074968527502E-62,
-1.));
#1169=DIRECTION('ref_axis',(-1.,-4.93038065763133E-32,-3.77919224419859E-31));
#1170=DIRECTION('center_axis',(3.77919224419859E-31,-3.26074968527502E-62,
-1.));
#1171=DIRECTION('ref_axis',(-1.,-4.93038065763133E-32,-3.77919224419859E-31));
#1172=DIRECTION('',(0.342020143325668,0.939692620785909,1.62860527149557E-15));
#1173=DIRECTION('',(0.939692620785909,-0.342020143325668,1.16025418405801E-16));
#1174=CARTESIAN_POINT('',(0.,0.,0.));
#1175=CARTESIAN_POINT('',(0.,0.,0.));
#1176=CARTESIAN_POINT('Origin',(737.784834550136,1232.,254.914100327968));
#1177=CARTESIAN_POINT('',(737.784834550136,1232.,272.414100327968));
#1178=CARTESIAN_POINT('',(712.784834550136,1232.,272.414100327967));
#1179=CARTESIAN_POINT('',(749.284834550136,1232.,272.414100327968));
#1180=CARTESIAN_POINT('',(737.784834550136,1232.,278.414100327968));
#1181=CARTESIAN_POINT('',(737.784834550136,1232.,254.914100327968));
#1182=CARTESIAN_POINT('',(712.784834550136,1232.,278.414100327968));
#1183=CARTESIAN_POINT('',(644.279325684744,1232.,278.414100327968));
#1184=CARTESIAN_POINT('',(712.784834550136,1232.,254.914100327968));
#1185=CARTESIAN_POINT('Origin',(602.784834550136,1232.,254.914100327968));
#1186=CARTESIAN_POINT('',(602.784834550136,1232.,272.414100327967));
#1187=CARTESIAN_POINT('',(577.784834550136,1232.,272.414100327967));
#1188=CARTESIAN_POINT('',(681.784834550136,1232.,272.414100327968));
#1189=CARTESIAN_POINT('',(602.784834550136,1232.,278.414100327968));
#1190=CARTESIAN_POINT('',(602.784834550136,1232.,254.914100327968));
#1191=CARTESIAN_POINT('',(577.784834550136,1232.,278.414100327968));
#1192=CARTESIAN_POINT('',(576.779325684744,1232.,278.414100327968));
#1193=CARTESIAN_POINT('',(577.784834550136,1232.,254.914100327968));
#1194=CARTESIAN_POINT('Origin',(712.784834550136,1224.,245.414100327967));
#1195=CARTESIAN_POINT('',(712.784834550136,1224.,243.914100327968));
#1196=CARTESIAN_POINT('',(712.784834550136,1224.,278.414100327968));
#1197=CARTESIAN_POINT('',(712.784834550136,1224.,242.414100327967));
#1198=CARTESIAN_POINT('',(712.784834550136,1232.,243.914100327968));
#1199=CARTESIAN_POINT('',(712.784834550136,1232.,243.914100327968));
#1200=CARTESIAN_POINT('',(712.784834550136,1232.,242.414100327967));
#1201=CARTESIAN_POINT('',(712.784834550136,1228.,278.414100327968));
#1202=CARTESIAN_POINT('Origin',(577.784834550136,1224.,243.914100327967));
#1203=CARTESIAN_POINT('',(577.784834550136,1224.,243.914100327967));
#1204=CARTESIAN_POINT('',(577.784834550136,1224.,278.414100327968));
#1205=CARTESIAN_POINT('',(577.784834550136,1224.,243.914100327967));
#1206=CARTESIAN_POINT('',(577.784834550136,1232.,243.914100327967));
#1207=CARTESIAN_POINT('',(577.784834550136,1226.,243.914100327967));
#1208=CARTESIAN_POINT('',(577.784834550136,1232.,243.914100327967));
#1209=CARTESIAN_POINT('',(577.784834550136,1228.,278.414100327968));
#1210=CARTESIAN_POINT('Origin',(760.784834550137,1224.,272.414100327968));
#1211=CARTESIAN_POINT('',(562.784834550136,1232.,272.414100327967));
#1212=CARTESIAN_POINT('',(562.784834550136,1232.,272.414100327967));
#1213=CARTESIAN_POINT('',(577.784834550136,1232.,272.414100327967));
#1214=CARTESIAN_POINT('',(562.784834550136,1324.,272.414100327968));
#1215=CARTESIAN_POINT('',(562.784834550136,1224.,272.414100327968));
#1216=CARTESIAN_POINT('',(752.784834550136,1324.,272.414100327968));
#1217=CARTESIAN_POINT('',(760.784834550137,1324.,272.414100327968));
#1218=CARTESIAN_POINT('',(752.784834550136,1232.,272.414100327968));
#1219=CARTESIAN_POINT('',(752.784834550136,1376.,272.414100327968));
#1220=CARTESIAN_POINT('',(752.784834550136,1232.,272.414100327968));
#1221=CARTESIAN_POINT('Origin',(752.784834550136,1370.,259.414100327968));
#1222=CARTESIAN_POINT('',(727.784834550136,1370.,254.914100327967));
#1223=CARTESIAN_POINT('',(752.784834550136,1370.,254.914100327967));
#1224=CARTESIAN_POINT('',(746.534834550136,1370.,254.914100327967));
#1225=CARTESIAN_POINT('',(727.784834550136,1370.,259.414100327968));
#1226=CARTESIAN_POINT('',(727.784834550136,1370.,259.414100327968));
#1227=CARTESIAN_POINT('',(752.784834550136,1370.,259.414100327968));
#1228=CARTESIAN_POINT('',(713.534834550136,1370.,259.414100327968));
#1229=CARTESIAN_POINT('',(752.784834550136,1370.,259.414100327968));
#1230=CARTESIAN_POINT('Origin',(727.784834550136,1379.,259.414100327968));
#1231=CARTESIAN_POINT('',(752.784834550136,1379.,254.914100327967));
#1232=CARTESIAN_POINT('',(727.784834550136,1379.,254.914100327967));
#1233=CARTESIAN_POINT('',(734.034834550136,1379.,254.914100327967));
#1234=CARTESIAN_POINT('',(752.784834550136,1379.,259.414100327968));
#1235=CARTESIAN_POINT('',(752.784834550136,1379.,259.414100327968));
#1236=CARTESIAN_POINT('',(727.784834550136,1379.,259.414100327968));
#1237=CARTESIAN_POINT('',(701.034834550136,1379.,259.414100327968));
#1238=CARTESIAN_POINT('',(727.784834550136,1379.,259.414100327968));
#1239=CARTESIAN_POINT('Origin',(562.784834550136,1379.,259.414100327968));
#1240=CARTESIAN_POINT('',(587.784834550136,1379.,254.914100327968));
#1241=CARTESIAN_POINT('',(562.784834550136,1379.,254.914100327968));
#1242=CARTESIAN_POINT('',(569.034834550136,1379.,254.914100327968));
#1243=CARTESIAN_POINT('',(587.784834550136,1379.,259.414100327968));
#1244=CARTESIAN_POINT('',(587.784834550136,1379.,259.414100327968));
#1245=CARTESIAN_POINT('',(562.784834550136,1379.,259.414100327968));
#1246=CARTESIAN_POINT('',(618.534834550136,1379.,259.414100327968));
#1247=CARTESIAN_POINT('',(562.784834550136,1379.,259.414100327968));
#1248=CARTESIAN_POINT('Origin',(587.784834550136,1370.,259.414100327968));
#1249=CARTESIAN_POINT('',(562.784834550136,1370.,254.914100327968));
#1250=CARTESIAN_POINT('',(587.784834550136,1370.,254.914100327968));
#1251=CARTESIAN_POINT('',(581.534834550136,1370.,254.914100327968));
#1252=CARTESIAN_POINT('',(562.784834550136,1370.,259.414100327968));
#1253=CARTESIAN_POINT('',(562.784834550136,1370.,259.414100327968));
#1254=CARTESIAN_POINT('',(587.784834550136,1370.,259.414100327968));
#1255=CARTESIAN_POINT('',(631.034834550136,1370.,259.414100327968));
#1256=CARTESIAN_POINT('',(587.784834550136,1370.,259.414100327968));
#1257=CARTESIAN_POINT('Origin',(740.284834550136,1372.,243.914100327967));
#1258=CARTESIAN_POINT('',(752.784834550136,1368.,243.914100327967));
#1259=CARTESIAN_POINT('',(752.784834550136,1381.,243.914100327967));
#1260=CARTESIAN_POINT('',(752.784834550136,1376.,243.914100327967));
#1261=CARTESIAN_POINT('',(727.784834550136,1381.,243.914100327967));
#1262=CARTESIAN_POINT('',(750.534834550136,1381.,243.914100327967));
#1263=CARTESIAN_POINT('',(727.784834550136,1368.,243.914100327967));
#1264=CARTESIAN_POINT('',(727.784834550136,1368.,243.914100327967));
#1265=CARTESIAN_POINT('',(651.534834550136,1368.,243.914100327967));
#1266=CARTESIAN_POINT('Origin',(740.284834550136,1372.,254.914100327967));
#1267=CARTESIAN_POINT('',(752.784834550136,1368.,254.914100327967));
#1268=CARTESIAN_POINT('',(752.784834550136,1370.,254.914100327967));
#1269=CARTESIAN_POINT('',(727.784834550136,1368.,254.914100327967));
#1270=CARTESIAN_POINT('',(651.534834550136,1368.,254.914100327967));
#1271=CARTESIAN_POINT('',(727.784834550136,1370.,254.914100327968));
#1272=CARTESIAN_POINT('Origin',(562.784834550136,1232.,239.414100327967));
#1273=CARTESIAN_POINT('',(562.784834550136,1368.,254.914100327968));
#1274=CARTESIAN_POINT('',(562.784834550136,1376.,254.914100327968));
#1275=CARTESIAN_POINT('',(562.784834550136,1368.,259.414100327968));
#1276=CARTESIAN_POINT('',(562.784834550136,1368.,254.914100327968));
#1277=CARTESIAN_POINT('',(562.784834550136,1324.,259.414100327968));
#1278=CARTESIAN_POINT('',(562.784834550136,1324.,259.414100327968));
#1279=CARTESIAN_POINT('',(562.784834550136,1324.,272.414100327967));
#1280=CARTESIAN_POINT('',(562.784834550136,1232.,239.414100327967));
#1281=CARTESIAN_POINT('',(562.784834550136,1232.,241.664100327967));
#1282=CARTESIAN_POINT('',(562.784834550136,1368.,239.414100327967));
#1283=CARTESIAN_POINT('',(562.784834550136,1368.,239.414100327967));
#1284=CARTESIAN_POINT('',(562.784834550136,1368.,243.914100327967));
#1285=CARTESIAN_POINT('',(562.784834550136,1368.,239.414100327967));
#1286=CARTESIAN_POINT('',(562.784834550136,1381.,243.914100327967));
#1287=CARTESIAN_POINT('',(562.784834550136,1376.,243.914100327967));
#1288=CARTESIAN_POINT('',(562.784834550136,1381.,254.914100327968));
#1289=CARTESIAN_POINT('',(562.784834550136,1381.,272.414100327968));
#1290=CARTESIAN_POINT('',(562.784834550136,1376.,254.914100327968));
#1291=CARTESIAN_POINT('',(562.784834550136,1360.,259.414100327968));
#1292=CARTESIAN_POINT('Origin',(575.284834550136,1372.,254.914100327968));
#1293=CARTESIAN_POINT('',(587.784834550136,1381.,254.914100327968));
#1294=CARTESIAN_POINT('',(587.784834550136,1381.,254.914100327968));
#1295=CARTESIAN_POINT('',(587.784834550136,1374.,254.914100327968));
#1296=CARTESIAN_POINT('Origin',(760.784834550136,1381.,239.414100327967));
#1297=CARTESIAN_POINT('',(557.689251270409,1381.,259.414100327968));
#1298=CARTESIAN_POINT('',(760.784834550137,1381.,259.414100327968));
#1299=CARTESIAN_POINT('',(717.534834550137,1381.,259.414100327968));
#1300=CARTESIAN_POINT('',(760.784834550136,1381.,239.414100327967));
#1301=CARTESIAN_POINT('',(760.784834550136,1381.,245.414100327968));
#1302=CARTESIAN_POINT('',(555.673605264657,1381.,239.414100327967));
#1303=CARTESIAN_POINT('',(554.784834550136,1381.,239.414100327967));
#1304=CARTESIAN_POINT('',(521.853636100805,1381.,332.333701932286));
#1305=CARTESIAN_POINT('',(534.50838140382,1381.,297.565074963311));
#1306=CARTESIAN_POINT('',(530.061372411552,1381.,335.321073640104));
#1307=CARTESIAN_POINT('',(530.061372411552,1381.,335.321073640104));
#1308=CARTESIAN_POINT('',(562.784834550136,1381.,245.414100327967));
#1309=CARTESIAN_POINT('',(587.784834550136,1381.,243.914100327967));
#1310=CARTESIAN_POINT('',(668.034834550136,1381.,243.914100327967));
#1311=CARTESIAN_POINT('',(587.784834550136,1381.,242.414100327967));
#1312=CARTESIAN_POINT('',(752.784834550136,1381.,254.914100327967));
#1313=CARTESIAN_POINT('',(727.784834550136,1381.,254.914100327967));
#1314=CARTESIAN_POINT('',(750.534834550136,1381.,254.914100327967));
#1315=CARTESIAN_POINT('',(727.784834550136,1381.,245.414100327967));
#1316=CARTESIAN_POINT('',(752.784834550136,1381.,242.414100327967));
#1317=CARTESIAN_POINT('Origin',(575.284834550136,1372.,254.914100327968));
#1318=CARTESIAN_POINT('',(587.784834550136,1368.,254.914100327968));
#1319=CARTESIAN_POINT('',(587.784834550136,1374.,254.914100327968));
#1320=CARTESIAN_POINT('',(562.784834550136,1368.,254.914100327968));
#1321=CARTESIAN_POINT('Origin',(674.284834550136,1350.,259.414100327968));
#1322=CARTESIAN_POINT('',(760.784834550137,1324.,259.414100327968));
#1323=CARTESIAN_POINT('',(760.784834550137,1376.,259.414100327968));
#1324=CARTESIAN_POINT('',(557.689251270409,1324.,259.414100327968));
#1325=CARTESIAN_POINT('',(557.689251270409,1274.,259.414100327968));
#1326=CARTESIAN_POINT('',(607.216379184842,1324.,259.414100327967));
#1327=CARTESIAN_POINT('',(752.784834550136,1368.,259.414100327968));
#1328=CARTESIAN_POINT('',(618.534834550136,1368.,259.414100327968));
#1329=CARTESIAN_POINT('',(752.784834550136,1324.,259.414100327968));
#1330=CARTESIAN_POINT('',(752.784834550136,1359.,259.414100327968));
#1331=CARTESIAN_POINT('',(760.784834550137,1324.,259.414100327968));
#1332=CARTESIAN_POINT('',(727.784834550136,1360.,259.414100327968));
#1333=CARTESIAN_POINT('',(752.784834550136,1364.5,259.414100327968));
#1334=CARTESIAN_POINT('',(587.784834550136,1364.5,259.414100327968));
#1335=CARTESIAN_POINT('Origin',(752.784834550136,1368.,239.414100327967));
#1336=CARTESIAN_POINT('',(752.784834550136,1370.,254.914100327967));
#1337=CARTESIAN_POINT('',(752.784834550136,1368.,239.414100327967));
#1338=CARTESIAN_POINT('',(752.784834550136,1368.,239.414100327967));
#1339=CARTESIAN_POINT('',(752.784834550136,1232.,239.414100327967));
#1340=CARTESIAN_POINT('',(752.784834550136,1232.,239.414100327967));
#1341=CARTESIAN_POINT('',(752.784834550136,1232.,241.664100327967));
#1342=CARTESIAN_POINT('',(752.784834550136,1324.,258.914100327968));
#1343=CARTESIAN_POINT('',(752.784834550136,1368.,247.164100327967));
#1344=CARTESIAN_POINT('Origin',(562.784834550136,1368.,239.414100327967));
#1345=CARTESIAN_POINT('',(587.784834550136,1368.,243.914100327967));
#1346=CARTESIAN_POINT('',(587.784834550136,1368.,245.414100327967));
#1347=CARTESIAN_POINT('',(569.034834550136,1368.,243.914100327967));
#1348=CARTESIAN_POINT('',(752.784834550136,1368.,239.414100327967));
#1349=CARTESIAN_POINT('',(727.784834550136,1368.,242.414100327967));
#1350=CARTESIAN_POINT('Origin',(587.784834550136,1376.,245.414100327967));
#1351=CARTESIAN_POINT('',(587.784834550136,1368.,243.914100327967));
#1352=CARTESIAN_POINT('Origin',(760.784834550136,1224.,239.414100327967));
#1353=CARTESIAN_POINT('',(760.784834550137,1324.,278.414100327968));
#1354=CARTESIAN_POINT('',(760.784834550136,1324.,258.914100327968));
#1355=CARTESIAN_POINT('',(760.784834550137,1224.,278.414100327968));
#1356=CARTESIAN_POINT('',(760.784834550137,1224.,278.414100327968));
#1357=CARTESIAN_POINT('',(760.784834550136,1224.,239.414100327967));
#1358=CARTESIAN_POINT('',(760.784834550136,1224.,239.414100327967));
#1359=CARTESIAN_POINT('',(760.784834550136,1376.,239.414100327967));
#1360=CARTESIAN_POINT('Origin',(740.284834550136,1372.,254.914100327967));
#1361=CARTESIAN_POINT('',(727.784834550136,1370.,254.914100327968));
#1362=CARTESIAN_POINT('Origin',(727.784834550136,1368.,245.414100327967));
#1363=CARTESIAN_POINT('Origin',(550.773816819351,1224.,278.414100327968));
#1364=CARTESIAN_POINT('',(737.784834550136,1224.,278.414100327968));
#1365=CARTESIAN_POINT('',(737.784834550136,1224.,278.414100327968));
#1366=CARTESIAN_POINT('',(760.784834550137,1224.,278.414100327968));
#1367=CARTESIAN_POINT('',(550.773816819351,1324.,278.414100327968));
#1368=CARTESIAN_POINT('',(760.784834550137,1324.,278.414100327968));
#1369=CARTESIAN_POINT('',(550.773816819351,1224.,278.414100327968));
#1370=CARTESIAN_POINT('',(550.773816819351,1224.,278.414100327968));
#1371=CARTESIAN_POINT('',(760.784834550137,1224.,278.414100327968));
#1372=CARTESIAN_POINT('',(602.784834550136,1224.,278.414100327968));
#1373=CARTESIAN_POINT('',(602.784834550136,1224.,278.414100327968));
#1374=CARTESIAN_POINT('',(760.784834550137,1224.,278.414100327968));
#1375=CARTESIAN_POINT('Origin',(656.743507099274,1324.,275.765033663289));
#1376=CARTESIAN_POINT('',(547.041340898261,1324.,288.668993639821));
#1377=CARTESIAN_POINT('Origin',(602.784834550136,1232.,245.414100327967));
#1378=CARTESIAN_POINT('',(602.784834550136,1232.,243.914100327968));
#1379=CARTESIAN_POINT('',(602.784834550136,1232.,242.414100327967));
#1380=CARTESIAN_POINT('',(602.784834550136,1224.,243.914100327968));
#1381=CARTESIAN_POINT('',(602.784834550136,1224.,243.914100327968));
#1382=CARTESIAN_POINT('',(602.784834550136,1224.,242.414100327967));
#1383=CARTESIAN_POINT('Origin',(752.784834550136,1232.,239.414100327967));
#1384=CARTESIAN_POINT('',(737.784834550136,1232.,243.914100327967));
#1385=CARTESIAN_POINT('',(739.034834550136,1232.,243.914100327968));
#1386=CARTESIAN_POINT('',(737.784834550136,1232.,243.914100327967));
#1387=CARTESIAN_POINT('',(562.784834550136,1232.,239.414100327967));
#1388=CARTESIAN_POINT('',(671.534834550136,1232.,243.914100327968));
#1389=CARTESIAN_POINT('Origin',(737.784834550136,1232.,243.914100327967));
#1390=CARTESIAN_POINT('',(737.784834550136,1224.,243.914100327967));
#1391=CARTESIAN_POINT('',(737.784834550136,1230.,243.914100327967));
#1392=CARTESIAN_POINT('',(737.784834550136,1224.,243.914100327967));
#1393=CARTESIAN_POINT('Origin',(536.901775278065,1244.,316.527221224388));
#1394=CARTESIAN_POINT('',(537.927835708042,1244.,313.70814336203));
#1395=CARTESIAN_POINT('Origin',(536.901775278065,1244.,316.527221224388));
#1396=CARTESIAN_POINT('',(529.7200993973,1244.,310.720771654214));
#1397=CARTESIAN_POINT('',(537.927835708042,1244.,313.70814336203));
#1398=CARTESIAN_POINT('Origin',(528.694038967323,1244.,313.539849516572));
#1399=CARTESIAN_POINT('Origin',(536.901775278065,1356.,316.527221224387));
#1400=CARTESIAN_POINT('',(537.927835708042,1356.,313.708143362029));
#1401=CARTESIAN_POINT('Origin',(536.901775278065,1356.,316.527221224387));
#1402=CARTESIAN_POINT('',(529.7200993973,1356.,310.720771654214));
#1403=CARTESIAN_POINT('',(537.927835708042,1356.,313.708143362029));
#1404=CARTESIAN_POINT('Origin',(528.694038967323,1356.,313.539849516571));
#1405=CARTESIAN_POINT('Origin',(554.784834550136,1224.,239.414100327967));
#1406=CARTESIAN_POINT('',(647.534834550136,1224.,243.914100327967));
#1407=CARTESIAN_POINT('',(572.534834550136,1224.,243.914100327968));
#1408=CARTESIAN_POINT('',(530.061372411552,1224.,335.321073640104));
#1409=CARTESIAN_POINT('',(562.784834550136,1224.,245.414100327967));
#1410=CARTESIAN_POINT('',(521.853636100805,1224.,332.333701932286));
#1411=CARTESIAN_POINT('',(530.061372411552,1224.,335.321073640104));
#1412=CARTESIAN_POINT('',(555.673605264657,1224.,239.414100327967));
#1413=CARTESIAN_POINT('',(534.50838140382,1224.,297.565074963311));
#1414=CARTESIAN_POINT('',(760.784834550136,1224.,239.414100327967));
#1415=CARTESIAN_POINT('Origin',(657.784834550136,1300.,239.414100327967));
#1416=CARTESIAN_POINT('',(555.673605264657,1262.,239.414100327967));
#1417=CARTESIAN_POINT('Origin',(521.853636100805,1224.,332.333701932287));
#1418=CARTESIAN_POINT('',(530.061372411552,1224.,335.321073640104));
#1419=CARTESIAN_POINT('',(521.853636100805,1224.,332.333701932286));
#1420=CARTESIAN_POINT('Origin',(554.784834550136,1224.,241.855977797188));
#1421=CARTESIAN_POINT('Origin',(530.061372411552,1224.,335.321073640104));
#1422=CARTESIAN_POINT('Origin',(740.284834550136,1228.,243.914100327967));
#1423=CARTESIAN_POINT('Origin',(575.284834550136,1228.,243.914100327967));
#1424=CARTESIAN_POINT('Origin',(575.284834550136,1372.,243.914100327967));
#1425=CARTESIAN_POINT('',(-661.975385176807,-108.340981160814,1337.78212421188));
#1426=UNCERTAINTY_MEASURE_WITH_UNIT(LENGTH_MEASURE(0.01),#1432,
'DISTANCE_ACCURACY_VALUE',
'Maximum model space distance between geometric entities at asserted c
onnectivities');
#1427=UNCERTAINTY_MEASURE_WITH_UNIT(LENGTH_MEASURE(0.01),#1432,
'DISTANCE_ACCURACY_VALUE',
'Maximum model space distance between geometric entities at asserted c
onnectivities');
#1428=UNCERTAINTY_MEASURE_WITH_UNIT(LENGTH_MEASURE(0.01),#1432,
'DISTANCE_ACCURACY_VALUE',
'Maximum model space distance between geometric entities at asserted c
onnectivities');
#1429=(
GEOMETRIC_REPRESENTATION_CONTEXT(3)
GLOBAL_UNCERTAINTY_ASSIGNED_CONTEXT((#1426))
GLOBAL_UNIT_ASSIGNED_CONTEXT((#1432,#1434,#1435))
REPRESENTATION_CONTEXT('','3D')
);
#1430=(
GEOMETRIC_REPRESENTATION_CONTEXT(3)
GLOBAL_UNCERTAINTY_ASSIGNED_CONTEXT((#1427))
GLOBAL_UNIT_ASSIGNED_CONTEXT((#1432,#1434,#1435))
REPRESENTATION_CONTEXT('','3D')
);
#1431=(
GEOMETRIC_REPRESENTATION_CONTEXT(3)
GLOBAL_UNCERTAINTY_ASSIGNED_CONTEXT((#1428))
GLOBAL_UNIT_ASSIGNED_CONTEXT((#1432,#1434,#1435))
REPRESENTATION_CONTEXT('','3D')
);
#1432=(
LENGTH_UNIT()
NAMED_UNIT(*)
SI_UNIT(.MILLI.,.METRE.)
);
#1433=(
LENGTH_UNIT()
NAMED_UNIT(*)
SI_UNIT($,.METRE.)
);
#1434=(
NAMED_UNIT(*)
PLANE_ANGLE_UNIT()
SI_UNIT($,.RADIAN.)
);
#1435=(
NAMED_UNIT(*)
SI_UNIT($,.STERADIAN.)
SOLID_ANGLE_UNIT()
);
#1436=SHAPE_DEFINITION_REPRESENTATION(#1438,#1441);
#1437=SHAPE_DEFINITION_REPRESENTATION(#1439,#1442);
#1438=PRODUCT_DEFINITION_SHAPE('',$,#1444);
#1439=PRODUCT_DEFINITION_SHAPE('',$,#1445);
#1440=PRODUCT_DEFINITION_SHAPE($,$,#14);
#1441=SHAPE_REPRESENTATION('',(#918,#961),#1429);
#1442=SHAPE_REPRESENTATION('',(#919),#1430);
#1443=PRODUCT_DEFINITION_CONTEXT('part definition',#1451,'design');
#1444=PRODUCT_DEFINITION('K2-1104','hmi tyl v2',#1446,#1443);
#1445=PRODUCT_DEFINITION('Bez nazwy v1','Bez nazwy v1',#1447,#1443);
#1446=PRODUCT_DEFINITION_FORMATION('',$,#1453);
#1447=PRODUCT_DEFINITION_FORMATION('',$,#1454);
#1448=PRODUCT_RELATED_PRODUCT_CATEGORY('hmi tyl v2','hmi tyl v2',(#1453));
#1449=PRODUCT_RELATED_PRODUCT_CATEGORY('Bez nazwy v1','Bez nazwy v1',(#1454));
#1450=APPLICATION_PROTOCOL_DEFINITION('international standard',
'automotive_design',2009,#1451);
#1451=APPLICATION_CONTEXT(
'Core Data for Automotive Mechanical Design Process');
#1452=PRODUCT_CONTEXT('part definition',#1451,'mechanical');
#1453=PRODUCT('K2-1104','hmi tyl v2',
'Linia produkcyjna Politechnika Pozna\X2\0144\X0\saka',(#1452));
#1454=PRODUCT('Bez nazwy v1','Bez nazwy v1',$,(#1452));
#1455=PRESENTATION_STYLE_ASSIGNMENT((#1457));
#1456=PRESENTATION_STYLE_ASSIGNMENT((#1458));
#1457=SURFACE_STYLE_USAGE(.BOTH.,#1459);
#1458=SURFACE_STYLE_USAGE(.BOTH.,#1460);
#1459=SURFACE_SIDE_STYLE('',(#1461));
#1460=SURFACE_SIDE_STYLE('',(#1462));
#1461=SURFACE_STYLE_FILL_AREA(#1463);
#1462=SURFACE_STYLE_FILL_AREA(#1464);
#1463=FILL_AREA_STYLE('Stal \X2\2014\X0\ satynowa',(#1465));
#1464=FILL_AREA_STYLE('ABS (bia\X2\0142\X0\y)',(#1466));
#1465=FILL_AREA_STYLE_COLOUR('Stal \X2\2014\X0\ satynowa',#1467);
#1466=FILL_AREA_STYLE_COLOUR('ABS (bia\X2\0142\X0\y)',#1468);
#1467=COLOUR_RGB('Stal \X2\2014\X0\ satynowa',0.627450980392157,0.627450980392157,
0.627450980392157);
#1468=COLOUR_RGB('ABS (bia\X2\0142\X0\y)',1.,0.568627450980392,0.);
ENDSEC;
END-ISO-10303-21;
