ISO-10303-21;
HEADER;
/* Generated by software containing ST-Developer
 * from STEP Tools, Inc. (www.steptools.com) 
 */

FILE_DESCRIPTION(
/* description */ (''),
/* implementation_level */ '2;1');

FILE_NAME(
/* name */ 'Paletka.step',
/* time_stamp */ '2026-09-04T13:55:48+02:00',
/* author */ (''),
/* organization */ (''),
/* preprocessor_version */ 'ST-DEVELOPER v20.1',
/* originating_system */ 'Autodesk Translation Framework v15.8.0.0',
/* authorisation */ '');

FILE_SCHEMA (('AUTOMOTIVE_DESIGN { 1 0 10303 214 3 1 1 }'));
ENDSEC;

DATA;
#10=MECHANICAL_DESIGN_GEOMETRIC_PRESENTATION_REPRESENTATION('',(#13),#2119);
#11=SHAPE_REPRESENTATION_RELATIONSHIP('SRR','None',#2126,#12);
#12=ADVANCED_BREP_SHAPE_REPRESENTATION('',(#14),#2118);
#13=STYLED_ITEM('',(#2136),#14);
#14=MANIFOLD_SOLID_BREP('Bry\X2\0142\X0\a1',#1237);
#15=FACE_BOUND('',#424,.T.);
#16=FACE_BOUND('',#431,.T.);
#17=FACE_BOUND('',#435,.T.);
#18=PLANE('',#1280);
#19=PLANE('',#1281);
#20=PLANE('',#1284);
#21=PLANE('',#1287);
#22=PLANE('',#1331);
#23=PLANE('',#1332);
#24=PLANE('',#1333);
#25=PLANE('',#1336);
#26=PLANE('',#1337);
#27=PLANE('',#1342);
#28=PLANE('',#1348);
#29=PLANE('',#1349);
#30=PLANE('',#1350);
#31=PLANE('',#1351);
#32=PLANE('',#1352);
#33=PLANE('',#1353);
#34=PLANE('',#1354);
#35=PLANE('',#1355);
#36=PLANE('',#1356);
#37=PLANE('',#1357);
#38=PLANE('',#1358);
#39=PLANE('',#1361);
#40=PLANE('',#1364);
#41=PLANE('',#1367);
#42=PLANE('',#1370);
#43=PLANE('',#1371);
#44=PLANE('',#1372);
#45=PLANE('',#1373);
#46=PLANE('',#1374);
#47=PLANE('',#1375);
#48=PLANE('',#1376);
#49=PLANE('',#1377);
#50=PLANE('',#1378);
#51=PLANE('',#1379);
#52=TOROIDAL_SURFACE('',#1264,4.5,0.5);
#53=TOROIDAL_SURFACE('',#1275,4.5,0.5);
#54=TOROIDAL_SURFACE('',#1297,4.5,0.5);
#55=TOROIDAL_SURFACE('',#1310,10.5,0.5);
#56=TOROIDAL_SURFACE('',#1314,9.5,0.5);
#57=TOROIDAL_SURFACE('',#1318,10.5,0.5);
#58=TOROIDAL_SURFACE('',#1325,4.5,0.5);
#59=LINE('',#1777,#177);
#60=LINE('',#1778,#178);
#61=LINE('',#1780,#179);
#62=LINE('',#1781,#180);
#63=LINE('',#1786,#181);
#64=LINE('',#1787,#182);
#65=LINE('',#1798,#183);
#66=LINE('',#1799,#184);
#67=LINE('',#1804,#185);
#68=LINE('',#1805,#186);
#69=LINE('',#1811,#187);
#70=LINE('',#1814,#188);
#71=LINE('',#1822,#189);
#72=LINE('',#1823,#190);
#73=LINE('',#1825,#191);
#74=LINE('',#1828,#192);
#75=LINE('',#1830,#193);
#76=LINE('',#1832,#194);
#77=LINE('',#1834,#195);
#78=LINE('',#1835,#196);
#79=LINE('',#1838,#197);
#80=LINE('',#1842,#198);
#81=LINE('',#1844,#199);
#82=LINE('',#1846,#200);
#83=LINE('',#1847,#201);
#84=LINE('',#1850,#202);
#85=LINE('',#1854,#203);
#86=LINE('',#1856,#204);
#87=LINE('',#1858,#205);
#88=LINE('',#1859,#206);
#89=LINE('',#1871,#207);
#90=LINE('',#1872,#208);
#91=LINE('',#1878,#209);
#92=LINE('',#1881,#210);
#93=LINE('',#1889,#211);
#94=LINE('',#1890,#212);
#95=LINE('',#1902,#213);
#96=LINE('',#1903,#214);
#97=LINE('',#1908,#215);
#98=LINE('',#1909,#216);
#99=LINE('',#1929,#217);
#100=LINE('',#1930,#218);
#101=LINE('',#1935,#219);
#102=LINE('',#1936,#220);
#103=LINE('',#1947,#221);
#104=LINE('',#1948,#222);
#105=LINE('',#1950,#223);
#106=LINE('',#1952,#224);
#107=LINE('',#1955,#225);
#108=LINE('',#1957,#226);
#109=LINE('',#1959,#227);
#110=LINE('',#1961,#228);
#111=LINE('',#1963,#229);
#112=LINE('',#1965,#230);
#113=LINE('',#1967,#231);
#114=LINE('',#1968,#232);
#115=LINE('',#1972,#233);
#116=LINE('',#1973,#234);
#117=LINE('',#1975,#235);
#118=LINE('',#1977,#236);
#119=LINE('',#1978,#237);
#120=LINE('',#1983,#238);
#121=LINE('',#1986,#239);
#122=LINE('',#1990,#240);
#123=LINE('',#1994,#241);
#124=LINE('',#1998,#242);
#125=LINE('',#2002,#243);
#126=LINE('',#2006,#244);
#127=LINE('',#2008,#245);
#128=LINE('',#2010,#246);
#129=LINE('',#2012,#247);
#130=LINE('',#2014,#248);
#131=LINE('',#2016,#249);
#132=LINE('',#2018,#250);
#133=LINE('',#2019,#251);
#134=LINE('',#2021,#252);
#135=LINE('',#2022,#253);
#136=LINE('',#2024,#254);
#137=LINE('',#2026,#255);
#138=LINE('',#2028,#256);
#139=LINE('',#2030,#257);
#140=LINE('',#2032,#258);
#141=LINE('',#2035,#259);
#142=LINE('',#2037,#260);
#143=LINE('',#2039,#261);
#144=LINE('',#2041,#262);
#145=LINE('',#2042,#263);
#146=LINE('',#2044,#264);
#147=LINE('',#2050,#265);
#148=LINE('',#2053,#266);
#149=LINE('',#2055,#267);
#150=LINE('',#2056,#268);
#151=LINE('',#2059,#269);
#152=LINE('',#2063,#270);
#153=LINE('',#2065,#271);
#154=LINE('',#2067,#272);
#155=LINE('',#2068,#273);
#156=LINE('',#2073,#274);
#157=LINE('',#2075,#275);
#158=LINE('',#2076,#276);
#159=LINE('',#2081,#277);
#160=LINE('',#2083,#278);
#161=LINE('',#2085,#279);
#162=LINE('',#2086,#280);
#163=LINE('',#2089,#281);
#164=LINE('',#2091,#282);
#165=LINE('',#2093,#283);
#166=LINE('',#2094,#284);
#167=LINE('',#2097,#285);
#168=LINE('',#2098,#286);
#169=LINE('',#2099,#287);
#170=LINE('',#2102,#288);
#171=LINE('',#2104,#289);
#172=LINE('',#2105,#290);
#173=LINE('',#2107,#291);
#174=LINE('',#2109,#292);
#175=LINE('',#2111,#293);
#176=LINE('',#2113,#294);
#177=VECTOR('',#1402,10.);
#178=VECTOR('',#1403,10.);
#179=VECTOR('',#1406,10.);
#180=VECTOR('',#1407,10.);
#181=VECTOR('',#1412,10.);
#182=VECTOR('',#1413,10.);
#183=VECTOR('',#1426,10.);
#184=VECTOR('',#1427,10.);
#185=VECTOR('',#1432,10.);
#186=VECTOR('',#1433,10.);
#187=VECTOR('',#1438,10.);
#188=VECTOR('',#1441,10.);
#189=VECTOR('',#1452,10.);
#190=VECTOR('',#1453,10.);
#191=VECTOR('',#1456,10.);
#192=VECTOR('',#1459,10.);
#193=VECTOR('',#1460,10.);
#194=VECTOR('',#1461,10.);
#195=VECTOR('',#1462,10.);
#196=VECTOR('',#1463,10.);
#197=VECTOR('',#1466,10.);
#198=VECTOR('',#1471,10.);
#199=VECTOR('',#1472,10.);
#200=VECTOR('',#1473,10.);
#201=VECTOR('',#1474,10.);
#202=VECTOR('',#1477,10.);
#203=VECTOR('',#1482,10.);
#204=VECTOR('',#1483,10.);
#205=VECTOR('',#1484,10.);
#206=VECTOR('',#1485,10.);
#207=VECTOR('',#1498,10.);
#208=VECTOR('',#1499,10.);
#209=VECTOR('',#1504,10.);
#210=VECTOR('',#1507,10.);
#211=VECTOR('',#1518,10.);
#212=VECTOR('',#1519,10.);
#213=VECTOR('',#1532,10.);
#214=VECTOR('',#1533,10.);
#215=VECTOR('',#1538,10.);
#216=VECTOR('',#1539,10.);
#217=VECTOR('',#1566,10.);
#218=VECTOR('',#1567,10.);
#219=VECTOR('',#1572,10.);
#220=VECTOR('',#1573,10.);
#221=VECTOR('',#1586,10.);
#222=VECTOR('',#1587,10.);
#223=VECTOR('',#1590,10.);
#224=VECTOR('',#1593,10.);
#225=VECTOR('',#1594,10.);
#226=VECTOR('',#1595,10.);
#227=VECTOR('',#1596,10.);
#228=VECTOR('',#1597,10.);
#229=VECTOR('',#1598,10.);
#230=VECTOR('',#1599,10.);
#231=VECTOR('',#1600,10.);
#232=VECTOR('',#1601,10.);
#233=VECTOR('',#1606,10.);
#234=VECTOR('',#1607,10.);
#235=VECTOR('',#1608,10.);
#236=VECTOR('',#1611,10.);
#237=VECTOR('',#1612,10.);
#238=VECTOR('',#1619,10.);
#239=VECTOR('',#1622,10.);
#240=VECTOR('',#1627,10.);
#241=VECTOR('',#1632,10.);
#242=VECTOR('',#1637,10.);
#243=VECTOR('',#1642,1.25);
#244=VECTOR('',#1645,10.);
#245=VECTOR('',#1646,10.);
#246=VECTOR('',#1647,10.);
#247=VECTOR('',#1648,10.);
#248=VECTOR('',#1649,10.);
#249=VECTOR('',#1650,10.);
#250=VECTOR('',#1651,10.);
#251=VECTOR('',#1652,10.);
#252=VECTOR('',#1655,10.);
#253=VECTOR('',#1656,10.);
#254=VECTOR('',#1659,10.);
#255=VECTOR('',#1662,10.);
#256=VECTOR('',#1665,10.);
#257=VECTOR('',#1668,10.);
#258=VECTOR('',#1671,10.);
#259=VECTOR('',#1674,10.);
#260=VECTOR('',#1675,10.);
#261=VECTOR('',#1676,10.);
#262=VECTOR('',#1677,10.);
#263=VECTOR('',#1678,10.);
#264=VECTOR('',#1681,10.);
#265=VECTOR('',#1690,10.);
#266=VECTOR('',#1693,10.);
#267=VECTOR('',#1694,10.);
#268=VECTOR('',#1695,10.);
#269=VECTOR('',#1698,10.);
#270=VECTOR('',#1703,10.);
#271=VECTOR('',#1704,10.);
#272=VECTOR('',#1705,10.);
#273=VECTOR('',#1706,10.);
#274=VECTOR('',#1713,10.);
#275=VECTOR('',#1714,10.);
#276=VECTOR('',#1715,10.);
#277=VECTOR('',#1722,10.);
#278=VECTOR('',#1723,10.);
#279=VECTOR('',#1724,10.);
#280=VECTOR('',#1725,10.);
#281=VECTOR('',#1728,10.);
#282=VECTOR('',#1729,10.);
#283=VECTOR('',#1730,10.);
#284=VECTOR('',#1731,10.);
#285=VECTOR('',#1734,10.);
#286=VECTOR('',#1735,10.);
#287=VECTOR('',#1736,10.);
#288=VECTOR('',#1739,10.);
#289=VECTOR('',#1740,10.);
#290=VECTOR('',#1741,10.);
#291=VECTOR('',#1744,10.);
#292=VECTOR('',#1747,10.);
#293=VECTOR('',#1750,10.);
#294=VECTOR('',#1753,10.);
#295=CYLINDRICAL_SURFACE('',#1259,0.5);
#296=CYLINDRICAL_SURFACE('',#1261,0.5);
#297=CYLINDRICAL_SURFACE('',#1262,0.5);
#298=CYLINDRICAL_SURFACE('',#1268,0.5);
#299=CYLINDRICAL_SURFACE('',#1270,0.5);
#300=CYLINDRICAL_SURFACE('',#1272,0.5);
#301=CYLINDRICAL_SURFACE('',#1279,0.5);
#302=CYLINDRICAL_SURFACE('',#1282,5.);
#303=CYLINDRICAL_SURFACE('',#1285,5.);
#304=CYLINDRICAL_SURFACE('',#1292,0.5);
#305=CYLINDRICAL_SURFACE('',#1294,0.5);
#306=CYLINDRICAL_SURFACE('',#1301,0.5);
#307=CYLINDRICAL_SURFACE('',#1306,0.5);
#308=CYLINDRICAL_SURFACE('',#1308,0.5);
#309=CYLINDRICAL_SURFACE('',#1322,0.5);
#310=CYLINDRICAL_SURFACE('',#1323,0.5);
#311=CYLINDRICAL_SURFACE('',#1329,0.5);
#312=CYLINDRICAL_SURFACE('',#1338,10.);
#313=CYLINDRICAL_SURFACE('',#1340,10.);
#314=CYLINDRICAL_SURFACE('',#1345,10.);
#315=CYLINDRICAL_SURFACE('',#1346,1.25);
#316=CYLINDRICAL_SURFACE('',#1359,5.);
#317=CYLINDRICAL_SURFACE('',#1362,5.);
#318=CYLINDRICAL_SURFACE('',#1365,10.);
#319=CYLINDRICAL_SURFACE('',#1368,10.);
#320=FACE_OUTER_BOUND('',#390,.T.);
#321=FACE_OUTER_BOUND('',#391,.T.);
#322=FACE_OUTER_BOUND('',#392,.T.);
#323=FACE_OUTER_BOUND('',#393,.T.);
#324=FACE_OUTER_BOUND('',#394,.T.);
#325=FACE_OUTER_BOUND('',#395,.T.);
#326=FACE_OUTER_BOUND('',#396,.T.);
#327=FACE_OUTER_BOUND('',#397,.T.);
#328=FACE_OUTER_BOUND('',#398,.T.);
#329=FACE_OUTER_BOUND('',#399,.T.);
#330=FACE_OUTER_BOUND('',#400,.T.);
#331=FACE_OUTER_BOUND('',#401,.T.);
#332=FACE_OUTER_BOUND('',#402,.T.);
#333=FACE_OUTER_BOUND('',#403,.T.);
#334=FACE_OUTER_BOUND('',#404,.T.);
#335=FACE_OUTER_BOUND('',#405,.T.);
#336=FACE_OUTER_BOUND('',#406,.T.);
#337=FACE_OUTER_BOUND('',#407,.T.);
#338=FACE_OUTER_BOUND('',#408,.T.);
#339=FACE_OUTER_BOUND('',#409,.T.);
#340=FACE_OUTER_BOUND('',#410,.T.);
#341=FACE_OUTER_BOUND('',#411,.T.);
#342=FACE_OUTER_BOUND('',#412,.T.);
#343=FACE_OUTER_BOUND('',#413,.T.);
#344=FACE_OUTER_BOUND('',#414,.T.);
#345=FACE_OUTER_BOUND('',#415,.T.);
#346=FACE_OUTER_BOUND('',#416,.T.);
#347=FACE_OUTER_BOUND('',#417,.T.);
#348=FACE_OUTER_BOUND('',#418,.T.);
#349=FACE_OUTER_BOUND('',#419,.T.);
#350=FACE_OUTER_BOUND('',#420,.T.);
#351=FACE_OUTER_BOUND('',#421,.T.);
#352=FACE_OUTER_BOUND('',#422,.T.);
#353=FACE_OUTER_BOUND('',#423,.T.);
#354=FACE_OUTER_BOUND('',#425,.T.);
#355=FACE_OUTER_BOUND('',#426,.T.);
#356=FACE_OUTER_BOUND('',#427,.T.);
#357=FACE_OUTER_BOUND('',#428,.T.);
#358=FACE_OUTER_BOUND('',#429,.T.);
#359=FACE_OUTER_BOUND('',#430,.T.);
#360=FACE_OUTER_BOUND('',#432,.T.);
#361=FACE_OUTER_BOUND('',#433,.T.);
#362=FACE_OUTER_BOUND('',#434,.T.);
#363=FACE_OUTER_BOUND('',#436,.T.);
#364=FACE_OUTER_BOUND('',#437,.T.);
#365=FACE_OUTER_BOUND('',#438,.T.);
#366=FACE_OUTER_BOUND('',#439,.T.);
#367=FACE_OUTER_BOUND('',#440,.T.);
#368=FACE_OUTER_BOUND('',#441,.T.);
#369=FACE_OUTER_BOUND('',#442,.T.);
#370=FACE_OUTER_BOUND('',#443,.T.);
#371=FACE_OUTER_BOUND('',#444,.T.);
#372=FACE_OUTER_BOUND('',#445,.T.);
#373=FACE_OUTER_BOUND('',#446,.T.);
#374=FACE_OUTER_BOUND('',#447,.T.);
#375=FACE_OUTER_BOUND('',#448,.T.);
#376=FACE_OUTER_BOUND('',#449,.T.);
#377=FACE_OUTER_BOUND('',#450,.T.);
#378=FACE_OUTER_BOUND('',#451,.T.);
#379=FACE_OUTER_BOUND('',#452,.T.);
#380=FACE_OUTER_BOUND('',#453,.T.);
#381=FACE_OUTER_BOUND('',#454,.T.);
#382=FACE_OUTER_BOUND('',#455,.T.);
#383=FACE_OUTER_BOUND('',#456,.T.);
#384=FACE_OUTER_BOUND('',#457,.T.);
#385=FACE_OUTER_BOUND('',#458,.T.);
#386=FACE_OUTER_BOUND('',#459,.T.);
#387=FACE_OUTER_BOUND('',#460,.T.);
#388=FACE_OUTER_BOUND('',#461,.T.);
#389=FACE_OUTER_BOUND('',#462,.T.);
#390=EDGE_LOOP('',(#809,#810,#811));
#391=EDGE_LOOP('',(#812,#813,#814));
#392=EDGE_LOOP('',(#815,#816,#817,#818));
#393=EDGE_LOOP('',(#819,#820,#821,#822));
#394=EDGE_LOOP('',(#823,#824,#825,#826));
#395=EDGE_LOOP('',(#827,#828,#829,#830));
#396=EDGE_LOOP('',(#831,#832,#833,#834));
#397=EDGE_LOOP('',(#835,#836,#837,#838));
#398=EDGE_LOOP('',(#839,#840,#841,#842));
#399=EDGE_LOOP('',(#843,#844,#845,#846));
#400=EDGE_LOOP('',(#847,#848,#849,#850));
#401=EDGE_LOOP('',(#851,#852,#853,#854,#855));
#402=EDGE_LOOP('',(#856,#857,#858,#859,#860,#861));
#403=EDGE_LOOP('',(#862,#863,#864,#865));
#404=EDGE_LOOP('',(#866,#867,#868,#869,#870,#871,#872,#873));
#405=EDGE_LOOP('',(#874,#875,#876,#877));
#406=EDGE_LOOP('',(#878,#879,#880,#881,#882,#883));
#407=EDGE_LOOP('',(#884,#885,#886));
#408=EDGE_LOOP('',(#887,#888,#889,#890));
#409=EDGE_LOOP('',(#891,#892,#893,#894));
#410=EDGE_LOOP('',(#895,#896,#897,#898));
#411=EDGE_LOOP('',(#899,#900,#901,#902));
#412=EDGE_LOOP('',(#903,#904,#905));
#413=EDGE_LOOP('',(#906,#907,#908,#909));
#414=EDGE_LOOP('',(#910,#911,#912,#913));
#415=EDGE_LOOP('',(#914,#915,#916,#917));
#416=EDGE_LOOP('',(#918,#919,#920,#921));
#417=EDGE_LOOP('',(#922,#923,#924,#925));
#418=EDGE_LOOP('',(#926,#927,#928,#929));
#419=EDGE_LOOP('',(#930,#931,#932,#933));
#420=EDGE_LOOP('',(#934,#935,#936,#937));
#421=EDGE_LOOP('',(#938,#939,#940,#941));
#422=EDGE_LOOP('',(#942,#943,#944,#945,#946));
#423=EDGE_LOOP('',(#947,#948,#949,#950,#951,#952,#953,#954));
#424=EDGE_LOOP('',(#955,#956,#957,#958,#959,#960,#961,#962));
#425=EDGE_LOOP('',(#963,#964,#965,#966,#967,#968,#969,#970,#971,#972,#973,
#974,#975,#976,#977,#978,#979,#980,#981,#982));
#426=EDGE_LOOP('',(#983,#984,#985,#986,#987));
#427=EDGE_LOOP('',(#988,#989,#990,#991,#992));
#428=EDGE_LOOP('',(#993,#994,#995,#996));
#429=EDGE_LOOP('',(#997,#998,#999,#1000));
#430=EDGE_LOOP('',(#1001,#1002,#1003,#1004));
#431=EDGE_LOOP('',(#1005));
#432=EDGE_LOOP('',(#1006,#1007,#1008,#1009));
#433=EDGE_LOOP('',(#1010,#1011,#1012,#1013));
#434=EDGE_LOOP('',(#1014,#1015,#1016,#1017,#1018,#1019,#1020,#1021));
#435=EDGE_LOOP('',(#1022));
#436=EDGE_LOOP('',(#1023,#1024,#1025,#1026));
#437=EDGE_LOOP('',(#1027,#1028,#1029,#1030));
#438=EDGE_LOOP('',(#1031,#1032,#1033,#1034));
#439=EDGE_LOOP('',(#1035,#1036,#1037,#1038));
#440=EDGE_LOOP('',(#1039,#1040,#1041,#1042));
#441=EDGE_LOOP('',(#1043,#1044,#1045,#1046));
#442=EDGE_LOOP('',(#1047,#1048,#1049,#1050,#1051,#1052,#1053,#1054,#1055,
#1056,#1057,#1058));
#443=EDGE_LOOP('',(#1059,#1060,#1061,#1062));
#444=EDGE_LOOP('',(#1063,#1064,#1065,#1066));
#445=EDGE_LOOP('',(#1067,#1068,#1069,#1070));
#446=EDGE_LOOP('',(#1071,#1072,#1073,#1074));
#447=EDGE_LOOP('',(#1075,#1076,#1077,#1078,#1079,#1080));
#448=EDGE_LOOP('',(#1081,#1082,#1083,#1084));
#449=EDGE_LOOP('',(#1085,#1086,#1087,#1088,#1089,#1090,#1091));
#450=EDGE_LOOP('',(#1092,#1093,#1094,#1095));
#451=EDGE_LOOP('',(#1096,#1097,#1098,#1099,#1100,#1101));
#452=EDGE_LOOP('',(#1102,#1103,#1104,#1105));
#453=EDGE_LOOP('',(#1106,#1107,#1108,#1109,#1110,#1111,#1112));
#454=EDGE_LOOP('',(#1113,#1114,#1115,#1116,#1117,#1118,#1119));
#455=EDGE_LOOP('',(#1120,#1121,#1122,#1123,#1124,#1125,#1126,#1127,#1128,
#1129,#1130,#1131));
#456=EDGE_LOOP('',(#1132,#1133,#1134,#1135,#1136,#1137,#1138));
#457=EDGE_LOOP('',(#1139,#1140,#1141,#1142));
#458=EDGE_LOOP('',(#1143,#1144,#1145,#1146));
#459=EDGE_LOOP('',(#1147,#1148,#1149,#1150));
#460=EDGE_LOOP('',(#1151,#1152,#1153,#1154));
#461=EDGE_LOOP('',(#1155,#1156,#1157,#1158));
#462=EDGE_LOOP('',(#1159,#1160,#1161,#1162));
#463=CIRCLE('',#1252,0.5);
#464=CIRCLE('',#1253,0.500000000000007);
#465=CIRCLE('',#1254,0.499999999999998);
#466=CIRCLE('',#1256,0.500000000000007);
#467=CIRCLE('',#1257,0.500000000000007);
#468=CIRCLE('',#1258,0.5);
#469=CIRCLE('',#1260,0.5);
#470=CIRCLE('',#1263,0.5);
#471=CIRCLE('',#1265,0.499999999999998);
#472=CIRCLE('',#1266,4.5);
#473=CIRCLE('',#1267,5.);
#474=CIRCLE('',#1269,0.5);
#475=CIRCLE('',#1271,0.5);
#476=CIRCLE('',#1273,0.5);
#477=CIRCLE('',#1274,0.499999999999998);
#478=CIRCLE('',#1276,0.499999999999999);
#479=CIRCLE('',#1277,4.5);
#480=CIRCLE('',#1278,5.);
#481=CIRCLE('',#1283,5.);
#482=CIRCLE('',#1286,5.);
#483=CIRCLE('',#1289,0.499999999999998);
#484=CIRCLE('',#1290,0.500000000000007);
#485=CIRCLE('',#1291,0.5);
#486=CIRCLE('',#1293,0.5);
#487=CIRCLE('',#1295,0.5);
#488=CIRCLE('',#1296,0.499999999999998);
#489=CIRCLE('',#1298,0.499999999999999);
#490=CIRCLE('',#1299,4.5);
#491=CIRCLE('',#1300,5.);
#492=CIRCLE('',#1303,0.499999999999998);
#493=CIRCLE('',#1304,0.499999999999998);
#494=CIRCLE('',#1305,0.5);
#495=CIRCLE('',#1307,0.5);
#496=CIRCLE('',#1309,0.5);
#497=CIRCLE('',#1311,0.500000000000004);
#498=CIRCLE('',#1312,10.5);
#499=CIRCLE('',#1313,10.);
#500=CIRCLE('',#1315,0.500000000000002);
#501=CIRCLE('',#1316,9.5);
#502=CIRCLE('',#1317,10.);
#503=CIRCLE('',#1319,0.499999999999999);
#504=CIRCLE('',#1320,10.5);
#505=CIRCLE('',#1321,10.);
#506=CIRCLE('',#1324,0.5);
#507=CIRCLE('',#1326,0.499999999999998);
#508=CIRCLE('',#1327,4.5);
#509=CIRCLE('',#1328,5.);
#510=CIRCLE('',#1330,0.5);
#511=CIRCLE('',#1334,10.);
#512=CIRCLE('',#1335,10.);
#513=CIRCLE('',#1339,10.);
#514=CIRCLE('',#1341,10.);
#515=CIRCLE('',#1343,10.);
#516=CIRCLE('',#1344,1.25);
#517=CIRCLE('',#1347,1.25);
#518=CIRCLE('',#1360,5.);
#519=CIRCLE('',#1363,5.);
#520=CIRCLE('',#1366,10.);
#521=CIRCLE('',#1369,10.);
#522=VERTEX_POINT('',#1760);
#523=VERTEX_POINT('',#1761);
#524=VERTEX_POINT('',#1763);
#525=VERTEX_POINT('',#1767);
#526=VERTEX_POINT('',#1768);
#527=VERTEX_POINT('',#1770);
#528=VERTEX_POINT('',#1774);
#529=VERTEX_POINT('',#1775);
#530=VERTEX_POINT('',#1783);
#531=VERTEX_POINT('',#1784);
#532=VERTEX_POINT('',#1789);
#533=VERTEX_POINT('',#1790);
#534=VERTEX_POINT('',#1795);
#535=VERTEX_POINT('',#1796);
#536=VERTEX_POINT('',#1801);
#537=VERTEX_POINT('',#1802);
#538=VERTEX_POINT('',#1807);
#539=VERTEX_POINT('',#1808);
#540=VERTEX_POINT('',#1810);
#541=VERTEX_POINT('',#1812);
#542=VERTEX_POINT('',#1816);
#543=VERTEX_POINT('',#1817);
#544=VERTEX_POINT('',#1827);
#545=VERTEX_POINT('',#1829);
#546=VERTEX_POINT('',#1831);
#547=VERTEX_POINT('',#1833);
#548=VERTEX_POINT('',#1837);
#549=VERTEX_POINT('',#1841);
#550=VERTEX_POINT('',#1843);
#551=VERTEX_POINT('',#1845);
#552=VERTEX_POINT('',#1849);
#553=VERTEX_POINT('',#1853);
#554=VERTEX_POINT('',#1855);
#555=VERTEX_POINT('',#1857);
#556=VERTEX_POINT('',#1861);
#557=VERTEX_POINT('',#1862);
#558=VERTEX_POINT('',#1864);
#559=VERTEX_POINT('',#1868);
#560=VERTEX_POINT('',#1869);
#561=VERTEX_POINT('',#1874);
#562=VERTEX_POINT('',#1875);
#563=VERTEX_POINT('',#1877);
#564=VERTEX_POINT('',#1879);
#565=VERTEX_POINT('',#1883);
#566=VERTEX_POINT('',#1884);
#567=VERTEX_POINT('',#1892);
#568=VERTEX_POINT('',#1893);
#569=VERTEX_POINT('',#1895);
#570=VERTEX_POINT('',#1899);
#571=VERTEX_POINT('',#1900);
#572=VERTEX_POINT('',#1905);
#573=VERTEX_POINT('',#1906);
#574=VERTEX_POINT('',#1911);
#575=VERTEX_POINT('',#1912);
#576=VERTEX_POINT('',#1917);
#577=VERTEX_POINT('',#1918);
#578=VERTEX_POINT('',#1923);
#579=VERTEX_POINT('',#1924);
#580=VERTEX_POINT('',#1932);
#581=VERTEX_POINT('',#1933);
#582=VERTEX_POINT('',#1938);
#583=VERTEX_POINT('',#1939);
#584=VERTEX_POINT('',#1944);
#585=VERTEX_POINT('',#1945);
#586=VERTEX_POINT('',#1953);
#587=VERTEX_POINT('',#1954);
#588=VERTEX_POINT('',#1956);
#589=VERTEX_POINT('',#1958);
#590=VERTEX_POINT('',#1960);
#591=VERTEX_POINT('',#1962);
#592=VERTEX_POINT('',#1964);
#593=VERTEX_POINT('',#1966);
#594=VERTEX_POINT('',#1970);
#595=VERTEX_POINT('',#1974);
#596=VERTEX_POINT('',#1982);
#597=VERTEX_POINT('',#1984);
#598=VERTEX_POINT('',#1988);
#599=VERTEX_POINT('',#1992);
#600=VERTEX_POINT('',#1995);
#601=VERTEX_POINT('',#2000);
#602=VERTEX_POINT('',#2004);
#603=VERTEX_POINT('',#2005);
#604=VERTEX_POINT('',#2007);
#605=VERTEX_POINT('',#2009);
#606=VERTEX_POINT('',#2011);
#607=VERTEX_POINT('',#2013);
#608=VERTEX_POINT('',#2015);
#609=VERTEX_POINT('',#2017);
#610=VERTEX_POINT('',#2034);
#611=VERTEX_POINT('',#2036);
#612=VERTEX_POINT('',#2038);
#613=VERTEX_POINT('',#2040);
#614=VERTEX_POINT('',#2048);
#615=VERTEX_POINT('',#2052);
#616=VERTEX_POINT('',#2054);
#617=VERTEX_POINT('',#2058);
#618=VERTEX_POINT('',#2062);
#619=VERTEX_POINT('',#2064);
#620=VERTEX_POINT('',#2066);
#621=VERTEX_POINT('',#2072);
#622=VERTEX_POINT('',#2074);
#623=VERTEX_POINT('',#2080);
#624=VERTEX_POINT('',#2082);
#625=VERTEX_POINT('',#2084);
#626=VERTEX_POINT('',#2088);
#627=VERTEX_POINT('',#2090);
#628=VERTEX_POINT('',#2092);
#629=VERTEX_POINT('',#2096);
#630=VERTEX_POINT('',#2101);
#631=VERTEX_POINT('',#2103);
#632=EDGE_CURVE('',#522,#523,#463,.F.);
#633=EDGE_CURVE('',#524,#522,#464,.F.);
#634=EDGE_CURVE('',#523,#524,#465,.F.);
#635=EDGE_CURVE('',#525,#526,#466,.F.);
#636=EDGE_CURVE('',#527,#525,#467,.F.);
#637=EDGE_CURVE('',#526,#527,#468,.F.);
#638=EDGE_CURVE('',#528,#529,#469,.T.);
#639=EDGE_CURVE('',#529,#527,#59,.T.);
#640=EDGE_CURVE('',#525,#528,#60,.T.);
#641=EDGE_CURVE('',#527,#524,#61,.T.);
#642=EDGE_CURVE('',#522,#526,#62,.T.);
#643=EDGE_CURVE('',#530,#531,#470,.T.);
#644=EDGE_CURVE('',#531,#525,#63,.T.);
#645=EDGE_CURVE('',#526,#530,#64,.T.);
#646=EDGE_CURVE('',#532,#533,#471,.T.);
#647=EDGE_CURVE('',#533,#531,#472,.T.);
#648=EDGE_CURVE('',#530,#532,#473,.T.);
#649=EDGE_CURVE('',#534,#535,#474,.T.);
#650=EDGE_CURVE('',#535,#533,#65,.T.);
#651=EDGE_CURVE('',#532,#534,#66,.T.);
#652=EDGE_CURVE('',#536,#537,#475,.T.);
#653=EDGE_CURVE('',#537,#523,#67,.T.);
#654=EDGE_CURVE('',#524,#536,#68,.T.);
#655=EDGE_CURVE('',#538,#539,#476,.T.);
#656=EDGE_CURVE('',#539,#540,#69,.T.);
#657=EDGE_CURVE('',#540,#541,#477,.T.);
#658=EDGE_CURVE('',#541,#538,#70,.T.);
#659=EDGE_CURVE('',#542,#543,#478,.T.);
#660=EDGE_CURVE('',#543,#541,#479,.T.);
#661=EDGE_CURVE('',#540,#542,#480,.T.);
#662=EDGE_CURVE('',#523,#543,#71,.T.);
#663=EDGE_CURVE('',#542,#522,#72,.T.);
#664=EDGE_CURVE('',#528,#535,#73,.T.);
#665=EDGE_CURVE('',#544,#532,#74,.T.);
#666=EDGE_CURVE('',#545,#544,#75,.T.);
#667=EDGE_CURVE('',#546,#545,#76,.T.);
#668=EDGE_CURVE('',#546,#547,#77,.T.);
#669=EDGE_CURVE('',#534,#547,#78,.T.);
#670=EDGE_CURVE('',#530,#548,#79,.T.);
#671=EDGE_CURVE('',#548,#544,#481,.T.);
#672=EDGE_CURVE('',#549,#542,#80,.T.);
#673=EDGE_CURVE('',#549,#550,#81,.T.);
#674=EDGE_CURVE('',#550,#551,#82,.T.);
#675=EDGE_CURVE('',#551,#548,#83,.T.);
#676=EDGE_CURVE('',#540,#552,#84,.T.);
#677=EDGE_CURVE('',#552,#549,#482,.T.);
#678=EDGE_CURVE('',#553,#539,#85,.T.);
#679=EDGE_CURVE('',#554,#553,#86,.T.);
#680=EDGE_CURVE('',#555,#554,#87,.T.);
#681=EDGE_CURVE('',#552,#555,#88,.T.);
#682=EDGE_CURVE('',#556,#557,#483,.F.);
#683=EDGE_CURVE('',#558,#556,#484,.F.);
#684=EDGE_CURVE('',#557,#558,#485,.F.);
#685=EDGE_CURVE('',#559,#560,#486,.T.);
#686=EDGE_CURVE('',#560,#558,#89,.T.);
#687=EDGE_CURVE('',#556,#559,#90,.T.);
#688=EDGE_CURVE('',#561,#562,#487,.T.);
#689=EDGE_CURVE('',#562,#563,#91,.T.);
#690=EDGE_CURVE('',#563,#564,#488,.T.);
#691=EDGE_CURVE('',#564,#561,#92,.T.);
#692=EDGE_CURVE('',#565,#566,#489,.T.);
#693=EDGE_CURVE('',#566,#564,#490,.T.);
#694=EDGE_CURVE('',#563,#565,#491,.T.);
#695=EDGE_CURVE('',#558,#566,#93,.T.);
#696=EDGE_CURVE('',#565,#557,#94,.T.);
#697=EDGE_CURVE('',#567,#568,#492,.F.);
#698=EDGE_CURVE('',#569,#567,#493,.F.);
#699=EDGE_CURVE('',#568,#569,#494,.F.);
#700=EDGE_CURVE('',#570,#571,#495,.T.);
#701=EDGE_CURVE('',#571,#569,#95,.T.);
#702=EDGE_CURVE('',#567,#570,#96,.T.);
#703=EDGE_CURVE('',#572,#573,#496,.T.);
#704=EDGE_CURVE('',#573,#556,#97,.T.);
#705=EDGE_CURVE('',#557,#572,#98,.T.);
#706=EDGE_CURVE('',#574,#575,#497,.T.);
#707=EDGE_CURVE('',#575,#573,#498,.T.);
#708=EDGE_CURVE('',#572,#574,#499,.T.);
#709=EDGE_CURVE('',#576,#577,#500,.T.);
#710=EDGE_CURVE('',#577,#575,#501,.T.);
#711=EDGE_CURVE('',#574,#576,#502,.T.);
#712=EDGE_CURVE('',#578,#579,#503,.T.);
#713=EDGE_CURVE('',#579,#577,#504,.T.);
#714=EDGE_CURVE('',#576,#578,#505,.T.);
#715=EDGE_CURVE('',#569,#579,#99,.T.);
#716=EDGE_CURVE('',#578,#568,#100,.T.);
#717=EDGE_CURVE('',#580,#581,#506,.T.);
#718=EDGE_CURVE('',#581,#567,#101,.T.);
#719=EDGE_CURVE('',#568,#580,#102,.T.);
#720=EDGE_CURVE('',#582,#583,#507,.T.);
#721=EDGE_CURVE('',#583,#581,#508,.T.);
#722=EDGE_CURVE('',#580,#582,#509,.T.);
#723=EDGE_CURVE('',#584,#585,#510,.T.);
#724=EDGE_CURVE('',#585,#583,#103,.T.);
#725=EDGE_CURVE('',#582,#584,#104,.T.);
#726=EDGE_CURVE('',#561,#560,#105,.T.);
#727=EDGE_CURVE('',#559,#571,#106,.T.);
#728=EDGE_CURVE('',#586,#587,#107,.T.);
#729=EDGE_CURVE('',#588,#587,#108,.T.);
#730=EDGE_CURVE('',#589,#588,#109,.T.);
#731=EDGE_CURVE('',#589,#590,#110,.T.);
#732=EDGE_CURVE('',#590,#591,#111,.T.);
#733=EDGE_CURVE('',#591,#592,#112,.T.);
#734=EDGE_CURVE('',#592,#593,#113,.T.);
#735=EDGE_CURVE('',#593,#586,#114,.T.);
#736=EDGE_CURVE('',#547,#594,#511,.T.);
#737=EDGE_CURVE('',#594,#562,#115,.T.);
#738=EDGE_CURVE('',#570,#585,#116,.T.);
#739=EDGE_CURVE('',#584,#595,#117,.T.);
#740=EDGE_CURVE('',#595,#553,#512,.T.);
#741=EDGE_CURVE('',#538,#537,#118,.T.);
#742=EDGE_CURVE('',#536,#529,#119,.T.);
#743=EDGE_CURVE('',#574,#596,#120,.T.);
#744=EDGE_CURVE('',#596,#597,#513,.T.);
#745=EDGE_CURVE('',#597,#576,#121,.T.);
#746=EDGE_CURVE('',#598,#597,#514,.F.);
#747=EDGE_CURVE('',#598,#578,#122,.T.);
#748=EDGE_CURVE('',#599,#596,#515,.T.);
#749=EDGE_CURVE('',#598,#599,#123,.T.);
#750=EDGE_CURVE('',#600,#600,#516,.T.);
#751=EDGE_CURVE('',#572,#599,#124,.T.);
#752=EDGE_CURVE('',#601,#601,#517,.T.);
#753=EDGE_CURVE('',#601,#600,#125,.T.);
#754=EDGE_CURVE('',#602,#603,#126,.T.);
#755=EDGE_CURVE('',#604,#602,#127,.T.);
#756=EDGE_CURVE('',#605,#604,#128,.T.);
#757=EDGE_CURVE('',#605,#606,#129,.T.);
#758=EDGE_CURVE('',#606,#607,#130,.T.);
#759=EDGE_CURVE('',#607,#608,#131,.T.);
#760=EDGE_CURVE('',#608,#609,#132,.T.);
#761=EDGE_CURVE('',#609,#603,#133,.T.);
#762=EDGE_CURVE('',#586,#603,#134,.T.);
#763=EDGE_CURVE('',#587,#609,#135,.T.);
#764=EDGE_CURVE('',#593,#602,#136,.T.);
#765=EDGE_CURVE('',#592,#604,#137,.T.);
#766=EDGE_CURVE('',#591,#605,#138,.T.);
#767=EDGE_CURVE('',#590,#606,#139,.T.);
#768=EDGE_CURVE('',#589,#607,#140,.T.);
#769=EDGE_CURVE('',#610,#565,#141,.T.);
#770=EDGE_CURVE('',#610,#611,#142,.T.);
#771=EDGE_CURVE('',#611,#612,#143,.T.);
#772=EDGE_CURVE('',#612,#613,#144,.T.);
#773=EDGE_CURVE('',#580,#613,#145,.T.);
#774=EDGE_CURVE('',#588,#608,#146,.T.);
#775=EDGE_CURVE('',#613,#614,#518,.T.);
#776=EDGE_CURVE('',#614,#582,#147,.T.);
#777=EDGE_CURVE('',#615,#614,#148,.T.);
#778=EDGE_CURVE('',#616,#615,#149,.T.);
#779=EDGE_CURVE('',#616,#595,#150,.T.);
#780=EDGE_CURVE('',#563,#617,#151,.T.);
#781=EDGE_CURVE('',#617,#610,#519,.T.);
#782=EDGE_CURVE('',#618,#551,#152,.T.);
#783=EDGE_CURVE('',#618,#619,#153,.T.);
#784=EDGE_CURVE('',#620,#619,#154,.T.);
#785=EDGE_CURVE('',#620,#545,#155,.T.);
#786=EDGE_CURVE('',#554,#616,#520,.T.);
#787=EDGE_CURVE('',#621,#594,#156,.T.);
#788=EDGE_CURVE('',#622,#621,#157,.T.);
#789=EDGE_CURVE('',#617,#622,#158,.T.);
#790=EDGE_CURVE('',#621,#546,#521,.T.);
#791=EDGE_CURVE('',#623,#612,#159,.T.);
#792=EDGE_CURVE('',#623,#624,#160,.T.);
#793=EDGE_CURVE('',#625,#624,#161,.T.);
#794=EDGE_CURVE('',#625,#615,#162,.T.);
#795=EDGE_CURVE('',#555,#626,#163,.T.);
#796=EDGE_CURVE('',#626,#627,#164,.T.);
#797=EDGE_CURVE('',#627,#628,#165,.T.);
#798=EDGE_CURVE('',#628,#550,#166,.T.);
#799=EDGE_CURVE('',#629,#625,#167,.T.);
#800=EDGE_CURVE('',#622,#629,#168,.T.);
#801=EDGE_CURVE('',#626,#620,#169,.T.);
#802=EDGE_CURVE('',#629,#630,#170,.T.);
#803=EDGE_CURVE('',#630,#631,#171,.T.);
#804=EDGE_CURVE('',#631,#611,#172,.T.);
#805=EDGE_CURVE('',#631,#623,#173,.T.);
#806=EDGE_CURVE('',#628,#618,#174,.T.);
#807=EDGE_CURVE('',#630,#624,#175,.T.);
#808=EDGE_CURVE('',#627,#619,#176,.T.);
#809=ORIENTED_EDGE('',*,*,#632,.F.);
#810=ORIENTED_EDGE('',*,*,#633,.F.);
#811=ORIENTED_EDGE('',*,*,#634,.F.);
#812=ORIENTED_EDGE('',*,*,#635,.F.);
#813=ORIENTED_EDGE('',*,*,#636,.F.);
#814=ORIENTED_EDGE('',*,*,#637,.F.);
#815=ORIENTED_EDGE('',*,*,#638,.T.);
#816=ORIENTED_EDGE('',*,*,#639,.T.);
#817=ORIENTED_EDGE('',*,*,#636,.T.);
#818=ORIENTED_EDGE('',*,*,#640,.T.);
#819=ORIENTED_EDGE('',*,*,#637,.T.);
#820=ORIENTED_EDGE('',*,*,#641,.T.);
#821=ORIENTED_EDGE('',*,*,#633,.T.);
#822=ORIENTED_EDGE('',*,*,#642,.T.);
#823=ORIENTED_EDGE('',*,*,#643,.T.);
#824=ORIENTED_EDGE('',*,*,#644,.T.);
#825=ORIENTED_EDGE('',*,*,#635,.T.);
#826=ORIENTED_EDGE('',*,*,#645,.T.);
#827=ORIENTED_EDGE('',*,*,#646,.T.);
#828=ORIENTED_EDGE('',*,*,#647,.T.);
#829=ORIENTED_EDGE('',*,*,#643,.F.);
#830=ORIENTED_EDGE('',*,*,#648,.T.);
#831=ORIENTED_EDGE('',*,*,#649,.T.);
#832=ORIENTED_EDGE('',*,*,#650,.T.);
#833=ORIENTED_EDGE('',*,*,#646,.F.);
#834=ORIENTED_EDGE('',*,*,#651,.T.);
#835=ORIENTED_EDGE('',*,*,#652,.T.);
#836=ORIENTED_EDGE('',*,*,#653,.T.);
#837=ORIENTED_EDGE('',*,*,#634,.T.);
#838=ORIENTED_EDGE('',*,*,#654,.T.);
#839=ORIENTED_EDGE('',*,*,#655,.T.);
#840=ORIENTED_EDGE('',*,*,#656,.T.);
#841=ORIENTED_EDGE('',*,*,#657,.T.);
#842=ORIENTED_EDGE('',*,*,#658,.T.);
#843=ORIENTED_EDGE('',*,*,#659,.T.);
#844=ORIENTED_EDGE('',*,*,#660,.T.);
#845=ORIENTED_EDGE('',*,*,#657,.F.);
#846=ORIENTED_EDGE('',*,*,#661,.T.);
#847=ORIENTED_EDGE('',*,*,#632,.T.);
#848=ORIENTED_EDGE('',*,*,#662,.T.);
#849=ORIENTED_EDGE('',*,*,#659,.F.);
#850=ORIENTED_EDGE('',*,*,#663,.T.);
#851=ORIENTED_EDGE('',*,*,#640,.F.);
#852=ORIENTED_EDGE('',*,*,#644,.F.);
#853=ORIENTED_EDGE('',*,*,#647,.F.);
#854=ORIENTED_EDGE('',*,*,#650,.F.);
#855=ORIENTED_EDGE('',*,*,#664,.F.);
#856=ORIENTED_EDGE('',*,*,#651,.F.);
#857=ORIENTED_EDGE('',*,*,#665,.F.);
#858=ORIENTED_EDGE('',*,*,#666,.F.);
#859=ORIENTED_EDGE('',*,*,#667,.F.);
#860=ORIENTED_EDGE('',*,*,#668,.T.);
#861=ORIENTED_EDGE('',*,*,#669,.F.);
#862=ORIENTED_EDGE('',*,*,#648,.F.);
#863=ORIENTED_EDGE('',*,*,#670,.T.);
#864=ORIENTED_EDGE('',*,*,#671,.T.);
#865=ORIENTED_EDGE('',*,*,#665,.T.);
#866=ORIENTED_EDGE('',*,*,#645,.F.);
#867=ORIENTED_EDGE('',*,*,#642,.F.);
#868=ORIENTED_EDGE('',*,*,#663,.F.);
#869=ORIENTED_EDGE('',*,*,#672,.F.);
#870=ORIENTED_EDGE('',*,*,#673,.T.);
#871=ORIENTED_EDGE('',*,*,#674,.T.);
#872=ORIENTED_EDGE('',*,*,#675,.T.);
#873=ORIENTED_EDGE('',*,*,#670,.F.);
#874=ORIENTED_EDGE('',*,*,#661,.F.);
#875=ORIENTED_EDGE('',*,*,#676,.T.);
#876=ORIENTED_EDGE('',*,*,#677,.T.);
#877=ORIENTED_EDGE('',*,*,#672,.T.);
#878=ORIENTED_EDGE('',*,*,#656,.F.);
#879=ORIENTED_EDGE('',*,*,#678,.F.);
#880=ORIENTED_EDGE('',*,*,#679,.F.);
#881=ORIENTED_EDGE('',*,*,#680,.F.);
#882=ORIENTED_EDGE('',*,*,#681,.F.);
#883=ORIENTED_EDGE('',*,*,#676,.F.);
#884=ORIENTED_EDGE('',*,*,#682,.F.);
#885=ORIENTED_EDGE('',*,*,#683,.F.);
#886=ORIENTED_EDGE('',*,*,#684,.F.);
#887=ORIENTED_EDGE('',*,*,#685,.T.);
#888=ORIENTED_EDGE('',*,*,#686,.T.);
#889=ORIENTED_EDGE('',*,*,#683,.T.);
#890=ORIENTED_EDGE('',*,*,#687,.T.);
#891=ORIENTED_EDGE('',*,*,#688,.T.);
#892=ORIENTED_EDGE('',*,*,#689,.T.);
#893=ORIENTED_EDGE('',*,*,#690,.T.);
#894=ORIENTED_EDGE('',*,*,#691,.T.);
#895=ORIENTED_EDGE('',*,*,#692,.T.);
#896=ORIENTED_EDGE('',*,*,#693,.T.);
#897=ORIENTED_EDGE('',*,*,#690,.F.);
#898=ORIENTED_EDGE('',*,*,#694,.T.);
#899=ORIENTED_EDGE('',*,*,#684,.T.);
#900=ORIENTED_EDGE('',*,*,#695,.T.);
#901=ORIENTED_EDGE('',*,*,#692,.F.);
#902=ORIENTED_EDGE('',*,*,#696,.T.);
#903=ORIENTED_EDGE('',*,*,#697,.F.);
#904=ORIENTED_EDGE('',*,*,#698,.F.);
#905=ORIENTED_EDGE('',*,*,#699,.F.);
#906=ORIENTED_EDGE('',*,*,#700,.T.);
#907=ORIENTED_EDGE('',*,*,#701,.T.);
#908=ORIENTED_EDGE('',*,*,#698,.T.);
#909=ORIENTED_EDGE('',*,*,#702,.T.);
#910=ORIENTED_EDGE('',*,*,#703,.T.);
#911=ORIENTED_EDGE('',*,*,#704,.T.);
#912=ORIENTED_EDGE('',*,*,#682,.T.);
#913=ORIENTED_EDGE('',*,*,#705,.T.);
#914=ORIENTED_EDGE('',*,*,#706,.T.);
#915=ORIENTED_EDGE('',*,*,#707,.T.);
#916=ORIENTED_EDGE('',*,*,#703,.F.);
#917=ORIENTED_EDGE('',*,*,#708,.T.);
#918=ORIENTED_EDGE('',*,*,#709,.T.);
#919=ORIENTED_EDGE('',*,*,#710,.T.);
#920=ORIENTED_EDGE('',*,*,#706,.F.);
#921=ORIENTED_EDGE('',*,*,#711,.T.);
#922=ORIENTED_EDGE('',*,*,#712,.T.);
#923=ORIENTED_EDGE('',*,*,#713,.T.);
#924=ORIENTED_EDGE('',*,*,#709,.F.);
#925=ORIENTED_EDGE('',*,*,#714,.T.);
#926=ORIENTED_EDGE('',*,*,#699,.T.);
#927=ORIENTED_EDGE('',*,*,#715,.T.);
#928=ORIENTED_EDGE('',*,*,#712,.F.);
#929=ORIENTED_EDGE('',*,*,#716,.T.);
#930=ORIENTED_EDGE('',*,*,#717,.T.);
#931=ORIENTED_EDGE('',*,*,#718,.T.);
#932=ORIENTED_EDGE('',*,*,#697,.T.);
#933=ORIENTED_EDGE('',*,*,#719,.T.);
#934=ORIENTED_EDGE('',*,*,#720,.T.);
#935=ORIENTED_EDGE('',*,*,#721,.T.);
#936=ORIENTED_EDGE('',*,*,#717,.F.);
#937=ORIENTED_EDGE('',*,*,#722,.T.);
#938=ORIENTED_EDGE('',*,*,#723,.T.);
#939=ORIENTED_EDGE('',*,*,#724,.T.);
#940=ORIENTED_EDGE('',*,*,#720,.F.);
#941=ORIENTED_EDGE('',*,*,#725,.T.);
#942=ORIENTED_EDGE('',*,*,#691,.F.);
#943=ORIENTED_EDGE('',*,*,#693,.F.);
#944=ORIENTED_EDGE('',*,*,#695,.F.);
#945=ORIENTED_EDGE('',*,*,#686,.F.);
#946=ORIENTED_EDGE('',*,*,#726,.F.);
#947=ORIENTED_EDGE('',*,*,#687,.F.);
#948=ORIENTED_EDGE('',*,*,#704,.F.);
#949=ORIENTED_EDGE('',*,*,#707,.F.);
#950=ORIENTED_EDGE('',*,*,#710,.F.);
#951=ORIENTED_EDGE('',*,*,#713,.F.);
#952=ORIENTED_EDGE('',*,*,#715,.F.);
#953=ORIENTED_EDGE('',*,*,#701,.F.);
#954=ORIENTED_EDGE('',*,*,#727,.F.);
#955=ORIENTED_EDGE('',*,*,#728,.T.);
#956=ORIENTED_EDGE('',*,*,#729,.F.);
#957=ORIENTED_EDGE('',*,*,#730,.F.);
#958=ORIENTED_EDGE('',*,*,#731,.T.);
#959=ORIENTED_EDGE('',*,*,#732,.T.);
#960=ORIENTED_EDGE('',*,*,#733,.T.);
#961=ORIENTED_EDGE('',*,*,#734,.T.);
#962=ORIENTED_EDGE('',*,*,#735,.T.);
#963=ORIENTED_EDGE('',*,*,#638,.F.);
#964=ORIENTED_EDGE('',*,*,#664,.T.);
#965=ORIENTED_EDGE('',*,*,#649,.F.);
#966=ORIENTED_EDGE('',*,*,#669,.T.);
#967=ORIENTED_EDGE('',*,*,#736,.T.);
#968=ORIENTED_EDGE('',*,*,#737,.T.);
#969=ORIENTED_EDGE('',*,*,#688,.F.);
#970=ORIENTED_EDGE('',*,*,#726,.T.);
#971=ORIENTED_EDGE('',*,*,#685,.F.);
#972=ORIENTED_EDGE('',*,*,#727,.T.);
#973=ORIENTED_EDGE('',*,*,#700,.F.);
#974=ORIENTED_EDGE('',*,*,#738,.T.);
#975=ORIENTED_EDGE('',*,*,#723,.F.);
#976=ORIENTED_EDGE('',*,*,#739,.T.);
#977=ORIENTED_EDGE('',*,*,#740,.T.);
#978=ORIENTED_EDGE('',*,*,#678,.T.);
#979=ORIENTED_EDGE('',*,*,#655,.F.);
#980=ORIENTED_EDGE('',*,*,#741,.T.);
#981=ORIENTED_EDGE('',*,*,#652,.F.);
#982=ORIENTED_EDGE('',*,*,#742,.T.);
#983=ORIENTED_EDGE('',*,*,#653,.F.);
#984=ORIENTED_EDGE('',*,*,#741,.F.);
#985=ORIENTED_EDGE('',*,*,#658,.F.);
#986=ORIENTED_EDGE('',*,*,#660,.F.);
#987=ORIENTED_EDGE('',*,*,#662,.F.);
#988=ORIENTED_EDGE('',*,*,#724,.F.);
#989=ORIENTED_EDGE('',*,*,#738,.F.);
#990=ORIENTED_EDGE('',*,*,#702,.F.);
#991=ORIENTED_EDGE('',*,*,#718,.F.);
#992=ORIENTED_EDGE('',*,*,#721,.F.);
#993=ORIENTED_EDGE('',*,*,#711,.F.);
#994=ORIENTED_EDGE('',*,*,#743,.T.);
#995=ORIENTED_EDGE('',*,*,#744,.T.);
#996=ORIENTED_EDGE('',*,*,#745,.T.);
#997=ORIENTED_EDGE('',*,*,#714,.F.);
#998=ORIENTED_EDGE('',*,*,#745,.F.);
#999=ORIENTED_EDGE('',*,*,#746,.F.);
#1000=ORIENTED_EDGE('',*,*,#747,.T.);
#1001=ORIENTED_EDGE('',*,*,#744,.F.);
#1002=ORIENTED_EDGE('',*,*,#748,.F.);
#1003=ORIENTED_EDGE('',*,*,#749,.F.);
#1004=ORIENTED_EDGE('',*,*,#746,.T.);
#1005=ORIENTED_EDGE('',*,*,#750,.T.);
#1006=ORIENTED_EDGE('',*,*,#708,.F.);
#1007=ORIENTED_EDGE('',*,*,#751,.T.);
#1008=ORIENTED_EDGE('',*,*,#748,.T.);
#1009=ORIENTED_EDGE('',*,*,#743,.F.);
#1010=ORIENTED_EDGE('',*,*,#752,.F.);
#1011=ORIENTED_EDGE('',*,*,#753,.T.);
#1012=ORIENTED_EDGE('',*,*,#750,.F.);
#1013=ORIENTED_EDGE('',*,*,#753,.F.);
#1014=ORIENTED_EDGE('',*,*,#754,.F.);
#1015=ORIENTED_EDGE('',*,*,#755,.F.);
#1016=ORIENTED_EDGE('',*,*,#756,.F.);
#1017=ORIENTED_EDGE('',*,*,#757,.T.);
#1018=ORIENTED_EDGE('',*,*,#758,.T.);
#1019=ORIENTED_EDGE('',*,*,#759,.T.);
#1020=ORIENTED_EDGE('',*,*,#760,.T.);
#1021=ORIENTED_EDGE('',*,*,#761,.T.);
#1022=ORIENTED_EDGE('',*,*,#752,.T.);
#1023=ORIENTED_EDGE('',*,*,#728,.F.);
#1024=ORIENTED_EDGE('',*,*,#762,.T.);
#1025=ORIENTED_EDGE('',*,*,#761,.F.);
#1026=ORIENTED_EDGE('',*,*,#763,.F.);
#1027=ORIENTED_EDGE('',*,*,#735,.F.);
#1028=ORIENTED_EDGE('',*,*,#764,.T.);
#1029=ORIENTED_EDGE('',*,*,#754,.T.);
#1030=ORIENTED_EDGE('',*,*,#762,.F.);
#1031=ORIENTED_EDGE('',*,*,#734,.F.);
#1032=ORIENTED_EDGE('',*,*,#765,.T.);
#1033=ORIENTED_EDGE('',*,*,#755,.T.);
#1034=ORIENTED_EDGE('',*,*,#764,.F.);
#1035=ORIENTED_EDGE('',*,*,#733,.F.);
#1036=ORIENTED_EDGE('',*,*,#766,.T.);
#1037=ORIENTED_EDGE('',*,*,#756,.T.);
#1038=ORIENTED_EDGE('',*,*,#765,.F.);
#1039=ORIENTED_EDGE('',*,*,#732,.F.);
#1040=ORIENTED_EDGE('',*,*,#767,.T.);
#1041=ORIENTED_EDGE('',*,*,#757,.F.);
#1042=ORIENTED_EDGE('',*,*,#766,.F.);
#1043=ORIENTED_EDGE('',*,*,#731,.F.);
#1044=ORIENTED_EDGE('',*,*,#768,.T.);
#1045=ORIENTED_EDGE('',*,*,#758,.F.);
#1046=ORIENTED_EDGE('',*,*,#767,.F.);
#1047=ORIENTED_EDGE('',*,*,#696,.F.);
#1048=ORIENTED_EDGE('',*,*,#769,.F.);
#1049=ORIENTED_EDGE('',*,*,#770,.T.);
#1050=ORIENTED_EDGE('',*,*,#771,.T.);
#1051=ORIENTED_EDGE('',*,*,#772,.T.);
#1052=ORIENTED_EDGE('',*,*,#773,.F.);
#1053=ORIENTED_EDGE('',*,*,#719,.F.);
#1054=ORIENTED_EDGE('',*,*,#716,.F.);
#1055=ORIENTED_EDGE('',*,*,#747,.F.);
#1056=ORIENTED_EDGE('',*,*,#749,.T.);
#1057=ORIENTED_EDGE('',*,*,#751,.F.);
#1058=ORIENTED_EDGE('',*,*,#705,.F.);
#1059=ORIENTED_EDGE('',*,*,#763,.T.);
#1060=ORIENTED_EDGE('',*,*,#760,.F.);
#1061=ORIENTED_EDGE('',*,*,#774,.F.);
#1062=ORIENTED_EDGE('',*,*,#729,.T.);
#1063=ORIENTED_EDGE('',*,*,#730,.T.);
#1064=ORIENTED_EDGE('',*,*,#774,.T.);
#1065=ORIENTED_EDGE('',*,*,#759,.F.);
#1066=ORIENTED_EDGE('',*,*,#768,.F.);
#1067=ORIENTED_EDGE('',*,*,#639,.F.);
#1068=ORIENTED_EDGE('',*,*,#742,.F.);
#1069=ORIENTED_EDGE('',*,*,#654,.F.);
#1070=ORIENTED_EDGE('',*,*,#641,.F.);
#1071=ORIENTED_EDGE('',*,*,#722,.F.);
#1072=ORIENTED_EDGE('',*,*,#773,.T.);
#1073=ORIENTED_EDGE('',*,*,#775,.T.);
#1074=ORIENTED_EDGE('',*,*,#776,.T.);
#1075=ORIENTED_EDGE('',*,*,#725,.F.);
#1076=ORIENTED_EDGE('',*,*,#776,.F.);
#1077=ORIENTED_EDGE('',*,*,#777,.F.);
#1078=ORIENTED_EDGE('',*,*,#778,.F.);
#1079=ORIENTED_EDGE('',*,*,#779,.T.);
#1080=ORIENTED_EDGE('',*,*,#739,.F.);
#1081=ORIENTED_EDGE('',*,*,#694,.F.);
#1082=ORIENTED_EDGE('',*,*,#780,.T.);
#1083=ORIENTED_EDGE('',*,*,#781,.T.);
#1084=ORIENTED_EDGE('',*,*,#769,.T.);
#1085=ORIENTED_EDGE('',*,*,#671,.F.);
#1086=ORIENTED_EDGE('',*,*,#675,.F.);
#1087=ORIENTED_EDGE('',*,*,#782,.F.);
#1088=ORIENTED_EDGE('',*,*,#783,.T.);
#1089=ORIENTED_EDGE('',*,*,#784,.F.);
#1090=ORIENTED_EDGE('',*,*,#785,.T.);
#1091=ORIENTED_EDGE('',*,*,#666,.T.);
#1092=ORIENTED_EDGE('',*,*,#786,.F.);
#1093=ORIENTED_EDGE('',*,*,#679,.T.);
#1094=ORIENTED_EDGE('',*,*,#740,.F.);
#1095=ORIENTED_EDGE('',*,*,#779,.F.);
#1096=ORIENTED_EDGE('',*,*,#689,.F.);
#1097=ORIENTED_EDGE('',*,*,#737,.F.);
#1098=ORIENTED_EDGE('',*,*,#787,.F.);
#1099=ORIENTED_EDGE('',*,*,#788,.F.);
#1100=ORIENTED_EDGE('',*,*,#789,.F.);
#1101=ORIENTED_EDGE('',*,*,#780,.F.);
#1102=ORIENTED_EDGE('',*,*,#790,.F.);
#1103=ORIENTED_EDGE('',*,*,#787,.T.);
#1104=ORIENTED_EDGE('',*,*,#736,.F.);
#1105=ORIENTED_EDGE('',*,*,#668,.F.);
#1106=ORIENTED_EDGE('',*,*,#775,.F.);
#1107=ORIENTED_EDGE('',*,*,#772,.F.);
#1108=ORIENTED_EDGE('',*,*,#791,.F.);
#1109=ORIENTED_EDGE('',*,*,#792,.T.);
#1110=ORIENTED_EDGE('',*,*,#793,.F.);
#1111=ORIENTED_EDGE('',*,*,#794,.T.);
#1112=ORIENTED_EDGE('',*,*,#777,.T.);
#1113=ORIENTED_EDGE('',*,*,#677,.F.);
#1114=ORIENTED_EDGE('',*,*,#681,.T.);
#1115=ORIENTED_EDGE('',*,*,#795,.T.);
#1116=ORIENTED_EDGE('',*,*,#796,.T.);
#1117=ORIENTED_EDGE('',*,*,#797,.T.);
#1118=ORIENTED_EDGE('',*,*,#798,.T.);
#1119=ORIENTED_EDGE('',*,*,#673,.F.);
#1120=ORIENTED_EDGE('',*,*,#680,.T.);
#1121=ORIENTED_EDGE('',*,*,#786,.T.);
#1122=ORIENTED_EDGE('',*,*,#778,.T.);
#1123=ORIENTED_EDGE('',*,*,#794,.F.);
#1124=ORIENTED_EDGE('',*,*,#799,.F.);
#1125=ORIENTED_EDGE('',*,*,#800,.F.);
#1126=ORIENTED_EDGE('',*,*,#788,.T.);
#1127=ORIENTED_EDGE('',*,*,#790,.T.);
#1128=ORIENTED_EDGE('',*,*,#667,.T.);
#1129=ORIENTED_EDGE('',*,*,#785,.F.);
#1130=ORIENTED_EDGE('',*,*,#801,.F.);
#1131=ORIENTED_EDGE('',*,*,#795,.F.);
#1132=ORIENTED_EDGE('',*,*,#781,.F.);
#1133=ORIENTED_EDGE('',*,*,#789,.T.);
#1134=ORIENTED_EDGE('',*,*,#800,.T.);
#1135=ORIENTED_EDGE('',*,*,#802,.T.);
#1136=ORIENTED_EDGE('',*,*,#803,.T.);
#1137=ORIENTED_EDGE('',*,*,#804,.T.);
#1138=ORIENTED_EDGE('',*,*,#770,.F.);
#1139=ORIENTED_EDGE('',*,*,#805,.T.);
#1140=ORIENTED_EDGE('',*,*,#791,.T.);
#1141=ORIENTED_EDGE('',*,*,#771,.F.);
#1142=ORIENTED_EDGE('',*,*,#804,.F.);
#1143=ORIENTED_EDGE('',*,*,#806,.T.);
#1144=ORIENTED_EDGE('',*,*,#782,.T.);
#1145=ORIENTED_EDGE('',*,*,#674,.F.);
#1146=ORIENTED_EDGE('',*,*,#798,.F.);
#1147=ORIENTED_EDGE('',*,*,#792,.F.);
#1148=ORIENTED_EDGE('',*,*,#805,.F.);
#1149=ORIENTED_EDGE('',*,*,#803,.F.);
#1150=ORIENTED_EDGE('',*,*,#807,.T.);
#1151=ORIENTED_EDGE('',*,*,#801,.T.);
#1152=ORIENTED_EDGE('',*,*,#784,.T.);
#1153=ORIENTED_EDGE('',*,*,#808,.F.);
#1154=ORIENTED_EDGE('',*,*,#796,.F.);
#1155=ORIENTED_EDGE('',*,*,#799,.T.);
#1156=ORIENTED_EDGE('',*,*,#793,.T.);
#1157=ORIENTED_EDGE('',*,*,#807,.F.);
#1158=ORIENTED_EDGE('',*,*,#802,.F.);
#1159=ORIENTED_EDGE('',*,*,#797,.F.);
#1160=ORIENTED_EDGE('',*,*,#808,.T.);
#1161=ORIENTED_EDGE('',*,*,#783,.F.);
#1162=ORIENTED_EDGE('',*,*,#806,.F.);
#1163=SPHERICAL_SURFACE('',#1251,0.500000000000007);
#1164=SPHERICAL_SURFACE('',#1255,0.500000000000007);
#1165=SPHERICAL_SURFACE('',#1288,0.500000000000007);
#1166=SPHERICAL_SURFACE('',#1302,0.499999999999998);
#1167=ADVANCED_FACE('',(#320),#1163,.T.);
#1168=ADVANCED_FACE('',(#321),#1164,.T.);
#1169=ADVANCED_FACE('',(#322),#295,.T.);
#1170=ADVANCED_FACE('',(#323),#296,.T.);
#1171=ADVANCED_FACE('',(#324),#297,.T.);
#1172=ADVANCED_FACE('',(#325),#52,.T.);
#1173=ADVANCED_FACE('',(#326),#298,.T.);
#1174=ADVANCED_FACE('',(#327),#299,.T.);
#1175=ADVANCED_FACE('',(#328),#300,.T.);
#1176=ADVANCED_FACE('',(#329),#53,.T.);
#1177=ADVANCED_FACE('',(#330),#301,.T.);
#1178=ADVANCED_FACE('',(#331),#18,.T.);
#1179=ADVANCED_FACE('',(#332),#19,.F.);
#1180=ADVANCED_FACE('',(#333),#302,.T.);
#1181=ADVANCED_FACE('',(#334),#20,.T.);
#1182=ADVANCED_FACE('',(#335),#303,.T.);
#1183=ADVANCED_FACE('',(#336),#21,.F.);
#1184=ADVANCED_FACE('',(#337),#1165,.T.);
#1185=ADVANCED_FACE('',(#338),#304,.T.);
#1186=ADVANCED_FACE('',(#339),#305,.T.);
#1187=ADVANCED_FACE('',(#340),#54,.T.);
#1188=ADVANCED_FACE('',(#341),#306,.T.);
#1189=ADVANCED_FACE('',(#342),#1166,.T.);
#1190=ADVANCED_FACE('',(#343),#307,.T.);
#1191=ADVANCED_FACE('',(#344),#308,.T.);
#1192=ADVANCED_FACE('',(#345),#55,.T.);
#1193=ADVANCED_FACE('',(#346),#56,.T.);
#1194=ADVANCED_FACE('',(#347),#57,.T.);
#1195=ADVANCED_FACE('',(#348),#309,.T.);
#1196=ADVANCED_FACE('',(#349),#310,.T.);
#1197=ADVANCED_FACE('',(#350),#58,.T.);
#1198=ADVANCED_FACE('',(#351),#311,.T.);
#1199=ADVANCED_FACE('',(#352),#22,.T.);
#1200=ADVANCED_FACE('',(#353,#15),#23,.T.);
#1201=ADVANCED_FACE('',(#354),#24,.T.);
#1202=ADVANCED_FACE('',(#355),#25,.T.);
#1203=ADVANCED_FACE('',(#356),#26,.T.);
#1204=ADVANCED_FACE('',(#357),#312,.T.);
#1205=ADVANCED_FACE('',(#358),#313,.F.);
#1206=ADVANCED_FACE('',(#359,#16),#27,.T.);
#1207=ADVANCED_FACE('',(#360),#314,.F.);
#1208=ADVANCED_FACE('',(#361),#315,.F.);
#1209=ADVANCED_FACE('',(#362,#17),#28,.F.);
#1210=ADVANCED_FACE('',(#363),#29,.F.);
#1211=ADVANCED_FACE('',(#364),#30,.F.);
#1212=ADVANCED_FACE('',(#365),#31,.F.);
#1213=ADVANCED_FACE('',(#366),#32,.F.);
#1214=ADVANCED_FACE('',(#367),#33,.F.);
#1215=ADVANCED_FACE('',(#368),#34,.F.);
#1216=ADVANCED_FACE('',(#369),#35,.T.);
#1217=ADVANCED_FACE('',(#370),#36,.T.);
#1218=ADVANCED_FACE('',(#371),#37,.T.);
#1219=ADVANCED_FACE('',(#372),#38,.T.);
#1220=ADVANCED_FACE('',(#373),#316,.T.);
#1221=ADVANCED_FACE('',(#374),#39,.F.);
#1222=ADVANCED_FACE('',(#375),#317,.T.);
#1223=ADVANCED_FACE('',(#376),#40,.T.);
#1224=ADVANCED_FACE('',(#377),#318,.F.);
#1225=ADVANCED_FACE('',(#378),#41,.F.);
#1226=ADVANCED_FACE('',(#379),#319,.F.);
#1227=ADVANCED_FACE('',(#380),#42,.T.);
#1228=ADVANCED_FACE('',(#381),#43,.T.);
#1229=ADVANCED_FACE('',(#382),#44,.F.);
#1230=ADVANCED_FACE('',(#383),#45,.T.);
#1231=ADVANCED_FACE('',(#384),#46,.T.);
#1232=ADVANCED_FACE('',(#385),#47,.T.);
#1233=ADVANCED_FACE('',(#386),#48,.T.);
#1234=ADVANCED_FACE('',(#387),#49,.T.);
#1235=ADVANCED_FACE('',(#388),#50,.T.);
#1236=ADVANCED_FACE('',(#389),#51,.T.);
#1237=CLOSED_SHELL('',(#1167,#1168,#1169,#1170,#1171,#1172,#1173,#1174,
#1175,#1176,#1177,#1178,#1179,#1180,#1181,#1182,#1183,#1184,#1185,#1186,
#1187,#1188,#1189,#1190,#1191,#1192,#1193,#1194,#1195,#1196,#1197,#1198,
#1199,#1200,#1201,#1202,#1203,#1204,#1205,#1206,#1207,#1208,#1209,#1210,
#1211,#1212,#1213,#1214,#1215,#1216,#1217,#1218,#1219,#1220,#1221,#1222,
#1223,#1224,#1225,#1226,#1227,#1228,#1229,#1230,#1231,#1232,#1233,#1234,
#1235,#1236));
#1238=DERIVED_UNIT_ELEMENT(#1240,1.);
#1239=DERIVED_UNIT_ELEMENT(#2121,-3.);
#1240=(
MASS_UNIT()
NAMED_UNIT(*)
SI_UNIT(.KILO.,.GRAM.)
);
#1241=DERIVED_UNIT((#1238,#1239));
#1242=MEASURE_REPRESENTATION_ITEM('density measure',
POSITIVE_RATIO_MEASURE(7850.),#1241);
#1243=PROPERTY_DEFINITION_REPRESENTATION(#1248,#1245);
#1244=PROPERTY_DEFINITION_REPRESENTATION(#1249,#1246);
#1245=REPRESENTATION('material name',(#1247),#2118);
#1246=REPRESENTATION('density',(#1242),#2118);
#1247=DESCRIPTIVE_REPRESENTATION_ITEM('Stal','Stal');
#1248=PROPERTY_DEFINITION('material property','material name',#2128);
#1249=PROPERTY_DEFINITION('material property','density of part',#2128);
#1250=AXIS2_PLACEMENT_3D('',#1758,#1380,#1381);
#1251=AXIS2_PLACEMENT_3D('',#1759,#1382,#1383);
#1252=AXIS2_PLACEMENT_3D('',#1762,#1384,#1385);
#1253=AXIS2_PLACEMENT_3D('',#1764,#1386,#1387);
#1254=AXIS2_PLACEMENT_3D('',#1765,#1388,#1389);
#1255=AXIS2_PLACEMENT_3D('',#1766,#1390,#1391);
#1256=AXIS2_PLACEMENT_3D('',#1769,#1392,#1393);
#1257=AXIS2_PLACEMENT_3D('',#1771,#1394,#1395);
#1258=AXIS2_PLACEMENT_3D('',#1772,#1396,#1397);
#1259=AXIS2_PLACEMENT_3D('',#1773,#1398,#1399);
#1260=AXIS2_PLACEMENT_3D('',#1776,#1400,#1401);
#1261=AXIS2_PLACEMENT_3D('',#1779,#1404,#1405);
#1262=AXIS2_PLACEMENT_3D('',#1782,#1408,#1409);
#1263=AXIS2_PLACEMENT_3D('',#1785,#1410,#1411);
#1264=AXIS2_PLACEMENT_3D('',#1788,#1414,#1415);
#1265=AXIS2_PLACEMENT_3D('',#1791,#1416,#1417);
#1266=AXIS2_PLACEMENT_3D('',#1792,#1418,#1419);
#1267=AXIS2_PLACEMENT_3D('',#1793,#1420,#1421);
#1268=AXIS2_PLACEMENT_3D('',#1794,#1422,#1423);
#1269=AXIS2_PLACEMENT_3D('',#1797,#1424,#1425);
#1270=AXIS2_PLACEMENT_3D('',#1800,#1428,#1429);
#1271=AXIS2_PLACEMENT_3D('',#1803,#1430,#1431);
#1272=AXIS2_PLACEMENT_3D('',#1806,#1434,#1435);
#1273=AXIS2_PLACEMENT_3D('',#1809,#1436,#1437);
#1274=AXIS2_PLACEMENT_3D('',#1813,#1439,#1440);
#1275=AXIS2_PLACEMENT_3D('',#1815,#1442,#1443);
#1276=AXIS2_PLACEMENT_3D('',#1818,#1444,#1445);
#1277=AXIS2_PLACEMENT_3D('',#1819,#1446,#1447);
#1278=AXIS2_PLACEMENT_3D('',#1820,#1448,#1449);
#1279=AXIS2_PLACEMENT_3D('',#1821,#1450,#1451);
#1280=AXIS2_PLACEMENT_3D('',#1824,#1454,#1455);
#1281=AXIS2_PLACEMENT_3D('',#1826,#1457,#1458);
#1282=AXIS2_PLACEMENT_3D('',#1836,#1464,#1465);
#1283=AXIS2_PLACEMENT_3D('',#1839,#1467,#1468);
#1284=AXIS2_PLACEMENT_3D('',#1840,#1469,#1470);
#1285=AXIS2_PLACEMENT_3D('',#1848,#1475,#1476);
#1286=AXIS2_PLACEMENT_3D('',#1851,#1478,#1479);
#1287=AXIS2_PLACEMENT_3D('',#1852,#1480,#1481);
#1288=AXIS2_PLACEMENT_3D('',#1860,#1486,#1487);
#1289=AXIS2_PLACEMENT_3D('',#1863,#1488,#1489);
#1290=AXIS2_PLACEMENT_3D('',#1865,#1490,#1491);
#1291=AXIS2_PLACEMENT_3D('',#1866,#1492,#1493);
#1292=AXIS2_PLACEMENT_3D('',#1867,#1494,#1495);
#1293=AXIS2_PLACEMENT_3D('',#1870,#1496,#1497);
#1294=AXIS2_PLACEMENT_3D('',#1873,#1500,#1501);
#1295=AXIS2_PLACEMENT_3D('',#1876,#1502,#1503);
#1296=AXIS2_PLACEMENT_3D('',#1880,#1505,#1506);
#1297=AXIS2_PLACEMENT_3D('',#1882,#1508,#1509);
#1298=AXIS2_PLACEMENT_3D('',#1885,#1510,#1511);
#1299=AXIS2_PLACEMENT_3D('',#1886,#1512,#1513);
#1300=AXIS2_PLACEMENT_3D('',#1887,#1514,#1515);
#1301=AXIS2_PLACEMENT_3D('',#1888,#1516,#1517);
#1302=AXIS2_PLACEMENT_3D('',#1891,#1520,#1521);
#1303=AXIS2_PLACEMENT_3D('',#1894,#1522,#1523);
#1304=AXIS2_PLACEMENT_3D('',#1896,#1524,#1525);
#1305=AXIS2_PLACEMENT_3D('',#1897,#1526,#1527);
#1306=AXIS2_PLACEMENT_3D('',#1898,#1528,#1529);
#1307=AXIS2_PLACEMENT_3D('',#1901,#1530,#1531);
#1308=AXIS2_PLACEMENT_3D('',#1904,#1534,#1535);
#1309=AXIS2_PLACEMENT_3D('',#1907,#1536,#1537);
#1310=AXIS2_PLACEMENT_3D('',#1910,#1540,#1541);
#1311=AXIS2_PLACEMENT_3D('',#1913,#1542,#1543);
#1312=AXIS2_PLACEMENT_3D('',#1914,#1544,#1545);
#1313=AXIS2_PLACEMENT_3D('',#1915,#1546,#1547);
#1314=AXIS2_PLACEMENT_3D('',#1916,#1548,#1549);
#1315=AXIS2_PLACEMENT_3D('',#1919,#1550,#1551);
#1316=AXIS2_PLACEMENT_3D('',#1920,#1552,#1553);
#1317=AXIS2_PLACEMENT_3D('',#1921,#1554,#1555);
#1318=AXIS2_PLACEMENT_3D('',#1922,#1556,#1557);
#1319=AXIS2_PLACEMENT_3D('',#1925,#1558,#1559);
#1320=AXIS2_PLACEMENT_3D('',#1926,#1560,#1561);
#1321=AXIS2_PLACEMENT_3D('',#1927,#1562,#1563);
#1322=AXIS2_PLACEMENT_3D('',#1928,#1564,#1565);
#1323=AXIS2_PLACEMENT_3D('',#1931,#1568,#1569);
#1324=AXIS2_PLACEMENT_3D('',#1934,#1570,#1571);
#1325=AXIS2_PLACEMENT_3D('',#1937,#1574,#1575);
#1326=AXIS2_PLACEMENT_3D('',#1940,#1576,#1577);
#1327=AXIS2_PLACEMENT_3D('',#1941,#1578,#1579);
#1328=AXIS2_PLACEMENT_3D('',#1942,#1580,#1581);
#1329=AXIS2_PLACEMENT_3D('',#1943,#1582,#1583);
#1330=AXIS2_PLACEMENT_3D('',#1946,#1584,#1585);
#1331=AXIS2_PLACEMENT_3D('',#1949,#1588,#1589);
#1332=AXIS2_PLACEMENT_3D('',#1951,#1591,#1592);
#1333=AXIS2_PLACEMENT_3D('',#1969,#1602,#1603);
#1334=AXIS2_PLACEMENT_3D('',#1971,#1604,#1605);
#1335=AXIS2_PLACEMENT_3D('',#1976,#1609,#1610);
#1336=AXIS2_PLACEMENT_3D('',#1979,#1613,#1614);
#1337=AXIS2_PLACEMENT_3D('',#1980,#1615,#1616);
#1338=AXIS2_PLACEMENT_3D('',#1981,#1617,#1618);
#1339=AXIS2_PLACEMENT_3D('',#1985,#1620,#1621);
#1340=AXIS2_PLACEMENT_3D('',#1987,#1623,#1624);
#1341=AXIS2_PLACEMENT_3D('',#1989,#1625,#1626);
#1342=AXIS2_PLACEMENT_3D('',#1991,#1628,#1629);
#1343=AXIS2_PLACEMENT_3D('',#1993,#1630,#1631);
#1344=AXIS2_PLACEMENT_3D('',#1996,#1633,#1634);
#1345=AXIS2_PLACEMENT_3D('',#1997,#1635,#1636);
#1346=AXIS2_PLACEMENT_3D('',#1999,#1638,#1639);
#1347=AXIS2_PLACEMENT_3D('',#2001,#1640,#1641);
#1348=AXIS2_PLACEMENT_3D('',#2003,#1643,#1644);
#1349=AXIS2_PLACEMENT_3D('',#2020,#1653,#1654);
#1350=AXIS2_PLACEMENT_3D('',#2023,#1657,#1658);
#1351=AXIS2_PLACEMENT_3D('',#2025,#1660,#1661);
#1352=AXIS2_PLACEMENT_3D('',#2027,#1663,#1664);
#1353=AXIS2_PLACEMENT_3D('',#2029,#1666,#1667);
#1354=AXIS2_PLACEMENT_3D('',#2031,#1669,#1670);
#1355=AXIS2_PLACEMENT_3D('',#2033,#1672,#1673);
#1356=AXIS2_PLACEMENT_3D('',#2043,#1679,#1680);
#1357=AXIS2_PLACEMENT_3D('',#2045,#1682,#1683);
#1358=AXIS2_PLACEMENT_3D('',#2046,#1684,#1685);
#1359=AXIS2_PLACEMENT_3D('',#2047,#1686,#1687);
#1360=AXIS2_PLACEMENT_3D('',#2049,#1688,#1689);
#1361=AXIS2_PLACEMENT_3D('',#2051,#1691,#1692);
#1362=AXIS2_PLACEMENT_3D('',#2057,#1696,#1697);
#1363=AXIS2_PLACEMENT_3D('',#2060,#1699,#1700);
#1364=AXIS2_PLACEMENT_3D('',#2061,#1701,#1702);
#1365=AXIS2_PLACEMENT_3D('',#2069,#1707,#1708);
#1366=AXIS2_PLACEMENT_3D('',#2070,#1709,#1710);
#1367=AXIS2_PLACEMENT_3D('',#2071,#1711,#1712);
#1368=AXIS2_PLACEMENT_3D('',#2077,#1716,#1717);
#1369=AXIS2_PLACEMENT_3D('',#2078,#1718,#1719);
#1370=AXIS2_PLACEMENT_3D('',#2079,#1720,#1721);
#1371=AXIS2_PLACEMENT_3D('',#2087,#1726,#1727);
#1372=AXIS2_PLACEMENT_3D('',#2095,#1732,#1733);
#1373=AXIS2_PLACEMENT_3D('',#2100,#1737,#1738);
#1374=AXIS2_PLACEMENT_3D('',#2106,#1742,#1743);
#1375=AXIS2_PLACEMENT_3D('',#2108,#1745,#1746);
#1376=AXIS2_PLACEMENT_3D('',#2110,#1748,#1749);
#1377=AXIS2_PLACEMENT_3D('',#2112,#1751,#1752);
#1378=AXIS2_PLACEMENT_3D('',#2114,#1754,#1755);
#1379=AXIS2_PLACEMENT_3D('',#2115,#1756,#1757);
#1380=DIRECTION('axis',(0.,0.,1.));
#1381=DIRECTION('refdir',(1.,0.,0.));
#1382=DIRECTION('center_axis',(0.408248290463881,0.408248290463857,-0.81649658092772));
#1383=DIRECTION('ref_axis',(0.577350269189642,0.577350269189606,0.577350269189629));
#1384=DIRECTION('center_axis',(1.,0.,0.));
#1385=DIRECTION('ref_axis',(0.,0.,1.));
#1386=DIRECTION('center_axis',(0.,1.,0.));
#1387=DIRECTION('ref_axis',(1.,0.,0.));
#1388=DIRECTION('center_axis',(0.,0.,1.));
#1389=DIRECTION('ref_axis',(0.,1.,0.));
#1390=DIRECTION('center_axis',(-0.816496580927733,-0.408248290463852,0.408248290463861));
#1391=DIRECTION('ref_axis',(0.577350269189614,-0.577350269189642,0.577350269189621));
#1392=DIRECTION('center_axis',(1.,0.,0.));
#1393=DIRECTION('ref_axis',(0.,-1.,0.));
#1394=DIRECTION('center_axis',(0.,0.,1.));
#1395=DIRECTION('ref_axis',(1.,0.,0.));
#1396=DIRECTION('center_axis',(0.,-1.,0.));
#1397=DIRECTION('ref_axis',(0.,0.,1.));
#1398=DIRECTION('center_axis',(0.,0.,-1.));
#1399=DIRECTION('ref_axis',(0.707106781186548,-0.707106781186548,0.));
#1400=DIRECTION('center_axis',(0.,0.,1.));
#1401=DIRECTION('ref_axis',(0.707106781186548,-0.707106781186548,0.));
#1402=DIRECTION('',(0.,0.,1.));
#1403=DIRECTION('',(0.,0.,-1.));
#1404=DIRECTION('center_axis',(0.,-1.,0.));
#1405=DIRECTION('ref_axis',(0.707106781186552,0.,0.707106781186543));
#1406=DIRECTION('',(0.,1.,0.));
#1407=DIRECTION('',(0.,-1.,0.));
#1408=DIRECTION('center_axis',(-1.,0.,0.));
#1409=DIRECTION('ref_axis',(0.,-0.707106781186552,0.707106781186543));
#1410=DIRECTION('center_axis',(1.,0.,-8.88178419700124E-15));
#1411=DIRECTION('ref_axis',(8.88178419700124E-15,0.,1.));
#1412=DIRECTION('',(1.,0.,0.));
#1413=DIRECTION('',(-1.,0.,0.));
#1414=DIRECTION('center_axis',(0.,1.,0.));
#1415=DIRECTION('ref_axis',(0.,0.,1.));
#1416=DIRECTION('center_axis',(-5.5511151231258E-16,0.,1.));
#1417=DIRECTION('ref_axis',(-1.,0.,-5.5511151231258E-16));
#1418=DIRECTION('center_axis',(0.,1.,0.));
#1419=DIRECTION('ref_axis',(-0.707106781186548,0.,0.707106781186547));
#1420=DIRECTION('center_axis',(0.,-1.,0.));
#1421=DIRECTION('ref_axis',(-0.707106781186548,0.,0.707106781186547));
#1422=DIRECTION('center_axis',(0.,0.,-1.));
#1423=DIRECTION('ref_axis',(-0.707106781186516,-0.707106781186579,0.));
#1424=DIRECTION('center_axis',(0.,0.,1.));
#1425=DIRECTION('ref_axis',(-0.707106781186516,-0.707106781186579,0.));
#1426=DIRECTION('',(0.,0.,1.));
#1427=DIRECTION('',(0.,0.,-1.));
#1428=DIRECTION('center_axis',(0.,0.,1.));
#1429=DIRECTION('ref_axis',(0.707106781186554,0.707106781186541,0.));
#1430=DIRECTION('center_axis',(0.,0.,1.));
#1431=DIRECTION('ref_axis',(0.707106781186554,0.707106781186541,0.));
#1432=DIRECTION('',(0.,0.,1.));
#1433=DIRECTION('',(0.,0.,-1.));
#1434=DIRECTION('center_axis',(0.,0.,1.));
#1435=DIRECTION('ref_axis',(-0.707106781186548,0.707106781186548,0.));
#1436=DIRECTION('center_axis',(0.,0.,1.));
#1437=DIRECTION('ref_axis',(-0.707106781186548,0.707106781186548,0.));
#1438=DIRECTION('',(0.,0.,1.));
#1439=DIRECTION('center_axis',(0.,0.,-1.));
#1440=DIRECTION('ref_axis',(-1.,0.,0.));
#1441=DIRECTION('',(0.,0.,-1.));
#1442=DIRECTION('center_axis',(0.,-1.,0.));
#1443=DIRECTION('ref_axis',(0.,0.,-1.));
#1444=DIRECTION('center_axis',(-1.,0.,0.));
#1445=DIRECTION('ref_axis',(0.,0.,1.));
#1446=DIRECTION('center_axis',(0.,-1.,0.));
#1447=DIRECTION('ref_axis',(-0.707106781186547,0.,0.707106781186548));
#1448=DIRECTION('center_axis',(0.,1.,0.));
#1449=DIRECTION('ref_axis',(-0.707106781186547,0.,0.707106781186548));
#1450=DIRECTION('center_axis',(1.,0.,0.));
#1451=DIRECTION('ref_axis',(0.,0.707106781186546,0.707106781186549));
#1452=DIRECTION('',(-1.,0.,0.));
#1453=DIRECTION('',(1.,0.,0.));
#1454=DIRECTION('center_axis',(0.,-1.,0.));
#1455=DIRECTION('ref_axis',(1.,0.,0.));
#1456=DIRECTION('',(-1.,0.,0.));
#1457=DIRECTION('center_axis',(1.,0.,0.));
#1458=DIRECTION('ref_axis',(0.,-1.,0.));
#1459=DIRECTION('',(0.,-1.,0.));
#1460=DIRECTION('',(0.,0.,1.));
#1461=DIRECTION('',(0.,-1.,0.));
#1462=DIRECTION('',(0.,0.,-1.));
#1463=DIRECTION('',(0.,1.,0.));
#1464=DIRECTION('center_axis',(0.,-1.,0.));
#1465=DIRECTION('ref_axis',(-0.707106781186547,0.,0.707106781186547));
#1466=DIRECTION('',(0.,1.,0.));
#1467=DIRECTION('center_axis',(-3.70074341541719E-16,-1.,0.));
#1468=DIRECTION('ref_axis',(-0.707106781186547,0.,0.707106781186547));
#1469=DIRECTION('center_axis',(0.,0.,1.));
#1470=DIRECTION('ref_axis',(1.,0.,0.));
#1471=DIRECTION('',(3.065722213937E-16,1.,0.));
#1472=DIRECTION('',(1.,-1.38777878078145E-16,0.));
#1473=DIRECTION('',(-4.16333634234434E-16,-1.,0.));
#1474=DIRECTION('',(-1.,0.,0.));
#1475=DIRECTION('center_axis',(-3.065722213937E-16,-1.,0.));
#1476=DIRECTION('ref_axis',(-0.707106781186547,0.,0.707106781186547));
#1477=DIRECTION('',(-3.065722213937E-16,-1.,0.));
#1478=DIRECTION('center_axis',(0.,1.,0.));
#1479=DIRECTION('ref_axis',(-0.707106781186547,0.,0.707106781186547));
#1480=DIRECTION('center_axis',(1.,-3.065722213937E-16,0.));
#1481=DIRECTION('ref_axis',(-3.065722213937E-16,-1.,0.));
#1482=DIRECTION('',(3.065722213937E-16,1.,0.));
#1483=DIRECTION('',(0.,0.,-1.));
#1484=DIRECTION('',(-3.065722213937E-16,-1.,0.));
#1485=DIRECTION('',(0.,0.,-1.));
#1486=DIRECTION('center_axis',(-0.816496580927734,0.408248290463853,-0.408248290463857));
#1487=DIRECTION('ref_axis',(-0.577350269189623,-0.577350269189637,0.577350269189618));
#1488=DIRECTION('center_axis',(0.,-1.,0.));
#1489=DIRECTION('ref_axis',(-1.,0.,0.));
#1490=DIRECTION('center_axis',(0.,0.,1.));
#1491=DIRECTION('ref_axis',(0.,-1.,0.));
#1492=DIRECTION('center_axis',(-1.,-1.77635683940023E-14,0.));
#1493=DIRECTION('ref_axis',(0.,0.,1.));
#1494=DIRECTION('center_axis',(0.,0.,-1.));
#1495=DIRECTION('ref_axis',(-0.707106781186535,-0.70710678118656,0.));
#1496=DIRECTION('center_axis',(0.,0.,1.));
#1497=DIRECTION('ref_axis',(-0.707106781186535,-0.70710678118656,0.));
#1498=DIRECTION('',(0.,0.,1.));
#1499=DIRECTION('',(0.,0.,-1.));
#1500=DIRECTION('center_axis',(0.,0.,1.));
#1501=DIRECTION('ref_axis',(0.707106781186541,-0.707106781186554,0.));
#1502=DIRECTION('center_axis',(0.,0.,1.));
#1503=DIRECTION('ref_axis',(0.707106781186541,-0.707106781186554,0.));
#1504=DIRECTION('',(0.,0.,1.));
#1505=DIRECTION('center_axis',(0.,0.,-1.));
#1506=DIRECTION('ref_axis',(1.,0.,0.));
#1507=DIRECTION('',(0.,0.,-1.));
#1508=DIRECTION('center_axis',(0.,1.,0.));
#1509=DIRECTION('ref_axis',(0.,0.,1.));
#1510=DIRECTION('center_axis',(1.,0.,2.22044604925032E-15));
#1511=DIRECTION('ref_axis',(-2.22044604925032E-15,0.,1.));
#1512=DIRECTION('center_axis',(0.,1.,0.));
#1513=DIRECTION('ref_axis',(0.707106781186548,0.,0.707106781186548));
#1514=DIRECTION('center_axis',(0.,-1.,0.));
#1515=DIRECTION('ref_axis',(0.707106781186547,0.,0.707106781186547));
#1516=DIRECTION('center_axis',(-1.,0.,0.));
#1517=DIRECTION('ref_axis',(0.,-0.707106781186552,0.707106781186543));
#1518=DIRECTION('',(1.,0.,0.));
#1519=DIRECTION('',(-1.,0.,0.));
#1520=DIRECTION('center_axis',(-0.816496580927727,-0.408248290463863,-0.408248290463862));
#1521=DIRECTION('ref_axis',(-0.577350269189623,0.577350269189631,0.577350269189623));
#1522=DIRECTION('center_axis',(-1.,0.,0.));
#1523=DIRECTION('ref_axis',(0.,1.,0.));
#1524=DIRECTION('center_axis',(0.,0.,1.));
#1525=DIRECTION('ref_axis',(-1.,0.,0.));
#1526=DIRECTION('center_axis',(0.,1.,0.));
#1527=DIRECTION('ref_axis',(0.,0.,1.));
#1528=DIRECTION('center_axis',(0.,0.,-1.));
#1529=DIRECTION('ref_axis',(-0.707106781186551,0.707106781186544,0.));
#1530=DIRECTION('center_axis',(0.,0.,1.));
#1531=DIRECTION('ref_axis',(-0.707106781186551,0.707106781186544,0.));
#1532=DIRECTION('',(0.,0.,1.));
#1533=DIRECTION('',(0.,0.,-1.));
#1534=DIRECTION('center_axis',(-5.55111512312579E-17,1.,0.));
#1535=DIRECTION('ref_axis',(-0.707106781186552,0.,0.707106781186543));
#1536=DIRECTION('center_axis',(0.,-1.,0.));
#1537=DIRECTION('ref_axis',(0.,0.,1.));
#1538=DIRECTION('',(5.55111512312579E-17,-1.,0.));
#1539=DIRECTION('',(-5.55111512312579E-17,1.,0.));
#1540=DIRECTION('center_axis',(-1.,-5.55111512312579E-17,0.));
#1541=DIRECTION('ref_axis',(0.,0.,1.));
#1542=DIRECTION('center_axis',(0.,-0.672749225914045,-0.739870582623781));
#1543=DIRECTION('ref_axis',(0.,-0.739870582623781,0.672749225914045));
#1544=DIRECTION('center_axis',(-1.,-5.55111512312579E-17,0.));
#1545=DIRECTION('ref_axis',(-2.24546131587439E-17,0.404506349817871,-0.914535189567368));
#1546=DIRECTION('center_axis',(1.,5.55111512312579E-17,0.));
#1547=DIRECTION('ref_axis',(-2.08166817117217E-17,0.404506349817871,-0.914535189567368));
#1548=DIRECTION('center_axis',(1.,5.55111512312579E-17,0.));
#1549=DIRECTION('ref_axis',(0.,0.,1.));
#1550=DIRECTION('center_axis',(0.,-0.672749225914042,0.739870582623784));
#1551=DIRECTION('ref_axis',(0.,0.739870582623784,0.672749225914042));
#1552=DIRECTION('center_axis',(1.,5.55111512312579E-17,0.));
#1553=DIRECTION('ref_axis',(4.91497321807623E-32,-8.85402862138562E-16,
1.));
#1554=DIRECTION('center_axis',(-1.,-5.55111512312579E-17,0.));
#1555=DIRECTION('ref_axis',(0.,-8.85402862138562E-16,1.));
#1556=DIRECTION('center_axis',(1.,5.55111512312579E-17,0.));
#1557=DIRECTION('ref_axis',(0.,0.,-1.));
#1558=DIRECTION('center_axis',(0.,-1.,0.));
#1559=DIRECTION('ref_axis',(0.,0.,1.));
#1560=DIRECTION('center_axis',(-1.,-5.55111512312579E-17,0.));
#1561=DIRECTION('ref_axis',(2.24546131587438E-17,-0.404506349817869,-0.914535189567369));
#1562=DIRECTION('center_axis',(1.,5.55111512312579E-17,0.));
#1563=DIRECTION('ref_axis',(2.08166817117217E-17,-0.40450634981787,-0.914535189567369));
#1564=DIRECTION('center_axis',(-5.55111512312579E-17,1.,0.));
#1565=DIRECTION('ref_axis',(-0.707106781186552,0.,0.707106781186543));
#1566=DIRECTION('',(5.55111512312579E-17,-1.,0.));
#1567=DIRECTION('',(-5.55111512312579E-17,1.,0.));
#1568=DIRECTION('center_axis',(1.,0.,0.));
#1569=DIRECTION('ref_axis',(0.,0.707106781186546,0.707106781186549));
#1570=DIRECTION('center_axis',(-1.,0.,0.));
#1571=DIRECTION('ref_axis',(0.,0.,1.));
#1572=DIRECTION('',(-1.,0.,0.));
#1573=DIRECTION('',(1.,0.,0.));
#1574=DIRECTION('center_axis',(0.,-1.,0.));
#1575=DIRECTION('ref_axis',(0.,0.,-1.));
#1576=DIRECTION('center_axis',(5.5511151231258E-16,0.,1.));
#1577=DIRECTION('ref_axis',(1.,0.,-5.5511151231258E-16));
#1578=DIRECTION('center_axis',(0.,-1.,0.));
#1579=DIRECTION('ref_axis',(0.707106781186548,0.,0.707106781186548));
#1580=DIRECTION('center_axis',(0.,1.,0.));
#1581=DIRECTION('ref_axis',(0.707106781186547,0.,0.707106781186547));
#1582=DIRECTION('center_axis',(0.,0.,-1.));
#1583=DIRECTION('ref_axis',(0.707106781186544,0.707106781186551,0.));
#1584=DIRECTION('center_axis',(0.,0.,1.));
#1585=DIRECTION('ref_axis',(0.707106781186544,0.707106781186551,0.));
#1586=DIRECTION('',(0.,0.,1.));
#1587=DIRECTION('',(0.,0.,-1.));
#1588=DIRECTION('center_axis',(0.,-1.,0.));
#1589=DIRECTION('ref_axis',(1.,0.,0.));
#1590=DIRECTION('',(-1.,0.,0.));
#1591=DIRECTION('center_axis',(-1.,-5.55111512312579E-17,0.));
#1592=DIRECTION('ref_axis',(5.55111512312579E-17,-1.,0.));
#1593=DIRECTION('',(-5.55111512312579E-17,1.,0.));
#1594=DIRECTION('',(4.80740671595891E-17,-0.866025403784439,0.5));
#1595=DIRECTION('',(0.,3.38382144028615E-5,-0.999999999427488));
#1596=DIRECTION('',(0.,0.866042322395832,-0.499970694960448));
#1597=DIRECTION('',(4.80740671595891E-17,-0.866025403784439,-0.5));
#1598=DIRECTION('',(-1.07182188209377E-31,1.93082265152201E-15,-1.));
#1599=DIRECTION('',(-4.80740671595891E-17,0.866025403784439,-0.5));
#1600=DIRECTION('',(-4.80740671595891E-17,0.866025403784439,0.5));
#1601=DIRECTION('',(0.,0.,1.));
#1602=DIRECTION('center_axis',(0.,0.,-1.));
#1603=DIRECTION('ref_axis',(-1.,0.,0.));
#1604=DIRECTION('center_axis',(0.,0.,1.));
#1605=DIRECTION('ref_axis',(-1.,0.,0.));
#1606=DIRECTION('',(0.,-1.,0.));
#1607=DIRECTION('',(1.,0.,0.));
#1608=DIRECTION('',(0.,-1.,0.));
#1609=DIRECTION('center_axis',(0.,0.,1.));
#1610=DIRECTION('ref_axis',(-1.,0.,0.));
#1611=DIRECTION('',(1.,0.,0.));
#1612=DIRECTION('',(0.,-1.,0.));
#1613=DIRECTION('center_axis',(0.,1.,0.));
#1614=DIRECTION('ref_axis',(-1.,0.,0.));
#1615=DIRECTION('center_axis',(0.,1.,0.));
#1616=DIRECTION('ref_axis',(-1.,0.,0.));
#1617=DIRECTION('center_axis',(1.,0.,0.));
#1618=DIRECTION('ref_axis',(0.,-0.739870582623781,-0.672749225914045));
#1619=DIRECTION('',(1.,0.,0.));
#1620=DIRECTION('center_axis',(-1.,0.,0.));
#1621=DIRECTION('ref_axis',(0.,-0.739870582623781,-0.672749225914045));
#1622=DIRECTION('',(-1.,0.,0.));
#1623=DIRECTION('center_axis',(1.,0.,0.));
#1624=DIRECTION('ref_axis',(0.,-0.979795897113271,-0.2));
#1625=DIRECTION('center_axis',(1.,0.,0.));
#1626=DIRECTION('ref_axis',(0.,-0.979795897113271,-0.2));
#1627=DIRECTION('',(-1.,0.,0.));
#1628=DIRECTION('center_axis',(1.,0.,0.));
#1629=DIRECTION('ref_axis',(0.,0.,-1.));
#1630=DIRECTION('center_axis',(1.,0.,0.));
#1631=DIRECTION('ref_axis',(0.,0.979795897113271,-0.2));
#1632=DIRECTION('',(0.,-1.,0.));
#1633=DIRECTION('center_axis',(-1.,0.,0.));
#1634=DIRECTION('ref_axis',(0.,-1.,0.));
#1635=DIRECTION('center_axis',(-1.,0.,0.));
#1636=DIRECTION('ref_axis',(0.,0.979795897113271,-0.2));
#1637=DIRECTION('',(1.,0.,0.));
#1638=DIRECTION('center_axis',(1.,0.,0.));
#1639=DIRECTION('ref_axis',(0.,-1.,0.));
#1640=DIRECTION('center_axis',(1.,0.,0.));
#1641=DIRECTION('ref_axis',(0.,-1.,0.));
#1642=DIRECTION('',(1.,0.,0.));
#1643=DIRECTION('center_axis',(1.,0.,0.));
#1644=DIRECTION('ref_axis',(0.,0.,-1.));
#1645=DIRECTION('',(0.,0.,1.));
#1646=DIRECTION('',(0.,0.866025403784439,0.5));
#1647=DIRECTION('',(0.,0.866025403784439,-0.5));
#1648=DIRECTION('',(0.,-1.93082265152201E-15,1.));
#1649=DIRECTION('',(0.,0.866025403784439,0.5));
#1650=DIRECTION('',(0.,0.866042322395832,-0.499970694960448));
#1651=DIRECTION('',(0.,3.38382144028615E-5,-0.999999999427488));
#1652=DIRECTION('',(0.,0.866025403784439,-0.5));
#1653=DIRECTION('center_axis',(0.,0.5,0.866025403784439));
#1654=DIRECTION('ref_axis',(0.,-0.866025403784439,0.5));
#1655=DIRECTION('',(1.,0.,0.));
#1656=DIRECTION('',(1.,0.,0.));
#1657=DIRECTION('center_axis',(0.,1.,0.));
#1658=DIRECTION('ref_axis',(0.,0.,1.));
#1659=DIRECTION('',(1.,0.,0.));
#1660=DIRECTION('center_axis',(0.,0.5,-0.866025403784439));
#1661=DIRECTION('ref_axis',(0.,0.866025403784439,0.5));
#1662=DIRECTION('',(1.,0.,0.));
#1663=DIRECTION('center_axis',(0.,-0.5,-0.866025403784439));
#1664=DIRECTION('ref_axis',(0.,0.866025403784439,-0.5));
#1665=DIRECTION('',(1.,0.,0.));
#1666=DIRECTION('center_axis',(0.,-1.,-1.93082265152201E-15));
#1667=DIRECTION('ref_axis',(0.,1.93082265152201E-15,-1.));
#1668=DIRECTION('',(1.,0.,0.));
#1669=DIRECTION('center_axis',(0.,-0.5,0.866025403784439));
#1670=DIRECTION('ref_axis',(0.,-0.866025403784439,-0.5));
#1671=DIRECTION('',(1.,0.,0.));
#1672=DIRECTION('center_axis',(0.,0.,1.));
#1673=DIRECTION('ref_axis',(1.,0.,0.));
#1674=DIRECTION('',(0.,-1.,0.));
#1675=DIRECTION('',(-1.,0.,0.));
#1676=DIRECTION('',(3.46944695195361E-16,1.,0.));
#1677=DIRECTION('',(1.,-1.38777878078145E-16,0.));
#1678=DIRECTION('',(0.,-1.,0.));
#1679=DIRECTION('center_axis',(0.,-0.999999999427488,-3.38382144028615E-5));
#1680=DIRECTION('ref_axis',(0.,3.38382144028615E-5,-0.999999999427488));
#1681=DIRECTION('',(1.,0.,0.));
#1682=DIRECTION('center_axis',(0.,-0.499970694960448,-0.866042322395832));
#1683=DIRECTION('ref_axis',(0.,0.866042322395832,-0.499970694960448));
#1684=DIRECTION('center_axis',(1.,0.,0.));
#1685=DIRECTION('ref_axis',(0.,1.,0.));
#1686=DIRECTION('center_axis',(0.,1.,0.));
#1687=DIRECTION('ref_axis',(0.707106781186547,0.,0.707106781186547));
#1688=DIRECTION('center_axis',(0.,1.,0.));
#1689=DIRECTION('ref_axis',(0.707106781186547,0.,0.707106781186547));
#1690=DIRECTION('',(0.,1.,0.));
#1691=DIRECTION('center_axis',(-1.,0.,0.));
#1692=DIRECTION('ref_axis',(0.,1.,0.));
#1693=DIRECTION('',(0.,0.,1.));
#1694=DIRECTION('',(0.,1.,0.));
#1695=DIRECTION('',(0.,0.,-1.));
#1696=DIRECTION('center_axis',(0.,1.,0.));
#1697=DIRECTION('ref_axis',(0.707106781186547,0.,0.707106781186547));
#1698=DIRECTION('',(0.,1.,0.));
#1699=DIRECTION('center_axis',(-3.70074341541719E-16,-1.,0.));
#1700=DIRECTION('ref_axis',(0.707106781186547,0.,0.707106781186547));
#1701=DIRECTION('center_axis',(3.70074341541719E-16,1.,0.));
#1702=DIRECTION('ref_axis',(-1.,3.70074341541719E-16,0.));
#1703=DIRECTION('',(0.,0.,1.));
#1704=DIRECTION('',(-1.,0.,0.));
#1705=DIRECTION('',(0.,0.,1.));
#1706=DIRECTION('',(-1.,3.70074341541719E-16,0.));
#1707=DIRECTION('center_axis',(0.,0.,-1.));
#1708=DIRECTION('ref_axis',(-1.,0.,0.));
#1709=DIRECTION('center_axis',(0.,0.,-1.));
#1710=DIRECTION('ref_axis',(-1.,0.,0.));
#1711=DIRECTION('center_axis',(-1.,0.,0.));
#1712=DIRECTION('ref_axis',(0.,1.,0.));
#1713=DIRECTION('',(0.,0.,-1.));
#1714=DIRECTION('',(0.,1.,0.));
#1715=DIRECTION('',(0.,0.,-1.));
#1716=DIRECTION('center_axis',(0.,0.,-1.));
#1717=DIRECTION('ref_axis',(-1.,0.,0.));
#1718=DIRECTION('center_axis',(0.,0.,-1.));
#1719=DIRECTION('ref_axis',(-1.,0.,0.));
#1720=DIRECTION('center_axis',(0.,-1.,0.));
#1721=DIRECTION('ref_axis',(1.,0.,0.));
#1722=DIRECTION('',(0.,0.,1.));
#1723=DIRECTION('',(1.,-1.38777878078145E-16,0.));
#1724=DIRECTION('',(0.,0.,1.));
#1725=DIRECTION('',(1.,0.,0.));
#1726=DIRECTION('center_axis',(0.,-1.,0.));
#1727=DIRECTION('ref_axis',(1.,0.,0.));
#1728=DIRECTION('',(1.,0.,0.));
#1729=DIRECTION('',(0.,0.,1.));
#1730=DIRECTION('',(1.,-1.38777878078145E-16,0.));
#1731=DIRECTION('',(0.,0.,1.));
#1732=DIRECTION('center_axis',(0.,0.,-1.));
#1733=DIRECTION('ref_axis',(1.,0.,0.));
#1734=DIRECTION('',(0.,1.,0.));
#1735=DIRECTION('',(-1.,3.70074341541719E-16,0.));
#1736=DIRECTION('',(-1.38777878078145E-16,-1.,0.));
#1737=DIRECTION('center_axis',(3.70074341541719E-16,1.,0.));
#1738=DIRECTION('ref_axis',(-1.,3.70074341541719E-16,0.));
#1739=DIRECTION('',(0.,0.,1.));
#1740=DIRECTION('',(-1.,0.,0.));
#1741=DIRECTION('',(0.,0.,1.));
#1742=DIRECTION('center_axis',(1.,-3.46944695195361E-16,0.));
#1743=DIRECTION('ref_axis',(3.46944695195361E-16,1.,0.));
#1744=DIRECTION('',(3.46944695195361E-16,1.,0.));
#1745=DIRECTION('center_axis',(-1.,4.16333634234434E-16,0.));
#1746=DIRECTION('ref_axis',(-4.16333634234434E-16,-1.,0.));
#1747=DIRECTION('',(-4.16333634234434E-16,-1.,0.));
#1748=DIRECTION('center_axis',(0.,0.,1.));
#1749=DIRECTION('ref_axis',(1.,0.,0.));
#1750=DIRECTION('',(0.,1.,0.));
#1751=DIRECTION('center_axis',(-1.,1.38777878078145E-16,0.));
#1752=DIRECTION('ref_axis',(-1.38777878078145E-16,-1.,0.));
#1753=DIRECTION('',(-1.38777878078145E-16,-1.,0.));
#1754=DIRECTION('center_axis',(1.,0.,0.));
#1755=DIRECTION('ref_axis',(0.,1.,0.));
#1756=DIRECTION('center_axis',(0.,0.,1.));
#1757=DIRECTION('ref_axis',(1.,0.,0.));
#1758=CARTESIAN_POINT('',(0.,0.,0.));
#1759=CARTESIAN_POINT('Origin',(103.5,15.5,5.5));
#1760=CARTESIAN_POINT('',(103.5,15.5,6.));
#1761=CARTESIAN_POINT('',(103.5,16.,5.5));
#1762=CARTESIAN_POINT('Origin',(103.5,15.5,5.5));
#1763=CARTESIAN_POINT('',(104.,15.5,5.5));
#1764=CARTESIAN_POINT('Origin',(103.5,15.5,5.5));
#1765=CARTESIAN_POINT('Origin',(103.5,15.5,5.5));
#1766=CARTESIAN_POINT('Origin',(103.5,-143.5,5.5));
#1767=CARTESIAN_POINT('',(103.5,-144.,5.5));
#1768=CARTESIAN_POINT('',(103.5,-143.5,6.));
#1769=CARTESIAN_POINT('Origin',(103.5,-143.5,5.5));
#1770=CARTESIAN_POINT('',(104.,-143.5,5.5));
#1771=CARTESIAN_POINT('Origin',(103.5,-143.5,5.5));
#1772=CARTESIAN_POINT('Origin',(103.5,-143.5,5.5));
#1773=CARTESIAN_POINT('Origin',(103.5,-143.5,-1.));
#1774=CARTESIAN_POINT('',(103.5,-144.,-14.));
#1775=CARTESIAN_POINT('',(104.,-143.5,-14.));
#1776=CARTESIAN_POINT('Origin',(103.5,-143.5,-14.));
#1777=CARTESIAN_POINT('',(104.,-143.5,-1.));
#1778=CARTESIAN_POINT('',(103.5,-144.,-1.));
#1779=CARTESIAN_POINT('Origin',(103.5,-104.,5.5));
#1780=CARTESIAN_POINT('',(104.,-104.,5.5));
#1781=CARTESIAN_POINT('',(103.5,-104.,6.));
#1782=CARTESIAN_POINT('Origin',(-16.,-143.5,5.5));
#1783=CARTESIAN_POINT('',(39.,-143.5,6.));
#1784=CARTESIAN_POINT('',(39.,-144.,5.5));
#1785=CARTESIAN_POINT('Origin',(39.,-143.5,5.5));
#1786=CARTESIAN_POINT('',(-16.,-144.,5.5));
#1787=CARTESIAN_POINT('',(-16.,-143.5,6.));
#1788=CARTESIAN_POINT('Origin',(39.,-143.5,1.));
#1789=CARTESIAN_POINT('',(34.,-143.5,1.));
#1790=CARTESIAN_POINT('',(34.5,-144.,1.));
#1791=CARTESIAN_POINT('Origin',(34.5,-143.5,1.));
#1792=CARTESIAN_POINT('Origin',(39.,-144.,1.));
#1793=CARTESIAN_POINT('Origin',(39.,-143.5,1.));
#1794=CARTESIAN_POINT('Origin',(34.5,-143.5,2.5));
#1795=CARTESIAN_POINT('',(34.,-143.5,-14.));
#1796=CARTESIAN_POINT('',(34.5,-144.,-14.));
#1797=CARTESIAN_POINT('Origin',(34.5,-143.5,-14.));
#1798=CARTESIAN_POINT('',(34.5,-144.,2.5));
#1799=CARTESIAN_POINT('',(34.,-143.5,2.5));
#1800=CARTESIAN_POINT('Origin',(103.5,15.5,-1.));
#1801=CARTESIAN_POINT('',(104.,15.5,-14.));
#1802=CARTESIAN_POINT('',(103.5,16.,-14.));
#1803=CARTESIAN_POINT('Origin',(103.5,15.5,-14.));
#1804=CARTESIAN_POINT('',(103.5,16.,-1.));
#1805=CARTESIAN_POINT('',(104.,15.5,-1.));
#1806=CARTESIAN_POINT('Origin',(34.5,15.5,2.5));
#1807=CARTESIAN_POINT('',(34.5,16.,-14.));
#1808=CARTESIAN_POINT('',(34.,15.5,-14.));
#1809=CARTESIAN_POINT('Origin',(34.5,15.5,-14.));
#1810=CARTESIAN_POINT('',(34.,15.5,1.));
#1811=CARTESIAN_POINT('',(34.,15.5,2.5));
#1812=CARTESIAN_POINT('',(34.5,16.,1.));
#1813=CARTESIAN_POINT('Origin',(34.5,15.5,1.));
#1814=CARTESIAN_POINT('',(34.5,16.,2.5));
#1815=CARTESIAN_POINT('Origin',(39.,15.5,1.));
#1816=CARTESIAN_POINT('',(39.,15.5,6.));
#1817=CARTESIAN_POINT('',(39.,16.,5.5));
#1818=CARTESIAN_POINT('Origin',(39.,15.5,5.5));
#1819=CARTESIAN_POINT('Origin',(39.,16.,1.));
#1820=CARTESIAN_POINT('Origin',(39.,15.5,1.));
#1821=CARTESIAN_POINT('Origin',(64.,15.5,5.5));
#1822=CARTESIAN_POINT('',(64.,16.,5.5));
#1823=CARTESIAN_POINT('',(64.,15.5,6.));
#1824=CARTESIAN_POINT('Origin',(-56.,-144.,-1.));
#1825=CARTESIAN_POINT('',(104.,-144.,-14.));
#1826=CARTESIAN_POINT('Origin',(34.,-124.,6.));
#1827=CARTESIAN_POINT('',(34.,-128.,1.));
#1828=CARTESIAN_POINT('',(34.,-94.,1.));
#1829=CARTESIAN_POINT('',(34.,-128.,0.));
#1830=CARTESIAN_POINT('',(34.,-128.,3.));
#1831=CARTESIAN_POINT('',(34.,-124.,0.));
#1832=CARTESIAN_POINT('',(34.,-94.,0.));
#1833=CARTESIAN_POINT('',(34.,-124.,-14.));
#1834=CARTESIAN_POINT('',(34.,-124.,6.));
#1835=CARTESIAN_POINT('',(34.,-94.,-14.));
#1836=CARTESIAN_POINT('Origin',(39.,-94.,1.));
#1837=CARTESIAN_POINT('',(39.,-128.,6.));
#1838=CARTESIAN_POINT('',(39.,-94.,6.));
#1839=CARTESIAN_POINT('Origin',(39.,-128.,1.));
#1840=CARTESIAN_POINT('Origin',(24.,-64.,6.));
#1841=CARTESIAN_POINT('',(39.,-2.08166817117217E-15,6.));
#1842=CARTESIAN_POINT('',(39.,-24.,6.));
#1843=CARTESIAN_POINT('',(88.,-8.88178419700125E-15,6.));
#1844=CARTESIAN_POINT('',(24.,0.,6.));
#1845=CARTESIAN_POINT('',(88.,-128.,6.));
#1846=CARTESIAN_POINT('',(88.,-8.88178419700125E-15,6.));
#1847=CARTESIAN_POINT('',(-40.,-128.,6.));
#1848=CARTESIAN_POINT('Origin',(39.,-24.,1.));
#1849=CARTESIAN_POINT('',(34.,0.,1.));
#1850=CARTESIAN_POINT('',(34.,-24.,1.));
#1851=CARTESIAN_POINT('Origin',(39.,-1.33226762955019E-14,1.));
#1852=CARTESIAN_POINT('Origin',(34.,16.,6.));
#1853=CARTESIAN_POINT('',(34.,-4.00000019633549,-14.));
#1854=CARTESIAN_POINT('',(34.,-24.,-14.));
#1855=CARTESIAN_POINT('',(34.,-4.00000019633549,0.));
#1856=CARTESIAN_POINT('',(34.,-4.00000019633549,6.));
#1857=CARTESIAN_POINT('',(34.,0.,0.));
#1858=CARTESIAN_POINT('',(34.,-24.,0.));
#1859=CARTESIAN_POINT('',(34.,0.,3.));
#1860=CARTESIAN_POINT('Origin',(-55.5,-143.5,5.5));
#1861=CARTESIAN_POINT('',(-56.,-143.5,5.5));
#1862=CARTESIAN_POINT('',(-55.5,-143.5,6.));
#1863=CARTESIAN_POINT('Origin',(-55.5,-143.5,5.5));
#1864=CARTESIAN_POINT('',(-55.5,-144.,5.5));
#1865=CARTESIAN_POINT('Origin',(-55.5,-143.5,5.5));
#1866=CARTESIAN_POINT('Origin',(-55.5000000000001,-143.5,5.5));
#1867=CARTESIAN_POINT('Origin',(-55.5,-143.5,-1.));
#1868=CARTESIAN_POINT('',(-56.,-143.5,-14.));
#1869=CARTESIAN_POINT('',(-55.5,-144.,-14.));
#1870=CARTESIAN_POINT('Origin',(-55.5,-143.5,-14.));
#1871=CARTESIAN_POINT('',(-55.5,-144.,-1.));
#1872=CARTESIAN_POINT('',(-56.,-143.5,-1.));
#1873=CARTESIAN_POINT('Origin',(13.5,-143.5,2.5));
#1874=CARTESIAN_POINT('',(13.5,-144.,-14.));
#1875=CARTESIAN_POINT('',(14.,-143.5,-14.));
#1876=CARTESIAN_POINT('Origin',(13.5,-143.5,-14.));
#1877=CARTESIAN_POINT('',(14.,-143.5,1.));
#1878=CARTESIAN_POINT('',(14.,-143.5,2.5));
#1879=CARTESIAN_POINT('',(13.5,-144.,1.));
#1880=CARTESIAN_POINT('Origin',(13.5,-143.5,1.));
#1881=CARTESIAN_POINT('',(13.5,-144.,2.5));
#1882=CARTESIAN_POINT('Origin',(8.99999999999998,-143.5,1.));
#1883=CARTESIAN_POINT('',(8.99999999999998,-143.5,6.));
#1884=CARTESIAN_POINT('',(8.99999999999998,-144.,5.5));
#1885=CARTESIAN_POINT('Origin',(8.99999999999998,-143.5,5.5));
#1886=CARTESIAN_POINT('Origin',(8.99999999999998,-144.,1.));
#1887=CARTESIAN_POINT('Origin',(8.99999999999998,-143.5,1.));
#1888=CARTESIAN_POINT('Origin',(-16.,-143.5,5.5));
#1889=CARTESIAN_POINT('',(-16.,-144.,5.5));
#1890=CARTESIAN_POINT('',(-16.,-143.5,6.));
#1891=CARTESIAN_POINT('Origin',(-55.5000000000001,15.5,5.5));
#1892=CARTESIAN_POINT('',(-55.5000000000001,16.,5.5));
#1893=CARTESIAN_POINT('',(-55.5000000000001,15.5,6.));
#1894=CARTESIAN_POINT('Origin',(-55.5000000000001,15.5,5.5));
#1895=CARTESIAN_POINT('',(-56.0000000000001,15.5,5.5));
#1896=CARTESIAN_POINT('Origin',(-55.5000000000001,15.5,5.5));
#1897=CARTESIAN_POINT('Origin',(-55.5000000000001,15.5,5.5));
#1898=CARTESIAN_POINT('Origin',(-55.5000000000001,15.5,-1.));
#1899=CARTESIAN_POINT('',(-55.5000000000001,16.,-14.));
#1900=CARTESIAN_POINT('',(-56.0000000000001,15.5,-14.));
#1901=CARTESIAN_POINT('Origin',(-55.5000000000001,15.5,-14.));
#1902=CARTESIAN_POINT('',(-56.0000000000001,15.5,-1.));
#1903=CARTESIAN_POINT('',(-55.5000000000001,16.,-1.));
#1904=CARTESIAN_POINT('Origin',(-55.5000000000001,-24.,5.5));
#1905=CARTESIAN_POINT('',(-55.5000000000001,-78.8252427259923,6.));
#1906=CARTESIAN_POINT('',(-56.0000000000001,-78.8252427259923,5.5));
#1907=CARTESIAN_POINT('Origin',(-55.5000000000001,-78.8252427259923,5.5));
#1908=CARTESIAN_POINT('',(-56.0000000000001,-24.,5.5));
#1909=CARTESIAN_POINT('',(-55.5000000000001,-24.,6.));
#1910=CARTESIAN_POINT('Origin',(-55.5000000000001,-78.8252427259923,16.));
#1911=CARTESIAN_POINT('',(-55.5000000000001,-71.4265368997545,9.27250774085955));
#1912=CARTESIAN_POINT('',(-56.,-71.0566016084426,8.93613312790252));
#1913=CARTESIAN_POINT('Origin',(-55.5000000000001,-71.0566016084426,8.93613312790252));
#1914=CARTESIAN_POINT('Origin',(-56.,-78.8252427259923,16.));
#1915=CARTESIAN_POINT('Origin',(-55.5000000000001,-78.8252427259923,16.));
#1916=CARTESIAN_POINT('Origin',(-55.5000000000001,-64.0278310735167,2.54501548171909));
#1917=CARTESIAN_POINT('',(-55.5000000000001,-56.6291252472789,9.27250774085955));
#1918=CARTESIAN_POINT('',(-56.,-56.9990605385908,8.93613312790253));
#1919=CARTESIAN_POINT('Origin',(-55.5000000000001,-56.9990605385908,8.93613312790253));
#1920=CARTESIAN_POINT('Origin',(-56.,-64.0278310735167,2.54501548171909));
#1921=CARTESIAN_POINT('Origin',(-55.5000000000001,-64.0278310735167,2.54501548171909));
#1922=CARTESIAN_POINT('Origin',(-55.5000000000001,-49.2304194210411,16.));
#1923=CARTESIAN_POINT('',(-55.5000000000001,-49.2304194210411,6.));
#1924=CARTESIAN_POINT('',(-56.0000000000001,-49.2304194210411,5.5));
#1925=CARTESIAN_POINT('Origin',(-55.5000000000001,-49.2304194210411,5.5));
#1926=CARTESIAN_POINT('Origin',(-56.0000000000001,-49.2304194210411,16.));
#1927=CARTESIAN_POINT('Origin',(-55.5000000000001,-49.2304194210411,16.));
#1928=CARTESIAN_POINT('Origin',(-55.5000000000001,-24.,5.5));
#1929=CARTESIAN_POINT('',(-56.0000000000001,-24.,5.5));
#1930=CARTESIAN_POINT('',(-55.5000000000001,-24.,6.));
#1931=CARTESIAN_POINT('Origin',(64.,15.5,5.5));
#1932=CARTESIAN_POINT('',(8.99999999999999,15.5,6.));
#1933=CARTESIAN_POINT('',(8.99999999999999,16.,5.5));
#1934=CARTESIAN_POINT('Origin',(8.99999999999999,15.5,5.5));
#1935=CARTESIAN_POINT('',(64.,16.,5.5));
#1936=CARTESIAN_POINT('',(64.,15.5,6.));
#1937=CARTESIAN_POINT('Origin',(8.99999999999999,15.5,1.));
#1938=CARTESIAN_POINT('',(14.,15.5,1.));
#1939=CARTESIAN_POINT('',(13.5,16.,1.));
#1940=CARTESIAN_POINT('Origin',(13.5,15.5,1.));
#1941=CARTESIAN_POINT('Origin',(8.99999999999999,16.,1.));
#1942=CARTESIAN_POINT('Origin',(8.99999999999999,15.5,1.));
#1943=CARTESIAN_POINT('Origin',(13.5,15.5,2.5));
#1944=CARTESIAN_POINT('',(14.,15.5,-14.));
#1945=CARTESIAN_POINT('',(13.5,16.,-14.));
#1946=CARTESIAN_POINT('Origin',(13.5,15.5,-14.));
#1947=CARTESIAN_POINT('',(13.5,16.,2.5));
#1948=CARTESIAN_POINT('',(14.,15.5,2.5));
#1949=CARTESIAN_POINT('Origin',(-56.,-144.,-1.));
#1950=CARTESIAN_POINT('',(104.,-144.,-14.));
#1951=CARTESIAN_POINT('Origin',(-56.0000000000001,16.,-1.));
#1952=CARTESIAN_POINT('',(-56.,-144.,-14.));
#1953=CARTESIAN_POINT('',(-56.,-60.0448002714445,8.7999999976527));
#1954=CARTESIAN_POINT('',(-56.,-60.477743601609,9.04995994586704));
#1955=CARTESIAN_POINT('',(-56.0000000000001,-29.4062379308891,-8.88918221725004));
#1956=CARTESIAN_POINT('',(-56.,-60.47774360703,9.05012014831485));
#1957=CARTESIAN_POINT('',(-56.,-60.47774360703,9.05012014831485));
#1958=CARTESIAN_POINT('',(-56.,-64.0285171288529,11.0999999976527));
#1959=CARTESIAN_POINT('',(-56.,-64.0285171288529,11.0999999976527));
#1960=CARTESIAN_POINT('',(-56.,-68.0122339862613,8.79999999765269));
#1961=CARTESIAN_POINT('',(-56.0000000000001,-36.6375500514728,26.9141822131423));
#1962=CARTESIAN_POINT('',(-56.,-68.0122339862613,4.19999999765269));
#1963=CARTESIAN_POINT('',(-56.,-68.0122339862613,3.89999999882627));
#1964=CARTESIAN_POINT('',(-56.,-64.0285171288529,1.89999999765269));
#1965=CARTESIAN_POINT('',(-56.0000000000001,-35.3818132170017,-14.63918221725));
#1966=CARTESIAN_POINT('',(-56.,-60.0448002714445,4.1999999976527));
#1967=CARTESIAN_POINT('',(-56.0000000000001,-34.6456916227686,18.8641822131423));
#1968=CARTESIAN_POINT('',(-56.0000000000001,-60.0448002714445,1.59999999882635));
#1969=CARTESIAN_POINT('Origin',(24.,-64.,-14.));
#1970=CARTESIAN_POINT('',(14.,-124.,-14.));
#1971=CARTESIAN_POINT('Origin',(24.,-124.,-14.));
#1972=CARTESIAN_POINT('',(14.,-104.,-14.));
#1973=CARTESIAN_POINT('',(-56.0000000000001,16.,-14.));
#1974=CARTESIAN_POINT('',(14.,-3.99999999999997,-14.));
#1975=CARTESIAN_POINT('',(14.,-34.,-14.));
#1976=CARTESIAN_POINT('Origin',(24.,-3.99999999999997,-14.));
#1977=CARTESIAN_POINT('',(-56.0000000000001,16.,-14.));
#1978=CARTESIAN_POINT('',(104.,16.,-14.));
#1979=CARTESIAN_POINT('Origin',(104.,16.,-1.));
#1980=CARTESIAN_POINT('Origin',(104.,16.,-1.));
#1981=CARTESIAN_POINT('Origin',(-56.,-64.0278310735167,2.54501548171909));
#1982=CARTESIAN_POINT('',(-47.,-71.4265368997545,9.27250774085955));
#1983=CARTESIAN_POINT('',(-56.,-71.4265368997545,9.27250774085955));
#1984=CARTESIAN_POINT('',(-47.,-56.6291252472789,9.27250774085955));
#1985=CARTESIAN_POINT('Origin',(-47.,-64.0278310735167,2.54501548171909));
#1986=CARTESIAN_POINT('',(-56.,-56.6291252472789,9.27250774085955));
#1987=CARTESIAN_POINT('Origin',(-56.,-49.2304194210411,16.));
#1988=CARTESIAN_POINT('',(-47.,-49.2304194210411,6.));
#1989=CARTESIAN_POINT('Origin',(-47.,-49.2304194210411,16.));
#1990=CARTESIAN_POINT('',(-56.,-49.2304194210411,6.));
#1991=CARTESIAN_POINT('Origin',(-47.,-64.0283783921738,10.));
#1992=CARTESIAN_POINT('',(-47.,-78.8252427259923,6.));
#1993=CARTESIAN_POINT('Origin',(-47.,-78.8252427259923,16.));
#1994=CARTESIAN_POINT('',(-47.,-64.0141891960869,6.));
#1995=CARTESIAN_POINT('',(-47.,-62.7785171288529,8.0500002608043));
#1996=CARTESIAN_POINT('Origin',(-47.,-64.0285171288529,8.0500002608043));
#1997=CARTESIAN_POINT('Origin',(-56.,-78.8252427259923,16.));
#1998=CARTESIAN_POINT('',(-56.,-78.8252427259923,6.));
#1999=CARTESIAN_POINT('Origin',(-56.,-64.0285171288529,8.0500002608043));
#2000=CARTESIAN_POINT('',(-51.,-62.7785171288529,8.0500002608043));
#2001=CARTESIAN_POINT('Origin',(-51.,-64.0285171288529,8.0500002608043));
#2002=CARTESIAN_POINT('',(-56.,-62.7785171288529,8.0500002608043));
#2003=CARTESIAN_POINT('Origin',(-51.,-64.0285171288529,6.4999999976527));
#2004=CARTESIAN_POINT('',(-51.,-60.0448002714445,4.1999999976527));
#2005=CARTESIAN_POINT('',(-51.,-60.0448002714445,8.7999999976527));
#2006=CARTESIAN_POINT('',(-51.,-60.0448002714445,8.7999999976527));
#2007=CARTESIAN_POINT('',(-51.,-64.0285171288529,1.89999999765269));
#2008=CARTESIAN_POINT('',(-51.,-60.0448002714445,4.1999999976527));
#2009=CARTESIAN_POINT('',(-51.,-68.0122339862613,4.19999999765269));
#2010=CARTESIAN_POINT('',(-51.,-64.0285171288529,1.89999999765269));
#2011=CARTESIAN_POINT('',(-51.,-68.0122339862613,8.79999999765269));
#2012=CARTESIAN_POINT('',(-51.,-68.0122339862613,9.39999999882634));
#2013=CARTESIAN_POINT('',(-51.,-64.0285171288529,11.0999999976527));
#2014=CARTESIAN_POINT('',(-51.,-64.2666220881307,10.9625300353182));
#2015=CARTESIAN_POINT('',(-51.,-60.47774360703,9.05012014831485));
#2016=CARTESIAN_POINT('',(-51.,-64.0285171288529,11.0999999976527));
#2017=CARTESIAN_POINT('',(-51.,-60.477743601609,9.04995994586704));
#2018=CARTESIAN_POINT('',(-51.,-60.47774360703,9.05012014831485));
#2019=CARTESIAN_POINT('',(-51.,-61.7984496883615,9.81246996057398));
#2020=CARTESIAN_POINT('Origin',(-56.,-60.0448002714445,8.7999999976527));
#2021=CARTESIAN_POINT('',(-56.,-60.0448002714445,8.7999999976527));
#2022=CARTESIAN_POINT('',(-56.,-60.477743601609,9.04995994586704));
#2023=CARTESIAN_POINT('Origin',(-56.,-60.0448002714445,4.1999999976527));
#2024=CARTESIAN_POINT('',(-56.,-60.0448002714445,4.1999999976527));
#2025=CARTESIAN_POINT('Origin',(-56.,-64.0285171288529,1.89999999765269));
#2026=CARTESIAN_POINT('',(-56.,-64.0285171288529,1.89999999765269));
#2027=CARTESIAN_POINT('Origin',(-56.,-68.0122339862613,4.19999999765269));
#2028=CARTESIAN_POINT('',(-56.,-68.0122339862613,4.19999999765269));
#2029=CARTESIAN_POINT('Origin',(-56.,-68.0122339862613,8.79999999765269));
#2030=CARTESIAN_POINT('',(-56.,-68.0122339862613,8.79999999765269));
#2031=CARTESIAN_POINT('Origin',(-56.,-64.0285171288529,11.0999999976527));
#2032=CARTESIAN_POINT('',(-56.,-64.0285171288529,11.0999999976527));
#2033=CARTESIAN_POINT('Origin',(24.,-64.,6.));
#2034=CARTESIAN_POINT('',(8.99999999999998,-128.,6.));
#2035=CARTESIAN_POINT('',(8.99999999999998,-104.,6.));
#2036=CARTESIAN_POINT('',(-40.,-128.,6.));
#2037=CARTESIAN_POINT('',(-40.,-128.,6.));
#2038=CARTESIAN_POINT('',(-40.,0.,6.));
#2039=CARTESIAN_POINT('',(-40.,0.,6.));
#2040=CARTESIAN_POINT('',(8.99999999999999,2.08166817117217E-15,6.));
#2041=CARTESIAN_POINT('',(24.,0.,6.));
#2042=CARTESIAN_POINT('',(8.99999999999999,-34.,6.));
#2043=CARTESIAN_POINT('Origin',(-56.,-60.47774360703,9.05012014831485));
#2044=CARTESIAN_POINT('',(-56.,-60.47774360703,9.05012014831485));
#2045=CARTESIAN_POINT('Origin',(-56.,-64.0285171288529,11.0999999976527));
#2046=CARTESIAN_POINT('Origin',(104.,-144.,-1.));
#2047=CARTESIAN_POINT('Origin',(8.99999999999999,-34.,1.));
#2048=CARTESIAN_POINT('',(14.,0.,1.));
#2049=CARTESIAN_POINT('Origin',(8.99999999999999,0.,1.));
#2050=CARTESIAN_POINT('',(14.,-34.,1.));
#2051=CARTESIAN_POINT('Origin',(14.,-3.99999999999997,6.));
#2052=CARTESIAN_POINT('',(14.,0.,0.));
#2053=CARTESIAN_POINT('',(14.,0.,3.));
#2054=CARTESIAN_POINT('',(14.,-3.99999999999997,0.));
#2055=CARTESIAN_POINT('',(14.,-34.,0.));
#2056=CARTESIAN_POINT('',(14.,-3.99999999999997,6.));
#2057=CARTESIAN_POINT('Origin',(8.99999999999998,-104.,1.));
#2058=CARTESIAN_POINT('',(14.,-128.,1.));
#2059=CARTESIAN_POINT('',(14.,-104.,1.));
#2060=CARTESIAN_POINT('Origin',(8.99999999999998,-128.,1.));
#2061=CARTESIAN_POINT('Origin',(48.,-128.,0.));
#2062=CARTESIAN_POINT('',(88.,-128.,3.));
#2063=CARTESIAN_POINT('',(88.,-128.,3.));
#2064=CARTESIAN_POINT('',(48.,-128.,3.));
#2065=CARTESIAN_POINT('',(-40.,-128.,3.));
#2066=CARTESIAN_POINT('',(48.,-128.,0.));
#2067=CARTESIAN_POINT('',(48.,-128.,0.));
#2068=CARTESIAN_POINT('',(0.,-128.,0.));
#2069=CARTESIAN_POINT('Origin',(24.,-3.99999999999997,6.));
#2070=CARTESIAN_POINT('Origin',(24.,-3.99999999999997,0.));
#2071=CARTESIAN_POINT('Origin',(14.,-144.,6.));
#2072=CARTESIAN_POINT('',(14.,-124.,0.));
#2073=CARTESIAN_POINT('',(14.,-124.,6.));
#2074=CARTESIAN_POINT('',(14.,-128.,0.));
#2075=CARTESIAN_POINT('',(14.,-104.,0.));
#2076=CARTESIAN_POINT('',(14.,-128.,3.));
#2077=CARTESIAN_POINT('Origin',(24.,-124.,6.));
#2078=CARTESIAN_POINT('Origin',(24.,-124.,0.));
#2079=CARTESIAN_POINT('Origin',(0.,0.,0.));
#2080=CARTESIAN_POINT('',(-40.,0.,3.));
#2081=CARTESIAN_POINT('',(-40.,0.,3.));
#2082=CARTESIAN_POINT('',(0.,0.,3.));
#2083=CARTESIAN_POINT('',(24.,0.,3.));
#2084=CARTESIAN_POINT('',(0.,0.,0.));
#2085=CARTESIAN_POINT('',(0.,0.,0.));
#2086=CARTESIAN_POINT('',(0.,0.,0.));
#2087=CARTESIAN_POINT('Origin',(0.,0.,0.));
#2088=CARTESIAN_POINT('',(48.,0.,0.));
#2089=CARTESIAN_POINT('',(0.,0.,0.));
#2090=CARTESIAN_POINT('',(48.,0.,3.));
#2091=CARTESIAN_POINT('',(48.,0.,0.));
#2092=CARTESIAN_POINT('',(88.,-8.88178419700125E-15,3.));
#2093=CARTESIAN_POINT('',(24.,0.,3.));
#2094=CARTESIAN_POINT('',(88.,-8.88178419700125E-15,3.));
#2095=CARTESIAN_POINT('Origin',(24.,-64.,0.));
#2096=CARTESIAN_POINT('',(0.,-128.,0.));
#2097=CARTESIAN_POINT('',(0.,0.,0.));
#2098=CARTESIAN_POINT('',(0.,-128.,0.));
#2099=CARTESIAN_POINT('',(48.,-128.,0.));
#2100=CARTESIAN_POINT('Origin',(48.,-128.,0.));
#2101=CARTESIAN_POINT('',(0.,-128.,3.));
#2102=CARTESIAN_POINT('',(0.,-128.,0.));
#2103=CARTESIAN_POINT('',(-40.,-128.,3.));
#2104=CARTESIAN_POINT('',(-40.,-128.,3.));
#2105=CARTESIAN_POINT('',(-40.,-128.,3.));
#2106=CARTESIAN_POINT('Origin',(-40.,-128.,3.));
#2107=CARTESIAN_POINT('',(-40.,0.,3.));
#2108=CARTESIAN_POINT('Origin',(88.,-8.88178419700125E-15,3.));
#2109=CARTESIAN_POINT('',(88.,-8.88178419700125E-15,3.));
#2110=CARTESIAN_POINT('Origin',(24.,-64.,3.));
#2111=CARTESIAN_POINT('',(0.,0.,3.));
#2112=CARTESIAN_POINT('Origin',(48.,0.,0.));
#2113=CARTESIAN_POINT('',(48.,-128.,3.));
#2114=CARTESIAN_POINT('Origin',(0.,-128.,0.));
#2115=CARTESIAN_POINT('Origin',(24.,-64.,3.));
#2116=UNCERTAINTY_MEASURE_WITH_UNIT(LENGTH_MEASURE(0.01),#2120,
'DISTANCE_ACCURACY_VALUE',
'Maximum model space distance between geometric entities at asserted c
onnectivities');
#2117=UNCERTAINTY_MEASURE_WITH_UNIT(LENGTH_MEASURE(0.01),#2120,
'DISTANCE_ACCURACY_VALUE',
'Maximum model space distance between geometric entities at asserted c
onnectivities');
#2118=(
GEOMETRIC_REPRESENTATION_CONTEXT(3)
GLOBAL_UNCERTAINTY_ASSIGNED_CONTEXT((#2116))
GLOBAL_UNIT_ASSIGNED_CONTEXT((#2120,#2122,#2123))
REPRESENTATION_CONTEXT('','3D')
);
#2119=(
GEOMETRIC_REPRESENTATION_CONTEXT(3)
GLOBAL_UNCERTAINTY_ASSIGNED_CONTEXT((#2117))
GLOBAL_UNIT_ASSIGNED_CONTEXT((#2120,#2122,#2123))
REPRESENTATION_CONTEXT('','3D')
);
#2120=(
LENGTH_UNIT()
NAMED_UNIT(*)
SI_UNIT(.MILLI.,.METRE.)
);
#2121=(
LENGTH_UNIT()
NAMED_UNIT(*)
SI_UNIT($,.METRE.)
);
#2122=(
NAMED_UNIT(*)
PLANE_ANGLE_UNIT()
SI_UNIT($,.RADIAN.)
);
#2123=(
NAMED_UNIT(*)
SI_UNIT($,.STERADIAN.)
SOLID_ANGLE_UNIT()
);
#2124=SHAPE_DEFINITION_REPRESENTATION(#2125,#2126);
#2125=PRODUCT_DEFINITION_SHAPE('',$,#2128);
#2126=SHAPE_REPRESENTATION('',(#1250),#2118);
#2127=PRODUCT_DEFINITION_CONTEXT('part definition',#2132,'design');
#2128=PRODUCT_DEFINITION('Paletka','Paletka v7',#2129,#2127);
#2129=PRODUCT_DEFINITION_FORMATION('',$,#2134);
#2130=PRODUCT_RELATED_PRODUCT_CATEGORY('Paletka v7','Paletka v7',(#2134));
#2131=APPLICATION_PROTOCOL_DEFINITION('international standard',
'automotive_design',2009,#2132);
#2132=APPLICATION_CONTEXT(
'Core Data for Automotive Mechanical Design Process');
#2133=PRODUCT_CONTEXT('part definition',#2132,'mechanical');
#2134=PRODUCT('Paletka','Paletka v7',$,(#2133));
#2135=PRESENTATION_STYLE_ASSIGNMENT((#2137));
#2136=PRESENTATION_STYLE_ASSIGNMENT((#2138));
#2137=SURFACE_STYLE_USAGE(.BOTH.,#2139);
#2138=SURFACE_STYLE_USAGE(.BOTH.,#2140);
#2139=SURFACE_SIDE_STYLE('',(#2141));
#2140=SURFACE_SIDE_STYLE('',(#2142));
#2141=SURFACE_STYLE_FILL_AREA(#2143);
#2142=SURFACE_STYLE_FILL_AREA(#2144);
#2143=FILL_AREA_STYLE('Stal \X2\2014\X0\ satynowa',(#2145));
#2144=FILL_AREA_STYLE('ABS (bia\X2\0142\X0\y)',(#2146));
#2145=FILL_AREA_STYLE_COLOUR('Stal \X2\2014\X0\ satynowa',#2147);
#2146=FILL_AREA_STYLE_COLOUR('ABS (bia\X2\0142\X0\y)',#2148);
#2147=COLOUR_RGB('Stal \X2\2014\X0\ satynowa',0.627450980392157,0.627450980392157,
0.627450980392157);
#2148=COLOUR_RGB('ABS (bia\X2\0142\X0\y)',1.,0.517647058823529,0.);
ENDSEC;
END-ISO-10303-21;
